<?xml version="1.0" encoding="utf-8" standalone="no"?>
<!DOCTYPE svg PUBLIC "-//W3C//DTD SVG 1.1//EN"
  "http://www.w3.org/Graphics/SVG/1.1/DTD/svg11.dtd">
<svg xmlns:xlink="http://www.w3.org/1999/xlink" width="288pt" height="288pt" viewBox="0 0 288 288" xmlns="http://www.w3.org/2000/svg" version="1.1">
 <metadata>
  <rdf:RDF xmlns:dc="http://purl.org/dc/elements/1.1/" xmlns:cc="http://creativecommons.org/ns#" xmlns:rdf="http://www.w3.org/1999/02/22-rdf-syntax-ns#">
   <cc:Work>
    <dc:type rdf:resource="http://purl.org/dc/dcmitype/StillImage"/>
    <dc:date>2025-08-25T16:45:54.279817</dc:date>
    <dc:format>image/svg+xml</dc:format>
    <dc:creator>
     <cc:Agent>
      <dc:title>Matplotlib v3.9.1.post1, https://matplotlib.org/</dc:title>
     </cc:Agent>
    </dc:creator>
   </cc:Work>
  </rdf:RDF>
 </metadata>
 <defs>
  <style type="text/css">*{stroke-linejoin: round; stroke-linecap: butt}</style>
 </defs>
 <g id="figure_1">
  <g id="patch_1">
   <path d="M 0 288 
L 288 288 
L 288 0 
L 0 0 
z
" style="fill: #ffffff"/>
  </g>
  <g id="axes_1">
   <g id="patch_2">
    <path d="M 56.6 243.16 
L 277.2 243.16 
L 277.2 26.88 
L 56.6 26.88 
z
" style="fill: #ffffff"/>
   </g>
   <g id="PolyCollection_1">
    <defs>
     <path id="m8f8ed1f13c" d="M 66.627273 -98.550175 
L 66.627273 -97.507143 
L 69.879361 -100.388837 
L 72.04742 -101.923106 
L 82.887715 -103.939005 
L 93.72801 -105.551648 
L 104.568305 -106.733788 
L 115.4086 -107.902582 
L 126.248894 -108.131621 
L 137.089189 -109.455992 
L 147.929484 -109.675118 
L 158.769779 -109.945533 
L 169.610074 -110.782113 
L 180.450369 -110.956725 
L 191.290663 -111.238646 
L 202.130958 -111.825148 
L 212.971253 -111.746248 
L 223.811548 -112.196404 
L 234.651843 -112.349424 
L 245.492138 -112.815552 
L 256.332432 -112.868676 
L 267.172727 -113.17855 
L 267.172727 -113.574524 
L 267.172727 -113.574524 
L 256.332432 -113.318176 
L 245.492138 -113.299062 
L 234.651843 -113.048007 
L 223.811548 -112.690173 
L 212.971253 -112.327981 
L 202.130958 -112.283686 
L 191.290663 -111.663778 
L 180.450369 -111.470316 
L 169.610074 -111.314452 
L 158.769779 -110.611984 
L 147.929484 -110.497852 
L 137.089189 -109.883003 
L 126.248894 -109.290701 
L 115.4086 -108.594494 
L 104.568305 -107.477641 
L 93.72801 -106.329147 
L 82.887715 -104.990866 
L 72.04742 -102.732639 
L 69.879361 -101.615748 
L 66.627273 -98.550175 
z
" style="stroke: #d2691e; stroke-opacity: 0.3"/>
    </defs>
    <g clip-path="url(#p6c4e976fe5)">
     <use xlink:href="#m8f8ed1f13c" x="0" y="288" style="fill: #d2691e; fill-opacity: 0.3; stroke: #d2691e; stroke-opacity: 0.3"/>
    </g>
   </g>
   <g id="PolyCollection_2">
    <defs>
     <path id="m805d4efcf8" d="M 66.627273 -118.915241 
L 66.627273 -116.548726 
L 69.879361 -135.735872 
L 72.04742 -144.501888 
L 82.887715 -149.783197 
L 93.72801 -150.64753 
L 104.568305 -152.63341 
L 115.4086 -152.845867 
L 126.248894 -154.137514 
L 137.089189 -153.254173 
L 147.929484 -150.80177 
L 158.769779 -149.116013 
L 169.610074 -146.480712 
L 180.450369 -143.06755 
L 191.290663 -143.01255 
L 202.130958 -142.787514 
L 212.971253 -142.314384 
L 223.811548 -141.662051 
L 234.651843 -140.251951 
L 245.492138 -139.639125 
L 256.332432 -139.42121 
L 267.172727 -137.615919 
L 267.172727 -139.519148 
L 267.172727 -139.519148 
L 256.332432 -140.628446 
L 245.492138 -140.802431 
L 234.651843 -141.569471 
L 223.811548 -142.872387 
L 212.971253 -143.464961 
L 202.130958 -144.351368 
L 191.290663 -146.158931 
L 180.450369 -147.325481 
L 169.610074 -149.496668 
L 158.769779 -152.350121 
L 147.929484 -155.340338 
L 137.089189 -157.57948 
L 126.248894 -157.837233 
L 115.4086 -157.895219 
L 104.568305 -155.132095 
L 93.72801 -152.615025 
L 82.887715 -152.797644 
L 72.04742 -147.901249 
L 69.879361 -138.286925 
L 66.627273 -118.915241 
z
" style="stroke: #008000; stroke-opacity: 0.3"/>
    </defs>
    <g clip-path="url(#p6c4e976fe5)">
     <use xlink:href="#m805d4efcf8" x="0" y="288" style="fill: #008000; fill-opacity: 0.3; stroke: #008000; stroke-opacity: 0.3"/>
    </g>
   </g>
   <g id="PolyCollection_3">
    <defs>
     <path id="m1e8328865e" d="M 66.627273 -117.244014 
L 66.627273 -114.655226 
L 69.879361 -134.270377 
L 72.04742 -147.072525 
L 82.887715 -166.924506 
L 93.72801 -176.800418 
L 104.568305 -182.711174 
L 115.4086 -189.081547 
L 126.248894 -191.912898 
L 137.089189 -194.896229 
L 147.929484 -196.621125 
L 158.769779 -198.270533 
L 169.610074 -200.348372 
L 180.450369 -201.216674 
L 191.290663 -202.847058 
L 202.130958 -203.236541 
L 212.971253 -204.540845 
L 223.811548 -205.577098 
L 234.651843 -206.32931 
L 245.492138 -206.545142 
L 256.332432 -207.230026 
L 267.172727 -207.469208 
L 267.172727 -208.008063 
L 267.172727 -208.008063 
L 256.332432 -207.667615 
L 245.492138 -207.269369 
L 234.651843 -206.606239 
L 223.811548 -206.239851 
L 212.971253 -205.180783 
L 202.130958 -204.063183 
L 191.290663 -203.27394 
L 180.450369 -202.419267 
L 169.610074 -201.265351 
L 158.769779 -199.701035 
L 147.929484 -198.130898 
L 137.089189 -196.166924 
L 126.248894 -193.708649 
L 115.4086 -190.648965 
L 104.568305 -185.038292 
L 93.72801 -179.028127 
L 82.887715 -169.44922 
L 72.04742 -149.914883 
L 69.879361 -137.205074 
L 66.627273 -117.244014 
z
" style="stroke: #ff69b4; stroke-opacity: 0.3"/>
    </defs>
    <g clip-path="url(#p6c4e976fe5)">
     <use xlink:href="#m1e8328865e" x="0" y="288" style="fill: #ff69b4; fill-opacity: 0.3; stroke: #ff69b4; stroke-opacity: 0.3"/>
    </g>
   </g>
   <g id="matplotlib.axis_1">
    <g id="xtick_1">
     <g id="line2d_1">
      <defs>
       <path id="m93f5be9876" d="M 0 0 
L 0 3.5 
" style="stroke: #000000; stroke-width: 0.8"/>
      </defs>
      <g>
       <use xlink:href="#m93f5be9876" x="61.207125" y="243.16" style="stroke: #000000; stroke-width: 0.8"/>
      </g>
     </g>
     <g id="text_1">
      <!-- 0.0 -->
      <g transform="translate(53.255563 257.758438) scale(0.1 -0.1)">
       <defs>
        <path id="DejaVuSans-30" d="M 2034 4250 
Q 1547 4250 1301 3770 
Q 1056 3291 1056 2328 
Q 1056 1369 1301 889 
Q 1547 409 2034 409 
Q 2525 409 2770 889 
Q 3016 1369 3016 2328 
Q 3016 3291 2770 3770 
Q 2525 4250 2034 4250 
z
M 2034 4750 
Q 2819 4750 3233 4129 
Q 3647 3509 3647 2328 
Q 3647 1150 3233 529 
Q 2819 -91 2034 -91 
Q 1250 -91 836 529 
Q 422 1150 422 2328 
Q 422 3509 836 4129 
Q 1250 4750 2034 4750 
z
" transform="scale(0.015625)"/>
        <path id="DejaVuSans-2e" d="M 684 794 
L 1344 794 
L 1344 0 
L 684 0 
L 684 794 
z
" transform="scale(0.015625)"/>
       </defs>
       <use xlink:href="#DejaVuSans-30"/>
       <use xlink:href="#DejaVuSans-2e" x="63.623047"/>
       <use xlink:href="#DejaVuSans-30" x="95.410156"/>
      </g>
     </g>
    </g>
    <g id="xtick_2">
     <g id="line2d_2">
      <g>
       <use xlink:href="#m93f5be9876" x="104.568305" y="243.16" style="stroke: #000000; stroke-width: 0.8"/>
      </g>
     </g>
     <g id="text_2">
      <!-- 0.2 -->
      <g transform="translate(96.616742 257.758438) scale(0.1 -0.1)">
       <defs>
        <path id="DejaVuSans-32" d="M 1228 531 
L 3431 531 
L 3431 0 
L 469 0 
L 469 531 
Q 828 903 1448 1529 
Q 2069 2156 2228 2338 
Q 2531 2678 2651 2914 
Q 2772 3150 2772 3378 
Q 2772 3750 2511 3984 
Q 2250 4219 1831 4219 
Q 1534 4219 1204 4116 
Q 875 4013 500 3803 
L 500 4441 
Q 881 4594 1212 4672 
Q 1544 4750 1819 4750 
Q 2544 4750 2975 4387 
Q 3406 4025 3406 3419 
Q 3406 3131 3298 2873 
Q 3191 2616 2906 2266 
Q 2828 2175 2409 1742 
Q 1991 1309 1228 531 
z
" transform="scale(0.015625)"/>
       </defs>
       <use xlink:href="#DejaVuSans-30"/>
       <use xlink:href="#DejaVuSans-2e" x="63.623047"/>
       <use xlink:href="#DejaVuSans-32" x="95.410156"/>
      </g>
     </g>
    </g>
    <g id="xtick_3">
     <g id="line2d_3">
      <g>
       <use xlink:href="#m93f5be9876" x="147.929484" y="243.16" style="stroke: #000000; stroke-width: 0.8"/>
      </g>
     </g>
     <g id="text_3">
      <!-- 0.4 -->
      <g transform="translate(139.977922 257.758438) scale(0.1 -0.1)">
       <defs>
        <path id="DejaVuSans-34" d="M 2419 4116 
L 825 1625 
L 2419 1625 
L 2419 4116 
z
M 2253 4666 
L 3047 4666 
L 3047 1625 
L 3713 1625 
L 3713 1100 
L 3047 1100 
L 3047 0 
L 2419 0 
L 2419 1100 
L 313 1100 
L 313 1709 
L 2253 4666 
z
" transform="scale(0.015625)"/>
       </defs>
       <use xlink:href="#DejaVuSans-30"/>
       <use xlink:href="#DejaVuSans-2e" x="63.623047"/>
       <use xlink:href="#DejaVuSans-34" x="95.410156"/>
      </g>
     </g>
    </g>
    <g id="xtick_4">
     <g id="line2d_4">
      <g>
       <use xlink:href="#m93f5be9876" x="191.290663" y="243.16" style="stroke: #000000; stroke-width: 0.8"/>
      </g>
     </g>
     <g id="text_4">
      <!-- 0.6 -->
      <g transform="translate(183.339101 257.758438) scale(0.1 -0.1)">
       <defs>
        <path id="DejaVuSans-36" d="M 2113 2584 
Q 1688 2584 1439 2293 
Q 1191 2003 1191 1497 
Q 1191 994 1439 701 
Q 1688 409 2113 409 
Q 2538 409 2786 701 
Q 3034 994 3034 1497 
Q 3034 2003 2786 2293 
Q 2538 2584 2113 2584 
z
M 3366 4563 
L 3366 3988 
Q 3128 4100 2886 4159 
Q 2644 4219 2406 4219 
Q 1781 4219 1451 3797 
Q 1122 3375 1075 2522 
Q 1259 2794 1537 2939 
Q 1816 3084 2150 3084 
Q 2853 3084 3261 2657 
Q 3669 2231 3669 1497 
Q 3669 778 3244 343 
Q 2819 -91 2113 -91 
Q 1303 -91 875 529 
Q 447 1150 447 2328 
Q 447 3434 972 4092 
Q 1497 4750 2381 4750 
Q 2619 4750 2861 4703 
Q 3103 4656 3366 4563 
z
" transform="scale(0.015625)"/>
       </defs>
       <use xlink:href="#DejaVuSans-30"/>
       <use xlink:href="#DejaVuSans-2e" x="63.623047"/>
       <use xlink:href="#DejaVuSans-36" x="95.410156"/>
      </g>
     </g>
    </g>
    <g id="xtick_5">
     <g id="line2d_5">
      <g>
       <use xlink:href="#m93f5be9876" x="234.651843" y="243.16" style="stroke: #000000; stroke-width: 0.8"/>
      </g>
     </g>
     <g id="text_5">
      <!-- 0.8 -->
      <g transform="translate(226.70028 257.758438) scale(0.1 -0.1)">
       <defs>
        <path id="DejaVuSans-38" d="M 2034 2216 
Q 1584 2216 1326 1975 
Q 1069 1734 1069 1313 
Q 1069 891 1326 650 
Q 1584 409 2034 409 
Q 2484 409 2743 651 
Q 3003 894 3003 1313 
Q 3003 1734 2745 1975 
Q 2488 2216 2034 2216 
z
M 1403 2484 
Q 997 2584 770 2862 
Q 544 3141 544 3541 
Q 544 4100 942 4425 
Q 1341 4750 2034 4750 
Q 2731 4750 3128 4425 
Q 3525 4100 3525 3541 
Q 3525 3141 3298 2862 
Q 3072 2584 2669 2484 
Q 3125 2378 3379 2068 
Q 3634 1759 3634 1313 
Q 3634 634 3220 271 
Q 2806 -91 2034 -91 
Q 1263 -91 848 271 
Q 434 634 434 1313 
Q 434 1759 690 2068 
Q 947 2378 1403 2484 
z
M 1172 3481 
Q 1172 3119 1398 2916 
Q 1625 2713 2034 2713 
Q 2441 2713 2670 2916 
Q 2900 3119 2900 3481 
Q 2900 3844 2670 4047 
Q 2441 4250 2034 4250 
Q 1625 4250 1398 4047 
Q 1172 3844 1172 3481 
z
" transform="scale(0.015625)"/>
       </defs>
       <use xlink:href="#DejaVuSans-30"/>
       <use xlink:href="#DejaVuSans-2e" x="63.623047"/>
       <use xlink:href="#DejaVuSans-38" x="95.410156"/>
      </g>
     </g>
    </g>
    <g id="text_6">
     <!-- Fraction of image seen by encoder -->
     <g transform="translate(62.8375 272.95625) scale(0.12 -0.12)">
      <defs>
       <path id="DejaVuSans-46" d="M 628 4666 
L 3309 4666 
L 3309 4134 
L 1259 4134 
L 1259 2759 
L 3109 2759 
L 3109 2228 
L 1259 2228 
L 1259 0 
L 628 0 
L 628 4666 
z
" transform="scale(0.015625)"/>
       <path id="DejaVuSans-72" d="M 2631 2963 
Q 2534 3019 2420 3045 
Q 2306 3072 2169 3072 
Q 1681 3072 1420 2755 
Q 1159 2438 1159 1844 
L 1159 0 
L 581 0 
L 581 3500 
L 1159 3500 
L 1159 2956 
Q 1341 3275 1631 3429 
Q 1922 3584 2338 3584 
Q 2397 3584 2469 3576 
Q 2541 3569 2628 3553 
L 2631 2963 
z
" transform="scale(0.015625)"/>
       <path id="DejaVuSans-61" d="M 2194 1759 
Q 1497 1759 1228 1600 
Q 959 1441 959 1056 
Q 959 750 1161 570 
Q 1363 391 1709 391 
Q 2188 391 2477 730 
Q 2766 1069 2766 1631 
L 2766 1759 
L 2194 1759 
z
M 3341 1997 
L 3341 0 
L 2766 0 
L 2766 531 
Q 2569 213 2275 61 
Q 1981 -91 1556 -91 
Q 1019 -91 701 211 
Q 384 513 384 1019 
Q 384 1609 779 1909 
Q 1175 2209 1959 2209 
L 2766 2209 
L 2766 2266 
Q 2766 2663 2505 2880 
Q 2244 3097 1772 3097 
Q 1472 3097 1187 3025 
Q 903 2953 641 2809 
L 641 3341 
Q 956 3463 1253 3523 
Q 1550 3584 1831 3584 
Q 2591 3584 2966 3190 
Q 3341 2797 3341 1997 
z
" transform="scale(0.015625)"/>
       <path id="DejaVuSans-63" d="M 3122 3366 
L 3122 2828 
Q 2878 2963 2633 3030 
Q 2388 3097 2138 3097 
Q 1578 3097 1268 2742 
Q 959 2388 959 1747 
Q 959 1106 1268 751 
Q 1578 397 2138 397 
Q 2388 397 2633 464 
Q 2878 531 3122 666 
L 3122 134 
Q 2881 22 2623 -34 
Q 2366 -91 2075 -91 
Q 1284 -91 818 406 
Q 353 903 353 1747 
Q 353 2603 823 3093 
Q 1294 3584 2113 3584 
Q 2378 3584 2631 3529 
Q 2884 3475 3122 3366 
z
" transform="scale(0.015625)"/>
       <path id="DejaVuSans-74" d="M 1172 4494 
L 1172 3500 
L 2356 3500 
L 2356 3053 
L 1172 3053 
L 1172 1153 
Q 1172 725 1289 603 
Q 1406 481 1766 481 
L 2356 481 
L 2356 0 
L 1766 0 
Q 1100 0 847 248 
Q 594 497 594 1153 
L 594 3053 
L 172 3053 
L 172 3500 
L 594 3500 
L 594 4494 
L 1172 4494 
z
" transform="scale(0.015625)"/>
       <path id="DejaVuSans-69" d="M 603 3500 
L 1178 3500 
L 1178 0 
L 603 0 
L 603 3500 
z
M 603 4863 
L 1178 4863 
L 1178 4134 
L 603 4134 
L 603 4863 
z
" transform="scale(0.015625)"/>
       <path id="DejaVuSans-6f" d="M 1959 3097 
Q 1497 3097 1228 2736 
Q 959 2375 959 1747 
Q 959 1119 1226 758 
Q 1494 397 1959 397 
Q 2419 397 2687 759 
Q 2956 1122 2956 1747 
Q 2956 2369 2687 2733 
Q 2419 3097 1959 3097 
z
M 1959 3584 
Q 2709 3584 3137 3096 
Q 3566 2609 3566 1747 
Q 3566 888 3137 398 
Q 2709 -91 1959 -91 
Q 1206 -91 779 398 
Q 353 888 353 1747 
Q 353 2609 779 3096 
Q 1206 3584 1959 3584 
z
" transform="scale(0.015625)"/>
       <path id="DejaVuSans-6e" d="M 3513 2113 
L 3513 0 
L 2938 0 
L 2938 2094 
Q 2938 2591 2744 2837 
Q 2550 3084 2163 3084 
Q 1697 3084 1428 2787 
Q 1159 2491 1159 1978 
L 1159 0 
L 581 0 
L 581 3500 
L 1159 3500 
L 1159 2956 
Q 1366 3272 1645 3428 
Q 1925 3584 2291 3584 
Q 2894 3584 3203 3211 
Q 3513 2838 3513 2113 
z
" transform="scale(0.015625)"/>
       <path id="DejaVuSans-20" transform="scale(0.015625)"/>
       <path id="DejaVuSans-66" d="M 2375 4863 
L 2375 4384 
L 1825 4384 
Q 1516 4384 1395 4259 
Q 1275 4134 1275 3809 
L 1275 3500 
L 2222 3500 
L 2222 3053 
L 1275 3053 
L 1275 0 
L 697 0 
L 697 3053 
L 147 3053 
L 147 3500 
L 697 3500 
L 697 3744 
Q 697 4328 969 4595 
Q 1241 4863 1831 4863 
L 2375 4863 
z
" transform="scale(0.015625)"/>
       <path id="DejaVuSans-6d" d="M 3328 2828 
Q 3544 3216 3844 3400 
Q 4144 3584 4550 3584 
Q 5097 3584 5394 3201 
Q 5691 2819 5691 2113 
L 5691 0 
L 5113 0 
L 5113 2094 
Q 5113 2597 4934 2840 
Q 4756 3084 4391 3084 
Q 3944 3084 3684 2787 
Q 3425 2491 3425 1978 
L 3425 0 
L 2847 0 
L 2847 2094 
Q 2847 2600 2669 2842 
Q 2491 3084 2119 3084 
Q 1678 3084 1418 2786 
Q 1159 2488 1159 1978 
L 1159 0 
L 581 0 
L 581 3500 
L 1159 3500 
L 1159 2956 
Q 1356 3278 1631 3431 
Q 1906 3584 2284 3584 
Q 2666 3584 2933 3390 
Q 3200 3197 3328 2828 
z
" transform="scale(0.015625)"/>
       <path id="DejaVuSans-67" d="M 2906 1791 
Q 2906 2416 2648 2759 
Q 2391 3103 1925 3103 
Q 1463 3103 1205 2759 
Q 947 2416 947 1791 
Q 947 1169 1205 825 
Q 1463 481 1925 481 
Q 2391 481 2648 825 
Q 2906 1169 2906 1791 
z
M 3481 434 
Q 3481 -459 3084 -895 
Q 2688 -1331 1869 -1331 
Q 1566 -1331 1297 -1286 
Q 1028 -1241 775 -1147 
L 775 -588 
Q 1028 -725 1275 -790 
Q 1522 -856 1778 -856 
Q 2344 -856 2625 -561 
Q 2906 -266 2906 331 
L 2906 616 
Q 2728 306 2450 153 
Q 2172 0 1784 0 
Q 1141 0 747 490 
Q 353 981 353 1791 
Q 353 2603 747 3093 
Q 1141 3584 1784 3584 
Q 2172 3584 2450 3431 
Q 2728 3278 2906 2969 
L 2906 3500 
L 3481 3500 
L 3481 434 
z
" transform="scale(0.015625)"/>
       <path id="DejaVuSans-65" d="M 3597 1894 
L 3597 1613 
L 953 1613 
Q 991 1019 1311 708 
Q 1631 397 2203 397 
Q 2534 397 2845 478 
Q 3156 559 3463 722 
L 3463 178 
Q 3153 47 2828 -22 
Q 2503 -91 2169 -91 
Q 1331 -91 842 396 
Q 353 884 353 1716 
Q 353 2575 817 3079 
Q 1281 3584 2069 3584 
Q 2775 3584 3186 3129 
Q 3597 2675 3597 1894 
z
M 3022 2063 
Q 3016 2534 2758 2815 
Q 2500 3097 2075 3097 
Q 1594 3097 1305 2825 
Q 1016 2553 972 2059 
L 3022 2063 
z
" transform="scale(0.015625)"/>
       <path id="DejaVuSans-73" d="M 2834 3397 
L 2834 2853 
Q 2591 2978 2328 3040 
Q 2066 3103 1784 3103 
Q 1356 3103 1142 2972 
Q 928 2841 928 2578 
Q 928 2378 1081 2264 
Q 1234 2150 1697 2047 
L 1894 2003 
Q 2506 1872 2764 1633 
Q 3022 1394 3022 966 
Q 3022 478 2636 193 
Q 2250 -91 1575 -91 
Q 1294 -91 989 -36 
Q 684 19 347 128 
L 347 722 
Q 666 556 975 473 
Q 1284 391 1588 391 
Q 1994 391 2212 530 
Q 2431 669 2431 922 
Q 2431 1156 2273 1281 
Q 2116 1406 1581 1522 
L 1381 1569 
Q 847 1681 609 1914 
Q 372 2147 372 2553 
Q 372 3047 722 3315 
Q 1072 3584 1716 3584 
Q 2034 3584 2315 3537 
Q 2597 3491 2834 3397 
z
" transform="scale(0.015625)"/>
       <path id="DejaVuSans-62" d="M 3116 1747 
Q 3116 2381 2855 2742 
Q 2594 3103 2138 3103 
Q 1681 3103 1420 2742 
Q 1159 2381 1159 1747 
Q 1159 1113 1420 752 
Q 1681 391 2138 391 
Q 2594 391 2855 752 
Q 3116 1113 3116 1747 
z
M 1159 2969 
Q 1341 3281 1617 3432 
Q 1894 3584 2278 3584 
Q 2916 3584 3314 3078 
Q 3713 2572 3713 1747 
Q 3713 922 3314 415 
Q 2916 -91 2278 -91 
Q 1894 -91 1617 61 
Q 1341 213 1159 525 
L 1159 0 
L 581 0 
L 581 4863 
L 1159 4863 
L 1159 2969 
z
" transform="scale(0.015625)"/>
       <path id="DejaVuSans-79" d="M 2059 -325 
Q 1816 -950 1584 -1140 
Q 1353 -1331 966 -1331 
L 506 -1331 
L 506 -850 
L 844 -850 
Q 1081 -850 1212 -737 
Q 1344 -625 1503 -206 
L 1606 56 
L 191 3500 
L 800 3500 
L 1894 763 
L 2988 3500 
L 3597 3500 
L 2059 -325 
z
" transform="scale(0.015625)"/>
       <path id="DejaVuSans-64" d="M 2906 2969 
L 2906 4863 
L 3481 4863 
L 3481 0 
L 2906 0 
L 2906 525 
Q 2725 213 2448 61 
Q 2172 -91 1784 -91 
Q 1150 -91 751 415 
Q 353 922 353 1747 
Q 353 2572 751 3078 
Q 1150 3584 1784 3584 
Q 2172 3584 2448 3432 
Q 2725 3281 2906 2969 
z
M 947 1747 
Q 947 1113 1208 752 
Q 1469 391 1925 391 
Q 2381 391 2643 752 
Q 2906 1113 2906 1747 
Q 2906 2381 2643 2742 
Q 2381 3103 1925 3103 
Q 1469 3103 1208 2742 
Q 947 2381 947 1747 
z
" transform="scale(0.015625)"/>
      </defs>
      <use xlink:href="#DejaVuSans-46"/>
      <use xlink:href="#DejaVuSans-72" x="50.269531"/>
      <use xlink:href="#DejaVuSans-61" x="91.382812"/>
      <use xlink:href="#DejaVuSans-63" x="152.662109"/>
      <use xlink:href="#DejaVuSans-74" x="207.642578"/>
      <use xlink:href="#DejaVuSans-69" x="246.851562"/>
      <use xlink:href="#DejaVuSans-6f" x="274.634766"/>
      <use xlink:href="#DejaVuSans-6e" x="335.816406"/>
      <use xlink:href="#DejaVuSans-20" x="399.195312"/>
      <use xlink:href="#DejaVuSans-6f" x="430.982422"/>
      <use xlink:href="#DejaVuSans-66" x="492.164062"/>
      <use xlink:href="#DejaVuSans-20" x="527.369141"/>
      <use xlink:href="#DejaVuSans-69" x="559.15625"/>
      <use xlink:href="#DejaVuSans-6d" x="586.939453"/>
      <use xlink:href="#DejaVuSans-61" x="684.351562"/>
      <use xlink:href="#DejaVuSans-67" x="745.630859"/>
      <use xlink:href="#DejaVuSans-65" x="809.107422"/>
      <use xlink:href="#DejaVuSans-20" x="870.630859"/>
      <use xlink:href="#DejaVuSans-73" x="902.417969"/>
      <use xlink:href="#DejaVuSans-65" x="954.517578"/>
      <use xlink:href="#DejaVuSans-65" x="1016.041016"/>
      <use xlink:href="#DejaVuSans-6e" x="1077.564453"/>
      <use xlink:href="#DejaVuSans-20" x="1140.943359"/>
      <use xlink:href="#DejaVuSans-62" x="1172.730469"/>
      <use xlink:href="#DejaVuSans-79" x="1236.207031"/>
      <use xlink:href="#DejaVuSans-20" x="1295.386719"/>
      <use xlink:href="#DejaVuSans-65" x="1327.173828"/>
      <use xlink:href="#DejaVuSans-6e" x="1388.697266"/>
      <use xlink:href="#DejaVuSans-63" x="1452.076172"/>
      <use xlink:href="#DejaVuSans-6f" x="1507.056641"/>
      <use xlink:href="#DejaVuSans-64" x="1568.238281"/>
      <use xlink:href="#DejaVuSans-65" x="1631.714844"/>
      <use xlink:href="#DejaVuSans-72" x="1693.238281"/>
     </g>
    </g>
   </g>
   <g id="matplotlib.axis_2">
    <g id="ytick_1">
     <g id="line2d_6">
      <defs>
       <path id="mb5d2332902" d="M 0 0 
L -3.5 0 
" style="stroke: #000000; stroke-width: 0.8"/>
      </defs>
      <g>
       <use xlink:href="#mb5d2332902" x="56.6" y="243.16" style="stroke: #000000; stroke-width: 0.8"/>
      </g>
     </g>
     <g id="text_7">
      <!-- 0.0 -->
      <g transform="translate(33.696875 246.959219) scale(0.1 -0.1)">
       <use xlink:href="#DejaVuSans-30"/>
       <use xlink:href="#DejaVuSans-2e" x="63.623047"/>
       <use xlink:href="#DejaVuSans-30" x="95.410156"/>
      </g>
     </g>
    </g>
    <g id="ytick_2">
     <g id="line2d_7">
      <g>
       <use xlink:href="#mb5d2332902" x="56.6" y="199.904" style="stroke: #000000; stroke-width: 0.8"/>
      </g>
     </g>
     <g id="text_8">
      <!-- 0.2 -->
      <g transform="translate(33.696875 203.703219) scale(0.1 -0.1)">
       <use xlink:href="#DejaVuSans-30"/>
       <use xlink:href="#DejaVuSans-2e" x="63.623047"/>
       <use xlink:href="#DejaVuSans-32" x="95.410156"/>
      </g>
     </g>
    </g>
    <g id="ytick_3">
     <g id="line2d_8">
      <g>
       <use xlink:href="#mb5d2332902" x="56.6" y="156.648" style="stroke: #000000; stroke-width: 0.8"/>
      </g>
     </g>
     <g id="text_9">
      <!-- 0.4 -->
      <g transform="translate(33.696875 160.447219) scale(0.1 -0.1)">
       <use xlink:href="#DejaVuSans-30"/>
       <use xlink:href="#DejaVuSans-2e" x="63.623047"/>
       <use xlink:href="#DejaVuSans-34" x="95.410156"/>
      </g>
     </g>
    </g>
    <g id="ytick_4">
     <g id="line2d_9">
      <g>
       <use xlink:href="#mb5d2332902" x="56.6" y="113.392" style="stroke: #000000; stroke-width: 0.8"/>
      </g>
     </g>
     <g id="text_10">
      <!-- 0.6 -->
      <g transform="translate(33.696875 117.191219) scale(0.1 -0.1)">
       <use xlink:href="#DejaVuSans-30"/>
       <use xlink:href="#DejaVuSans-2e" x="63.623047"/>
       <use xlink:href="#DejaVuSans-36" x="95.410156"/>
      </g>
     </g>
    </g>
    <g id="ytick_5">
     <g id="line2d_10">
      <g>
       <use xlink:href="#mb5d2332902" x="56.6" y="70.136" style="stroke: #000000; stroke-width: 0.8"/>
      </g>
     </g>
     <g id="text_11">
      <!-- 0.8 -->
      <g transform="translate(33.696875 73.935219) scale(0.1 -0.1)">
       <use xlink:href="#DejaVuSans-30"/>
       <use xlink:href="#DejaVuSans-2e" x="63.623047"/>
       <use xlink:href="#DejaVuSans-38" x="95.410156"/>
      </g>
     </g>
    </g>
    <g id="ytick_6">
     <g id="line2d_11">
      <g>
       <use xlink:href="#mb5d2332902" x="56.6" y="26.88" style="stroke: #000000; stroke-width: 0.8"/>
      </g>
     </g>
     <g id="text_12">
      <!-- 1.0 -->
      <g transform="translate(33.696875 30.679219) scale(0.1 -0.1)">
       <defs>
        <path id="DejaVuSans-31" d="M 794 531 
L 1825 531 
L 1825 4091 
L 703 3866 
L 703 4441 
L 1819 4666 
L 2450 4666 
L 2450 531 
L 3481 531 
L 3481 0 
L 794 0 
L 794 531 
z
" transform="scale(0.015625)"/>
       </defs>
       <use xlink:href="#DejaVuSans-31"/>
       <use xlink:href="#DejaVuSans-2e" x="63.623047"/>
       <use xlink:href="#DejaVuSans-30" x="95.410156"/>
      </g>
     </g>
    </g>
    <g id="text_13">
     <!-- Classification accuracy -->
     <g transform="translate(21.20125 203.6975) rotate(-90) scale(0.12 -0.12)">
      <defs>
       <path id="DejaVuSans-43" d="M 4122 4306 
L 4122 3641 
Q 3803 3938 3442 4084 
Q 3081 4231 2675 4231 
Q 1875 4231 1450 3742 
Q 1025 3253 1025 2328 
Q 1025 1406 1450 917 
Q 1875 428 2675 428 
Q 3081 428 3442 575 
Q 3803 722 4122 1019 
L 4122 359 
Q 3791 134 3420 21 
Q 3050 -91 2638 -91 
Q 1578 -91 968 557 
Q 359 1206 359 2328 
Q 359 3453 968 4101 
Q 1578 4750 2638 4750 
Q 3056 4750 3426 4639 
Q 3797 4528 4122 4306 
z
" transform="scale(0.015625)"/>
       <path id="DejaVuSans-6c" d="M 603 4863 
L 1178 4863 
L 1178 0 
L 603 0 
L 603 4863 
z
" transform="scale(0.015625)"/>
       <path id="DejaVuSans-75" d="M 544 1381 
L 544 3500 
L 1119 3500 
L 1119 1403 
Q 1119 906 1312 657 
Q 1506 409 1894 409 
Q 2359 409 2629 706 
Q 2900 1003 2900 1516 
L 2900 3500 
L 3475 3500 
L 3475 0 
L 2900 0 
L 2900 538 
Q 2691 219 2414 64 
Q 2138 -91 1772 -91 
Q 1169 -91 856 284 
Q 544 659 544 1381 
z
M 1991 3584 
L 1991 3584 
z
" transform="scale(0.015625)"/>
      </defs>
      <use xlink:href="#DejaVuSans-43"/>
      <use xlink:href="#DejaVuSans-6c" x="69.824219"/>
      <use xlink:href="#DejaVuSans-61" x="97.607422"/>
      <use xlink:href="#DejaVuSans-73" x="158.886719"/>
      <use xlink:href="#DejaVuSans-73" x="210.986328"/>
      <use xlink:href="#DejaVuSans-69" x="263.085938"/>
      <use xlink:href="#DejaVuSans-66" x="290.869141"/>
      <use xlink:href="#DejaVuSans-69" x="326.074219"/>
      <use xlink:href="#DejaVuSans-63" x="353.857422"/>
      <use xlink:href="#DejaVuSans-61" x="408.837891"/>
      <use xlink:href="#DejaVuSans-74" x="470.117188"/>
      <use xlink:href="#DejaVuSans-69" x="509.326172"/>
      <use xlink:href="#DejaVuSans-6f" x="537.109375"/>
      <use xlink:href="#DejaVuSans-6e" x="598.291016"/>
      <use xlink:href="#DejaVuSans-20" x="661.669922"/>
      <use xlink:href="#DejaVuSans-61" x="693.457031"/>
      <use xlink:href="#DejaVuSans-63" x="754.736328"/>
      <use xlink:href="#DejaVuSans-63" x="809.716797"/>
      <use xlink:href="#DejaVuSans-75" x="864.697266"/>
      <use xlink:href="#DejaVuSans-72" x="928.076172"/>
      <use xlink:href="#DejaVuSans-61" x="969.189453"/>
      <use xlink:href="#DejaVuSans-63" x="1030.46875"/>
      <use xlink:href="#DejaVuSans-79" x="1085.449219"/>
     </g>
    </g>
   </g>
   <g id="line2d_12">
    <path d="M 66.627273 189.971341 
L 69.879361 186.997707 
L 72.04742 185.672127 
L 82.887715 183.535064 
L 93.72801 182.059602 
L 104.568305 180.894286 
L 115.4086 179.751462 
L 126.248894 179.288839 
L 137.089189 178.330503 
L 147.929484 177.913515 
L 158.769779 177.721242 
L 169.610074 176.951718 
L 180.450369 176.78648 
L 191.290663 176.548788 
L 202.130958 175.945583 
L 212.971253 175.962885 
L 223.811548 175.556712 
L 234.651843 175.301285 
L 245.492138 174.942693 
L 256.332432 174.906574 
L 267.172727 174.623463 
" clip-path="url(#p6c4e976fe5)" style="fill: none; stroke: #d2691e; stroke-width: 1.5; stroke-linecap: square"/>
   </g>
   <g id="line2d_13">
    <path d="M 66.627273 170.268017 
L 69.879361 150.988601 
L 72.04742 141.798431 
L 82.887715 136.709579 
L 93.72801 136.368722 
L 104.568305 134.117247 
L 115.4086 132.629457 
L 126.248894 132.012627 
L 137.089189 132.583173 
L 147.929484 134.928946 
L 158.769779 137.266933 
L 169.610074 140.01131 
L 180.450369 142.803485 
L 191.290663 143.414259 
L 202.130958 144.430559 
L 212.971253 145.110327 
L 223.811548 145.732781 
L 234.651843 147.089289 
L 245.492138 147.779222 
L 256.332432 147.975172 
L 267.172727 149.432467 
" clip-path="url(#p6c4e976fe5)" style="fill: none; stroke: #008000; stroke-width: 1.5; stroke-linecap: square"/>
   </g>
   <g id="line2d_14">
    <path d="M 66.627273 172.05038 
L 69.879361 152.262274 
L 72.04742 139.506296 
L 82.887715 119.813137 
L 93.72801 110.085728 
L 104.568305 104.125267 
L 115.4086 98.134744 
L 126.248894 95.189226 
L 137.089189 92.468424 
L 147.929484 90.623988 
L 158.769779 89.014216 
L 169.610074 87.193138 
L 180.450369 86.182029 
L 191.290663 84.939501 
L 202.130958 84.350138 
L 212.971253 83.139186 
L 223.811548 82.091526 
L 234.651843 81.532226 
L 245.492138 81.092745 
L 256.332432 80.55118 
L 267.172727 80.261364 
" clip-path="url(#p6c4e976fe5)" style="fill: none; stroke: #ff69b4; stroke-width: 1.5; stroke-linecap: square"/>
   </g>
   <g id="patch_3">
    <path d="M 56.6 243.16 
L 56.6 26.88 
" style="fill: none; stroke: #000000; stroke-width: 0.8; stroke-linejoin: miter; stroke-linecap: square"/>
   </g>
   <g id="patch_4">
    <path d="M 277.2 243.16 
L 277.2 26.88 
" style="fill: none; stroke: #000000; stroke-width: 0.8; stroke-linejoin: miter; stroke-linecap: square"/>
   </g>
   <g id="patch_5">
    <path d="M 56.6 243.16 
L 277.2 243.16 
" style="fill: none; stroke: #000000; stroke-width: 0.8; stroke-linejoin: miter; stroke-linecap: square"/>
   </g>
   <g id="patch_6">
    <path d="M 56.6 26.88 
L 277.2 26.88 
" style="fill: none; stroke: #000000; stroke-width: 0.8; stroke-linejoin: miter; stroke-linecap: square"/>
   </g>
   <g id="text_14">
    <!-- Single encoder random patches masking -->
    <g transform="translate(43.966563 20.88) scale(0.12 -0.12)">
     <defs>
      <path id="DejaVuSans-53" d="M 3425 4513 
L 3425 3897 
Q 3066 4069 2747 4153 
Q 2428 4238 2131 4238 
Q 1616 4238 1336 4038 
Q 1056 3838 1056 3469 
Q 1056 3159 1242 3001 
Q 1428 2844 1947 2747 
L 2328 2669 
Q 3034 2534 3370 2195 
Q 3706 1856 3706 1288 
Q 3706 609 3251 259 
Q 2797 -91 1919 -91 
Q 1588 -91 1214 -16 
Q 841 59 441 206 
L 441 856 
Q 825 641 1194 531 
Q 1563 422 1919 422 
Q 2459 422 2753 634 
Q 3047 847 3047 1241 
Q 3047 1584 2836 1778 
Q 2625 1972 2144 2069 
L 1759 2144 
Q 1053 2284 737 2584 
Q 422 2884 422 3419 
Q 422 4038 858 4394 
Q 1294 4750 2059 4750 
Q 2388 4750 2728 4690 
Q 3069 4631 3425 4513 
z
" transform="scale(0.015625)"/>
      <path id="DejaVuSans-70" d="M 1159 525 
L 1159 -1331 
L 581 -1331 
L 581 3500 
L 1159 3500 
L 1159 2969 
Q 1341 3281 1617 3432 
Q 1894 3584 2278 3584 
Q 2916 3584 3314 3078 
Q 3713 2572 3713 1747 
Q 3713 922 3314 415 
Q 2916 -91 2278 -91 
Q 1894 -91 1617 61 
Q 1341 213 1159 525 
z
M 3116 1747 
Q 3116 2381 2855 2742 
Q 2594 3103 2138 3103 
Q 1681 3103 1420 2742 
Q 1159 2381 1159 1747 
Q 1159 1113 1420 752 
Q 1681 391 2138 391 
Q 2594 391 2855 752 
Q 3116 1113 3116 1747 
z
" transform="scale(0.015625)"/>
      <path id="DejaVuSans-68" d="M 3513 2113 
L 3513 0 
L 2938 0 
L 2938 2094 
Q 2938 2591 2744 2837 
Q 2550 3084 2163 3084 
Q 1697 3084 1428 2787 
Q 1159 2491 1159 1978 
L 1159 0 
L 581 0 
L 581 4863 
L 1159 4863 
L 1159 2956 
Q 1366 3272 1645 3428 
Q 1925 3584 2291 3584 
Q 2894 3584 3203 3211 
Q 3513 2838 3513 2113 
z
" transform="scale(0.015625)"/>
      <path id="DejaVuSans-6b" d="M 581 4863 
L 1159 4863 
L 1159 1991 
L 2875 3500 
L 3609 3500 
L 1753 1863 
L 3688 0 
L 2938 0 
L 1159 1709 
L 1159 0 
L 581 0 
L 581 4863 
z
" transform="scale(0.015625)"/>
     </defs>
     <use xlink:href="#DejaVuSans-53"/>
     <use xlink:href="#DejaVuSans-69" x="63.476562"/>
     <use xlink:href="#DejaVuSans-6e" x="91.259766"/>
     <use xlink:href="#DejaVuSans-67" x="154.638672"/>
     <use xlink:href="#DejaVuSans-6c" x="218.115234"/>
     <use xlink:href="#DejaVuSans-65" x="245.898438"/>
     <use xlink:href="#DejaVuSans-20" x="307.421875"/>
     <use xlink:href="#DejaVuSans-65" x="339.208984"/>
     <use xlink:href="#DejaVuSans-6e" x="400.732422"/>
     <use xlink:href="#DejaVuSans-63" x="464.111328"/>
     <use xlink:href="#DejaVuSans-6f" x="519.091797"/>
     <use xlink:href="#DejaVuSans-64" x="580.273438"/>
     <use xlink:href="#DejaVuSans-65" x="643.75"/>
     <use xlink:href="#DejaVuSans-72" x="705.273438"/>
     <use xlink:href="#DejaVuSans-20" x="746.386719"/>
     <use xlink:href="#DejaVuSans-72" x="778.173828"/>
     <use xlink:href="#DejaVuSans-61" x="819.287109"/>
     <use xlink:href="#DejaVuSans-6e" x="880.566406"/>
     <use xlink:href="#DejaVuSans-64" x="943.945312"/>
     <use xlink:href="#DejaVuSans-6f" x="1007.421875"/>
     <use xlink:href="#DejaVuSans-6d" x="1068.603516"/>
     <use xlink:href="#DejaVuSans-20" x="1166.015625"/>
     <use xlink:href="#DejaVuSans-70" x="1197.802734"/>
     <use xlink:href="#DejaVuSans-61" x="1261.279297"/>
     <use xlink:href="#DejaVuSans-74" x="1322.558594"/>
     <use xlink:href="#DejaVuSans-63" x="1361.767578"/>
     <use xlink:href="#DejaVuSans-68" x="1416.748047"/>
     <use xlink:href="#DejaVuSans-65" x="1480.126953"/>
     <use xlink:href="#DejaVuSans-73" x="1541.650391"/>
     <use xlink:href="#DejaVuSans-20" x="1593.75"/>
     <use xlink:href="#DejaVuSans-6d" x="1625.537109"/>
     <use xlink:href="#DejaVuSans-61" x="1722.949219"/>
     <use xlink:href="#DejaVuSans-73" x="1784.228516"/>
     <use xlink:href="#DejaVuSans-6b" x="1836.328125"/>
     <use xlink:href="#DejaVuSans-69" x="1894.238281"/>
     <use xlink:href="#DejaVuSans-6e" x="1922.021484"/>
     <use xlink:href="#DejaVuSans-67" x="1985.400391"/>
    </g>
   </g>
   <g id="legend_1">
    <g id="patch_7">
     <path d="M 151.271875 238.16 
L 270.2 238.16 
Q 272.2 238.16 272.2 236.16 
L 272.2 193.125625 
Q 272.2 191.125625 270.2 191.125625 
L 151.271875 191.125625 
Q 149.271875 191.125625 149.271875 193.125625 
L 149.271875 236.16 
Q 149.271875 238.16 151.271875 238.16 
z
" style="fill: #ffffff; opacity: 0.8; stroke: #cccccc; stroke-linejoin: miter"/>
    </g>
    <g id="line2d_15">
     <path d="M 153.271875 199.224063 
L 163.271875 199.224063 
L 173.271875 199.224063 
" style="fill: none; stroke: #d2691e; stroke-width: 2; stroke-linecap: square"/>
    </g>
    <g id="text_15">
     <!-- Untrained model  -->
     <g transform="translate(181.271875 202.724063) scale(0.1 -0.1)">
      <defs>
       <path id="DejaVuSans-55" d="M 556 4666 
L 1191 4666 
L 1191 1831 
Q 1191 1081 1462 751 
Q 1734 422 2344 422 
Q 2950 422 3222 751 
Q 3494 1081 3494 1831 
L 3494 4666 
L 4128 4666 
L 4128 1753 
Q 4128 841 3676 375 
Q 3225 -91 2344 -91 
Q 1459 -91 1007 375 
Q 556 841 556 1753 
L 556 4666 
z
" transform="scale(0.015625)"/>
      </defs>
      <use xlink:href="#DejaVuSans-55"/>
      <use xlink:href="#DejaVuSans-6e" x="73.193359"/>
      <use xlink:href="#DejaVuSans-74" x="136.572266"/>
      <use xlink:href="#DejaVuSans-72" x="175.78125"/>
      <use xlink:href="#DejaVuSans-61" x="216.894531"/>
      <use xlink:href="#DejaVuSans-69" x="278.173828"/>
      <use xlink:href="#DejaVuSans-6e" x="305.957031"/>
      <use xlink:href="#DejaVuSans-65" x="369.335938"/>
      <use xlink:href="#DejaVuSans-64" x="430.859375"/>
      <use xlink:href="#DejaVuSans-20" x="494.335938"/>
      <use xlink:href="#DejaVuSans-6d" x="526.123047"/>
      <use xlink:href="#DejaVuSans-6f" x="623.535156"/>
      <use xlink:href="#DejaVuSans-64" x="684.716797"/>
      <use xlink:href="#DejaVuSans-65" x="748.193359"/>
      <use xlink:href="#DejaVuSans-6c" x="809.716797"/>
      <use xlink:href="#DejaVuSans-20" x="837.5"/>
     </g>
    </g>
    <g id="line2d_16">
     <path d="M 153.271875 213.902187 
L 163.271875 213.902187 
L 173.271875 213.902187 
" style="fill: none; stroke: #008000; stroke-width: 2; stroke-linecap: square"/>
    </g>
    <g id="text_16">
     <!-- CLoSeR  -->
     <g transform="translate(181.271875 217.402187) scale(0.1 -0.1)">
      <defs>
       <path id="DejaVuSans-4c" d="M 628 4666 
L 1259 4666 
L 1259 531 
L 3531 531 
L 3531 0 
L 628 0 
L 628 4666 
z
" transform="scale(0.015625)"/>
       <path id="DejaVuSans-52" d="M 2841 2188 
Q 3044 2119 3236 1894 
Q 3428 1669 3622 1275 
L 4263 0 
L 3584 0 
L 2988 1197 
Q 2756 1666 2539 1819 
Q 2322 1972 1947 1972 
L 1259 1972 
L 1259 0 
L 628 0 
L 628 4666 
L 2053 4666 
Q 2853 4666 3247 4331 
Q 3641 3997 3641 3322 
Q 3641 2881 3436 2590 
Q 3231 2300 2841 2188 
z
M 1259 4147 
L 1259 2491 
L 2053 2491 
Q 2509 2491 2742 2702 
Q 2975 2913 2975 3322 
Q 2975 3731 2742 3939 
Q 2509 4147 2053 4147 
L 1259 4147 
z
" transform="scale(0.015625)"/>
      </defs>
      <use xlink:href="#DejaVuSans-43"/>
      <use xlink:href="#DejaVuSans-4c" x="69.824219"/>
      <use xlink:href="#DejaVuSans-6f" x="123.787109"/>
      <use xlink:href="#DejaVuSans-53" x="184.96875"/>
      <use xlink:href="#DejaVuSans-65" x="248.445312"/>
      <use xlink:href="#DejaVuSans-52" x="309.96875"/>
      <use xlink:href="#DejaVuSans-20" x="379.451172"/>
     </g>
    </g>
    <g id="line2d_17">
     <path d="M 153.271875 228.580312 
L 163.271875 228.580312 
L 173.271875 228.580312 
" style="fill: none; stroke: #ff69b4; stroke-width: 2; stroke-linecap: square"/>
    </g>
    <g id="text_17">
     <!-- Supervised  -->
     <g transform="translate(181.271875 232.080312) scale(0.1 -0.1)">
      <defs>
       <path id="DejaVuSans-76" d="M 191 3500 
L 800 3500 
L 1894 563 
L 2988 3500 
L 3597 3500 
L 2284 0 
L 1503 0 
L 191 3500 
z
" transform="scale(0.015625)"/>
      </defs>
      <use xlink:href="#DejaVuSans-53"/>
      <use xlink:href="#DejaVuSans-75" x="63.476562"/>
      <use xlink:href="#DejaVuSans-70" x="126.855469"/>
      <use xlink:href="#DejaVuSans-65" x="190.332031"/>
      <use xlink:href="#DejaVuSans-72" x="251.855469"/>
      <use xlink:href="#DejaVuSans-76" x="292.96875"/>
      <use xlink:href="#DejaVuSans-69" x="352.148438"/>
      <use xlink:href="#DejaVuSans-73" x="379.931641"/>
      <use xlink:href="#DejaVuSans-65" x="432.03125"/>
      <use xlink:href="#DejaVuSans-64" x="493.554688"/>
      <use xlink:href="#DejaVuSans-20" x="557.03125"/>
     </g>
    </g>
   </g>
  </g>
 </g>
 <defs>
  <clipPath id="p6c4e976fe5">
   <rect x="56.6" y="26.88" width="220.6" height="216.28"/>
  </clipPath>
 </defs>
</svg>
