<?xml version="1.0" encoding="utf-8" standalone="no"?>
<!DOCTYPE svg PUBLIC "-//W3C//DTD SVG 1.1//EN"
  "http://www.w3.org/Graphics/SVG/1.1/DTD/svg11.dtd">
<svg xmlns:xlink="http://www.w3.org/1999/xlink" width="324pt" height="378pt" viewBox="0 0 324 378" xmlns="http://www.w3.org/2000/svg" version="1.1">
 <metadata>
  <rdf:RDF xmlns:dc="http://purl.org/dc/elements/1.1/" xmlns:cc="http://creativecommons.org/ns#" xmlns:rdf="http://www.w3.org/1999/02/22-rdf-syntax-ns#">
   <cc:Work>
    <dc:type rdf:resource="http://purl.org/dc/dcmitype/StillImage"/>
    <dc:date>2025-08-25T16:44:53.903671</dc:date>
    <dc:format>image/svg+xml</dc:format>
    <dc:creator>
     <cc:Agent>
      <dc:title>Matplotlib v3.9.1.post1, https://matplotlib.org/</dc:title>
     </cc:Agent>
    </dc:creator>
   </cc:Work>
  </rdf:RDF>
 </metadata>
 <defs>
  <style type="text/css">*{stroke-linejoin: round; stroke-linecap: butt}</style>
 </defs>
 <g id="figure_1">
  <g id="patch_1">
   <path d="M 0 378 
L 324 378 
L 324 0 
L 0 0 
z
" style="fill: #ffffff"/>
  </g>
  <g id="axes_1">
   <g id="patch_2">
    <path d="M 61.31 298.635041 
L 161.649307 298.635041 
L 161.649307 50.64 
L 61.31 50.64 
z
" style="fill: #ffffff"/>
   </g>
   <g id="PolyCollection_1">
    <path d="M 81.35781 209.400943 
L 68.627455 209.400943 
L 68.430197 209.338461 
L 68.236538 209.275978 
L 68.047079 209.213496 
L 67.862413 209.151014 
L 67.683122 209.088531 
L 67.509768 209.026049 
L 67.342898 208.963567 
L 67.183034 208.901085 
L 67.030671 208.838602 
L 66.886275 208.77612 
L 66.750279 208.713638 
L 66.623081 208.651155 
L 66.50504 208.588673 
L 66.396477 208.526191 
L 66.297669 208.463709 
L 66.20885 208.401226 
L 66.130208 208.338744 
L 66.061886 208.276262 
L 66.003982 208.213779 
L 65.956545 208.151297 
L 65.919581 208.088815 
L 65.893046 208.026333 
L 65.876855 207.96385 
L 65.870878 207.901368 
L 65.874943 207.838886 
L 65.888839 207.776403 
L 65.912316 207.713921 
L 65.945089 207.651439 
L 65.98684 207.588957 
L 66.037221 207.526474 
L 66.095855 207.463992 
L 66.162344 207.40151 
L 66.236265 207.339027 
L 66.317179 207.276545 
L 66.404631 207.214063 
L 66.498153 207.151581 
L 66.597269 207.089098 
L 66.701495 207.026616 
L 66.810346 206.964134 
L 66.923333 206.901651 
L 67.039968 206.839169 
L 67.159768 206.776687 
L 67.282256 206.714205 
L 67.406961 206.651722 
L 67.533421 206.58924 
L 67.661185 206.526758 
L 67.789815 206.464275 
L 67.918884 206.401793 
L 68.047981 206.339311 
L 68.176709 206.276829 
L 68.304688 206.214346 
L 68.431555 206.151864 
L 68.556962 206.089382 
L 68.680581 206.026899 
L 68.802102 205.964417 
L 68.921234 205.901935 
L 69.037707 205.839453 
L 69.151268 205.77697 
L 69.261687 205.714488 
L 69.368756 205.652006 
L 69.472288 205.589524 
L 69.572119 205.527041 
L 69.668107 205.464559 
L 69.760136 205.402077 
L 69.848114 205.339594 
L 69.931974 205.277112 
L 70.011675 205.21463 
L 70.087204 205.152148 
L 70.158573 205.089665 
L 70.225823 205.027183 
L 70.28902 204.964701 
L 70.348261 204.902218 
L 70.403668 204.839736 
L 70.455391 204.777254 
L 70.503607 204.714772 
L 70.548517 204.652289 
L 70.590348 204.589807 
L 70.62935 204.527325 
L 70.665795 204.464842 
L 70.699973 204.40236 
L 70.732193 204.339878 
L 70.762779 204.277396 
L 70.792067 204.214913 
L 70.820404 204.152431 
L 70.848141 204.089949 
L 70.875634 204.027466 
L 70.903239 203.964984 
L 70.931309 203.902502 
L 70.960188 203.84002 
L 70.990214 203.777537 
L 71.021706 203.715055 
L 71.054972 203.652573 
L 71.090296 203.59009 
L 71.127941 203.527608 
L 71.168145 203.465126 
L 71.211117 203.402644 
L 71.257036 203.340161 
L 71.306052 203.277679 
L 71.358279 203.215197 
L 78.626986 203.215197 
L 78.626986 203.215197 
L 78.679214 203.277679 
L 78.728229 203.340161 
L 78.774149 203.402644 
L 78.817121 203.465126 
L 78.857324 203.527608 
L 78.894969 203.59009 
L 78.930293 203.652573 
L 78.963559 203.715055 
L 78.995052 203.777537 
L 79.025077 203.84002 
L 79.053957 203.902502 
L 79.082026 203.964984 
L 79.109632 204.027466 
L 79.137125 204.089949 
L 79.164862 204.152431 
L 79.193198 204.214913 
L 79.222487 204.277396 
L 79.253073 204.339878 
L 79.285293 204.40236 
L 79.319471 204.464842 
L 79.355915 204.527325 
L 79.394917 204.589807 
L 79.436749 204.652289 
L 79.481659 204.714772 
L 79.529874 204.777254 
L 79.581597 204.839736 
L 79.637004 204.902218 
L 79.696245 204.964701 
L 79.759443 205.027183 
L 79.826692 205.089665 
L 79.898062 205.152148 
L 79.97359 205.21463 
L 80.053292 205.277112 
L 80.137152 205.339594 
L 80.22513 205.402077 
L 80.317159 205.464559 
L 80.413147 205.527041 
L 80.512977 205.589524 
L 80.616509 205.652006 
L 80.723578 205.714488 
L 80.833998 205.77697 
L 80.947559 205.839453 
L 81.064031 205.901935 
L 81.183164 205.964417 
L 81.304685 206.026899 
L 81.428304 206.089382 
L 81.553711 206.151864 
L 81.680577 206.214346 
L 81.808557 206.276829 
L 81.937285 206.339311 
L 82.066382 206.401793 
L 82.195451 206.464275 
L 82.32408 206.526758 
L 82.451845 206.58924 
L 82.578305 206.651722 
L 82.703009 206.714205 
L 82.825497 206.776687 
L 82.945298 206.839169 
L 83.061933 206.901651 
L 83.174919 206.964134 
L 83.28377 207.026616 
L 83.387997 207.089098 
L 83.487113 207.151581 
L 83.580635 207.214063 
L 83.668087 207.276545 
L 83.749001 207.339027 
L 83.822922 207.40151 
L 83.88941 207.463992 
L 83.948045 207.526474 
L 83.998426 207.588957 
L 84.040177 207.651439 
L 84.07295 207.713921 
L 84.096427 207.776403 
L 84.110323 207.838886 
L 84.114388 207.901368 
L 84.108411 207.96385 
L 84.09222 208.026333 
L 84.065685 208.088815 
L 84.02872 208.151297 
L 83.981283 208.213779 
L 83.923379 208.276262 
L 83.855058 208.338744 
L 83.776416 208.401226 
L 83.687596 208.463709 
L 83.588788 208.526191 
L 83.480225 208.588673 
L 83.362185 208.651155 
L 83.234987 208.713638 
L 83.098991 208.77612 
L 82.954595 208.838602 
L 82.802232 208.901085 
L 82.642367 208.963567 
L 82.475497 209.026049 
L 82.302144 209.088531 
L 82.122852 209.151014 
L 81.938187 209.213496 
L 81.748728 209.275978 
L 81.555069 209.338461 
L 81.35781 209.400943 
z
" clip-path="url(#p04d3b7d949)" style="fill: #d2691e; fill-opacity: 0.3"/>
   </g>
   <g id="PathCollection_1">
    <defs>
     <path id="m2eb859f3a9" d="M 0 3 
C 0.795609 3 1.55874 2.683901 2.12132 2.12132 
C 2.683901 1.55874 3 0.795609 3 0 
C 3 -0.795609 2.683901 -1.55874 2.12132 -2.12132 
C 1.55874 -2.683901 0.795609 -3 0 -3 
C -0.795609 -3 -1.55874 -2.683901 -2.12132 -2.12132 
C -2.683901 -1.55874 -3 -0.795609 -3 0 
C -3 0.795609 -2.683901 1.55874 -2.12132 2.12132 
C -1.55874 2.683901 -0.795609 3 0 3 
z
" style="stroke: #d2691e"/>
    </defs>
    <g clip-path="url(#p04d3b7d949)">
     <use xlink:href="#m2eb859f3a9" x="74.992633" y="206.790056" style="fill: #d2691e; stroke: #d2691e"/>
    </g>
   </g>
   <g id="PolyCollection_2">
    <path d="M 118.029987 162.199304 
L 104.92932 162.199304 
L 104.73295 162.081 
L 104.541148 161.962696 
L 104.354529 161.844392 
L 104.173689 161.726088 
L 103.999198 161.607784 
L 103.831601 161.48948 
L 103.671408 161.371176 
L 103.519093 161.252872 
L 103.375091 161.134568 
L 103.239793 161.016264 
L 103.113544 160.89796 
L 102.99664 160.779656 
L 102.889325 160.661352 
L 102.791791 160.543047 
L 102.704176 160.424743 
L 102.626563 160.306439 
L 102.55898 160.188135 
L 102.5014 160.069831 
L 102.453742 159.951527 
L 102.415873 159.833223 
L 102.387609 159.714919 
L 102.368718 159.596615 
L 102.358921 159.478311 
L 102.357898 159.360007 
L 102.365291 159.241703 
L 102.380704 159.123399 
L 102.403713 159.005095 
L 102.433867 158.886791 
L 102.470692 158.768487 
L 102.513699 158.650183 
L 102.562386 158.531879 
L 102.616243 158.413575 
L 102.674757 158.295271 
L 102.737418 158.176967 
L 102.803722 158.058663 
L 102.873174 157.940359 
L 102.945296 157.822055 
L 103.019624 157.703751 
L 103.095719 157.585447 
L 103.173164 157.467143 
L 103.251568 157.348839 
L 103.330569 157.230535 
L 103.409834 157.112231 
L 103.489062 156.993927 
L 103.567982 156.875623 
L 103.646356 156.757319 
L 103.723978 156.639015 
L 103.800671 156.520711 
L 103.87629 156.402407 
L 103.95072 156.284103 
L 104.02387 156.165799 
L 104.095678 156.047495 
L 104.166106 155.929191 
L 104.235136 155.810887 
L 104.302773 155.692583 
L 104.369037 155.574279 
L 104.433968 155.455975 
L 104.497616 155.337671 
L 104.560046 155.219367 
L 104.621333 155.101063 
L 104.681559 154.982759 
L 104.740815 154.864455 
L 104.799199 154.74615 
L 104.856811 154.627846 
L 104.913757 154.509542 
L 104.970148 154.391238 
L 105.026094 154.272934 
L 105.08171 154.15463 
L 105.137113 154.036326 
L 105.192422 153.918022 
L 105.247757 153.799718 
L 105.303241 153.681414 
L 105.358999 153.56311 
L 105.415159 153.444806 
L 105.471849 153.326502 
L 105.5292 153.208198 
L 105.587346 153.089894 
L 105.646422 152.97159 
L 105.706563 152.853286 
L 105.767906 152.734982 
L 105.830588 152.616678 
L 105.894745 152.498374 
L 105.960509 152.38007 
L 106.028013 152.261766 
L 106.097382 152.143462 
L 106.168737 152.025158 
L 106.242191 151.906854 
L 106.317848 151.78855 
L 106.395802 151.670246 
L 106.476135 151.551942 
L 106.558913 151.433638 
L 106.64419 151.315334 
L 106.732001 151.19703 
L 106.822364 151.078726 
L 106.915276 150.960422 
L 107.010715 150.842118 
L 107.108639 150.723814 
L 107.208983 150.60551 
L 107.311661 150.487206 
L 115.647646 150.487206 
L 115.647646 150.487206 
L 115.750324 150.60551 
L 115.850668 150.723814 
L 115.948592 150.842118 
L 116.044031 150.960422 
L 116.136943 151.078726 
L 116.227306 151.19703 
L 116.315117 151.315334 
L 116.400394 151.433638 
L 116.483172 151.551942 
L 116.563505 151.670246 
L 116.641459 151.78855 
L 116.717116 151.906854 
L 116.79057 152.025158 
L 116.861925 152.143462 
L 116.931294 152.261766 
L 116.998798 152.38007 
L 117.064563 152.498374 
L 117.128719 152.616678 
L 117.191401 152.734982 
L 117.252744 152.853286 
L 117.312885 152.97159 
L 117.371961 153.089894 
L 117.430107 153.208198 
L 117.487458 153.326502 
L 117.544148 153.444806 
L 117.600308 153.56311 
L 117.656066 153.681414 
L 117.71155 153.799718 
L 117.766885 153.918022 
L 117.822194 154.036326 
L 117.877597 154.15463 
L 117.933213 154.272934 
L 117.989159 154.391238 
L 118.04555 154.509542 
L 118.102496 154.627846 
L 118.160109 154.74615 
L 118.218492 154.864455 
L 118.277748 154.982759 
L 118.337974 155.101063 
L 118.399261 155.219367 
L 118.461691 155.337671 
L 118.525339 155.455975 
L 118.59027 155.574279 
L 118.656534 155.692583 
L 118.724171 155.810887 
L 118.793201 155.929191 
L 118.863629 156.047495 
L 118.935437 156.165799 
L 119.008587 156.284103 
L 119.083017 156.402407 
L 119.158636 156.520711 
L 119.235329 156.639015 
L 119.312951 156.757319 
L 119.391325 156.875623 
L 119.470245 156.993927 
L 119.549473 157.112231 
L 119.628738 157.230535 
L 119.707739 157.348839 
L 119.786143 157.467143 
L 119.863588 157.585447 
L 119.939683 157.703751 
L 120.014012 157.822055 
L 120.086133 157.940359 
L 120.155585 158.058663 
L 120.221889 158.176967 
L 120.28455 158.295271 
L 120.343064 158.413575 
L 120.396921 158.531879 
L 120.445608 158.650183 
L 120.488615 158.768487 
L 120.52544 158.886791 
L 120.555594 159.005095 
L 120.578603 159.123399 
L 120.594016 159.241703 
L 120.601409 159.360007 
L 120.600386 159.478311 
L 120.590589 159.596615 
L 120.571698 159.714919 
L 120.543434 159.833223 
L 120.505565 159.951527 
L 120.457907 160.069831 
L 120.400327 160.188135 
L 120.332744 160.306439 
L 120.255131 160.424743 
L 120.167516 160.543047 
L 120.069982 160.661352 
L 119.962667 160.779656 
L 119.845763 160.89796 
L 119.719514 161.016264 
L 119.584216 161.134568 
L 119.440214 161.252872 
L 119.287899 161.371176 
L 119.127706 161.48948 
L 118.960109 161.607784 
L 118.785618 161.726088 
L 118.604778 161.844392 
L 118.41816 161.962696 
L 118.226357 162.081 
L 118.029987 162.199304 
z
" clip-path="url(#p04d3b7d949)" style="fill: #008000; fill-opacity: 0.3"/>
   </g>
   <g id="PathCollection_2">
    <defs>
     <path id="mceb63ff100" d="M 0 3 
C 0.795609 3 1.55874 2.683901 2.12132 2.12132 
C 2.683901 1.55874 3 0.795609 3 0 
C 3 -0.795609 2.683901 -1.55874 2.12132 -2.12132 
C 1.55874 -2.683901 0.795609 -3 0 -3 
C -0.795609 -3 -1.55874 -2.683901 -2.12132 -2.12132 
C -2.683901 -1.55874 -3 -0.795609 -3 0 
C -3 0.795609 -2.683901 1.55874 -2.12132 2.12132 
C -1.55874 2.683901 -0.795609 3 0 3 
z
" style="stroke: #008000"/>
    </defs>
    <g clip-path="url(#p04d3b7d949)">
     <use xlink:href="#mceb63ff100" x="111.479654" y="157.072906" style="fill: #008000; stroke: #008000"/>
    </g>
   </g>
   <g id="PolyCollection_3">
    <path d="M 152.880115 163.243345 
L 143.053234 163.243345 
L 142.858339 163.086346 
L 142.663404 162.929347 
L 142.468857 162.772349 
L 142.275129 162.61535 
L 142.082653 162.458352 
L 141.891862 162.301353 
L 141.70319 162.144354 
L 141.517068 161.987356 
L 141.333926 161.830357 
L 141.154191 161.673358 
L 140.978288 161.51636 
L 140.806636 161.359361 
L 140.639653 161.202362 
L 140.477748 161.045364 
L 140.321328 160.888365 
L 140.170791 160.731367 
L 140.026531 160.574368 
L 139.888933 160.417369 
L 139.75837 160.260371 
L 139.63521 160.103372 
L 139.519806 159.946373 
L 139.412498 159.789375 
L 139.313613 159.632376 
L 139.22346 159.475377 
L 139.142329 159.318379 
L 139.070491 159.16138 
L 139.00819 159.004382 
L 138.955648 158.847383 
L 138.913057 158.690384 
L 138.880578 158.533386 
L 138.85834 158.376387 
L 138.846435 158.219388 
L 138.844919 158.06239 
L 138.853806 157.905391 
L 138.87307 157.748393 
L 138.902639 157.591394 
L 138.942398 157.434395 
L 138.992184 157.277397 
L 139.05179 157.120398 
L 139.120961 156.963399 
L 139.199394 156.806401 
L 139.286741 156.649402 
L 139.382611 156.492403 
L 139.486567 156.335405 
L 139.598135 156.178406 
L 139.7168 156.021408 
L 139.842015 155.864409 
L 139.973199 155.70741 
L 140.109748 155.550412 
L 140.251032 155.393413 
L 140.396406 155.236414 
L 140.545213 155.079416 
L 140.696787 154.922417 
L 140.850462 154.765418 
L 141.005577 154.60842 
L 141.16148 154.451421 
L 141.317534 154.294423 
L 141.473123 154.137424 
L 141.627658 153.980425 
L 141.78058 153.823427 
L 141.931366 153.666428 
L 142.079532 153.509429 
L 142.224638 153.352431 
L 142.366291 153.195432 
L 142.504146 153.038434 
L 142.63791 152.881435 
L 142.767343 152.724436 
L 142.892259 152.567438 
L 143.012524 152.410439 
L 143.128058 152.25344 
L 143.238834 152.096442 
L 143.344874 151.939443 
L 143.446252 151.782444 
L 143.543083 151.625446 
L 143.635529 151.468447 
L 143.723788 151.311449 
L 143.808096 151.15445 
L 143.888717 150.997451 
L 143.965946 150.840453 
L 144.040095 150.683454 
L 144.111497 150.526455 
L 144.180496 150.369457 
L 144.247444 150.212458 
L 144.312697 150.05546 
L 144.376606 149.898461 
L 144.439521 149.741462 
L 144.501777 149.584464 
L 144.5637 149.427465 
L 144.625593 149.270466 
L 144.687741 149.113468 
L 144.750404 148.956469 
L 144.813818 148.79947 
L 144.878185 148.642472 
L 144.943683 148.485473 
L 145.010452 148.328475 
L 145.078606 148.171476 
L 145.14822 148.014477 
L 145.21934 147.857479 
L 145.291979 147.70048 
L 150.64137 147.70048 
L 150.64137 147.70048 
L 150.714008 147.857479 
L 150.785129 148.014477 
L 150.854743 148.171476 
L 150.922896 148.328475 
L 150.989666 148.485473 
L 151.055163 148.642472 
L 151.119531 148.79947 
L 151.182944 148.956469 
L 151.245608 149.113468 
L 151.307756 149.270466 
L 151.369649 149.427465 
L 151.431571 149.584464 
L 151.493828 149.741462 
L 151.556742 149.898461 
L 151.620652 150.05546 
L 151.685904 150.212458 
L 151.752852 150.369457 
L 151.821851 150.526455 
L 151.893253 150.683454 
L 151.967403 150.840453 
L 152.044631 150.997451 
L 152.125253 151.15445 
L 152.209561 151.311449 
L 152.29782 151.468447 
L 152.390266 151.625446 
L 152.487097 151.782444 
L 152.588474 151.939443 
L 152.694515 152.096442 
L 152.805291 152.25344 
L 152.920825 152.410439 
L 153.04109 152.567438 
L 153.166005 152.724436 
L 153.295439 152.881435 
L 153.429203 153.038434 
L 153.567058 153.195432 
L 153.708711 153.352431 
L 153.853817 153.509429 
L 154.001983 153.666428 
L 154.152768 153.823427 
L 154.30569 153.980425 
L 154.460225 154.137424 
L 154.615814 154.294423 
L 154.771868 154.451421 
L 154.927771 154.60842 
L 155.082886 154.765418 
L 155.236562 154.922417 
L 155.388136 155.079416 
L 155.536943 155.236414 
L 155.682317 155.393413 
L 155.823601 155.550412 
L 155.960149 155.70741 
L 156.091334 155.864409 
L 156.216548 156.021408 
L 156.335213 156.178406 
L 156.446781 156.335405 
L 156.550738 156.492403 
L 156.646607 156.649402 
L 156.733955 156.806401 
L 156.812388 156.963399 
L 156.881558 157.120398 
L 156.941164 157.277397 
L 156.990951 157.434395 
L 157.03071 157.591394 
L 157.060279 157.748393 
L 157.079542 157.905391 
L 157.088429 158.06239 
L 157.086913 158.219388 
L 157.075009 158.376387 
L 157.052771 158.533386 
L 157.020292 158.690384 
L 156.977701 158.847383 
L 156.925159 159.004382 
L 156.862858 159.16138 
L 156.791019 159.318379 
L 156.709889 159.475377 
L 156.619736 159.632376 
L 156.520851 159.789375 
L 156.413543 159.946373 
L 156.298139 160.103372 
L 156.174978 160.260371 
L 156.044416 160.417369 
L 155.906817 160.574368 
L 155.762557 160.731367 
L 155.612021 160.888365 
L 155.455601 161.045364 
L 155.293696 161.202362 
L 155.126712 161.359361 
L 154.955061 161.51636 
L 154.779157 161.673358 
L 154.599423 161.830357 
L 154.416281 161.987356 
L 154.230158 162.144354 
L 154.041486 162.301353 
L 153.850695 162.458352 
L 153.658219 162.61535 
L 153.464491 162.772349 
L 153.269944 162.929347 
L 153.075009 163.086346 
L 152.880115 163.243345 
z
" clip-path="url(#p04d3b7d949)" style="fill: #ff69b4; fill-opacity: 0.3"/>
   </g>
   <g id="PathCollection_3">
    <defs>
     <path id="m1d267ff5c8" d="M 0 3 
C 0.795609 3 1.55874 2.683901 2.12132 2.12132 
C 2.683901 1.55874 3 0.795609 3 0 
C 3 -0.795609 2.683901 -1.55874 2.12132 -2.12132 
C 1.55874 -2.683901 0.795609 -3 0 -3 
C -0.795609 -3 -1.55874 -2.683901 -2.12132 -2.12132 
C -2.683901 -1.55874 -3 -0.795609 -3 0 
C -3 0.795609 -2.683901 1.55874 -2.12132 2.12132 
C -1.55874 2.683901 -0.795609 3 0 3 
z
" style="stroke: #ff69b4"/>
    </defs>
    <g clip-path="url(#p04d3b7d949)">
     <use xlink:href="#m1d267ff5c8" x="147.966674" y="156.721229" style="fill: #ff69b4; stroke: #ff69b4"/>
    </g>
   </g>
   <g id="matplotlib.axis_1">
    <g id="xtick_1">
     <g id="line2d_1">
      <defs>
       <path id="m704b7505ce" d="M 0 0 
L 0 3.5 
" style="stroke: #000000; stroke-width: 0.8"/>
      </defs>
      <g>
       <use xlink:href="#m704b7505ce" x="74.992633" y="298.635041" style="stroke: #000000; stroke-width: 0.8"/>
      </g>
     </g>
     <g id="text_1">
      <!-- Untrained -->
      <g style="fill: #d2691e" transform="translate(51.610644 354.027661) rotate(-45) scale(0.12 -0.12)">
       <defs>
        <path id="DejaVuSans-55" d="M 556 4666 
L 1191 4666 
L 1191 1831 
Q 1191 1081 1462 751 
Q 1734 422 2344 422 
Q 2950 422 3222 751 
Q 3494 1081 3494 1831 
L 3494 4666 
L 4128 4666 
L 4128 1753 
Q 4128 841 3676 375 
Q 3225 -91 2344 -91 
Q 1459 -91 1007 375 
Q 556 841 556 1753 
L 556 4666 
z
" transform="scale(0.015625)"/>
        <path id="DejaVuSans-6e" d="M 3513 2113 
L 3513 0 
L 2938 0 
L 2938 2094 
Q 2938 2591 2744 2837 
Q 2550 3084 2163 3084 
Q 1697 3084 1428 2787 
Q 1159 2491 1159 1978 
L 1159 0 
L 581 0 
L 581 3500 
L 1159 3500 
L 1159 2956 
Q 1366 3272 1645 3428 
Q 1925 3584 2291 3584 
Q 2894 3584 3203 3211 
Q 3513 2838 3513 2113 
z
" transform="scale(0.015625)"/>
        <path id="DejaVuSans-74" d="M 1172 4494 
L 1172 3500 
L 2356 3500 
L 2356 3053 
L 1172 3053 
L 1172 1153 
Q 1172 725 1289 603 
Q 1406 481 1766 481 
L 2356 481 
L 2356 0 
L 1766 0 
Q 1100 0 847 248 
Q 594 497 594 1153 
L 594 3053 
L 172 3053 
L 172 3500 
L 594 3500 
L 594 4494 
L 1172 4494 
z
" transform="scale(0.015625)"/>
        <path id="DejaVuSans-72" d="M 2631 2963 
Q 2534 3019 2420 3045 
Q 2306 3072 2169 3072 
Q 1681 3072 1420 2755 
Q 1159 2438 1159 1844 
L 1159 0 
L 581 0 
L 581 3500 
L 1159 3500 
L 1159 2956 
Q 1341 3275 1631 3429 
Q 1922 3584 2338 3584 
Q 2397 3584 2469 3576 
Q 2541 3569 2628 3553 
L 2631 2963 
z
" transform="scale(0.015625)"/>
        <path id="DejaVuSans-61" d="M 2194 1759 
Q 1497 1759 1228 1600 
Q 959 1441 959 1056 
Q 959 750 1161 570 
Q 1363 391 1709 391 
Q 2188 391 2477 730 
Q 2766 1069 2766 1631 
L 2766 1759 
L 2194 1759 
z
M 3341 1997 
L 3341 0 
L 2766 0 
L 2766 531 
Q 2569 213 2275 61 
Q 1981 -91 1556 -91 
Q 1019 -91 701 211 
Q 384 513 384 1019 
Q 384 1609 779 1909 
Q 1175 2209 1959 2209 
L 2766 2209 
L 2766 2266 
Q 2766 2663 2505 2880 
Q 2244 3097 1772 3097 
Q 1472 3097 1187 3025 
Q 903 2953 641 2809 
L 641 3341 
Q 956 3463 1253 3523 
Q 1550 3584 1831 3584 
Q 2591 3584 2966 3190 
Q 3341 2797 3341 1997 
z
" transform="scale(0.015625)"/>
        <path id="DejaVuSans-69" d="M 603 3500 
L 1178 3500 
L 1178 0 
L 603 0 
L 603 3500 
z
M 603 4863 
L 1178 4863 
L 1178 4134 
L 603 4134 
L 603 4863 
z
" transform="scale(0.015625)"/>
        <path id="DejaVuSans-65" d="M 3597 1894 
L 3597 1613 
L 953 1613 
Q 991 1019 1311 708 
Q 1631 397 2203 397 
Q 2534 397 2845 478 
Q 3156 559 3463 722 
L 3463 178 
Q 3153 47 2828 -22 
Q 2503 -91 2169 -91 
Q 1331 -91 842 396 
Q 353 884 353 1716 
Q 353 2575 817 3079 
Q 1281 3584 2069 3584 
Q 2775 3584 3186 3129 
Q 3597 2675 3597 1894 
z
M 3022 2063 
Q 3016 2534 2758 2815 
Q 2500 3097 2075 3097 
Q 1594 3097 1305 2825 
Q 1016 2553 972 2059 
L 3022 2063 
z
" transform="scale(0.015625)"/>
        <path id="DejaVuSans-64" d="M 2906 2969 
L 2906 4863 
L 3481 4863 
L 3481 0 
L 2906 0 
L 2906 525 
Q 2725 213 2448 61 
Q 2172 -91 1784 -91 
Q 1150 -91 751 415 
Q 353 922 353 1747 
Q 353 2572 751 3078 
Q 1150 3584 1784 3584 
Q 2172 3584 2448 3432 
Q 2725 3281 2906 2969 
z
M 947 1747 
Q 947 1113 1208 752 
Q 1469 391 1925 391 
Q 2381 391 2643 752 
Q 2906 1113 2906 1747 
Q 2906 2381 2643 2742 
Q 2381 3103 1925 3103 
Q 1469 3103 1208 2742 
Q 947 2381 947 1747 
z
" transform="scale(0.015625)"/>
       </defs>
       <use xlink:href="#DejaVuSans-55"/>
       <use xlink:href="#DejaVuSans-6e" x="73.193359"/>
       <use xlink:href="#DejaVuSans-74" x="136.572266"/>
       <use xlink:href="#DejaVuSans-72" x="175.78125"/>
       <use xlink:href="#DejaVuSans-61" x="216.894531"/>
       <use xlink:href="#DejaVuSans-69" x="278.173828"/>
       <use xlink:href="#DejaVuSans-6e" x="305.957031"/>
       <use xlink:href="#DejaVuSans-65" x="369.335938"/>
       <use xlink:href="#DejaVuSans-64" x="430.859375"/>
      </g>
      <!-- model -->
      <g style="fill: #d2691e" transform="translate(68.873684 355.76794) rotate(-45) scale(0.12 -0.12)">
       <defs>
        <path id="DejaVuSans-6d" d="M 3328 2828 
Q 3544 3216 3844 3400 
Q 4144 3584 4550 3584 
Q 5097 3584 5394 3201 
Q 5691 2819 5691 2113 
L 5691 0 
L 5113 0 
L 5113 2094 
Q 5113 2597 4934 2840 
Q 4756 3084 4391 3084 
Q 3944 3084 3684 2787 
Q 3425 2491 3425 1978 
L 3425 0 
L 2847 0 
L 2847 2094 
Q 2847 2600 2669 2842 
Q 2491 3084 2119 3084 
Q 1678 3084 1418 2786 
Q 1159 2488 1159 1978 
L 1159 0 
L 581 0 
L 581 3500 
L 1159 3500 
L 1159 2956 
Q 1356 3278 1631 3431 
Q 1906 3584 2284 3584 
Q 2666 3584 2933 3390 
Q 3200 3197 3328 2828 
z
" transform="scale(0.015625)"/>
        <path id="DejaVuSans-6f" d="M 1959 3097 
Q 1497 3097 1228 2736 
Q 959 2375 959 1747 
Q 959 1119 1226 758 
Q 1494 397 1959 397 
Q 2419 397 2687 759 
Q 2956 1122 2956 1747 
Q 2956 2369 2687 2733 
Q 2419 3097 1959 3097 
z
M 1959 3584 
Q 2709 3584 3137 3096 
Q 3566 2609 3566 1747 
Q 3566 888 3137 398 
Q 2709 -91 1959 -91 
Q 1206 -91 779 398 
Q 353 888 353 1747 
Q 353 2609 779 3096 
Q 1206 3584 1959 3584 
z
" transform="scale(0.015625)"/>
        <path id="DejaVuSans-6c" d="M 603 4863 
L 1178 4863 
L 1178 0 
L 603 0 
L 603 4863 
z
" transform="scale(0.015625)"/>
       </defs>
       <use xlink:href="#DejaVuSans-6d"/>
       <use xlink:href="#DejaVuSans-6f" x="97.412109"/>
       <use xlink:href="#DejaVuSans-64" x="158.59375"/>
       <use xlink:href="#DejaVuSans-65" x="222.070312"/>
       <use xlink:href="#DejaVuSans-6c" x="283.59375"/>
      </g>
     </g>
    </g>
    <g id="xtick_2">
     <g id="line2d_2">
      <g>
       <use xlink:href="#m704b7505ce" x="111.479654" y="298.635041" style="stroke: #000000; stroke-width: 0.8"/>
      </g>
     </g>
     <g id="text_2">
      <!-- CLoSeR -->
      <g style="fill: #008000" transform="translate(97.720902 344.282846) rotate(-45) scale(0.12 -0.12)">
       <defs>
        <path id="DejaVuSans-43" d="M 4122 4306 
L 4122 3641 
Q 3803 3938 3442 4084 
Q 3081 4231 2675 4231 
Q 1875 4231 1450 3742 
Q 1025 3253 1025 2328 
Q 1025 1406 1450 917 
Q 1875 428 2675 428 
Q 3081 428 3442 575 
Q 3803 722 4122 1019 
L 4122 359 
Q 3791 134 3420 21 
Q 3050 -91 2638 -91 
Q 1578 -91 968 557 
Q 359 1206 359 2328 
Q 359 3453 968 4101 
Q 1578 4750 2638 4750 
Q 3056 4750 3426 4639 
Q 3797 4528 4122 4306 
z
" transform="scale(0.015625)"/>
        <path id="DejaVuSans-4c" d="M 628 4666 
L 1259 4666 
L 1259 531 
L 3531 531 
L 3531 0 
L 628 0 
L 628 4666 
z
" transform="scale(0.015625)"/>
        <path id="DejaVuSans-53" d="M 3425 4513 
L 3425 3897 
Q 3066 4069 2747 4153 
Q 2428 4238 2131 4238 
Q 1616 4238 1336 4038 
Q 1056 3838 1056 3469 
Q 1056 3159 1242 3001 
Q 1428 2844 1947 2747 
L 2328 2669 
Q 3034 2534 3370 2195 
Q 3706 1856 3706 1288 
Q 3706 609 3251 259 
Q 2797 -91 1919 -91 
Q 1588 -91 1214 -16 
Q 841 59 441 206 
L 441 856 
Q 825 641 1194 531 
Q 1563 422 1919 422 
Q 2459 422 2753 634 
Q 3047 847 3047 1241 
Q 3047 1584 2836 1778 
Q 2625 1972 2144 2069 
L 1759 2144 
Q 1053 2284 737 2584 
Q 422 2884 422 3419 
Q 422 4038 858 4394 
Q 1294 4750 2059 4750 
Q 2388 4750 2728 4690 
Q 3069 4631 3425 4513 
z
" transform="scale(0.015625)"/>
        <path id="DejaVuSans-52" d="M 2841 2188 
Q 3044 2119 3236 1894 
Q 3428 1669 3622 1275 
L 4263 0 
L 3584 0 
L 2988 1197 
Q 2756 1666 2539 1819 
Q 2322 1972 1947 1972 
L 1259 1972 
L 1259 0 
L 628 0 
L 628 4666 
L 2053 4666 
Q 2853 4666 3247 4331 
Q 3641 3997 3641 3322 
Q 3641 2881 3436 2590 
Q 3231 2300 2841 2188 
z
M 1259 4147 
L 1259 2491 
L 2053 2491 
Q 2509 2491 2742 2702 
Q 2975 2913 2975 3322 
Q 2975 3731 2742 3939 
Q 2509 4147 2053 4147 
L 1259 4147 
z
" transform="scale(0.015625)"/>
       </defs>
       <use xlink:href="#DejaVuSans-43"/>
       <use xlink:href="#DejaVuSans-4c" x="69.824219"/>
       <use xlink:href="#DejaVuSans-6f" x="123.787109"/>
       <use xlink:href="#DejaVuSans-53" x="184.96875"/>
       <use xlink:href="#DejaVuSans-65" x="248.445312"/>
       <use xlink:href="#DejaVuSans-52" x="309.96875"/>
      </g>
     </g>
    </g>
    <g id="xtick_3">
     <g id="line2d_3">
      <g>
       <use xlink:href="#m704b7505ce" x="147.966674" y="298.635041" style="stroke: #000000; stroke-width: 0.8"/>
      </g>
     </g>
     <g id="text_3">
      <!-- Supervised -->
      <g style="fill: #ff69b4" transform="translate(126.673921 359.35085) rotate(-45) scale(0.12 -0.12)">
       <defs>
        <path id="DejaVuSans-75" d="M 544 1381 
L 544 3500 
L 1119 3500 
L 1119 1403 
Q 1119 906 1312 657 
Q 1506 409 1894 409 
Q 2359 409 2629 706 
Q 2900 1003 2900 1516 
L 2900 3500 
L 3475 3500 
L 3475 0 
L 2900 0 
L 2900 538 
Q 2691 219 2414 64 
Q 2138 -91 1772 -91 
Q 1169 -91 856 284 
Q 544 659 544 1381 
z
M 1991 3584 
L 1991 3584 
z
" transform="scale(0.015625)"/>
        <path id="DejaVuSans-70" d="M 1159 525 
L 1159 -1331 
L 581 -1331 
L 581 3500 
L 1159 3500 
L 1159 2969 
Q 1341 3281 1617 3432 
Q 1894 3584 2278 3584 
Q 2916 3584 3314 3078 
Q 3713 2572 3713 1747 
Q 3713 922 3314 415 
Q 2916 -91 2278 -91 
Q 1894 -91 1617 61 
Q 1341 213 1159 525 
z
M 3116 1747 
Q 3116 2381 2855 2742 
Q 2594 3103 2138 3103 
Q 1681 3103 1420 2742 
Q 1159 2381 1159 1747 
Q 1159 1113 1420 752 
Q 1681 391 2138 391 
Q 2594 391 2855 752 
Q 3116 1113 3116 1747 
z
" transform="scale(0.015625)"/>
        <path id="DejaVuSans-76" d="M 191 3500 
L 800 3500 
L 1894 563 
L 2988 3500 
L 3597 3500 
L 2284 0 
L 1503 0 
L 191 3500 
z
" transform="scale(0.015625)"/>
        <path id="DejaVuSans-73" d="M 2834 3397 
L 2834 2853 
Q 2591 2978 2328 3040 
Q 2066 3103 1784 3103 
Q 1356 3103 1142 2972 
Q 928 2841 928 2578 
Q 928 2378 1081 2264 
Q 1234 2150 1697 2047 
L 1894 2003 
Q 2506 1872 2764 1633 
Q 3022 1394 3022 966 
Q 3022 478 2636 193 
Q 2250 -91 1575 -91 
Q 1294 -91 989 -36 
Q 684 19 347 128 
L 347 722 
Q 666 556 975 473 
Q 1284 391 1588 391 
Q 1994 391 2212 530 
Q 2431 669 2431 922 
Q 2431 1156 2273 1281 
Q 2116 1406 1581 1522 
L 1381 1569 
Q 847 1681 609 1914 
Q 372 2147 372 2553 
Q 372 3047 722 3315 
Q 1072 3584 1716 3584 
Q 2034 3584 2315 3537 
Q 2597 3491 2834 3397 
z
" transform="scale(0.015625)"/>
       </defs>
       <use xlink:href="#DejaVuSans-53"/>
       <use xlink:href="#DejaVuSans-75" x="63.476562"/>
       <use xlink:href="#DejaVuSans-70" x="126.855469"/>
       <use xlink:href="#DejaVuSans-65" x="190.332031"/>
       <use xlink:href="#DejaVuSans-72" x="251.855469"/>
       <use xlink:href="#DejaVuSans-76" x="292.96875"/>
       <use xlink:href="#DejaVuSans-69" x="352.148438"/>
       <use xlink:href="#DejaVuSans-73" x="379.931641"/>
       <use xlink:href="#DejaVuSans-65" x="432.03125"/>
       <use xlink:href="#DejaVuSans-64" x="493.554688"/>
      </g>
     </g>
    </g>
   </g>
   <g id="matplotlib.axis_2">
    <g id="ytick_1">
     <g id="line2d_4">
      <defs>
       <path id="mfe8b28d577" d="M 0 0 
L -3.5 0 
" style="stroke: #000000; stroke-width: 0.8"/>
      </defs>
      <g>
       <use xlink:href="#mfe8b28d577" x="61.31" y="267.73771" style="stroke: #000000; stroke-width: 0.8"/>
      </g>
     </g>
     <g id="text_4">
      <!-- 0.15 -->
      <g transform="translate(27.59125 272.296772) scale(0.12 -0.12)">
       <defs>
        <path id="DejaVuSans-30" d="M 2034 4250 
Q 1547 4250 1301 3770 
Q 1056 3291 1056 2328 
Q 1056 1369 1301 889 
Q 1547 409 2034 409 
Q 2525 409 2770 889 
Q 3016 1369 3016 2328 
Q 3016 3291 2770 3770 
Q 2525 4250 2034 4250 
z
M 2034 4750 
Q 2819 4750 3233 4129 
Q 3647 3509 3647 2328 
Q 3647 1150 3233 529 
Q 2819 -91 2034 -91 
Q 1250 -91 836 529 
Q 422 1150 422 2328 
Q 422 3509 836 4129 
Q 1250 4750 2034 4750 
z
" transform="scale(0.015625)"/>
        <path id="DejaVuSans-2e" d="M 684 794 
L 1344 794 
L 1344 0 
L 684 0 
L 684 794 
z
" transform="scale(0.015625)"/>
        <path id="DejaVuSans-31" d="M 794 531 
L 1825 531 
L 1825 4091 
L 703 3866 
L 703 4441 
L 1819 4666 
L 2450 4666 
L 2450 531 
L 3481 531 
L 3481 0 
L 794 0 
L 794 531 
z
" transform="scale(0.015625)"/>
        <path id="DejaVuSans-35" d="M 691 4666 
L 3169 4666 
L 3169 4134 
L 1269 4134 
L 1269 2991 
Q 1406 3038 1543 3061 
Q 1681 3084 1819 3084 
Q 2600 3084 3056 2656 
Q 3513 2228 3513 1497 
Q 3513 744 3044 326 
Q 2575 -91 1722 -91 
Q 1428 -91 1123 -41 
Q 819 9 494 109 
L 494 744 
Q 775 591 1075 516 
Q 1375 441 1709 441 
Q 2250 441 2565 725 
Q 2881 1009 2881 1497 
Q 2881 1984 2565 2268 
Q 2250 2553 1709 2553 
Q 1456 2553 1204 2497 
Q 953 2441 691 2322 
L 691 4666 
z
" transform="scale(0.015625)"/>
       </defs>
       <use xlink:href="#DejaVuSans-30"/>
       <use xlink:href="#DejaVuSans-2e" x="63.623047"/>
       <use xlink:href="#DejaVuSans-31" x="95.410156"/>
       <use xlink:href="#DejaVuSans-35" x="159.033203"/>
      </g>
     </g>
    </g>
    <g id="ytick_2">
     <g id="line2d_5">
      <g>
       <use xlink:href="#mfe8b28d577" x="61.31" y="208.863223" style="stroke: #000000; stroke-width: 0.8"/>
      </g>
     </g>
     <g id="text_5">
      <!-- 0.30 -->
      <g transform="translate(27.59125 213.422285) scale(0.12 -0.12)">
       <defs>
        <path id="DejaVuSans-33" d="M 2597 2516 
Q 3050 2419 3304 2112 
Q 3559 1806 3559 1356 
Q 3559 666 3084 287 
Q 2609 -91 1734 -91 
Q 1441 -91 1130 -33 
Q 819 25 488 141 
L 488 750 
Q 750 597 1062 519 
Q 1375 441 1716 441 
Q 2309 441 2620 675 
Q 2931 909 2931 1356 
Q 2931 1769 2642 2001 
Q 2353 2234 1838 2234 
L 1294 2234 
L 1294 2753 
L 1863 2753 
Q 2328 2753 2575 2939 
Q 2822 3125 2822 3475 
Q 2822 3834 2567 4026 
Q 2313 4219 1838 4219 
Q 1578 4219 1281 4162 
Q 984 4106 628 3988 
L 628 4550 
Q 988 4650 1302 4700 
Q 1616 4750 1894 4750 
Q 2613 4750 3031 4423 
Q 3450 4097 3450 3541 
Q 3450 3153 3228 2886 
Q 3006 2619 2597 2516 
z
" transform="scale(0.015625)"/>
       </defs>
       <use xlink:href="#DejaVuSans-30"/>
       <use xlink:href="#DejaVuSans-2e" x="63.623047"/>
       <use xlink:href="#DejaVuSans-33" x="95.410156"/>
       <use xlink:href="#DejaVuSans-30" x="159.033203"/>
      </g>
     </g>
    </g>
    <g id="ytick_3">
     <g id="line2d_6">
      <g>
       <use xlink:href="#mfe8b28d577" x="61.31" y="149.988735" style="stroke: #000000; stroke-width: 0.8"/>
      </g>
     </g>
     <g id="text_6">
      <!-- 0.45 -->
      <g transform="translate(27.59125 154.547798) scale(0.12 -0.12)">
       <defs>
        <path id="DejaVuSans-34" d="M 2419 4116 
L 825 1625 
L 2419 1625 
L 2419 4116 
z
M 2253 4666 
L 3047 4666 
L 3047 1625 
L 3713 1625 
L 3713 1100 
L 3047 1100 
L 3047 0 
L 2419 0 
L 2419 1100 
L 313 1100 
L 313 1709 
L 2253 4666 
z
" transform="scale(0.015625)"/>
       </defs>
       <use xlink:href="#DejaVuSans-30"/>
       <use xlink:href="#DejaVuSans-2e" x="63.623047"/>
       <use xlink:href="#DejaVuSans-34" x="95.410156"/>
       <use xlink:href="#DejaVuSans-35" x="159.033203"/>
      </g>
     </g>
    </g>
    <g id="ytick_4">
     <g id="line2d_7">
      <g>
       <use xlink:href="#mfe8b28d577" x="61.31" y="91.114248" style="stroke: #000000; stroke-width: 0.8"/>
      </g>
     </g>
     <g id="text_7">
      <!-- 0.60 -->
      <g transform="translate(27.59125 95.67331) scale(0.12 -0.12)">
       <defs>
        <path id="DejaVuSans-36" d="M 2113 2584 
Q 1688 2584 1439 2293 
Q 1191 2003 1191 1497 
Q 1191 994 1439 701 
Q 1688 409 2113 409 
Q 2538 409 2786 701 
Q 3034 994 3034 1497 
Q 3034 2003 2786 2293 
Q 2538 2584 2113 2584 
z
M 3366 4563 
L 3366 3988 
Q 3128 4100 2886 4159 
Q 2644 4219 2406 4219 
Q 1781 4219 1451 3797 
Q 1122 3375 1075 2522 
Q 1259 2794 1537 2939 
Q 1816 3084 2150 3084 
Q 2853 3084 3261 2657 
Q 3669 2231 3669 1497 
Q 3669 778 3244 343 
Q 2819 -91 2113 -91 
Q 1303 -91 875 529 
Q 447 1150 447 2328 
Q 447 3434 972 4092 
Q 1497 4750 2381 4750 
Q 2619 4750 2861 4703 
Q 3103 4656 3366 4563 
z
" transform="scale(0.015625)"/>
       </defs>
       <use xlink:href="#DejaVuSans-30"/>
       <use xlink:href="#DejaVuSans-2e" x="63.623047"/>
       <use xlink:href="#DejaVuSans-36" x="95.410156"/>
       <use xlink:href="#DejaVuSans-30" x="159.033203"/>
      </g>
     </g>
    </g>
    <g id="text_8">
     <!-- Classification accuracy -->
     <g transform="translate(21.095625 243.31502) rotate(-90) scale(0.12 -0.12)">
      <defs>
       <path id="DejaVuSans-66" d="M 2375 4863 
L 2375 4384 
L 1825 4384 
Q 1516 4384 1395 4259 
Q 1275 4134 1275 3809 
L 1275 3500 
L 2222 3500 
L 2222 3053 
L 1275 3053 
L 1275 0 
L 697 0 
L 697 3053 
L 147 3053 
L 147 3500 
L 697 3500 
L 697 3744 
Q 697 4328 969 4595 
Q 1241 4863 1831 4863 
L 2375 4863 
z
" transform="scale(0.015625)"/>
       <path id="DejaVuSans-63" d="M 3122 3366 
L 3122 2828 
Q 2878 2963 2633 3030 
Q 2388 3097 2138 3097 
Q 1578 3097 1268 2742 
Q 959 2388 959 1747 
Q 959 1106 1268 751 
Q 1578 397 2138 397 
Q 2388 397 2633 464 
Q 2878 531 3122 666 
L 3122 134 
Q 2881 22 2623 -34 
Q 2366 -91 2075 -91 
Q 1284 -91 818 406 
Q 353 903 353 1747 
Q 353 2603 823 3093 
Q 1294 3584 2113 3584 
Q 2378 3584 2631 3529 
Q 2884 3475 3122 3366 
z
" transform="scale(0.015625)"/>
       <path id="DejaVuSans-20" transform="scale(0.015625)"/>
       <path id="DejaVuSans-79" d="M 2059 -325 
Q 1816 -950 1584 -1140 
Q 1353 -1331 966 -1331 
L 506 -1331 
L 506 -850 
L 844 -850 
Q 1081 -850 1212 -737 
Q 1344 -625 1503 -206 
L 1606 56 
L 191 3500 
L 800 3500 
L 1894 763 
L 2988 3500 
L 3597 3500 
L 2059 -325 
z
" transform="scale(0.015625)"/>
      </defs>
      <use xlink:href="#DejaVuSans-43"/>
      <use xlink:href="#DejaVuSans-6c" x="69.824219"/>
      <use xlink:href="#DejaVuSans-61" x="97.607422"/>
      <use xlink:href="#DejaVuSans-73" x="158.886719"/>
      <use xlink:href="#DejaVuSans-73" x="210.986328"/>
      <use xlink:href="#DejaVuSans-69" x="263.085938"/>
      <use xlink:href="#DejaVuSans-66" x="290.869141"/>
      <use xlink:href="#DejaVuSans-69" x="326.074219"/>
      <use xlink:href="#DejaVuSans-63" x="353.857422"/>
      <use xlink:href="#DejaVuSans-61" x="408.837891"/>
      <use xlink:href="#DejaVuSans-74" x="470.117188"/>
      <use xlink:href="#DejaVuSans-69" x="509.326172"/>
      <use xlink:href="#DejaVuSans-6f" x="537.109375"/>
      <use xlink:href="#DejaVuSans-6e" x="598.291016"/>
      <use xlink:href="#DejaVuSans-20" x="661.669922"/>
      <use xlink:href="#DejaVuSans-61" x="693.457031"/>
      <use xlink:href="#DejaVuSans-63" x="754.736328"/>
      <use xlink:href="#DejaVuSans-63" x="809.716797"/>
      <use xlink:href="#DejaVuSans-75" x="864.697266"/>
      <use xlink:href="#DejaVuSans-72" x="928.076172"/>
      <use xlink:href="#DejaVuSans-61" x="969.189453"/>
      <use xlink:href="#DejaVuSans-63" x="1030.46875"/>
      <use xlink:href="#DejaVuSans-79" x="1085.449219"/>
     </g>
    </g>
   </g>
   <g id="line2d_8">
    <path d="M 61.31 287.362539 
L 161.649307 287.362539 
" clip-path="url(#p04d3b7d949)" style="fill: none; stroke-dasharray: 1.5,2.475; stroke-dashoffset: 0; stroke: #000000; stroke-width: 1.5"/>
   </g>
   <g id="patch_3">
    <path d="M 61.31 298.635041 
L 61.31 50.64 
" style="fill: none; stroke: #000000; stroke-width: 0.8; stroke-linejoin: miter; stroke-linecap: square"/>
   </g>
   <g id="patch_4">
    <path d="M 161.649307 298.635041 
L 161.649307 50.64 
" style="fill: none; stroke: #000000; stroke-width: 0.8; stroke-linejoin: miter; stroke-linecap: square"/>
   </g>
   <g id="patch_5">
    <path d="M 61.31 298.635041 
L 161.649307 298.635041 
" style="fill: none; stroke: #000000; stroke-width: 0.8; stroke-linejoin: miter; stroke-linecap: square"/>
   </g>
   <g id="patch_6">
    <path d="M 61.31 50.64 
L 161.649307 50.64 
" style="fill: none; stroke: #000000; stroke-width: 0.8; stroke-linejoin: miter; stroke-linecap: square"/>
   </g>
   <g id="text_9">
    <!-- Single encoder -->
    <g transform="translate(66.694341 44.64) scale(0.12 -0.12)">
     <defs>
      <path id="DejaVuSans-67" d="M 2906 1791 
Q 2906 2416 2648 2759 
Q 2391 3103 1925 3103 
Q 1463 3103 1205 2759 
Q 947 2416 947 1791 
Q 947 1169 1205 825 
Q 1463 481 1925 481 
Q 2391 481 2648 825 
Q 2906 1169 2906 1791 
z
M 3481 434 
Q 3481 -459 3084 -895 
Q 2688 -1331 1869 -1331 
Q 1566 -1331 1297 -1286 
Q 1028 -1241 775 -1147 
L 775 -588 
Q 1028 -725 1275 -790 
Q 1522 -856 1778 -856 
Q 2344 -856 2625 -561 
Q 2906 -266 2906 331 
L 2906 616 
Q 2728 306 2450 153 
Q 2172 0 1784 0 
Q 1141 0 747 490 
Q 353 981 353 1791 
Q 353 2603 747 3093 
Q 1141 3584 1784 3584 
Q 2172 3584 2450 3431 
Q 2728 3278 2906 2969 
L 2906 3500 
L 3481 3500 
L 3481 434 
z
" transform="scale(0.015625)"/>
     </defs>
     <use xlink:href="#DejaVuSans-53"/>
     <use xlink:href="#DejaVuSans-69" x="63.476562"/>
     <use xlink:href="#DejaVuSans-6e" x="91.259766"/>
     <use xlink:href="#DejaVuSans-67" x="154.638672"/>
     <use xlink:href="#DejaVuSans-6c" x="218.115234"/>
     <use xlink:href="#DejaVuSans-65" x="245.898438"/>
     <use xlink:href="#DejaVuSans-20" x="307.421875"/>
     <use xlink:href="#DejaVuSans-65" x="339.208984"/>
     <use xlink:href="#DejaVuSans-6e" x="400.732422"/>
     <use xlink:href="#DejaVuSans-63" x="464.111328"/>
     <use xlink:href="#DejaVuSans-6f" x="519.091797"/>
     <use xlink:href="#DejaVuSans-64" x="580.273438"/>
     <use xlink:href="#DejaVuSans-65" x="643.75"/>
     <use xlink:href="#DejaVuSans-72" x="705.273438"/>
    </g>
   </g>
  </g>
  <g id="axes_2">
   <g id="patch_7">
    <path d="M 200.264215 298.635041 
L 300.603522 298.635041 
L 300.603522 50.64 
L 200.264215 50.64 
z
" style="fill: #ffffff"/>
   </g>
   <g id="PolyCollection_4">
    <path d="M 221.698731 146.142269 
L 206.194964 146.142269 
L 206.017902 146.070113 
L 205.850985 145.997957 
L 205.694911 145.925801 
L 205.550318 145.853645 
L 205.41778 145.781489 
L 205.297804 145.709333 
L 205.190822 145.637177 
L 205.097188 145.565021 
L 205.017176 145.492865 
L 204.950976 145.420709 
L 204.898693 145.348553 
L 204.860344 145.276397 
L 204.835861 145.204241 
L 204.825093 145.132085 
L 204.827801 145.05993 
L 204.843668 144.987774 
L 204.8723 144.915618 
L 204.913228 144.843462 
L 204.965916 144.771306 
L 205.029763 144.69915 
L 205.104114 144.626994 
L 205.188263 144.554838 
L 205.281461 144.482682 
L 205.382922 144.410526 
L 205.491835 144.33837 
L 205.607367 144.266214 
L 205.728672 144.194058 
L 205.8549 144.121902 
L 205.985204 144.049746 
L 206.118748 143.97759 
L 206.254712 143.905435 
L 206.3923 143.833279 
L 206.530747 143.761123 
L 206.669322 143.688967 
L 206.807337 143.616811 
L 206.944148 143.544655 
L 207.079159 143.472499 
L 207.211829 143.400343 
L 207.341669 143.328187 
L 207.468247 143.256031 
L 207.591189 143.183875 
L 207.710178 143.111719 
L 207.824957 143.039563 
L 207.935323 142.967407 
L 208.041129 142.895251 
L 208.142283 142.823095 
L 208.238743 142.75094 
L 208.330515 142.678784 
L 208.417653 142.606628 
L 208.500248 142.534472 
L 208.578432 142.462316 
L 208.652372 142.39016 
L 208.722262 142.318004 
L 208.788325 142.245848 
L 208.850805 142.173692 
L 208.909961 142.101536 
L 208.96607 142.02938 
L 209.019417 141.957224 
L 209.070293 141.885068 
L 209.118993 141.812912 
L 209.16581 141.740756 
L 209.211035 141.6686 
L 209.254953 141.596445 
L 209.29784 141.524289 
L 209.339962 141.452133 
L 209.381572 141.379977 
L 209.42291 141.307821 
L 209.4642 141.235665 
L 209.505652 141.163509 
L 209.547458 141.091353 
L 209.589794 141.019197 
L 209.632818 140.947041 
L 209.676673 140.874885 
L 209.721484 140.802729 
L 209.767361 140.730573 
L 209.814398 140.658417 
L 209.862675 140.586261 
L 209.912257 140.514105 
L 209.963195 140.44195 
L 210.015531 140.369794 
L 210.069293 140.297638 
L 210.124499 140.225482 
L 210.181157 140.153326 
L 210.239268 140.08117 
L 210.298823 140.009014 
L 210.359806 139.936858 
L 210.422194 139.864702 
L 210.485959 139.792546 
L 210.551064 139.72039 
L 210.617471 139.648234 
L 210.685132 139.576078 
L 210.753996 139.503922 
L 210.824007 139.431766 
L 210.895105 139.35961 
L 210.967223 139.287455 
L 211.04029 139.215299 
L 211.114231 139.143143 
L 211.188964 139.070987 
L 211.264405 138.998831 
L 216.62929 138.998831 
L 216.62929 138.998831 
L 216.704731 139.070987 
L 216.779464 139.143143 
L 216.853405 139.215299 
L 216.926472 139.287455 
L 216.99859 139.35961 
L 217.069688 139.431766 
L 217.1397 139.503922 
L 217.208564 139.576078 
L 217.276225 139.648234 
L 217.342631 139.72039 
L 217.407737 139.792546 
L 217.471501 139.864702 
L 217.533889 139.936858 
L 217.594872 140.009014 
L 217.654427 140.08117 
L 217.712538 140.153326 
L 217.769197 140.225482 
L 217.824402 140.297638 
L 217.878164 140.369794 
L 217.9305 140.44195 
L 217.981439 140.514105 
L 218.03102 140.586261 
L 218.079297 140.658417 
L 218.126334 140.730573 
L 218.172211 140.802729 
L 218.217023 140.874885 
L 218.260878 140.947041 
L 218.303902 141.019197 
L 218.346238 141.091353 
L 218.388043 141.163509 
L 218.429495 141.235665 
L 218.470785 141.307821 
L 218.512123 141.379977 
L 218.553733 141.452133 
L 218.595855 141.524289 
L 218.638742 141.596445 
L 218.68266 141.6686 
L 218.727886 141.740756 
L 218.774703 141.812912 
L 218.823403 141.885068 
L 218.874279 141.957224 
L 218.927625 142.02938 
L 218.983734 142.101536 
L 219.042891 142.173692 
L 219.10537 142.245848 
L 219.171433 142.318004 
L 219.241324 142.39016 
L 219.315263 142.462316 
L 219.393448 142.534472 
L 219.476043 142.606628 
L 219.56318 142.678784 
L 219.654953 142.75094 
L 219.751413 142.823095 
L 219.852567 142.895251 
L 219.958373 142.967407 
L 220.068738 143.039563 
L 220.183517 143.111719 
L 220.302507 143.183875 
L 220.425449 143.256031 
L 220.552027 143.328187 
L 220.681866 143.400343 
L 220.814536 143.472499 
L 220.949548 143.544655 
L 221.086358 143.616811 
L 221.224373 143.688967 
L 221.362949 143.761123 
L 221.501396 143.833279 
L 221.638984 143.905435 
L 221.774947 143.97759 
L 221.908491 144.049746 
L 222.038796 144.121902 
L 222.165024 144.194058 
L 222.286329 144.266214 
L 222.40186 144.33837 
L 222.510773 144.410526 
L 222.612235 144.482682 
L 222.705432 144.554838 
L 222.789581 144.626994 
L 222.863932 144.69915 
L 222.92778 144.771306 
L 222.980467 144.843462 
L 223.021395 144.915618 
L 223.050027 144.987774 
L 223.065895 145.05993 
L 223.068603 145.132085 
L 223.057834 145.204241 
L 223.033352 145.276397 
L 222.995003 145.348553 
L 222.942719 145.420709 
L 222.876519 145.492865 
L 222.796507 145.565021 
L 222.702874 145.637177 
L 222.595892 145.709333 
L 222.475915 145.781489 
L 222.343378 145.853645 
L 222.198784 145.925801 
L 222.04271 145.997957 
L 221.875794 146.070113 
L 221.698731 146.142269 
z
" clip-path="url(#p7cdbb3f7ca)" style="fill: #d2691e; fill-opacity: 0.3"/>
   </g>
   <g id="PathCollection_4">
    <g clip-path="url(#p7cdbb3f7ca)">
     <use xlink:href="#m2eb859f3a9" x="213.946848" y="143.657765" style="fill: #d2691e; stroke: #d2691e"/>
    </g>
   </g>
   <g id="PolyCollection_5">
    <path d="M 256.256203 88.327522 
L 244.611534 88.327522 
L 244.444056 88.203826 
L 244.282714 88.08013 
L 244.128025 87.956434 
L 243.980444 87.832738 
L 243.840358 87.709042 
L 243.708084 87.585347 
L 243.583862 87.461651 
L 243.467848 87.337955 
L 243.360118 87.214259 
L 243.260659 87.090563 
L 243.169373 86.966867 
L 243.086077 86.843171 
L 243.010502 86.719475 
L 242.9423 86.595779 
L 242.881048 86.472084 
L 242.826252 86.348388 
L 242.777354 86.224692 
L 242.733743 86.100996 
L 242.69476 85.9773 
L 242.659712 85.853604 
L 242.627882 85.729908 
L 242.598539 85.606212 
L 242.570948 85.482516 
L 242.544389 85.35882 
L 242.518163 85.235125 
L 242.491604 85.111429 
L 242.464094 84.987733 
L 242.435073 84.864037 
L 242.404046 84.740341 
L 242.370596 84.616645 
L 242.33439 84.492949 
L 242.295186 84.369253 
L 242.252839 84.245557 
L 242.207303 84.121862 
L 242.158634 83.998166 
L 242.106991 83.87447 
L 242.052633 83.750774 
L 241.995916 83.627078 
L 241.937292 83.503382 
L 241.877296 83.379686 
L 241.816543 83.25599 
L 241.755717 83.132294 
L 241.695562 83.008599 
L 241.636868 82.884903 
L 241.580462 82.761207 
L 241.527193 82.637511 
L 241.477919 82.513815 
L 241.433494 82.390119 
L 241.394756 82.266423 
L 241.362511 82.142727 
L 241.337526 82.019031 
L 241.32051 81.895335 
L 241.312113 81.77164 
L 241.312908 81.647944 
L 241.323385 81.524248 
L 241.34395 81.400552 
L 241.374912 81.276856 
L 241.416483 81.15316 
L 241.468776 81.029464 
L 241.531806 80.905768 
L 241.605485 80.782072 
L 241.689634 80.658377 
L 241.783978 80.534681 
L 241.888157 80.410985 
L 242.001731 80.287289 
L 242.124186 80.163593 
L 242.254945 80.039897 
L 242.393376 79.916201 
L 242.538801 79.792505 
L 242.690507 79.668809 
L 242.847756 79.545114 
L 243.009794 79.421418 
L 243.175863 79.297722 
L 243.34521 79.174026 
L 243.517093 79.05033 
L 243.690793 78.926634 
L 243.865622 78.802938 
L 244.040927 78.679242 
L 244.216096 78.555546 
L 244.390567 78.43185 
L 244.563825 78.308155 
L 244.735413 78.184459 
L 244.904925 78.060763 
L 245.072015 77.937067 
L 245.236391 77.813371 
L 245.397816 77.689675 
L 245.556107 77.565979 
L 245.711132 77.442283 
L 245.862804 77.318587 
L 246.011081 77.194892 
L 246.155959 77.071196 
L 246.297468 76.9475 
L 246.43567 76.823804 
L 246.570647 76.700108 
L 246.702505 76.576412 
L 246.831361 76.452716 
L 246.957343 76.32902 
L 247.080584 76.205324 
L 247.201216 76.081629 
L 253.666521 76.081629 
L 253.666521 76.081629 
L 253.787153 76.205324 
L 253.910394 76.32902 
L 254.036376 76.452716 
L 254.165232 76.576412 
L 254.29709 76.700108 
L 254.432067 76.823804 
L 254.570269 76.9475 
L 254.711778 77.071196 
L 254.856656 77.194892 
L 255.004933 77.318587 
L 255.156605 77.442283 
L 255.31163 77.565979 
L 255.469921 77.689675 
L 255.631346 77.813371 
L 255.795722 77.937067 
L 255.962812 78.060763 
L 256.132324 78.184459 
L 256.303912 78.308155 
L 256.47717 78.43185 
L 256.651641 78.555546 
L 256.82681 78.679242 
L 257.002115 78.802938 
L 257.176944 78.926634 
L 257.350644 79.05033 
L 257.522527 79.174026 
L 257.691874 79.297722 
L 257.857943 79.421418 
L 258.019981 79.545114 
L 258.17723 79.668809 
L 258.328936 79.792505 
L 258.474361 79.916201 
L 258.612792 80.039897 
L 258.743551 80.163593 
L 258.866006 80.287289 
L 258.979579 80.410985 
L 259.083759 80.534681 
L 259.178103 80.658377 
L 259.262251 80.782072 
L 259.335931 80.905768 
L 259.398961 81.029464 
L 259.451254 81.15316 
L 259.492825 81.276856 
L 259.523787 81.400552 
L 259.544352 81.524248 
L 259.554829 81.647944 
L 259.555624 81.77164 
L 259.547226 81.895335 
L 259.530211 82.019031 
L 259.505226 82.142727 
L 259.472981 82.266423 
L 259.434243 82.390119 
L 259.389818 82.513815 
L 259.340544 82.637511 
L 259.287275 82.761207 
L 259.230869 82.884903 
L 259.172175 83.008599 
L 259.11202 83.132294 
L 259.051194 83.25599 
L 258.990441 83.379686 
L 258.930445 83.503382 
L 258.871821 83.627078 
L 258.815104 83.750774 
L 258.760746 83.87447 
L 258.709103 83.998166 
L 258.660434 84.121862 
L 258.614898 84.245557 
L 258.572551 84.369253 
L 258.533347 84.492949 
L 258.497141 84.616645 
L 258.463691 84.740341 
L 258.432664 84.864037 
L 258.403643 84.987733 
L 258.376133 85.111429 
L 258.349574 85.235125 
L 258.323348 85.35882 
L 258.296789 85.482516 
L 258.269198 85.606212 
L 258.239855 85.729908 
L 258.208025 85.853604 
L 258.172977 85.9773 
L 258.133994 86.100996 
L 258.090383 86.224692 
L 258.041485 86.348388 
L 257.986689 86.472084 
L 257.925437 86.595779 
L 257.857235 86.719475 
L 257.78166 86.843171 
L 257.698364 86.966867 
L 257.607078 87.090563 
L 257.507619 87.214259 
L 257.399889 87.337955 
L 257.283875 87.461651 
L 257.159653 87.585347 
L 257.027379 87.709042 
L 256.887293 87.832738 
L 256.739712 87.956434 
L 256.585023 88.08013 
L 256.423681 88.203826 
L 256.256203 88.327522 
z
" clip-path="url(#p7cdbb3f7ca)" style="fill: #008000; fill-opacity: 0.3"/>
   </g>
   <g id="PathCollection_5">
    <g clip-path="url(#p7cdbb3f7ca)">
     <use xlink:href="#mceb63ff100" x="250.433868" y="82.891444" style="fill: #008000; stroke: #008000"/>
    </g>
   </g>
   <g id="PolyCollection_6">
    <path d="M 292.622399 72.784657 
L 281.219379 72.784657 
L 281.121241 72.674837 
L 281.029327 72.565018 
L 280.943477 72.455198 
L 280.863455 72.345378 
L 280.788956 72.235558 
L 280.719605 72.125739 
L 280.654962 72.015919 
L 280.594534 71.906099 
L 280.537777 71.796279 
L 280.484103 71.68646 
L 280.432896 71.57664 
L 280.383514 71.46682 
L 280.335301 71.357 
L 280.287601 71.247181 
L 280.239762 71.137361 
L 280.191154 71.027541 
L 280.141172 70.917721 
L 280.089251 70.807902 
L 280.034876 70.698082 
L 279.977585 70.588262 
L 279.916986 70.478442 
L 279.852758 70.368623 
L 279.78466 70.258803 
L 279.712535 70.148983 
L 279.636318 70.039163 
L 279.556032 69.929344 
L 279.471797 69.819524 
L 279.383827 69.709704 
L 279.292429 69.599884 
L 279.197999 69.490065 
L 279.101024 69.380245 
L 279.002072 69.270425 
L 278.901786 69.160605 
L 278.800881 69.050786 
L 278.700132 68.940966 
L 278.600368 68.831146 
L 278.502459 68.721326 
L 278.407306 68.611507 
L 278.315835 68.501687 
L 278.228977 68.391867 
L 278.147665 68.282047 
L 278.072818 68.172228 
L 278.005329 68.062408 
L 277.946055 67.952588 
L 277.895809 67.842768 
L 277.855344 67.732949 
L 277.825348 67.623129 
L 277.806435 67.513309 
L 277.799134 67.403489 
L 277.803887 67.29367 
L 277.821039 67.18385 
L 277.850837 67.07403 
L 277.893426 66.96421 
L 277.948846 66.854391 
L 278.017033 66.744571 
L 278.09782 66.634751 
L 278.190937 66.524931 
L 278.296019 66.415112 
L 278.412604 66.305292 
L 278.540145 66.195472 
L 278.678013 66.085652 
L 278.825507 65.975833 
L 278.98186 65.866013 
L 279.14625 65.756193 
L 279.317811 65.646373 
L 279.495639 65.536554 
L 279.678807 65.426734 
L 279.866372 65.316914 
L 280.057388 65.207094 
L 280.250915 65.097275 
L 280.446027 64.987455 
L 280.641827 64.877635 
L 280.837451 64.767815 
L 281.032075 64.657996 
L 281.22493 64.548176 
L 281.415299 64.438356 
L 281.602528 64.328536 
L 281.786032 64.218717 
L 281.965292 64.108897 
L 282.139864 63.999077 
L 282.309375 63.889257 
L 282.473528 63.779438 
L 282.632099 63.669618 
L 282.784932 63.559798 
L 282.931944 63.449978 
L 283.073114 63.340159 
L 283.208483 63.230339 
L 283.338148 63.120519 
L 283.462256 63.010699 
L 283.580999 62.90088 
L 283.694608 62.79106 
L 283.803346 62.68124 
L 283.907501 62.57142 
L 284.007381 62.461601 
L 284.103307 62.351781 
L 284.195606 62.241961 
L 284.284606 62.132141 
L 284.37063 62.022322 
L 284.453993 61.912502 
L 289.387785 61.912502 
L 289.387785 61.912502 
L 289.471148 62.022322 
L 289.557173 62.132141 
L 289.646173 62.241961 
L 289.738472 62.351781 
L 289.834397 62.461601 
L 289.934278 62.57142 
L 290.038433 62.68124 
L 290.147171 62.79106 
L 290.26078 62.90088 
L 290.379523 63.010699 
L 290.503631 63.120519 
L 290.633295 63.230339 
L 290.768664 63.340159 
L 290.909834 63.449978 
L 291.056846 63.559798 
L 291.20968 63.669618 
L 291.36825 63.779438 
L 291.532403 63.889257 
L 291.701915 63.999077 
L 291.876486 64.108897 
L 292.055746 64.218717 
L 292.23925 64.328536 
L 292.42648 64.438356 
L 292.616849 64.548176 
L 292.809703 64.657996 
L 293.004328 64.767815 
L 293.199951 64.877635 
L 293.395751 64.987455 
L 293.590864 65.097275 
L 293.78439 65.207094 
L 293.975406 65.316914 
L 294.162971 65.426734 
L 294.346139 65.536554 
L 294.523967 65.646373 
L 294.695528 65.756193 
L 294.859919 65.866013 
L 295.016272 65.975833 
L 295.163765 66.085652 
L 295.301634 66.195472 
L 295.429175 66.305292 
L 295.54576 66.415112 
L 295.650841 66.524931 
L 295.743959 66.634751 
L 295.824746 66.744571 
L 295.892933 66.854391 
L 295.948353 66.96421 
L 295.990942 67.07403 
L 296.02074 67.18385 
L 296.037892 67.29367 
L 296.042644 67.403489 
L 296.035344 67.513309 
L 296.01643 67.623129 
L 295.986435 67.732949 
L 295.94597 67.842768 
L 295.895723 67.952588 
L 295.83645 68.062408 
L 295.76896 68.172228 
L 295.694113 68.282047 
L 295.612801 68.391867 
L 295.525944 68.501687 
L 295.434472 68.611507 
L 295.33932 68.721326 
L 295.24141 68.831146 
L 295.141646 68.940966 
L 295.040898 69.050786 
L 294.939993 69.160605 
L 294.839707 69.270425 
L 294.740754 69.380245 
L 294.643779 69.490065 
L 294.54935 69.599884 
L 294.457951 69.709704 
L 294.369981 69.819524 
L 294.285747 69.929344 
L 294.205461 70.039163 
L 294.129243 70.148983 
L 294.057118 70.258803 
L 293.98902 70.368623 
L 293.924792 70.478442 
L 293.864193 70.588262 
L 293.806903 70.698082 
L 293.752527 70.807902 
L 293.700607 70.917721 
L 293.650624 71.027541 
L 293.602016 71.137361 
L 293.554178 71.247181 
L 293.506477 71.357 
L 293.458265 71.46682 
L 293.408882 71.57664 
L 293.357675 71.68646 
L 293.304002 71.796279 
L 293.247244 71.906099 
L 293.186816 72.015919 
L 293.122174 72.125739 
L 293.052822 72.235558 
L 292.978323 72.345378 
L 292.898302 72.455198 
L 292.812452 72.565018 
L 292.720537 72.674837 
L 292.622399 72.784657 
z
" clip-path="url(#p7cdbb3f7ca)" style="fill: #ff69b4; fill-opacity: 0.3"/>
   </g>
   <g id="PathCollection_6">
    <g clip-path="url(#p7cdbb3f7ca)">
     <use xlink:href="#m1d267ff5c8" x="286.920889" y="68.333746" style="fill: #ff69b4; stroke: #ff69b4"/>
    </g>
   </g>
   <g id="matplotlib.axis_3">
    <g id="xtick_4">
     <g id="line2d_9">
      <g>
       <use xlink:href="#m704b7505ce" x="213.946848" y="298.635041" style="stroke: #000000; stroke-width: 0.8"/>
      </g>
     </g>
     <g id="text_10">
      <!-- Untrained -->
      <g style="fill: #d2691e" transform="translate(190.564859 354.027661) rotate(-45) scale(0.12 -0.12)">
       <use xlink:href="#DejaVuSans-55"/>
       <use xlink:href="#DejaVuSans-6e" x="73.193359"/>
       <use xlink:href="#DejaVuSans-74" x="136.572266"/>
       <use xlink:href="#DejaVuSans-72" x="175.78125"/>
       <use xlink:href="#DejaVuSans-61" x="216.894531"/>
       <use xlink:href="#DejaVuSans-69" x="278.173828"/>
       <use xlink:href="#DejaVuSans-6e" x="305.957031"/>
       <use xlink:href="#DejaVuSans-65" x="369.335938"/>
       <use xlink:href="#DejaVuSans-64" x="430.859375"/>
      </g>
      <!-- model -->
      <g style="fill: #d2691e" transform="translate(207.827899 355.76794) rotate(-45) scale(0.12 -0.12)">
       <use xlink:href="#DejaVuSans-6d"/>
       <use xlink:href="#DejaVuSans-6f" x="97.412109"/>
       <use xlink:href="#DejaVuSans-64" x="158.59375"/>
       <use xlink:href="#DejaVuSans-65" x="222.070312"/>
       <use xlink:href="#DejaVuSans-6c" x="283.59375"/>
      </g>
     </g>
    </g>
    <g id="xtick_5">
     <g id="line2d_10">
      <g>
       <use xlink:href="#m704b7505ce" x="250.433868" y="298.635041" style="stroke: #000000; stroke-width: 0.8"/>
      </g>
     </g>
     <g id="text_11">
      <!-- CLoSeR -->
      <g style="fill: #008000" transform="translate(236.675117 344.282846) rotate(-45) scale(0.12 -0.12)">
       <use xlink:href="#DejaVuSans-43"/>
       <use xlink:href="#DejaVuSans-4c" x="69.824219"/>
       <use xlink:href="#DejaVuSans-6f" x="123.787109"/>
       <use xlink:href="#DejaVuSans-53" x="184.96875"/>
       <use xlink:href="#DejaVuSans-65" x="248.445312"/>
       <use xlink:href="#DejaVuSans-52" x="309.96875"/>
      </g>
     </g>
    </g>
    <g id="xtick_6">
     <g id="line2d_11">
      <g>
       <use xlink:href="#m704b7505ce" x="286.920889" y="298.635041" style="stroke: #000000; stroke-width: 0.8"/>
      </g>
     </g>
     <g id="text_12">
      <!-- Supervised -->
      <g style="fill: #ff69b4" transform="translate(265.628136 359.35085) rotate(-45) scale(0.12 -0.12)">
       <use xlink:href="#DejaVuSans-53"/>
       <use xlink:href="#DejaVuSans-75" x="63.476562"/>
       <use xlink:href="#DejaVuSans-70" x="126.855469"/>
       <use xlink:href="#DejaVuSans-65" x="190.332031"/>
       <use xlink:href="#DejaVuSans-72" x="251.855469"/>
       <use xlink:href="#DejaVuSans-76" x="292.96875"/>
       <use xlink:href="#DejaVuSans-69" x="352.148438"/>
       <use xlink:href="#DejaVuSans-73" x="379.931641"/>
       <use xlink:href="#DejaVuSans-65" x="432.03125"/>
       <use xlink:href="#DejaVuSans-64" x="493.554688"/>
      </g>
     </g>
    </g>
   </g>
   <g id="matplotlib.axis_4">
    <g id="ytick_5">
     <g id="line2d_12">
      <g>
       <use xlink:href="#mfe8b28d577" x="200.264215" y="267.73771" style="stroke: #000000; stroke-width: 0.8"/>
      </g>
     </g>
    </g>
    <g id="ytick_6">
     <g id="line2d_13">
      <g>
       <use xlink:href="#mfe8b28d577" x="200.264215" y="208.863223" style="stroke: #000000; stroke-width: 0.8"/>
      </g>
     </g>
    </g>
    <g id="ytick_7">
     <g id="line2d_14">
      <g>
       <use xlink:href="#mfe8b28d577" x="200.264215" y="149.988735" style="stroke: #000000; stroke-width: 0.8"/>
      </g>
     </g>
    </g>
    <g id="ytick_8">
     <g id="line2d_15">
      <g>
       <use xlink:href="#mfe8b28d577" x="200.264215" y="91.114248" style="stroke: #000000; stroke-width: 0.8"/>
      </g>
     </g>
    </g>
   </g>
   <g id="line2d_16">
    <path d="M 200.264215 287.362539 
L 300.603522 287.362539 
" clip-path="url(#p7cdbb3f7ca)" style="fill: none; stroke-dasharray: 1.5,2.475; stroke-dashoffset: 0; stroke: #000000; stroke-width: 1.5"/>
   </g>
   <g id="patch_8">
    <path d="M 200.264215 298.635041 
L 200.264215 50.64 
" style="fill: none; stroke: #000000; stroke-width: 0.8; stroke-linejoin: miter; stroke-linecap: square"/>
   </g>
   <g id="patch_9">
    <path d="M 300.603522 298.635041 
L 300.603522 50.64 
" style="fill: none; stroke: #000000; stroke-width: 0.8; stroke-linejoin: miter; stroke-linecap: square"/>
   </g>
   <g id="patch_10">
    <path d="M 200.264215 298.635041 
L 300.603522 298.635041 
" style="fill: none; stroke: #000000; stroke-width: 0.8; stroke-linejoin: miter; stroke-linecap: square"/>
   </g>
   <g id="patch_11">
    <path d="M 200.264215 50.64 
L 300.603522 50.64 
" style="fill: none; stroke: #000000; stroke-width: 0.8; stroke-linejoin: miter; stroke-linecap: square"/>
   </g>
   <g id="text_13">
    <!-- Ensemble -->
    <g transform="translate(221.010431 44.64) scale(0.12 -0.12)">
     <defs>
      <path id="DejaVuSans-45" d="M 628 4666 
L 3578 4666 
L 3578 4134 
L 1259 4134 
L 1259 2753 
L 3481 2753 
L 3481 2222 
L 1259 2222 
L 1259 531 
L 3634 531 
L 3634 0 
L 628 0 
L 628 4666 
z
" transform="scale(0.015625)"/>
      <path id="DejaVuSans-62" d="M 3116 1747 
Q 3116 2381 2855 2742 
Q 2594 3103 2138 3103 
Q 1681 3103 1420 2742 
Q 1159 2381 1159 1747 
Q 1159 1113 1420 752 
Q 1681 391 2138 391 
Q 2594 391 2855 752 
Q 3116 1113 3116 1747 
z
M 1159 2969 
Q 1341 3281 1617 3432 
Q 1894 3584 2278 3584 
Q 2916 3584 3314 3078 
Q 3713 2572 3713 1747 
Q 3713 922 3314 415 
Q 2916 -91 2278 -91 
Q 1894 -91 1617 61 
Q 1341 213 1159 525 
L 1159 0 
L 581 0 
L 581 4863 
L 1159 4863 
L 1159 2969 
z
" transform="scale(0.015625)"/>
     </defs>
     <use xlink:href="#DejaVuSans-45"/>
     <use xlink:href="#DejaVuSans-6e" x="63.183594"/>
     <use xlink:href="#DejaVuSans-73" x="126.5625"/>
     <use xlink:href="#DejaVuSans-65" x="178.662109"/>
     <use xlink:href="#DejaVuSans-6d" x="240.185547"/>
     <use xlink:href="#DejaVuSans-62" x="337.597656"/>
     <use xlink:href="#DejaVuSans-6c" x="401.074219"/>
     <use xlink:href="#DejaVuSans-65" x="428.857422"/>
    </g>
   </g>
  </g>
  <g id="text_14">
   <!-- Cifar-10 -->
   <g transform="translate(138.470625 16.678125) scale(0.12 -0.12)">
    <defs>
     <path id="DejaVuSans-2d" d="M 313 2009 
L 1997 2009 
L 1997 1497 
L 313 1497 
L 313 2009 
z
" transform="scale(0.015625)"/>
    </defs>
    <use xlink:href="#DejaVuSans-43"/>
    <use xlink:href="#DejaVuSans-69" x="69.824219"/>
    <use xlink:href="#DejaVuSans-66" x="97.607422"/>
    <use xlink:href="#DejaVuSans-61" x="132.8125"/>
    <use xlink:href="#DejaVuSans-72" x="194.091797"/>
    <use xlink:href="#DejaVuSans-2d" x="228.830078"/>
    <use xlink:href="#DejaVuSans-31" x="264.914062"/>
    <use xlink:href="#DejaVuSans-30" x="328.537109"/>
   </g>
  </g>
 </g>
 <defs>
  <clipPath id="p04d3b7d949">
   <rect x="61.31" y="50.64" width="100.339307" height="247.995041"/>
  </clipPath>
  <clipPath id="p7cdbb3f7ca">
   <rect x="200.264215" y="50.64" width="100.339307" height="247.995041"/>
  </clipPath>
 </defs>
</svg>
