<?xml version="1.0" encoding="utf-8" standalone="no"?>
<!DOCTYPE svg PUBLIC "-//W3C//DTD SVG 1.1//EN"
  "http://www.w3.org/Graphics/SVG/1.1/DTD/svg11.dtd">
<svg xmlns:xlink="http://www.w3.org/1999/xlink" width="324pt" height="378pt" viewBox="0 0 324 378" xmlns="http://www.w3.org/2000/svg" version="1.1">
 <metadata>
  <rdf:RDF xmlns:dc="http://purl.org/dc/elements/1.1/" xmlns:cc="http://creativecommons.org/ns#" xmlns:rdf="http://www.w3.org/1999/02/22-rdf-syntax-ns#">
   <cc:Work>
    <dc:type rdf:resource="http://purl.org/dc/dcmitype/StillImage"/>
    <dc:date>2025-08-20T14:11:23.139581</dc:date>
    <dc:format>image/svg+xml</dc:format>
    <dc:creator>
     <cc:Agent>
      <dc:title>Matplotlib v3.9.1.post1, https://matplotlib.org/</dc:title>
     </cc:Agent>
    </dc:creator>
   </cc:Work>
  </rdf:RDF>
 </metadata>
 <defs>
  <style type="text/css">*{stroke-linejoin: round; stroke-linecap: butt}</style>
 </defs>
 <g id="figure_1">
  <g id="patch_1">
   <path d="M 0 378 
L 324 378 
L 324 0 
L 0 0 
z
" style="fill: #ffffff"/>
  </g>
  <g id="axes_1">
   <g id="patch_2">
    <path d="M 53.75 298.635041 
L 157.869307 298.635041 
L 157.869307 50.64 
L 53.75 50.64 
z
" style="fill: #ffffff"/>
   </g>
   <g id="PolyCollection_1">
    <path d="M 71.456822 229.49703 
L 64.439353 229.49703 
L 64.281158 229.417512 
L 64.119036 229.337994 
L 63.952964 229.258476 
L 63.782935 229.178958 
L 63.608971 229.09944 
L 63.431124 229.019922 
L 63.249486 228.940404 
L 63.06419 228.860886 
L 62.875418 228.781368 
L 62.683407 228.701851 
L 62.48845 228.622333 
L 62.290902 228.542815 
L 62.091181 228.463297 
L 61.889771 228.383779 
L 61.687218 228.304261 
L 61.484134 228.224743 
L 61.281192 228.145225 
L 61.079119 228.065707 
L 60.878697 227.98619 
L 60.680751 227.906672 
L 60.486145 227.827154 
L 60.295768 227.747636 
L 60.110529 227.668118 
L 59.931345 227.5886 
L 59.759126 227.509082 
L 59.594768 227.429564 
L 59.439139 227.350046 
L 59.293064 227.270528 
L 59.15732 227.191011 
L 59.032619 227.111493 
L 58.9196 227.031975 
L 58.818821 226.952457 
L 58.730748 226.872939 
L 58.655753 226.793421 
L 58.594105 226.713903 
L 58.545969 226.634385 
L 58.511404 226.554867 
L 58.490363 226.475349 
L 58.482696 226.395832 
L 58.488151 226.316314 
L 58.506386 226.236796 
L 58.536966 226.157278 
L 58.579379 226.07776 
L 58.633045 225.998242 
L 58.69732 225.918724 
L 58.771512 225.839206 
L 58.854892 225.759688 
L 58.946702 225.680171 
L 59.046169 225.600653 
L 59.152516 225.521135 
L 59.26497 225.441617 
L 59.382775 225.362099 
L 59.505196 225.282581 
L 59.631533 225.203063 
L 59.761119 225.123545 
L 59.893336 225.044027 
L 60.027607 224.964509 
L 60.16341 224.884992 
L 60.300272 224.805474 
L 60.437771 224.725956 
L 60.575539 224.646438 
L 60.713254 224.56692 
L 60.850643 224.487402 
L 60.987478 224.407884 
L 61.123568 224.328366 
L 61.258761 224.248848 
L 61.392937 224.16933 
L 61.526003 224.089813 
L 61.657888 224.010295 
L 61.788544 223.930777 
L 61.917938 223.851259 
L 62.046048 223.771741 
L 62.172862 223.692223 
L 62.298379 223.612705 
L 62.422598 223.533187 
L 62.545527 223.453669 
L 62.667173 223.374152 
L 62.787549 223.294634 
L 62.906667 223.215116 
L 63.024545 223.135598 
L 63.1412 223.05608 
L 63.256655 222.976562 
L 63.370935 222.897044 
L 63.484069 222.817526 
L 63.596093 222.738008 
L 63.707044 222.65849 
L 63.816965 222.578973 
L 63.925906 222.499455 
L 64.033917 222.419937 
L 64.141053 222.340419 
L 64.247373 222.260901 
L 64.352933 222.181383 
L 64.457792 222.101865 
L 64.562005 222.022347 
L 64.665622 221.942829 
L 64.768689 221.863311 
L 64.871242 221.783794 
L 64.973309 221.704276 
L 65.074905 221.624758 
L 70.82127 221.624758 
L 70.82127 221.624758 
L 70.922866 221.704276 
L 71.024933 221.783794 
L 71.127486 221.863311 
L 71.230553 221.942829 
L 71.33417 222.022347 
L 71.438382 222.101865 
L 71.543241 222.181383 
L 71.648802 222.260901 
L 71.755122 222.340419 
L 71.862258 222.419937 
L 71.970269 222.499455 
L 72.079209 222.578973 
L 72.189131 222.65849 
L 72.300082 222.738008 
L 72.412105 222.817526 
L 72.52524 222.897044 
L 72.63952 222.976562 
L 72.754975 223.05608 
L 72.87163 223.135598 
L 72.989508 223.215116 
L 73.108626 223.294634 
L 73.229002 223.374152 
L 73.350648 223.453669 
L 73.473576 223.533187 
L 73.597796 223.612705 
L 73.723312 223.692223 
L 73.850127 223.771741 
L 73.978237 223.851259 
L 74.10763 223.930777 
L 74.238287 224.010295 
L 74.370172 224.089813 
L 74.503237 224.16933 
L 74.637413 224.248848 
L 74.772607 224.328366 
L 74.908697 224.407884 
L 75.045531 224.487402 
L 75.182921 224.56692 
L 75.320636 224.646438 
L 75.458403 224.725956 
L 75.595903 224.805474 
L 75.732764 224.884992 
L 75.868567 224.964509 
L 76.002839 225.044027 
L 76.135055 225.123545 
L 76.264642 225.203063 
L 76.390978 225.282581 
L 76.5134 225.362099 
L 76.631204 225.441617 
L 76.743659 225.521135 
L 76.850006 225.600653 
L 76.949473 225.680171 
L 77.041283 225.759688 
L 77.124662 225.839206 
L 77.198855 225.918724 
L 77.263129 225.998242 
L 77.316795 226.07776 
L 77.359209 226.157278 
L 77.389789 226.236796 
L 77.408023 226.316314 
L 77.413479 226.395832 
L 77.405811 226.475349 
L 77.38477 226.554867 
L 77.350205 226.634385 
L 77.302069 226.713903 
L 77.240421 226.793421 
L 77.165426 226.872939 
L 77.077354 226.952457 
L 76.976574 227.031975 
L 76.863556 227.111493 
L 76.738854 227.191011 
L 76.60311 227.270528 
L 76.457036 227.350046 
L 76.301407 227.429564 
L 76.137049 227.509082 
L 75.96483 227.5886 
L 75.785646 227.668118 
L 75.600407 227.747636 
L 75.41003 227.827154 
L 75.215423 227.906672 
L 75.017478 227.98619 
L 74.817056 228.065707 
L 74.614983 228.145225 
L 74.41204 228.224743 
L 74.208957 228.304261 
L 74.006404 228.383779 
L 73.804994 228.463297 
L 73.605273 228.542815 
L 73.407725 228.622333 
L 73.212768 228.701851 
L 73.020757 228.781368 
L 72.831985 228.860886 
L 72.646689 228.940404 
L 72.46505 229.019922 
L 72.287204 229.09944 
L 72.11324 229.178958 
L 71.943211 229.258476 
L 71.777138 229.337994 
L 71.615017 229.417512 
L 71.456822 229.49703 
z
" clip-path="url(#p80e8f05481)" style="fill: #d2691e; fill-opacity: 0.3"/>
   </g>
   <g id="PathCollection_1">
    <defs>
     <path id="mcec0631607" d="M 0 3 
C 0.795609 3 1.55874 2.683901 2.12132 2.12132 
C 2.683901 1.55874 3 0.795609 3 0 
C 3 -0.795609 2.683901 -1.55874 2.12132 -2.12132 
C 1.55874 -2.683901 0.795609 -3 0 -3 
C -0.795609 -3 -1.55874 -2.683901 -2.12132 -2.12132 
C -2.683901 -1.55874 -3 -0.795609 -3 0 
C -3 0.795609 -2.683901 1.55874 -2.12132 2.12132 
C -1.55874 2.683901 -0.795609 3 0 3 
z
" style="stroke: #d2691e"/>
    </defs>
    <g clip-path="url(#p80e8f05481)">
     <use xlink:href="#mcec0631607" x="67.948087" y="225.813447" style="fill: #d2691e; stroke: #d2691e"/>
    </g>
   </g>
   <g id="PolyCollection_2">
    <path d="M 111.284116 184.924448 
L 100.335192 184.924448 
L 100.114044 184.790488 
L 99.892448 184.656527 
L 99.67108 184.522566 
L 99.450647 184.388605 
L 99.231885 184.254644 
L 99.015555 184.120683 
L 98.802442 183.986722 
L 98.593343 183.852761 
L 98.389069 183.7188 
L 98.190432 183.584839 
L 97.998245 183.450879 
L 97.813312 183.316918 
L 97.636419 183.182957 
L 97.46833 183.048996 
L 97.309778 182.915035 
L 97.161459 182.781074 
L 97.02402 182.647113 
L 96.898058 182.513152 
L 96.784106 182.379191 
L 96.682632 182.24523 
L 96.59403 182.111269 
L 96.518614 181.977309 
L 96.456616 181.843348 
L 96.408178 181.709387 
L 96.373351 181.575426 
L 96.352091 181.441465 
L 96.344262 181.307504 
L 96.34963 181.173543 
L 96.36787 181.039582 
L 96.398561 180.905621 
L 96.441198 180.77166 
L 96.495187 180.6377 
L 96.559859 180.503739 
L 96.634471 180.369778 
L 96.718213 180.235817 
L 96.810222 180.101856 
L 96.909583 179.967895 
L 97.015346 179.833934 
L 97.126529 179.699973 
L 97.242136 179.566012 
L 97.36116 179.432051 
L 97.482599 179.298091 
L 97.605463 179.16413 
L 97.728788 179.030169 
L 97.851643 178.896208 
L 97.973138 178.762247 
L 98.092439 178.628286 
L 98.208767 178.494325 
L 98.321413 178.360364 
L 98.429741 178.226403 
L 98.533192 178.092442 
L 98.63129 177.958482 
L 98.723644 177.824521 
L 98.80995 177.69056 
L 98.889993 177.556599 
L 98.963645 177.422638 
L 99.030865 177.288677 
L 99.091695 177.154716 
L 99.146258 177.020755 
L 99.194755 176.886794 
L 99.237457 176.752833 
L 99.274703 176.618873 
L 99.306892 176.484912 
L 99.334475 176.350951 
L 99.35795 176.21699 
L 99.377856 176.083029 
L 99.394763 175.949068 
L 99.409265 175.815107 
L 99.421974 175.681146 
L 99.433512 175.547185 
L 99.444504 175.413224 
L 99.455571 175.279264 
L 99.467324 175.145303 
L 99.480357 175.011342 
L 99.495246 174.877381 
L 99.512536 174.74342 
L 99.532743 174.609459 
L 99.556348 174.475498 
L 99.583793 174.341537 
L 99.61548 174.207576 
L 99.651765 174.073615 
L 99.692961 173.939655 
L 99.739332 173.805694 
L 99.791096 173.671733 
L 99.848422 173.537772 
L 99.911431 173.403811 
L 99.980198 173.26985 
L 100.054749 173.135889 
L 100.135066 173.001928 
L 100.221087 172.867967 
L 100.312708 172.734006 
L 100.409785 172.600045 
L 100.512133 172.466085 
L 100.619537 172.332124 
L 100.731744 172.198163 
L 100.848474 172.064202 
L 100.969419 171.930241 
L 101.094245 171.79628 
L 101.2226 171.662319 
L 110.396707 171.662319 
L 110.396707 171.662319 
L 110.525062 171.79628 
L 110.649889 171.930241 
L 110.770833 172.064202 
L 110.887563 172.198163 
L 110.99977 172.332124 
L 111.107174 172.466085 
L 111.209522 172.600045 
L 111.306599 172.734006 
L 111.39822 172.867967 
L 111.484241 173.001928 
L 111.564558 173.135889 
L 111.639109 173.26985 
L 111.707876 173.403811 
L 111.770885 173.537772 
L 111.828211 173.671733 
L 111.879975 173.805694 
L 111.926346 173.939655 
L 111.967542 174.073615 
L 112.003827 174.207576 
L 112.035514 174.341537 
L 112.062959 174.475498 
L 112.086564 174.609459 
L 112.106771 174.74342 
L 112.124061 174.877381 
L 112.13895 175.011342 
L 112.151984 175.145303 
L 112.163736 175.279264 
L 112.174803 175.413224 
L 112.185795 175.547185 
L 112.197333 175.681146 
L 112.210042 175.815107 
L 112.224544 175.949068 
L 112.241451 176.083029 
L 112.261357 176.21699 
L 112.284832 176.350951 
L 112.312415 176.484912 
L 112.344604 176.618873 
L 112.38185 176.752833 
L 112.424552 176.886794 
L 112.473049 177.020755 
L 112.527612 177.154716 
L 112.588442 177.288677 
L 112.655662 177.422638 
L 112.729314 177.556599 
L 112.809357 177.69056 
L 112.895663 177.824521 
L 112.988017 177.958482 
L 113.086115 178.092442 
L 113.189566 178.226403 
L 113.297894 178.360364 
L 113.41054 178.494325 
L 113.526868 178.628286 
L 113.646169 178.762247 
L 113.767664 178.896208 
L 113.890519 179.030169 
L 114.013844 179.16413 
L 114.136708 179.298091 
L 114.258147 179.432051 
L 114.377171 179.566012 
L 114.492778 179.699973 
L 114.603961 179.833934 
L 114.709724 179.967895 
L 114.809085 180.101856 
L 114.901094 180.235817 
L 114.984836 180.369778 
L 115.059448 180.503739 
L 115.12412 180.6377 
L 115.178109 180.77166 
L 115.220746 180.905621 
L 115.251437 181.039582 
L 115.269677 181.173543 
L 115.275045 181.307504 
L 115.267216 181.441465 
L 115.245956 181.575426 
L 115.211129 181.709387 
L 115.162691 181.843348 
L 115.100693 181.977309 
L 115.025277 182.111269 
L 114.936675 182.24523 
L 114.835201 182.379191 
L 114.721249 182.513152 
L 114.595287 182.647113 
L 114.457848 182.781074 
L 114.309529 182.915035 
L 114.150977 183.048996 
L 113.982889 183.182957 
L 113.805995 183.316918 
L 113.621062 183.450879 
L 113.428875 183.584839 
L 113.230239 183.7188 
L 113.025964 183.852761 
L 112.816865 183.986722 
L 112.603752 184.120683 
L 112.387422 184.254644 
L 112.16866 184.388605 
L 111.948227 184.522566 
L 111.726859 184.656527 
L 111.505263 184.790488 
L 111.284116 184.924448 
z
" clip-path="url(#p80e8f05481)" style="fill: #008000; fill-opacity: 0.3"/>
   </g>
   <g id="PathCollection_2">
    <defs>
     <path id="m05979a8b11" d="M 0 3 
C 0.795609 3 1.55874 2.683901 2.12132 2.12132 
C 2.683901 1.55874 3 0.795609 3 0 
C 3 -0.795609 2.683901 -1.55874 2.12132 -2.12132 
C 1.55874 -2.683901 0.795609 -3 0 -3 
C -0.795609 -3 -1.55874 -2.683901 -2.12132 -2.12132 
C -2.683901 -1.55874 -3 -0.795609 -3 0 
C -3 0.795609 -2.683901 1.55874 -2.12132 2.12132 
C -1.55874 2.683901 -0.795609 3 0 3 
z
" style="stroke: #008000"/>
    </defs>
    <g clip-path="url(#p80e8f05481)">
     <use xlink:href="#m05979a8b11" x="105.809654" y="178.715949" style="fill: #008000; stroke: #008000"/>
    </g>
   </g>
   <g id="PolyCollection_3">
    <path d="M 151.513993 187.825732 
L 135.828446 187.825732 
L 135.662923 187.722134 
L 135.505498 187.618537 
L 135.356534 187.51494 
L 135.216335 187.411343 
L 135.085154 187.307745 
L 134.963187 187.204148 
L 134.850572 187.100551 
L 134.747393 186.996954 
L 134.653676 186.893356 
L 134.569395 186.789759 
L 134.494468 186.686162 
L 134.428768 186.582565 
L 134.372116 186.478967 
L 134.324292 186.37537 
L 134.285035 186.271773 
L 134.254047 186.168176 
L 134.231 186.064578 
L 134.215537 185.960981 
L 134.207279 185.857384 
L 134.205828 185.753786 
L 134.210774 185.650189 
L 134.221697 185.546592 
L 134.23817 185.442995 
L 134.259769 185.339397 
L 134.28607 185.2358 
L 134.316657 185.132203 
L 134.351124 185.028606 
L 134.389078 184.925008 
L 134.43014 184.821411 
L 134.473949 184.717814 
L 134.520163 184.614217 
L 134.56846 184.510619 
L 134.618539 184.407022 
L 134.670122 184.303425 
L 134.722951 184.199828 
L 134.776791 184.09623 
L 134.831429 183.992633 
L 134.886672 183.889036 
L 134.94235 183.785439 
L 134.998308 183.681841 
L 135.054413 183.578244 
L 135.110549 183.474647 
L 135.166616 183.37105 
L 135.222529 183.267452 
L 135.278218 183.163855 
L 135.333625 183.060258 
L 135.388707 182.95666 
L 135.443431 182.853063 
L 135.497776 182.749466 
L 135.551729 182.645869 
L 135.605292 182.542271 
L 135.658471 182.438674 
L 135.711287 182.335077 
L 135.763766 182.23148 
L 135.815947 182.127882 
L 135.867875 182.024285 
L 135.919606 181.920688 
L 135.971206 181.817091 
L 136.022749 181.713493 
L 136.074319 181.609896 
L 136.126009 181.506299 
L 136.177922 181.402702 
L 136.230167 181.299104 
L 136.282865 181.195507 
L 136.336142 181.09191 
L 136.390133 180.988313 
L 136.444978 180.884715 
L 136.500825 180.781118 
L 136.557823 180.677521 
L 136.616126 180.573923 
L 136.675891 180.470326 
L 136.737275 180.366729 
L 136.800433 180.263132 
L 136.865518 180.159534 
L 136.93268 180.055937 
L 137.002062 179.95234 
L 137.073802 179.848743 
L 137.148025 179.745145 
L 137.22485 179.641548 
L 137.30438 179.537951 
L 137.386708 179.434354 
L 137.47191 179.330756 
L 137.560046 179.227159 
L 137.651161 179.123562 
L 137.745281 179.019965 
L 137.842412 178.916367 
L 137.942543 178.81277 
L 138.045642 178.709173 
L 138.151658 178.605576 
L 138.260521 178.501978 
L 138.37214 178.398381 
L 138.486406 178.294784 
L 138.603191 178.191187 
L 138.722349 178.087589 
L 138.843718 177.983992 
L 138.967119 177.880395 
L 139.092359 177.776797 
L 139.219231 177.6732 
L 139.347518 177.569603 
L 147.994922 177.569603 
L 147.994922 177.569603 
L 148.123208 177.6732 
L 148.250081 177.776797 
L 148.375321 177.880395 
L 148.498721 177.983992 
L 148.62009 178.087589 
L 148.739248 178.191187 
L 148.856033 178.294784 
L 148.970299 178.398381 
L 149.081918 178.501978 
L 149.190781 178.605576 
L 149.296797 178.709173 
L 149.399897 178.81277 
L 149.500028 178.916367 
L 149.597159 179.019965 
L 149.691278 179.123562 
L 149.782393 179.227159 
L 149.87053 179.330756 
L 149.955732 179.434354 
L 150.03806 179.537951 
L 150.11759 179.641548 
L 150.194414 179.745145 
L 150.268638 179.848743 
L 150.340377 179.95234 
L 150.40976 180.055937 
L 150.476922 180.159534 
L 150.542007 180.263132 
L 150.605165 180.366729 
L 150.666548 180.470326 
L 150.726313 180.573923 
L 150.784617 180.677521 
L 150.841615 180.781118 
L 150.897461 180.884715 
L 150.952306 180.988313 
L 151.006297 181.09191 
L 151.059575 181.195507 
L 151.112272 181.299104 
L 151.164518 181.402702 
L 151.21643 181.506299 
L 151.26812 181.609896 
L 151.319691 181.713493 
L 151.371234 181.817091 
L 151.422834 181.920688 
L 151.474565 182.024285 
L 151.526493 182.127882 
L 151.578673 182.23148 
L 151.631153 182.335077 
L 151.683968 182.438674 
L 151.737148 182.542271 
L 151.79071 182.645869 
L 151.844664 182.749466 
L 151.899008 182.853063 
L 151.953732 182.95666 
L 152.008814 183.060258 
L 152.064222 183.163855 
L 152.11991 183.267452 
L 152.175823 183.37105 
L 152.23189 183.474647 
L 152.288026 183.578244 
L 152.344132 183.681841 
L 152.40009 183.785439 
L 152.455767 183.889036 
L 152.511011 183.992633 
L 152.565649 184.09623 
L 152.619489 184.199828 
L 152.672318 184.303425 
L 152.7239 184.407022 
L 152.773979 184.510619 
L 152.822276 184.614217 
L 152.86849 184.717814 
L 152.912299 184.821411 
L 152.953361 184.925008 
L 152.991315 185.028606 
L 153.025782 185.132203 
L 153.05637 185.2358 
L 153.082671 185.339397 
L 153.10427 185.442995 
L 153.120743 185.546592 
L 153.131665 185.650189 
L 153.136611 185.753786 
L 153.135161 185.857384 
L 153.126903 185.960981 
L 153.11144 186.064578 
L 153.088392 186.168176 
L 153.057405 186.271773 
L 153.018147 186.37537 
L 152.970323 186.478967 
L 152.913671 186.582565 
L 152.847971 186.686162 
L 152.773045 186.789759 
L 152.688763 186.893356 
L 152.595047 186.996954 
L 152.491867 187.100551 
L 152.379253 187.204148 
L 152.257285 187.307745 
L 152.126104 187.411343 
L 151.985906 187.51494 
L 151.836941 187.618537 
L 151.679517 187.722134 
L 151.513993 187.825732 
z
" clip-path="url(#p80e8f05481)" style="fill: #ff69b4; fill-opacity: 0.3"/>
   </g>
   <g id="PathCollection_3">
    <defs>
     <path id="mb048150455" d="M 0 3 
C 0.795609 3 1.55874 2.683901 2.12132 2.12132 
C 2.683901 1.55874 3 0.795609 3 0 
C 3 -0.795609 2.683901 -1.55874 2.12132 -2.12132 
C 1.55874 -2.683901 0.795609 -3 0 -3 
C -0.795609 -3 -1.55874 -2.683901 -2.12132 -2.12132 
C -2.683901 -1.55874 -3 -0.795609 -3 0 
C -3 0.795609 -2.683901 1.55874 -2.12132 2.12132 
C -1.55874 2.683901 -0.795609 3 0 3 
z
" style="stroke: #ff69b4"/>
    </defs>
    <g clip-path="url(#p80e8f05481)">
     <use xlink:href="#mb048150455" x="143.67122" y="183.604395" style="fill: #ff69b4; stroke: #ff69b4"/>
    </g>
   </g>
   <g id="matplotlib.axis_1">
    <g id="xtick_1">
     <g id="line2d_1">
      <defs>
       <path id="m42819e35ec" d="M 0 0 
L 0 3.5 
" style="stroke: #000000; stroke-width: 0.8"/>
      </defs>
      <g>
       <use xlink:href="#m42819e35ec" x="67.948087" y="298.635041" style="stroke: #000000; stroke-width: 0.8"/>
      </g>
     </g>
     <g id="text_1">
      <!-- Untrained -->
      <g style="fill: #d2691e" transform="translate(44.566099 354.027661) rotate(-45) scale(0.12 -0.12)">
       <defs>
        <path id="DejaVuSans-55" d="M 556 4666 
L 1191 4666 
L 1191 1831 
Q 1191 1081 1462 751 
Q 1734 422 2344 422 
Q 2950 422 3222 751 
Q 3494 1081 3494 1831 
L 3494 4666 
L 4128 4666 
L 4128 1753 
Q 4128 841 3676 375 
Q 3225 -91 2344 -91 
Q 1459 -91 1007 375 
Q 556 841 556 1753 
L 556 4666 
z
" transform="scale(0.015625)"/>
        <path id="DejaVuSans-6e" d="M 3513 2113 
L 3513 0 
L 2938 0 
L 2938 2094 
Q 2938 2591 2744 2837 
Q 2550 3084 2163 3084 
Q 1697 3084 1428 2787 
Q 1159 2491 1159 1978 
L 1159 0 
L 581 0 
L 581 3500 
L 1159 3500 
L 1159 2956 
Q 1366 3272 1645 3428 
Q 1925 3584 2291 3584 
Q 2894 3584 3203 3211 
Q 3513 2838 3513 2113 
z
" transform="scale(0.015625)"/>
        <path id="DejaVuSans-74" d="M 1172 4494 
L 1172 3500 
L 2356 3500 
L 2356 3053 
L 1172 3053 
L 1172 1153 
Q 1172 725 1289 603 
Q 1406 481 1766 481 
L 2356 481 
L 2356 0 
L 1766 0 
Q 1100 0 847 248 
Q 594 497 594 1153 
L 594 3053 
L 172 3053 
L 172 3500 
L 594 3500 
L 594 4494 
L 1172 4494 
z
" transform="scale(0.015625)"/>
        <path id="DejaVuSans-72" d="M 2631 2963 
Q 2534 3019 2420 3045 
Q 2306 3072 2169 3072 
Q 1681 3072 1420 2755 
Q 1159 2438 1159 1844 
L 1159 0 
L 581 0 
L 581 3500 
L 1159 3500 
L 1159 2956 
Q 1341 3275 1631 3429 
Q 1922 3584 2338 3584 
Q 2397 3584 2469 3576 
Q 2541 3569 2628 3553 
L 2631 2963 
z
" transform="scale(0.015625)"/>
        <path id="DejaVuSans-61" d="M 2194 1759 
Q 1497 1759 1228 1600 
Q 959 1441 959 1056 
Q 959 750 1161 570 
Q 1363 391 1709 391 
Q 2188 391 2477 730 
Q 2766 1069 2766 1631 
L 2766 1759 
L 2194 1759 
z
M 3341 1997 
L 3341 0 
L 2766 0 
L 2766 531 
Q 2569 213 2275 61 
Q 1981 -91 1556 -91 
Q 1019 -91 701 211 
Q 384 513 384 1019 
Q 384 1609 779 1909 
Q 1175 2209 1959 2209 
L 2766 2209 
L 2766 2266 
Q 2766 2663 2505 2880 
Q 2244 3097 1772 3097 
Q 1472 3097 1187 3025 
Q 903 2953 641 2809 
L 641 3341 
Q 956 3463 1253 3523 
Q 1550 3584 1831 3584 
Q 2591 3584 2966 3190 
Q 3341 2797 3341 1997 
z
" transform="scale(0.015625)"/>
        <path id="DejaVuSans-69" d="M 603 3500 
L 1178 3500 
L 1178 0 
L 603 0 
L 603 3500 
z
M 603 4863 
L 1178 4863 
L 1178 4134 
L 603 4134 
L 603 4863 
z
" transform="scale(0.015625)"/>
        <path id="DejaVuSans-65" d="M 3597 1894 
L 3597 1613 
L 953 1613 
Q 991 1019 1311 708 
Q 1631 397 2203 397 
Q 2534 397 2845 478 
Q 3156 559 3463 722 
L 3463 178 
Q 3153 47 2828 -22 
Q 2503 -91 2169 -91 
Q 1331 -91 842 396 
Q 353 884 353 1716 
Q 353 2575 817 3079 
Q 1281 3584 2069 3584 
Q 2775 3584 3186 3129 
Q 3597 2675 3597 1894 
z
M 3022 2063 
Q 3016 2534 2758 2815 
Q 2500 3097 2075 3097 
Q 1594 3097 1305 2825 
Q 1016 2553 972 2059 
L 3022 2063 
z
" transform="scale(0.015625)"/>
        <path id="DejaVuSans-64" d="M 2906 2969 
L 2906 4863 
L 3481 4863 
L 3481 0 
L 2906 0 
L 2906 525 
Q 2725 213 2448 61 
Q 2172 -91 1784 -91 
Q 1150 -91 751 415 
Q 353 922 353 1747 
Q 353 2572 751 3078 
Q 1150 3584 1784 3584 
Q 2172 3584 2448 3432 
Q 2725 3281 2906 2969 
z
M 947 1747 
Q 947 1113 1208 752 
Q 1469 391 1925 391 
Q 2381 391 2643 752 
Q 2906 1113 2906 1747 
Q 2906 2381 2643 2742 
Q 2381 3103 1925 3103 
Q 1469 3103 1208 2742 
Q 947 2381 947 1747 
z
" transform="scale(0.015625)"/>
       </defs>
       <use xlink:href="#DejaVuSans-55"/>
       <use xlink:href="#DejaVuSans-6e" x="73.193359"/>
       <use xlink:href="#DejaVuSans-74" x="136.572266"/>
       <use xlink:href="#DejaVuSans-72" x="175.78125"/>
       <use xlink:href="#DejaVuSans-61" x="216.894531"/>
       <use xlink:href="#DejaVuSans-69" x="278.173828"/>
       <use xlink:href="#DejaVuSans-6e" x="305.957031"/>
       <use xlink:href="#DejaVuSans-65" x="369.335938"/>
       <use xlink:href="#DejaVuSans-64" x="430.859375"/>
      </g>
      <!-- model -->
      <g style="fill: #d2691e" transform="translate(61.829139 355.76794) rotate(-45) scale(0.12 -0.12)">
       <defs>
        <path id="DejaVuSans-6d" d="M 3328 2828 
Q 3544 3216 3844 3400 
Q 4144 3584 4550 3584 
Q 5097 3584 5394 3201 
Q 5691 2819 5691 2113 
L 5691 0 
L 5113 0 
L 5113 2094 
Q 5113 2597 4934 2840 
Q 4756 3084 4391 3084 
Q 3944 3084 3684 2787 
Q 3425 2491 3425 1978 
L 3425 0 
L 2847 0 
L 2847 2094 
Q 2847 2600 2669 2842 
Q 2491 3084 2119 3084 
Q 1678 3084 1418 2786 
Q 1159 2488 1159 1978 
L 1159 0 
L 581 0 
L 581 3500 
L 1159 3500 
L 1159 2956 
Q 1356 3278 1631 3431 
Q 1906 3584 2284 3584 
Q 2666 3584 2933 3390 
Q 3200 3197 3328 2828 
z
" transform="scale(0.015625)"/>
        <path id="DejaVuSans-6f" d="M 1959 3097 
Q 1497 3097 1228 2736 
Q 959 2375 959 1747 
Q 959 1119 1226 758 
Q 1494 397 1959 397 
Q 2419 397 2687 759 
Q 2956 1122 2956 1747 
Q 2956 2369 2687 2733 
Q 2419 3097 1959 3097 
z
M 1959 3584 
Q 2709 3584 3137 3096 
Q 3566 2609 3566 1747 
Q 3566 888 3137 398 
Q 2709 -91 1959 -91 
Q 1206 -91 779 398 
Q 353 888 353 1747 
Q 353 2609 779 3096 
Q 1206 3584 1959 3584 
z
" transform="scale(0.015625)"/>
        <path id="DejaVuSans-6c" d="M 603 4863 
L 1178 4863 
L 1178 0 
L 603 0 
L 603 4863 
z
" transform="scale(0.015625)"/>
       </defs>
       <use xlink:href="#DejaVuSans-6d"/>
       <use xlink:href="#DejaVuSans-6f" x="97.412109"/>
       <use xlink:href="#DejaVuSans-64" x="158.59375"/>
       <use xlink:href="#DejaVuSans-65" x="222.070312"/>
       <use xlink:href="#DejaVuSans-6c" x="283.59375"/>
      </g>
     </g>
    </g>
    <g id="xtick_2">
     <g id="line2d_2">
      <g>
       <use xlink:href="#m42819e35ec" x="105.809654" y="298.635041" style="stroke: #000000; stroke-width: 0.8"/>
      </g>
     </g>
     <g id="text_2">
      <!-- CLoSeR -->
      <g style="fill: #008000" transform="translate(92.050902 344.282846) rotate(-45) scale(0.12 -0.12)">
       <defs>
        <path id="DejaVuSans-43" d="M 4122 4306 
L 4122 3641 
Q 3803 3938 3442 4084 
Q 3081 4231 2675 4231 
Q 1875 4231 1450 3742 
Q 1025 3253 1025 2328 
Q 1025 1406 1450 917 
Q 1875 428 2675 428 
Q 3081 428 3442 575 
Q 3803 722 4122 1019 
L 4122 359 
Q 3791 134 3420 21 
Q 3050 -91 2638 -91 
Q 1578 -91 968 557 
Q 359 1206 359 2328 
Q 359 3453 968 4101 
Q 1578 4750 2638 4750 
Q 3056 4750 3426 4639 
Q 3797 4528 4122 4306 
z
" transform="scale(0.015625)"/>
        <path id="DejaVuSans-4c" d="M 628 4666 
L 1259 4666 
L 1259 531 
L 3531 531 
L 3531 0 
L 628 0 
L 628 4666 
z
" transform="scale(0.015625)"/>
        <path id="DejaVuSans-53" d="M 3425 4513 
L 3425 3897 
Q 3066 4069 2747 4153 
Q 2428 4238 2131 4238 
Q 1616 4238 1336 4038 
Q 1056 3838 1056 3469 
Q 1056 3159 1242 3001 
Q 1428 2844 1947 2747 
L 2328 2669 
Q 3034 2534 3370 2195 
Q 3706 1856 3706 1288 
Q 3706 609 3251 259 
Q 2797 -91 1919 -91 
Q 1588 -91 1214 -16 
Q 841 59 441 206 
L 441 856 
Q 825 641 1194 531 
Q 1563 422 1919 422 
Q 2459 422 2753 634 
Q 3047 847 3047 1241 
Q 3047 1584 2836 1778 
Q 2625 1972 2144 2069 
L 1759 2144 
Q 1053 2284 737 2584 
Q 422 2884 422 3419 
Q 422 4038 858 4394 
Q 1294 4750 2059 4750 
Q 2388 4750 2728 4690 
Q 3069 4631 3425 4513 
z
" transform="scale(0.015625)"/>
        <path id="DejaVuSans-52" d="M 2841 2188 
Q 3044 2119 3236 1894 
Q 3428 1669 3622 1275 
L 4263 0 
L 3584 0 
L 2988 1197 
Q 2756 1666 2539 1819 
Q 2322 1972 1947 1972 
L 1259 1972 
L 1259 0 
L 628 0 
L 628 4666 
L 2053 4666 
Q 2853 4666 3247 4331 
Q 3641 3997 3641 3322 
Q 3641 2881 3436 2590 
Q 3231 2300 2841 2188 
z
M 1259 4147 
L 1259 2491 
L 2053 2491 
Q 2509 2491 2742 2702 
Q 2975 2913 2975 3322 
Q 2975 3731 2742 3939 
Q 2509 4147 2053 4147 
L 1259 4147 
z
" transform="scale(0.015625)"/>
       </defs>
       <use xlink:href="#DejaVuSans-43"/>
       <use xlink:href="#DejaVuSans-4c" x="69.824219"/>
       <use xlink:href="#DejaVuSans-6f" x="123.787109"/>
       <use xlink:href="#DejaVuSans-53" x="184.96875"/>
       <use xlink:href="#DejaVuSans-65" x="248.445312"/>
       <use xlink:href="#DejaVuSans-52" x="309.96875"/>
      </g>
     </g>
    </g>
    <g id="xtick_3">
     <g id="line2d_3">
      <g>
       <use xlink:href="#m42819e35ec" x="143.67122" y="298.635041" style="stroke: #000000; stroke-width: 0.8"/>
      </g>
     </g>
     <g id="text_3">
      <!-- Supervised -->
      <g style="fill: #ff69b4" transform="translate(122.378467 359.35085) rotate(-45) scale(0.12 -0.12)">
       <defs>
        <path id="DejaVuSans-75" d="M 544 1381 
L 544 3500 
L 1119 3500 
L 1119 1403 
Q 1119 906 1312 657 
Q 1506 409 1894 409 
Q 2359 409 2629 706 
Q 2900 1003 2900 1516 
L 2900 3500 
L 3475 3500 
L 3475 0 
L 2900 0 
L 2900 538 
Q 2691 219 2414 64 
Q 2138 -91 1772 -91 
Q 1169 -91 856 284 
Q 544 659 544 1381 
z
M 1991 3584 
L 1991 3584 
z
" transform="scale(0.015625)"/>
        <path id="DejaVuSans-70" d="M 1159 525 
L 1159 -1331 
L 581 -1331 
L 581 3500 
L 1159 3500 
L 1159 2969 
Q 1341 3281 1617 3432 
Q 1894 3584 2278 3584 
Q 2916 3584 3314 3078 
Q 3713 2572 3713 1747 
Q 3713 922 3314 415 
Q 2916 -91 2278 -91 
Q 1894 -91 1617 61 
Q 1341 213 1159 525 
z
M 3116 1747 
Q 3116 2381 2855 2742 
Q 2594 3103 2138 3103 
Q 1681 3103 1420 2742 
Q 1159 2381 1159 1747 
Q 1159 1113 1420 752 
Q 1681 391 2138 391 
Q 2594 391 2855 752 
Q 3116 1113 3116 1747 
z
" transform="scale(0.015625)"/>
        <path id="DejaVuSans-76" d="M 191 3500 
L 800 3500 
L 1894 563 
L 2988 3500 
L 3597 3500 
L 2284 0 
L 1503 0 
L 191 3500 
z
" transform="scale(0.015625)"/>
        <path id="DejaVuSans-73" d="M 2834 3397 
L 2834 2853 
Q 2591 2978 2328 3040 
Q 2066 3103 1784 3103 
Q 1356 3103 1142 2972 
Q 928 2841 928 2578 
Q 928 2378 1081 2264 
Q 1234 2150 1697 2047 
L 1894 2003 
Q 2506 1872 2764 1633 
Q 3022 1394 3022 966 
Q 3022 478 2636 193 
Q 2250 -91 1575 -91 
Q 1294 -91 989 -36 
Q 684 19 347 128 
L 347 722 
Q 666 556 975 473 
Q 1284 391 1588 391 
Q 1994 391 2212 530 
Q 2431 669 2431 922 
Q 2431 1156 2273 1281 
Q 2116 1406 1581 1522 
L 1381 1569 
Q 847 1681 609 1914 
Q 372 2147 372 2553 
Q 372 3047 722 3315 
Q 1072 3584 1716 3584 
Q 2034 3584 2315 3537 
Q 2597 3491 2834 3397 
z
" transform="scale(0.015625)"/>
       </defs>
       <use xlink:href="#DejaVuSans-53"/>
       <use xlink:href="#DejaVuSans-75" x="63.476562"/>
       <use xlink:href="#DejaVuSans-70" x="126.855469"/>
       <use xlink:href="#DejaVuSans-65" x="190.332031"/>
       <use xlink:href="#DejaVuSans-72" x="251.855469"/>
       <use xlink:href="#DejaVuSans-76" x="292.96875"/>
       <use xlink:href="#DejaVuSans-69" x="352.148438"/>
       <use xlink:href="#DejaVuSans-73" x="379.931641"/>
       <use xlink:href="#DejaVuSans-65" x="432.03125"/>
       <use xlink:href="#DejaVuSans-64" x="493.554688"/>
      </g>
     </g>
    </g>
   </g>
   <g id="matplotlib.axis_2">
    <g id="ytick_1">
     <g id="line2d_4">
      <defs>
       <path id="m126c63f418" d="M 0 0 
L -3.5 0 
" style="stroke: #000000; stroke-width: 0.8"/>
      </defs>
      <g>
       <use xlink:href="#m126c63f418" x="53.75" y="293.522376" style="stroke: #000000; stroke-width: 0.8"/>
      </g>
     </g>
     <g id="text_4">
      <!-- 0.0 -->
      <g transform="translate(27.66625 298.081439) scale(0.12 -0.12)">
       <defs>
        <path id="DejaVuSans-30" d="M 2034 4250 
Q 1547 4250 1301 3770 
Q 1056 3291 1056 2328 
Q 1056 1369 1301 889 
Q 1547 409 2034 409 
Q 2525 409 2770 889 
Q 3016 1369 3016 2328 
Q 3016 3291 2770 3770 
Q 2525 4250 2034 4250 
z
M 2034 4750 
Q 2819 4750 3233 4129 
Q 3647 3509 3647 2328 
Q 3647 1150 3233 529 
Q 2819 -91 2034 -91 
Q 1250 -91 836 529 
Q 422 1150 422 2328 
Q 422 3509 836 4129 
Q 1250 4750 2034 4750 
z
" transform="scale(0.015625)"/>
        <path id="DejaVuSans-2e" d="M 684 794 
L 1344 794 
L 1344 0 
L 684 0 
L 684 794 
z
" transform="scale(0.015625)"/>
       </defs>
       <use xlink:href="#DejaVuSans-30"/>
       <use xlink:href="#DejaVuSans-2e" x="63.623047"/>
       <use xlink:href="#DejaVuSans-30" x="95.410156"/>
      </g>
     </g>
    </g>
    <g id="ytick_2">
     <g id="line2d_5">
      <g>
       <use xlink:href="#m126c63f418" x="53.75" y="231.924005" style="stroke: #000000; stroke-width: 0.8"/>
      </g>
     </g>
     <g id="text_5">
      <!-- 0.1 -->
      <g transform="translate(27.66625 236.483068) scale(0.12 -0.12)">
       <defs>
        <path id="DejaVuSans-31" d="M 794 531 
L 1825 531 
L 1825 4091 
L 703 3866 
L 703 4441 
L 1819 4666 
L 2450 4666 
L 2450 531 
L 3481 531 
L 3481 0 
L 794 0 
L 794 531 
z
" transform="scale(0.015625)"/>
       </defs>
       <use xlink:href="#DejaVuSans-30"/>
       <use xlink:href="#DejaVuSans-2e" x="63.623047"/>
       <use xlink:href="#DejaVuSans-31" x="95.410156"/>
      </g>
     </g>
    </g>
    <g id="ytick_3">
     <g id="line2d_6">
      <g>
       <use xlink:href="#m126c63f418" x="53.75" y="170.325635" style="stroke: #000000; stroke-width: 0.8"/>
      </g>
     </g>
     <g id="text_6">
      <!-- 0.2 -->
      <g transform="translate(27.66625 174.884697) scale(0.12 -0.12)">
       <defs>
        <path id="DejaVuSans-32" d="M 1228 531 
L 3431 531 
L 3431 0 
L 469 0 
L 469 531 
Q 828 903 1448 1529 
Q 2069 2156 2228 2338 
Q 2531 2678 2651 2914 
Q 2772 3150 2772 3378 
Q 2772 3750 2511 3984 
Q 2250 4219 1831 4219 
Q 1534 4219 1204 4116 
Q 875 4013 500 3803 
L 500 4441 
Q 881 4594 1212 4672 
Q 1544 4750 1819 4750 
Q 2544 4750 2975 4387 
Q 3406 4025 3406 3419 
Q 3406 3131 3298 2873 
Q 3191 2616 2906 2266 
Q 2828 2175 2409 1742 
Q 1991 1309 1228 531 
z
" transform="scale(0.015625)"/>
       </defs>
       <use xlink:href="#DejaVuSans-30"/>
       <use xlink:href="#DejaVuSans-2e" x="63.623047"/>
       <use xlink:href="#DejaVuSans-32" x="95.410156"/>
      </g>
     </g>
    </g>
    <g id="ytick_4">
     <g id="line2d_7">
      <g>
       <use xlink:href="#m126c63f418" x="53.75" y="108.727264" style="stroke: #000000; stroke-width: 0.8"/>
      </g>
     </g>
     <g id="text_7">
      <!-- 0.3 -->
      <g transform="translate(27.66625 113.286326) scale(0.12 -0.12)">
       <defs>
        <path id="DejaVuSans-33" d="M 2597 2516 
Q 3050 2419 3304 2112 
Q 3559 1806 3559 1356 
Q 3559 666 3084 287 
Q 2609 -91 1734 -91 
Q 1441 -91 1130 -33 
Q 819 25 488 141 
L 488 750 
Q 750 597 1062 519 
Q 1375 441 1716 441 
Q 2309 441 2620 675 
Q 2931 909 2931 1356 
Q 2931 1769 2642 2001 
Q 2353 2234 1838 2234 
L 1294 2234 
L 1294 2753 
L 1863 2753 
Q 2328 2753 2575 2939 
Q 2822 3125 2822 3475 
Q 2822 3834 2567 4026 
Q 2313 4219 1838 4219 
Q 1578 4219 1281 4162 
Q 984 4106 628 3988 
L 628 4550 
Q 988 4650 1302 4700 
Q 1616 4750 1894 4750 
Q 2613 4750 3031 4423 
Q 3450 4097 3450 3541 
Q 3450 3153 3228 2886 
Q 3006 2619 2597 2516 
z
" transform="scale(0.015625)"/>
       </defs>
       <use xlink:href="#DejaVuSans-30"/>
       <use xlink:href="#DejaVuSans-2e" x="63.623047"/>
       <use xlink:href="#DejaVuSans-33" x="95.410156"/>
      </g>
     </g>
    </g>
    <g id="text_8">
     <!-- Classification accuracy -->
     <g transform="translate(21.170625 243.31502) rotate(-90) scale(0.12 -0.12)">
      <defs>
       <path id="DejaVuSans-66" d="M 2375 4863 
L 2375 4384 
L 1825 4384 
Q 1516 4384 1395 4259 
Q 1275 4134 1275 3809 
L 1275 3500 
L 2222 3500 
L 2222 3053 
L 1275 3053 
L 1275 0 
L 697 0 
L 697 3053 
L 147 3053 
L 147 3500 
L 697 3500 
L 697 3744 
Q 697 4328 969 4595 
Q 1241 4863 1831 4863 
L 2375 4863 
z
" transform="scale(0.015625)"/>
       <path id="DejaVuSans-63" d="M 3122 3366 
L 3122 2828 
Q 2878 2963 2633 3030 
Q 2388 3097 2138 3097 
Q 1578 3097 1268 2742 
Q 959 2388 959 1747 
Q 959 1106 1268 751 
Q 1578 397 2138 397 
Q 2388 397 2633 464 
Q 2878 531 3122 666 
L 3122 134 
Q 2881 22 2623 -34 
Q 2366 -91 2075 -91 
Q 1284 -91 818 406 
Q 353 903 353 1747 
Q 353 2603 823 3093 
Q 1294 3584 2113 3584 
Q 2378 3584 2631 3529 
Q 2884 3475 3122 3366 
z
" transform="scale(0.015625)"/>
       <path id="DejaVuSans-20" transform="scale(0.015625)"/>
       <path id="DejaVuSans-79" d="M 2059 -325 
Q 1816 -950 1584 -1140 
Q 1353 -1331 966 -1331 
L 506 -1331 
L 506 -850 
L 844 -850 
Q 1081 -850 1212 -737 
Q 1344 -625 1503 -206 
L 1606 56 
L 191 3500 
L 800 3500 
L 1894 763 
L 2988 3500 
L 3597 3500 
L 2059 -325 
z
" transform="scale(0.015625)"/>
      </defs>
      <use xlink:href="#DejaVuSans-43"/>
      <use xlink:href="#DejaVuSans-6c" x="69.824219"/>
      <use xlink:href="#DejaVuSans-61" x="97.607422"/>
      <use xlink:href="#DejaVuSans-73" x="158.886719"/>
      <use xlink:href="#DejaVuSans-73" x="210.986328"/>
      <use xlink:href="#DejaVuSans-69" x="263.085938"/>
      <use xlink:href="#DejaVuSans-66" x="290.869141"/>
      <use xlink:href="#DejaVuSans-69" x="326.074219"/>
      <use xlink:href="#DejaVuSans-63" x="353.857422"/>
      <use xlink:href="#DejaVuSans-61" x="408.837891"/>
      <use xlink:href="#DejaVuSans-74" x="470.117188"/>
      <use xlink:href="#DejaVuSans-69" x="509.326172"/>
      <use xlink:href="#DejaVuSans-6f" x="537.109375"/>
      <use xlink:href="#DejaVuSans-6e" x="598.291016"/>
      <use xlink:href="#DejaVuSans-20" x="661.669922"/>
      <use xlink:href="#DejaVuSans-61" x="693.457031"/>
      <use xlink:href="#DejaVuSans-63" x="754.736328"/>
      <use xlink:href="#DejaVuSans-63" x="809.716797"/>
      <use xlink:href="#DejaVuSans-75" x="864.697266"/>
      <use xlink:href="#DejaVuSans-72" x="928.076172"/>
      <use xlink:href="#DejaVuSans-61" x="969.189453"/>
      <use xlink:href="#DejaVuSans-63" x="1030.46875"/>
      <use xlink:href="#DejaVuSans-79" x="1085.449219"/>
     </g>
    </g>
   </g>
   <g id="line2d_8">
    <path d="M 53.75 287.362539 
L 157.869307 287.362539 
" clip-path="url(#p80e8f05481)" style="fill: none; stroke-dasharray: 1.5,2.475; stroke-dashoffset: 0; stroke: #000000; stroke-width: 1.5"/>
   </g>
   <g id="patch_3">
    <path d="M 53.75 298.635041 
L 53.75 50.64 
" style="fill: none; stroke: #000000; stroke-width: 0.8; stroke-linejoin: miter; stroke-linecap: square"/>
   </g>
   <g id="patch_4">
    <path d="M 157.869307 298.635041 
L 157.869307 50.64 
" style="fill: none; stroke: #000000; stroke-width: 0.8; stroke-linejoin: miter; stroke-linecap: square"/>
   </g>
   <g id="patch_5">
    <path d="M 53.75 298.635041 
L 157.869307 298.635041 
" style="fill: none; stroke: #000000; stroke-width: 0.8; stroke-linejoin: miter; stroke-linecap: square"/>
   </g>
   <g id="patch_6">
    <path d="M 53.75 50.64 
L 157.869307 50.64 
" style="fill: none; stroke: #000000; stroke-width: 0.8; stroke-linejoin: miter; stroke-linecap: square"/>
   </g>
   <g id="text_9">
    <!-- Single encoder -->
    <g transform="translate(61.024341 44.64) scale(0.12 -0.12)">
     <defs>
      <path id="DejaVuSans-67" d="M 2906 1791 
Q 2906 2416 2648 2759 
Q 2391 3103 1925 3103 
Q 1463 3103 1205 2759 
Q 947 2416 947 1791 
Q 947 1169 1205 825 
Q 1463 481 1925 481 
Q 2391 481 2648 825 
Q 2906 1169 2906 1791 
z
M 3481 434 
Q 3481 -459 3084 -895 
Q 2688 -1331 1869 -1331 
Q 1566 -1331 1297 -1286 
Q 1028 -1241 775 -1147 
L 775 -588 
Q 1028 -725 1275 -790 
Q 1522 -856 1778 -856 
Q 2344 -856 2625 -561 
Q 2906 -266 2906 331 
L 2906 616 
Q 2728 306 2450 153 
Q 2172 0 1784 0 
Q 1141 0 747 490 
Q 353 981 353 1791 
Q 353 2603 747 3093 
Q 1141 3584 1784 3584 
Q 2172 3584 2450 3431 
Q 2728 3278 2906 2969 
L 2906 3500 
L 3481 3500 
L 3481 434 
z
" transform="scale(0.015625)"/>
     </defs>
     <use xlink:href="#DejaVuSans-53"/>
     <use xlink:href="#DejaVuSans-69" x="63.476562"/>
     <use xlink:href="#DejaVuSans-6e" x="91.259766"/>
     <use xlink:href="#DejaVuSans-67" x="154.638672"/>
     <use xlink:href="#DejaVuSans-6c" x="218.115234"/>
     <use xlink:href="#DejaVuSans-65" x="245.898438"/>
     <use xlink:href="#DejaVuSans-20" x="307.421875"/>
     <use xlink:href="#DejaVuSans-65" x="339.208984"/>
     <use xlink:href="#DejaVuSans-6e" x="400.732422"/>
     <use xlink:href="#DejaVuSans-63" x="464.111328"/>
     <use xlink:href="#DejaVuSans-6f" x="519.091797"/>
     <use xlink:href="#DejaVuSans-64" x="580.273438"/>
     <use xlink:href="#DejaVuSans-65" x="643.75"/>
     <use xlink:href="#DejaVuSans-72" x="705.273438"/>
    </g>
   </g>
  </g>
  <g id="axes_2">
   <g id="patch_7">
    <path d="M 196.484215 298.635041 
L 300.603522 298.635041 
L 300.603522 50.64 
L 196.484215 50.64 
z
" style="fill: #ffffff"/>
   </g>
   <g id="PolyCollection_4">
    <path d="M 212.405278 174.144734 
L 208.959327 174.144734 
L 208.935471 174.004115 
L 208.913104 173.863497 
L 208.891976 173.722878 
L 208.871797 173.58226 
L 208.852246 173.441641 
L 208.832968 173.301023 
L 208.813582 173.160404 
L 208.793685 173.019786 
L 208.772857 172.879167 
L 208.750662 172.738548 
L 208.72666 172.59793 
L 208.70041 172.457311 
L 208.671473 172.316693 
L 208.639422 172.176074 
L 208.603846 172.035456 
L 208.564356 171.894837 
L 208.520588 171.754219 
L 208.472212 171.6136 
L 208.418933 171.472982 
L 208.360496 171.332363 
L 208.296689 171.191745 
L 208.227346 171.051126 
L 208.15235 170.910508 
L 208.07163 170.769889 
L 207.985165 170.629271 
L 207.892985 170.488652 
L 207.795164 170.348034 
L 207.691824 170.207415 
L 207.58313 170.066797 
L 207.469286 169.926178 
L 207.350533 169.78556 
L 207.227143 169.644941 
L 207.099418 169.504323 
L 206.967679 169.363704 
L 206.832267 169.223086 
L 206.693534 169.082467 
L 206.551838 168.941849 
L 206.407541 168.80123 
L 206.261 168.660612 
L 206.112564 168.519993 
L 205.962571 168.379375 
L 205.811342 168.238756 
L 205.65918 168.098138 
L 205.506366 167.957519 
L 205.353157 167.816901 
L 205.199787 167.676282 
L 205.046464 167.535664 
L 204.893372 167.395045 
L 204.740672 167.254427 
L 204.588504 167.113808 
L 204.436989 166.97319 
L 204.286233 166.832571 
L 204.136332 166.691953 
L 203.987374 166.551334 
L 203.839446 166.410716 
L 203.692638 166.270097 
L 203.54705 166.129479 
L 203.402796 165.98886 
L 203.260009 165.848242 
L 203.118849 165.707623 
L 202.979505 165.567005 
L 202.842202 165.426386 
L 202.707201 165.285768 
L 202.574808 165.145149 
L 202.445373 165.004531 
L 202.319289 164.863912 
L 202.196999 164.723294 
L 202.078989 164.582675 
L 201.965793 164.442057 
L 201.857984 164.301438 
L 201.756172 164.16082 
L 201.661003 164.020201 
L 201.573147 163.879583 
L 201.493297 163.738964 
L 201.422156 163.598346 
L 201.360431 163.457727 
L 201.308827 163.317109 
L 201.268028 163.17649 
L 201.238699 163.035872 
L 201.221466 162.895253 
L 201.216911 162.754635 
L 201.225562 162.614016 
L 201.247881 162.473398 
L 201.28426 162.332779 
L 201.335007 162.192161 
L 201.400342 162.051542 
L 201.480394 161.910924 
L 201.575189 161.770305 
L 201.684654 161.629687 
L 201.80861 161.489068 
L 201.946775 161.34845 
L 202.098759 161.207831 
L 202.264073 161.067213 
L 202.442129 160.926594 
L 202.632247 160.785976 
L 202.833658 160.645357 
L 203.045514 160.504739 
L 203.266898 160.36412 
L 203.496829 160.223502 
L 217.867776 160.223502 
L 217.867776 160.223502 
L 218.097707 160.36412 
L 218.31909 160.504739 
L 218.530947 160.645357 
L 218.732357 160.785976 
L 218.922475 160.926594 
L 219.100532 161.067213 
L 219.265846 161.207831 
L 219.41783 161.34845 
L 219.555994 161.489068 
L 219.67995 161.629687 
L 219.789416 161.770305 
L 219.884211 161.910924 
L 219.964262 162.051542 
L 220.029598 162.192161 
L 220.080344 162.332779 
L 220.116723 162.473398 
L 220.139043 162.614016 
L 220.147694 162.754635 
L 220.143139 162.895253 
L 220.125906 163.035872 
L 220.096576 163.17649 
L 220.055778 163.317109 
L 220.004173 163.457727 
L 219.942449 163.598346 
L 219.871308 163.738964 
L 219.791458 163.879583 
L 219.703602 164.020201 
L 219.608433 164.16082 
L 219.506621 164.301438 
L 219.398811 164.442057 
L 219.285615 164.582675 
L 219.167606 164.723294 
L 219.045316 164.863912 
L 218.919232 165.004531 
L 218.789796 165.145149 
L 218.657403 165.285768 
L 218.522403 165.426386 
L 218.385099 165.567005 
L 218.245755 165.707623 
L 218.104595 165.848242 
L 217.961809 165.98886 
L 217.817554 166.129479 
L 217.671966 166.270097 
L 217.525159 166.410716 
L 217.377231 166.551334 
L 217.228273 166.691953 
L 217.078372 166.832571 
L 216.927616 166.97319 
L 216.776101 167.113808 
L 216.623933 167.254427 
L 216.471233 167.395045 
L 216.318141 167.535664 
L 216.164818 167.676282 
L 216.011448 167.816901 
L 215.858239 167.957519 
L 215.705425 168.098138 
L 215.553263 168.238756 
L 215.402034 168.379375 
L 215.252041 168.519993 
L 215.103605 168.660612 
L 214.957063 168.80123 
L 214.812766 168.941849 
L 214.671071 169.082467 
L 214.532338 169.223086 
L 214.396926 169.363704 
L 214.265187 169.504323 
L 214.137461 169.644941 
L 214.014072 169.78556 
L 213.895319 169.926178 
L 213.781475 170.066797 
L 213.672781 170.207415 
L 213.569441 170.348034 
L 213.47162 170.488652 
L 213.37944 170.629271 
L 213.292975 170.769889 
L 213.212255 170.910508 
L 213.137258 171.051126 
L 213.067916 171.191745 
L 213.004109 171.332363 
L 212.945672 171.472982 
L 212.892393 171.6136 
L 212.844017 171.754219 
L 212.800249 171.894837 
L 212.760759 172.035456 
L 212.725183 172.176074 
L 212.693132 172.316693 
L 212.664195 172.457311 
L 212.637944 172.59793 
L 212.613943 172.738548 
L 212.591748 172.879167 
L 212.570919 173.019786 
L 212.551023 173.160404 
L 212.531637 173.301023 
L 212.512359 173.441641 
L 212.492807 173.58226 
L 212.472629 173.722878 
L 212.4515 173.863497 
L 212.429134 174.004115 
L 212.405278 174.144734 
z
" clip-path="url(#pb64ad4f721)" style="fill: #d2691e; fill-opacity: 0.3"/>
   </g>
   <g id="PathCollection_4">
    <g clip-path="url(#pb64ad4f721)">
     <use xlink:href="#mcec0631607" x="210.682302" y="164.744822" style="fill: #d2691e; stroke: #d2691e"/>
    </g>
   </g>
   <g id="PolyCollection_5">
    <path d="M 252.84361 92.896482 
L 244.244127 92.896482 
L 244.151684 92.716665 
L 244.061525 92.536847 
L 243.973624 92.35703 
L 243.887932 92.177213 
L 243.804373 91.997395 
L 243.722849 91.817578 
L 243.643241 91.63776 
L 243.565407 91.457943 
L 243.489193 91.278125 
L 243.414426 91.098308 
L 243.340924 90.91849 
L 243.268495 90.738673 
L 243.196942 90.558855 
L 243.126065 90.379038 
L 243.055664 90.19922 
L 242.985543 90.019403 
L 242.915513 89.839585 
L 242.845395 89.659768 
L 242.77502 89.479951 
L 242.704235 89.300133 
L 242.632903 89.120316 
L 242.560907 88.940498 
L 242.488147 88.760681 
L 242.414546 88.580863 
L 242.340049 88.401046 
L 242.264623 88.221228 
L 242.188255 88.041411 
L 242.110957 87.861593 
L 242.03276 87.681776 
L 241.953715 87.501958 
L 241.873892 87.322141 
L 241.793378 87.142323 
L 241.712274 86.962506 
L 241.630694 86.782689 
L 241.548762 86.602871 
L 241.466611 86.423054 
L 241.384377 86.243236 
L 241.302203 86.063419 
L 241.220229 85.883601 
L 241.138593 85.703784 
L 241.057432 85.523966 
L 240.976873 85.344149 
L 240.89704 85.164331 
L 240.818043 84.984514 
L 240.739984 84.804696 
L 240.662955 84.624879 
L 240.587032 84.445061 
L 240.512284 84.265244 
L 240.438765 84.085427 
L 240.36652 83.905609 
L 240.295583 83.725792 
L 240.22598 83.545974 
L 240.15773 83.366157 
L 240.090847 83.186339 
L 240.025343 83.006522 
L 239.961229 82.826704 
L 239.898518 82.646887 
L 239.837227 82.467069 
L 239.777385 82.287252 
L 239.719026 82.107434 
L 239.662201 81.927617 
L 239.606975 81.747799 
L 239.55343 81.567982 
L 239.501672 81.388165 
L 239.451824 81.208347 
L 239.404036 81.02853 
L 239.358481 80.848712 
L 239.315357 80.668895 
L 239.274888 80.489077 
L 239.237323 80.30926 
L 239.202936 80.129442 
L 239.172024 79.949625 
L 239.144902 79.769807 
L 239.12191 79.58999 
L 239.1034 79.410172 
L 239.089739 79.230355 
L 239.081304 79.050537 
L 239.078477 78.87072 
L 239.081642 78.690903 
L 239.09118 78.511085 
L 239.107465 78.331268 
L 239.130859 78.15145 
L 239.161707 77.971633 
L 239.200331 77.791815 
L 239.247028 77.611998 
L 239.302063 77.43218 
L 239.365668 77.252363 
L 239.438032 77.072545 
L 239.519305 76.892728 
L 239.609588 76.71291 
L 239.708935 76.533093 
L 239.81735 76.353275 
L 239.934781 76.173458 
L 240.061125 75.993641 
L 240.196225 75.813823 
L 240.339869 75.634006 
L 240.491794 75.454188 
L 240.651681 75.274371 
L 240.819166 75.094553 
L 256.268571 75.094553 
L 256.268571 75.094553 
L 256.436056 75.274371 
L 256.595943 75.454188 
L 256.747868 75.634006 
L 256.891512 75.813823 
L 257.026612 75.993641 
L 257.152956 76.173458 
L 257.270387 76.353275 
L 257.378802 76.533093 
L 257.478149 76.71291 
L 257.568432 76.892728 
L 257.649705 77.072545 
L 257.722069 77.252363 
L 257.785674 77.43218 
L 257.840709 77.611998 
L 257.887406 77.791815 
L 257.92603 77.971633 
L 257.956878 78.15145 
L 257.980272 78.331268 
L 257.996557 78.511085 
L 258.006095 78.690903 
L 258.00926 78.87072 
L 258.006433 79.050537 
L 257.997998 79.230355 
L 257.984337 79.410172 
L 257.965827 79.58999 
L 257.942835 79.769807 
L 257.915713 79.949625 
L 257.8848 80.129442 
L 257.850414 80.30926 
L 257.812849 80.489077 
L 257.77238 80.668895 
L 257.729256 80.848712 
L 257.683701 81.02853 
L 257.635913 81.208347 
L 257.586065 81.388165 
L 257.534307 81.567982 
L 257.480762 81.747799 
L 257.425536 81.927617 
L 257.368711 82.107434 
L 257.310352 82.287252 
L 257.250509 82.467069 
L 257.189219 82.646887 
L 257.126508 82.826704 
L 257.062394 83.006522 
L 256.99689 83.186339 
L 256.930007 83.366157 
L 256.861757 83.545974 
L 256.792154 83.725792 
L 256.721217 83.905609 
L 256.648972 84.085427 
L 256.575453 84.265244 
L 256.500705 84.445061 
L 256.424782 84.624879 
L 256.347753 84.804696 
L 256.269694 84.984514 
L 256.190697 85.164331 
L 256.110864 85.344149 
L 256.030305 85.523966 
L 255.949144 85.703784 
L 255.867508 85.883601 
L 255.785534 86.063419 
L 255.70336 86.243236 
L 255.621126 86.423054 
L 255.538975 86.602871 
L 255.457043 86.782689 
L 255.375463 86.962506 
L 255.294359 87.142323 
L 255.213845 87.322141 
L 255.134022 87.501958 
L 255.054977 87.681776 
L 254.97678 87.861593 
L 254.899482 88.041411 
L 254.823114 88.221228 
L 254.747688 88.401046 
L 254.673191 88.580863 
L 254.59959 88.760681 
L 254.52683 88.940498 
L 254.454834 89.120316 
L 254.383502 89.300133 
L 254.312717 89.479951 
L 254.242342 89.659768 
L 254.172224 89.839585 
L 254.102194 90.019403 
L 254.032073 90.19922 
L 253.961672 90.379038 
L 253.890795 90.558855 
L 253.819242 90.738673 
L 253.746813 90.91849 
L 253.673311 91.098308 
L 253.598544 91.278125 
L 253.52233 91.457943 
L 253.444496 91.63776 
L 253.364888 91.817578 
L 253.283364 91.997395 
L 253.199805 92.177213 
L 253.114113 92.35703 
L 253.026212 92.536847 
L 252.936053 92.716665 
L 252.84361 92.896482 
z
" clip-path="url(#pb64ad4f721)" style="fill: #008000; fill-opacity: 0.3"/>
   </g>
   <g id="PathCollection_5">
    <g clip-path="url(#pb64ad4f721)">
     <use xlink:href="#m05979a8b11" x="248.543868" y="82.492518" style="fill: #008000; stroke: #008000"/>
    </g>
   </g>
   <g id="PolyCollection_6">
    <path d="M 288.563746 77.928078 
L 284.247123 77.928078 
L 284.193089 77.766305 
L 284.138343 77.604531 
L 284.082457 77.442758 
L 284.024965 77.280984 
L 283.965372 77.119211 
L 283.903159 76.957437 
L 283.837792 76.795664 
L 283.768731 76.63389 
L 283.695437 76.472117 
L 283.617383 76.310343 
L 283.534064 76.14857 
L 283.445003 75.986796 
L 283.349768 75.825023 
L 283.247972 75.663249 
L 283.139288 75.501476 
L 283.023454 75.339702 
L 282.90028 75.177929 
L 282.769654 75.016155 
L 282.631549 74.854382 
L 282.486021 74.692608 
L 282.333217 74.530835 
L 282.17337 74.369061 
L 282.006802 74.207288 
L 281.833921 74.045514 
L 281.655212 73.883741 
L 281.471242 73.721967 
L 281.282642 73.560194 
L 281.090109 73.39842 
L 280.894389 73.236647 
L 280.696277 73.074873 
L 280.496597 72.9131 
L 280.296201 72.751326 
L 280.095949 72.589553 
L 279.896706 72.427779 
L 279.69933 72.266006 
L 279.504658 72.104232 
L 279.313501 71.942459 
L 279.126632 71.780685 
L 278.944782 71.618912 
L 278.76863 71.457138 
L 278.598797 71.295365 
L 278.435845 71.133591 
L 278.280271 70.971818 
L 278.132503 70.810044 
L 277.992904 70.648271 
L 277.86177 70.486497 
L 277.739327 70.324724 
L 277.625741 70.16295 
L 277.521116 70.001177 
L 277.425499 69.839403 
L 277.338885 69.67763 
L 277.26122 69.515856 
L 277.192411 69.354083 
L 277.132327 69.192309 
L 277.080805 69.030536 
L 277.037661 68.868762 
L 277.002689 68.706989 
L 276.97567 68.545215 
L 276.956377 68.383442 
L 276.944578 68.221668 
L 276.940043 68.059895 
L 276.942546 67.898121 
L 276.95187 67.736348 
L 276.967807 67.574574 
L 276.990165 67.412801 
L 277.018768 67.251027 
L 277.053455 67.089254 
L 277.094085 66.92748 
L 277.140535 66.765707 
L 277.192703 66.603933 
L 277.250504 66.44216 
L 277.313873 66.280386 
L 277.382761 66.118613 
L 277.457135 65.956839 
L 277.536979 65.795066 
L 277.622285 65.633292 
L 277.713058 65.471519 
L 277.809309 65.309745 
L 277.911056 65.147972 
L 278.018316 64.986198 
L 278.131105 64.824425 
L 278.249435 64.662651 
L 278.373309 64.500878 
L 278.502719 64.339104 
L 278.637641 64.177331 
L 278.778035 64.015557 
L 278.923836 63.853784 
L 279.074957 63.69201 
L 279.231283 63.530237 
L 279.39267 63.368463 
L 279.558942 63.20669 
L 279.72989 63.044916 
L 279.90527 62.883143 
L 280.084806 62.721369 
L 280.268185 62.559596 
L 280.45506 62.397822 
L 280.645053 62.236049 
L 280.837753 62.074275 
L 281.032721 61.912502 
L 291.778148 61.912502 
L 291.778148 61.912502 
L 291.973117 62.074275 
L 292.165817 62.236049 
L 292.355809 62.397822 
L 292.542684 62.559596 
L 292.726063 62.721369 
L 292.905599 62.883143 
L 293.08098 63.044916 
L 293.251927 63.20669 
L 293.418199 63.368463 
L 293.579586 63.530237 
L 293.735913 63.69201 
L 293.887034 63.853784 
L 294.032835 64.015557 
L 294.173228 64.177331 
L 294.308151 64.339104 
L 294.437561 64.500878 
L 294.561435 64.662651 
L 294.679765 64.824425 
L 294.792554 64.986198 
L 294.899813 65.147972 
L 295.00156 65.309745 
L 295.097812 65.471519 
L 295.188585 65.633292 
L 295.273891 65.795066 
L 295.353734 65.956839 
L 295.428109 66.118613 
L 295.496997 66.280386 
L 295.560365 66.44216 
L 295.618167 66.603933 
L 295.670334 66.765707 
L 295.716785 66.92748 
L 295.757415 67.089254 
L 295.792101 67.251027 
L 295.820704 67.412801 
L 295.843062 67.574574 
L 295.859 67.736348 
L 295.868323 67.898121 
L 295.870826 68.059895 
L 295.866291 68.221668 
L 295.854492 68.383442 
L 295.835199 68.545215 
L 295.80818 68.706989 
L 295.773208 68.868762 
L 295.730064 69.030536 
L 295.678543 69.192309 
L 295.618458 69.354083 
L 295.549649 69.515856 
L 295.471985 69.67763 
L 295.38537 69.839403 
L 295.289753 70.001177 
L 295.185128 70.16295 
L 295.071543 70.324724 
L 294.9491 70.486497 
L 294.817965 70.648271 
L 294.678366 70.810044 
L 294.530599 70.971818 
L 294.375024 71.133591 
L 294.212072 71.295365 
L 294.04224 71.457138 
L 293.866087 71.618912 
L 293.684237 71.780685 
L 293.497369 71.942459 
L 293.306211 72.104232 
L 293.111539 72.266006 
L 292.914163 72.427779 
L 292.714921 72.589553 
L 292.514669 72.751326 
L 292.314272 72.9131 
L 292.114592 73.074873 
L 291.91648 73.236647 
L 291.720761 73.39842 
L 291.528227 73.560194 
L 291.339627 73.721967 
L 291.155657 73.883741 
L 290.976949 74.045514 
L 290.804067 74.207288 
L 290.637499 74.369061 
L 290.477652 74.530835 
L 290.324848 74.692608 
L 290.179321 74.854382 
L 290.041215 75.016155 
L 289.91059 75.177929 
L 289.787416 75.339702 
L 289.671581 75.501476 
L 289.562897 75.663249 
L 289.461101 75.825023 
L 289.365866 75.986796 
L 289.276806 76.14857 
L 289.193486 76.310343 
L 289.115432 76.472117 
L 289.042138 76.63389 
L 288.973077 76.795664 
L 288.907711 76.957437 
L 288.845498 77.119211 
L 288.785905 77.280984 
L 288.728413 77.442758 
L 288.672526 77.604531 
L 288.617781 77.766305 
L 288.563746 77.928078 
z
" clip-path="url(#pb64ad4f721)" style="fill: #ff69b4; fill-opacity: 0.3"/>
   </g>
   <g id="PathCollection_6">
    <g clip-path="url(#pb64ad4f721)">
     <use xlink:href="#mb048150455" x="286.405435" y="68.40497" style="fill: #ff69b4; stroke: #ff69b4"/>
    </g>
   </g>
   <g id="matplotlib.axis_3">
    <g id="xtick_4">
     <g id="line2d_9">
      <g>
       <use xlink:href="#m42819e35ec" x="210.682302" y="298.635041" style="stroke: #000000; stroke-width: 0.8"/>
      </g>
     </g>
     <g id="text_10">
      <!-- Untrained -->
      <g style="fill: #d2691e" transform="translate(187.300314 354.027661) rotate(-45) scale(0.12 -0.12)">
       <use xlink:href="#DejaVuSans-55"/>
       <use xlink:href="#DejaVuSans-6e" x="73.193359"/>
       <use xlink:href="#DejaVuSans-74" x="136.572266"/>
       <use xlink:href="#DejaVuSans-72" x="175.78125"/>
       <use xlink:href="#DejaVuSans-61" x="216.894531"/>
       <use xlink:href="#DejaVuSans-69" x="278.173828"/>
       <use xlink:href="#DejaVuSans-6e" x="305.957031"/>
       <use xlink:href="#DejaVuSans-65" x="369.335938"/>
       <use xlink:href="#DejaVuSans-64" x="430.859375"/>
      </g>
      <!-- model -->
      <g style="fill: #d2691e" transform="translate(204.563354 355.76794) rotate(-45) scale(0.12 -0.12)">
       <use xlink:href="#DejaVuSans-6d"/>
       <use xlink:href="#DejaVuSans-6f" x="97.412109"/>
       <use xlink:href="#DejaVuSans-64" x="158.59375"/>
       <use xlink:href="#DejaVuSans-65" x="222.070312"/>
       <use xlink:href="#DejaVuSans-6c" x="283.59375"/>
      </g>
     </g>
    </g>
    <g id="xtick_5">
     <g id="line2d_10">
      <g>
       <use xlink:href="#m42819e35ec" x="248.543868" y="298.635041" style="stroke: #000000; stroke-width: 0.8"/>
      </g>
     </g>
     <g id="text_11">
      <!-- CLoSeR -->
      <g style="fill: #008000" transform="translate(234.785117 344.282846) rotate(-45) scale(0.12 -0.12)">
       <use xlink:href="#DejaVuSans-43"/>
       <use xlink:href="#DejaVuSans-4c" x="69.824219"/>
       <use xlink:href="#DejaVuSans-6f" x="123.787109"/>
       <use xlink:href="#DejaVuSans-53" x="184.96875"/>
       <use xlink:href="#DejaVuSans-65" x="248.445312"/>
       <use xlink:href="#DejaVuSans-52" x="309.96875"/>
      </g>
     </g>
    </g>
    <g id="xtick_6">
     <g id="line2d_11">
      <g>
       <use xlink:href="#m42819e35ec" x="286.405435" y="298.635041" style="stroke: #000000; stroke-width: 0.8"/>
      </g>
     </g>
     <g id="text_12">
      <!-- Supervised -->
      <g style="fill: #ff69b4" transform="translate(265.112682 359.35085) rotate(-45) scale(0.12 -0.12)">
       <use xlink:href="#DejaVuSans-53"/>
       <use xlink:href="#DejaVuSans-75" x="63.476562"/>
       <use xlink:href="#DejaVuSans-70" x="126.855469"/>
       <use xlink:href="#DejaVuSans-65" x="190.332031"/>
       <use xlink:href="#DejaVuSans-72" x="251.855469"/>
       <use xlink:href="#DejaVuSans-76" x="292.96875"/>
       <use xlink:href="#DejaVuSans-69" x="352.148438"/>
       <use xlink:href="#DejaVuSans-73" x="379.931641"/>
       <use xlink:href="#DejaVuSans-65" x="432.03125"/>
       <use xlink:href="#DejaVuSans-64" x="493.554688"/>
      </g>
     </g>
    </g>
   </g>
   <g id="matplotlib.axis_4">
    <g id="ytick_5">
     <g id="line2d_12">
      <g>
       <use xlink:href="#m126c63f418" x="196.484215" y="293.522376" style="stroke: #000000; stroke-width: 0.8"/>
      </g>
     </g>
    </g>
    <g id="ytick_6">
     <g id="line2d_13">
      <g>
       <use xlink:href="#m126c63f418" x="196.484215" y="231.924005" style="stroke: #000000; stroke-width: 0.8"/>
      </g>
     </g>
    </g>
    <g id="ytick_7">
     <g id="line2d_14">
      <g>
       <use xlink:href="#m126c63f418" x="196.484215" y="170.325635" style="stroke: #000000; stroke-width: 0.8"/>
      </g>
     </g>
    </g>
    <g id="ytick_8">
     <g id="line2d_15">
      <g>
       <use xlink:href="#m126c63f418" x="196.484215" y="108.727264" style="stroke: #000000; stroke-width: 0.8"/>
      </g>
     </g>
    </g>
   </g>
   <g id="line2d_16">
    <path d="M 196.484215 287.362539 
L 300.603522 287.362539 
" clip-path="url(#pb64ad4f721)" style="fill: none; stroke-dasharray: 1.5,2.475; stroke-dashoffset: 0; stroke: #000000; stroke-width: 1.5"/>
   </g>
   <g id="patch_8">
    <path d="M 196.484215 298.635041 
L 196.484215 50.64 
" style="fill: none; stroke: #000000; stroke-width: 0.8; stroke-linejoin: miter; stroke-linecap: square"/>
   </g>
   <g id="patch_9">
    <path d="M 300.603522 298.635041 
L 300.603522 50.64 
" style="fill: none; stroke: #000000; stroke-width: 0.8; stroke-linejoin: miter; stroke-linecap: square"/>
   </g>
   <g id="patch_10">
    <path d="M 196.484215 298.635041 
L 300.603522 298.635041 
" style="fill: none; stroke: #000000; stroke-width: 0.8; stroke-linejoin: miter; stroke-linecap: square"/>
   </g>
   <g id="patch_11">
    <path d="M 196.484215 50.64 
L 300.603522 50.64 
" style="fill: none; stroke: #000000; stroke-width: 0.8; stroke-linejoin: miter; stroke-linecap: square"/>
   </g>
   <g id="text_13">
    <!-- Ensemble -->
    <g transform="translate(219.120431 44.64) scale(0.12 -0.12)">
     <defs>
      <path id="DejaVuSans-45" d="M 628 4666 
L 3578 4666 
L 3578 4134 
L 1259 4134 
L 1259 2753 
L 3481 2753 
L 3481 2222 
L 1259 2222 
L 1259 531 
L 3634 531 
L 3634 0 
L 628 0 
L 628 4666 
z
" transform="scale(0.015625)"/>
      <path id="DejaVuSans-62" d="M 3116 1747 
Q 3116 2381 2855 2742 
Q 2594 3103 2138 3103 
Q 1681 3103 1420 2742 
Q 1159 2381 1159 1747 
Q 1159 1113 1420 752 
Q 1681 391 2138 391 
Q 2594 391 2855 752 
Q 3116 1113 3116 1747 
z
M 1159 2969 
Q 1341 3281 1617 3432 
Q 1894 3584 2278 3584 
Q 2916 3584 3314 3078 
Q 3713 2572 3713 1747 
Q 3713 922 3314 415 
Q 2916 -91 2278 -91 
Q 1894 -91 1617 61 
Q 1341 213 1159 525 
L 1159 0 
L 581 0 
L 581 4863 
L 1159 4863 
L 1159 2969 
z
" transform="scale(0.015625)"/>
     </defs>
     <use xlink:href="#DejaVuSans-45"/>
     <use xlink:href="#DejaVuSans-6e" x="63.183594"/>
     <use xlink:href="#DejaVuSans-73" x="126.5625"/>
     <use xlink:href="#DejaVuSans-65" x="178.662109"/>
     <use xlink:href="#DejaVuSans-6d" x="240.185547"/>
     <use xlink:href="#DejaVuSans-62" x="337.597656"/>
     <use xlink:href="#DejaVuSans-6c" x="401.074219"/>
     <use xlink:href="#DejaVuSans-65" x="428.857422"/>
    </g>
   </g>
  </g>
  <g id="text_14">
   <!-- Cifar-100 -->
   <g transform="translate(134.653125 16.678125) scale(0.12 -0.12)">
    <defs>
     <path id="DejaVuSans-2d" d="M 313 2009 
L 1997 2009 
L 1997 1497 
L 313 1497 
L 313 2009 
z
" transform="scale(0.015625)"/>
    </defs>
    <use xlink:href="#DejaVuSans-43"/>
    <use xlink:href="#DejaVuSans-69" x="69.824219"/>
    <use xlink:href="#DejaVuSans-66" x="97.607422"/>
    <use xlink:href="#DejaVuSans-61" x="132.8125"/>
    <use xlink:href="#DejaVuSans-72" x="194.091797"/>
    <use xlink:href="#DejaVuSans-2d" x="228.830078"/>
    <use xlink:href="#DejaVuSans-31" x="264.914062"/>
    <use xlink:href="#DejaVuSans-30" x="328.537109"/>
    <use xlink:href="#DejaVuSans-30" x="392.160156"/>
   </g>
  </g>
 </g>
 <defs>
  <clipPath id="p80e8f05481">
   <rect x="53.75" y="50.64" width="104.119307" height="247.995041"/>
  </clipPath>
  <clipPath id="pb64ad4f721">
   <rect x="196.484215" y="50.64" width="104.119307" height="247.995041"/>
  </clipPath>
 </defs>
</svg>
