<?xml version="1.0" encoding="utf-8" standalone="no"?>
<!DOCTYPE svg PUBLIC "-//W3C//DTD SVG 1.1//EN"
  "http://www.w3.org/Graphics/SVG/1.1/DTD/svg11.dtd">
<svg xmlns:xlink="http://www.w3.org/1999/xlink" width="460.8pt" height="345.6pt" viewBox="0 0 460.8 345.6" xmlns="http://www.w3.org/2000/svg" version="1.1">
 <metadata>
  <rdf:RDF xmlns:dc="http://purl.org/dc/elements/1.1/" xmlns:cc="http://creativecommons.org/ns#" xmlns:rdf="http://www.w3.org/1999/02/22-rdf-syntax-ns#">
   <cc:Work>
    <dc:type rdf:resource="http://purl.org/dc/dcmitype/StillImage"/>
    <dc:date>2025-08-20T14:12:33.968145</dc:date>
    <dc:format>image/svg+xml</dc:format>
    <dc:creator>
     <cc:Agent>
      <dc:title>Matplotlib v3.9.1.post1, https://matplotlib.org/</dc:title>
     </cc:Agent>
    </dc:creator>
   </cc:Work>
  </rdf:RDF>
 </metadata>
 <defs>
  <style type="text/css">*{stroke-linejoin: round; stroke-linecap: butt}</style>
 </defs>
 <g id="figure_1">
  <g id="patch_1">
   <path d="M 0 345.6 
L 460.8 345.6 
L 460.8 0 
L 0 0 
z
" style="fill: #ffffff"/>
  </g>
  <g id="axes_1">
   <g id="patch_2">
    <path d="M 377.104903 162.168667 
Q 366.221252 128.672231 356.374075 98.365736 
" clip-path="url(#p814a1c16fb)" style="fill: none; stroke: #004c00; stroke-opacity: 0.6; stroke-width: 3; stroke-linecap: round"/>
    <path d="M 354.708962 109.421386 
L 356.374075 98.365736 
L 364.219528 106.331217 
" clip-path="url(#p814a1c16fb)" style="fill: none; stroke: #004c00; stroke-opacity: 0.6; stroke-width: 3; stroke-linecap: round"/>
   </g>
   <g id="patch_3">
    <path d="M 373.987315 163.754534 
Q 328.679974 101.394329 285.344124 41.747649 
" clip-path="url(#p814a1c16fb)" style="fill: none; stroke: #004c00; stroke-opacity: 0.6; stroke-width: 3; stroke-linecap: round"/>
    <path d="M 287.176892 52.776745 
L 285.344124 41.747649 
L 295.267062 46.898893 
" clip-path="url(#p814a1c16fb)" style="fill: none; stroke: #004c00; stroke-opacity: 0.6; stroke-width: 3; stroke-linecap: round"/>
   </g>
   <g id="patch_4">
    <path d="M 371.516397 166.229999 
Q 282.279603 101.395677 195.756334 38.532847 
" clip-path="url(#p814a1c16fb)" style="fill: none; stroke: #004c00; stroke-opacity: 0.6; stroke-width: 3; stroke-linecap: round"/>
    <path d="M 200.907578 48.455784 
L 195.756334 38.532847 
L 206.78543 40.365614 
" clip-path="url(#p814a1c16fb)" style="fill: none; stroke: #004c00; stroke-opacity: 0.6; stroke-width: 3; stroke-linecap: round"/>
   </g>
   <g id="patch_5">
    <path d="M 369.927549 169.34556 
Q 244.737974 128.669003 122.73834 89.028919 
" clip-path="url(#p814a1c16fb)" style="fill: none; stroke: #004c00; stroke-opacity: 0.6; stroke-width: 3; stroke-linecap: round"/>
    <path d="M 130.70382 96.874372 
L 122.73834 89.028919 
L 133.79399 87.363807 
" clip-path="url(#p814a1c16fb)" style="fill: none; stroke: #004c00; stroke-opacity: 0.6; stroke-width: 3; stroke-linecap: round"/>
   </g>
   <g id="patch_6">
    <path d="M 369.382526 172.800005 
Q 230.403797 172.800011 94.779169 172.800017 
" clip-path="url(#p814a1c16fb)" style="fill: none; stroke: #004c00; stroke-opacity: 0.6; stroke-width: 3; stroke-linecap: round"/>
    <path d="M 104.779169 177.800017 
L 94.779169 172.800017 
L 104.779169 167.800017 
" clip-path="url(#p814a1c16fb)" style="fill: none; stroke: #004c00; stroke-opacity: 0.6; stroke-width: 3; stroke-linecap: round"/>
   </g>
   <g id="patch_7">
    <path d="M 369.927549 176.254449 
Q 244.737978 216.931011 122.738349 256.571098 
" clip-path="url(#p814a1c16fb)" style="fill: none; stroke: #004c00; stroke-opacity: 0.6; stroke-width: 3; stroke-linecap: round"/>
    <path d="M 133.793999 258.23621 
L 122.738349 256.571098 
L 130.703829 248.725645 
" clip-path="url(#p814a1c16fb)" style="fill: none; stroke: #004c00; stroke-opacity: 0.6; stroke-width: 3; stroke-linecap: round"/>
   </g>
   <g id="patch_8">
    <path d="M 371.516396 179.37001 
Q 282.279596 244.204332 195.756321 307.067162 
" clip-path="url(#p814a1c16fb)" style="fill: none; stroke: #004c00; stroke-opacity: 0.6; stroke-width: 3; stroke-linecap: round"/>
    <path d="M 206.785418 305.234395 
L 195.756321 307.067162 
L 200.907566 297.144225 
" clip-path="url(#p814a1c16fb)" style="fill: none; stroke: #004c00; stroke-opacity: 0.6; stroke-width: 3; stroke-linecap: round"/>
   </g>
   <g id="patch_9">
    <path d="M 373.987316 181.845475 
Q 328.679985 244.205676 285.344145 303.852351 
" clip-path="url(#p814a1c16fb)" style="fill: none; stroke: #004c00; stroke-opacity: 0.6; stroke-width: 3; stroke-linecap: round"/>
    <path d="M 295.267082 298.701107 
L 285.344145 303.852351 
L 287.176912 292.823255 
" clip-path="url(#p814a1c16fb)" style="fill: none; stroke: #004c00; stroke-opacity: 0.6; stroke-width: 3; stroke-linecap: round"/>
   </g>
   <g id="patch_10">
    <path d="M 377.104902 183.431343 
Q 366.221248 216.927782 356.374068 247.234281 
" clip-path="url(#p814a1c16fb)" style="fill: none; stroke: #004c00; stroke-opacity: 0.6; stroke-width: 3; stroke-linecap: round"/>
    <path d="M 364.21952 239.268801 
L 356.374068 247.234281 
L 354.708955 236.17863 
" clip-path="url(#p814a1c16fb)" style="fill: none; stroke: #004c00; stroke-opacity: 0.6; stroke-width: 3; stroke-linecap: round"/>
   </g>
   <g id="patch_11">
    <path d="M 355.335705 95.16996 
Q 366.219356 128.666396 376.066533 158.97289 
" clip-path="url(#p814a1c16fb)" style="fill: none; stroke: #004c00; stroke-opacity: 0.6; stroke-width: 3; stroke-linecap: round"/>
    <path d="M 377.731645 147.91724 
L 376.066533 158.97289 
L 368.22108 151.00741 
" clip-path="url(#p814a1c16fb)" style="fill: none; stroke: #004c00; stroke-opacity: 0.6; stroke-width: 3; stroke-linecap: round"/>
   </g>
   <g id="patch_12">
    <path d="M 342.837817 77.968094 
Q 314.344045 57.266156 288.563798 38.53571 
" clip-path="url(#p814a1c16fb)" style="fill: none; stroke: #004c00; stroke-opacity: 0.6; stroke-width: 3; stroke-linecap: round"/>
    <path d="M 293.715042 48.458647 
L 288.563798 38.53571 
L 299.592895 40.368477 
" clip-path="url(#p814a1c16fb)" style="fill: none; stroke: #004c00; stroke-opacity: 0.6; stroke-width: 3; stroke-linecap: round"/>
   </g>
   <g id="patch_13">
    <path d="M 341.247785 81.08356 
Q 267.938966 57.264084 197.820088 34.481082 
" clip-path="url(#p814a1c16fb)" style="fill: none; stroke: #004c00; stroke-opacity: 0.6; stroke-width: 3; stroke-linecap: round"/>
    <path d="M 205.785568 42.326534 
L 197.820088 34.481082 
L 208.875738 32.815969 
" clip-path="url(#p814a1c16fb)" style="fill: none; stroke: #004c00; stroke-opacity: 0.6; stroke-width: 3; stroke-linecap: round"/>
   </g>
   <g id="patch_14">
    <path d="M 340.703812 84.538622 
Q 230.40107 84.538622 123.452431 84.538622 
" clip-path="url(#p814a1c16fb)" style="fill: none; stroke: #004c00; stroke-opacity: 0.6; stroke-width: 3; stroke-linecap: round"/>
    <path d="M 133.452431 89.538622 
L 123.452431 84.538622 
L 133.452431 79.538622 
" clip-path="url(#p814a1c16fb)" style="fill: none; stroke: #004c00; stroke-opacity: 0.6; stroke-width: 3; stroke-linecap: round"/>
   </g>
   <g id="patch_15">
    <path d="M 341.249688 87.993067 
Q 216.060113 128.669631 94.060479 168.30972 
" clip-path="url(#p814a1c16fb)" style="fill: none; stroke: #004c00; stroke-opacity: 0.6; stroke-width: 3; stroke-linecap: round"/>
    <path d="M 105.11613 169.974832 
L 94.060479 168.30972 
L 102.025959 160.464267 
" clip-path="url(#p814a1c16fb)" style="fill: none; stroke: #004c00; stroke-opacity: 0.6; stroke-width: 3; stroke-linecap: round"/>
   </g>
   <g id="patch_16">
    <path d="M 342.839227 91.108127 
Q 230.403076 172.797777 120.68045 252.515936 
" clip-path="url(#p814a1c16fb)" style="fill: none; stroke: #004c00; stroke-opacity: 0.6; stroke-width: 3; stroke-linecap: round"/>
    <path d="M 131.709546 250.683168 
L 120.68045 252.515936 
L 125.831694 242.592999 
" clip-path="url(#p814a1c16fb)" style="fill: none; stroke: #004c00; stroke-opacity: 0.6; stroke-width: 3; stroke-linecap: round"/>
   </g>
   <g id="patch_17">
    <path d="M 345.31063 93.582474 
Q 267.939209 200.075083 192.539279 303.854167 
" clip-path="url(#p814a1c16fb)" style="fill: none; stroke: #004c00; stroke-opacity: 0.6; stroke-width: 3; stroke-linecap: round"/>
    <path d="M 202.462217 298.702924 
L 192.539279 303.854167 
L 194.372048 292.825071 
" clip-path="url(#p814a1c16fb)" style="fill: none; stroke: #004c00; stroke-opacity: 0.6; stroke-width: 3; stroke-linecap: round"/>
   </g>
   <g id="patch_18">
    <path d="M 348.427318 95.169115 
Q 314.341905 200.073252 281.292966 301.787448 
" clip-path="url(#p814a1c16fb)" style="fill: none; stroke: #004c00; stroke-opacity: 0.6; stroke-width: 3; stroke-linecap: round"/>
    <path d="M 289.138418 293.821968 
L 281.292966 301.787448 
L 279.627853 290.731798 
" clip-path="url(#p814a1c16fb)" style="fill: none; stroke: #004c00; stroke-opacity: 0.6; stroke-width: 3; stroke-linecap: round"/>
   </g>
   <g id="patch_19">
    <path d="M 351.881373 95.719439 
Q 351.881369 172.800893 351.881365 246.528244 
" clip-path="url(#p814a1c16fb)" style="fill: none; stroke: #004c00; stroke-opacity: 0.6; stroke-width: 3; stroke-linecap: round"/>
    <path d="M 356.881366 236.528244 
L 351.881365 246.528244 
L 346.881366 236.528244 
" clip-path="url(#p814a1c16fb)" style="fill: none; stroke: #004c00; stroke-opacity: 0.6; stroke-width: 3; stroke-linecap: round"/>
   </g>
   <g id="patch_20">
    <path d="M 283.373671 39.035554 
Q 328.681013 101.395758 372.016862 161.042438 
" clip-path="url(#p814a1c16fb)" style="fill: none; stroke: #004c00; stroke-opacity: 0.6; stroke-width: 3; stroke-linecap: round"/>
    <path d="M 370.184094 150.013342 
L 372.016862 161.042438 
L 362.093925 155.891194 
" clip-path="url(#p814a1c16fb)" style="fill: none; stroke: #004c00; stroke-opacity: 0.6; stroke-width: 3; stroke-linecap: round"/>
   </g>
   <g id="patch_21">
    <path d="M 285.845309 36.560611 
Q 314.339081 57.262549 340.119327 75.992995 
" clip-path="url(#p814a1c16fb)" style="fill: none; stroke: #004c00; stroke-opacity: 0.6; stroke-width: 3; stroke-linecap: round"/>
    <path d="M 334.968084 66.070058 
L 340.119327 75.992995 
L 329.090231 74.160227 
" clip-path="url(#p814a1c16fb)" style="fill: none; stroke: #004c00; stroke-opacity: 0.6; stroke-width: 3; stroke-linecap: round"/>
   </g>
   <g id="patch_22">
    <path d="M 265.623302 29.990084 
Q 230.403064 29.990087 198.536928 29.99009 
" clip-path="url(#p814a1c16fb)" style="fill: none; stroke: #004c00; stroke-opacity: 0.6; stroke-width: 3; stroke-linecap: round"/>
    <path d="M 208.536928 34.990089 
L 198.536928 29.99009 
L 208.536927 24.990089 
" clip-path="url(#p814a1c16fb)" style="fill: none; stroke: #004c00; stroke-opacity: 0.6; stroke-width: 3; stroke-linecap: round"/>
   </g>
   <g id="patch_23">
    <path d="M 266.168164 33.445145 
Q 192.859349 57.264626 122.740474 80.047631 
" clip-path="url(#p814a1c16fb)" style="fill: none; stroke: #004c00; stroke-opacity: 0.6; stroke-width: 3; stroke-linecap: round"/>
    <path d="M 133.796125 81.712743 
L 122.740474 80.047631 
L 130.705954 72.202178 
" clip-path="url(#p814a1c16fb)" style="fill: none; stroke: #004c00; stroke-opacity: 0.6; stroke-width: 3; stroke-linecap: round"/>
   </g>
   <g id="patch_24">
    <path d="M 267.758915 36.560089 
Q 178.522125 101.394421 91.99886 164.257261 
" clip-path="url(#p814a1c16fb)" style="fill: none; stroke: #004c00; stroke-opacity: 0.6; stroke-width: 3; stroke-linecap: round"/>
    <path d="M 103.027956 162.424493 
L 91.99886 164.257261 
L 97.150103 154.334323 
" clip-path="url(#p814a1c16fb)" style="fill: none; stroke: #004c00; stroke-opacity: 0.6; stroke-width: 3; stroke-linecap: round"/>
   </g>
   <g id="patch_25">
    <path d="M 270.231009 39.033935 
Q 192.859603 145.526553 117.459687 249.305644 
" clip-path="url(#p814a1c16fb)" style="fill: none; stroke: #004c00; stroke-opacity: 0.6; stroke-width: 3; stroke-linecap: round"/>
    <path d="M 127.382625 244.1544 
L 117.459687 249.305644 
L 119.292454 238.276548 
" clip-path="url(#p814a1c16fb)" style="fill: none; stroke: #004c00; stroke-opacity: 0.6; stroke-width: 3; stroke-linecap: round"/>
   </g>
   <g id="patch_26">
    <path d="M 273.347959 40.619764 
Q 230.401162 172.796389 188.49084 301.783074 
" clip-path="url(#p814a1c16fb)" style="fill: none; stroke: #004c00; stroke-opacity: 0.6; stroke-width: 3; stroke-linecap: round"/>
    <path d="M 196.336293 293.817595 
L 188.49084 301.783074 
L 186.825728 290.727424 
" clip-path="url(#p814a1c16fb)" style="fill: none; stroke: #004c00; stroke-opacity: 0.6; stroke-width: 3; stroke-linecap: round"/>
   </g>
   <g id="patch_27">
    <path d="M 276.801753 41.168899 
Q 276.801763 172.801006 276.801773 301.079011 
" clip-path="url(#p814a1c16fb)" style="fill: none; stroke: #004c00; stroke-opacity: 0.6; stroke-width: 3; stroke-linecap: round"/>
    <path d="M 281.801772 291.07901 
L 276.801773 301.079011 
L 271.801772 291.079011 
" clip-path="url(#p814a1c16fb)" style="fill: none; stroke: #004c00; stroke-opacity: 0.6; stroke-width: 3; stroke-linecap: round"/>
   </g>
   <g id="patch_28">
    <path d="M 280.255808 40.620576 
Q 314.341228 145.524721 347.390173 247.238926 
" clip-path="url(#p814a1c16fb)" style="fill: none; stroke: #004c00; stroke-opacity: 0.6; stroke-width: 3; stroke-linecap: round"/>
    <path d="M 349.055286 236.183276 
L 347.390173 247.238926 
L 339.54472 239.273445 
" clip-path="url(#p814a1c16fb)" style="fill: none; stroke: #004c00; stroke-opacity: 0.6; stroke-width: 3; stroke-linecap: round"/>
   </g>
   <g id="patch_29">
    <path d="M 193.041077 36.560097 
Q 282.277871 101.394419 368.801139 164.257249 
" clip-path="url(#p814a1c16fb)" style="fill: none; stroke: #004c00; stroke-opacity: 0.6; stroke-width: 3; stroke-linecap: round"/>
    <path d="M 363.649895 154.334312 
L 368.801139 164.257249 
L 357.772043 162.424482 
" clip-path="url(#p814a1c16fb)" style="fill: none; stroke: #004c00; stroke-opacity: 0.6; stroke-width: 3; stroke-linecap: round"/>
   </g>
   <g id="patch_30">
    <path d="M 194.631828 33.445154 
Q 267.940647 57.26463 338.059525 80.047632 
" clip-path="url(#p814a1c16fb)" style="fill: none; stroke: #004c00; stroke-opacity: 0.6; stroke-width: 3; stroke-linecap: round"/>
    <path d="M 330.094044 72.20218 
L 338.059525 80.047632 
L 327.003875 81.712745 
" clip-path="url(#p814a1c16fb)" style="fill: none; stroke: #004c00; stroke-opacity: 0.6; stroke-width: 3; stroke-linecap: round"/>
   </g>
   <g id="patch_31">
    <path d="M 195.17669 29.990091 
Q 230.396928 29.990087 262.263064 29.990084 
" clip-path="url(#p814a1c16fb)" style="fill: none; stroke: #004c00; stroke-opacity: 0.6; stroke-width: 3; stroke-linecap: round"/>
    <path d="M 252.263063 24.990085 
L 262.263064 29.990084 
L 252.263064 34.990085 
" clip-path="url(#p814a1c16fb)" style="fill: none; stroke: #004c00; stroke-opacity: 0.6; stroke-width: 3; stroke-linecap: round"/>
   </g>
   <g id="patch_32">
    <path d="M 174.954683 36.560619 
Q 146.460915 57.262554 120.680672 75.992996 
" clip-path="url(#p814a1c16fb)" style="fill: none; stroke: #004c00; stroke-opacity: 0.6; stroke-width: 3; stroke-linecap: round"/>
    <path d="M 131.709768 74.160229 
L 120.680672 75.992996 
L 125.831915 66.070059 
" clip-path="url(#p814a1c16fb)" style="fill: none; stroke: #004c00; stroke-opacity: 0.6; stroke-width: 3; stroke-linecap: round"/>
   </g>
   <g id="patch_33">
    <path d="M 177.42632 39.035563 
Q 132.118983 101.39577 88.783137 161.042451 
" clip-path="url(#p814a1c16fb)" style="fill: none; stroke: #004c00; stroke-opacity: 0.6; stroke-width: 3; stroke-linecap: round"/>
    <path d="M 98.706074 155.891206 
L 88.783137 161.042451 
L 90.615904 150.013354 
" clip-path="url(#p814a1c16fb)" style="fill: none; stroke: #004c00; stroke-opacity: 0.6; stroke-width: 3; stroke-linecap: round"/>
   </g>
   <g id="patch_34">
    <path d="M 180.544183 40.620584 
Q 146.458768 145.524726 113.409827 247.238926 
" clip-path="url(#p814a1c16fb)" style="fill: none; stroke: #004c00; stroke-opacity: 0.6; stroke-width: 3; stroke-linecap: round"/>
    <path d="M 121.255279 239.273446 
L 113.409827 247.238926 
L 111.744714 236.183276 
" clip-path="url(#p814a1c16fb)" style="fill: none; stroke: #004c00; stroke-opacity: 0.6; stroke-width: 3; stroke-linecap: round"/>
   </g>
   <g id="patch_35">
    <path d="M 183.998239 41.168907 
Q 183.998232 172.80101 183.998226 301.079011 
" clip-path="url(#p814a1c16fb)" style="fill: none; stroke: #004c00; stroke-opacity: 0.6; stroke-width: 3; stroke-linecap: round"/>
    <path d="M 188.998227 291.079011 
L 183.998226 301.079011 
L 178.998227 291.079011 
" clip-path="url(#p814a1c16fb)" style="fill: none; stroke: #004c00; stroke-opacity: 0.6; stroke-width: 3; stroke-linecap: round"/>
   </g>
   <g id="patch_36">
    <path d="M 187.452033 40.619772 
Q 230.398834 172.796394 272.30916 301.783075 
" clip-path="url(#p814a1c16fb)" style="fill: none; stroke: #004c00; stroke-opacity: 0.6; stroke-width: 3; stroke-linecap: round"/>
    <path d="M 273.974271 290.727425 
L 272.30916 301.783075 
L 264.463706 293.817595 
" clip-path="url(#p814a1c16fb)" style="fill: none; stroke: #004c00; stroke-opacity: 0.6; stroke-width: 3; stroke-linecap: round"/>
   </g>
   <g id="patch_37">
    <path d="M 190.568982 39.033944 
Q 267.940393 145.526557 343.340312 249.305645 
" clip-path="url(#p814a1c16fb)" style="fill: none; stroke: #004c00; stroke-opacity: 0.6; stroke-width: 3; stroke-linecap: round"/>
    <path d="M 341.507545 238.276549 
L 343.340312 249.305645 
L 333.417375 244.154401 
" clip-path="url(#p814a1c16fb)" style="fill: none; stroke: #004c00; stroke-opacity: 0.6; stroke-width: 3; stroke-linecap: round"/>
   </g>
   <g id="patch_38">
    <path d="M 119.550312 87.993066 
Q 244.739887 128.669624 366.739521 168.309707 
" clip-path="url(#p814a1c16fb)" style="fill: none; stroke: #004c00; stroke-opacity: 0.6; stroke-width: 3; stroke-linecap: round"/>
    <path d="M 358.77404 160.464255 
L 366.739521 168.309707 
L 355.68387 169.97482 
" clip-path="url(#p814a1c16fb)" style="fill: none; stroke: #004c00; stroke-opacity: 0.6; stroke-width: 3; stroke-linecap: round"/>
   </g>
   <g id="patch_39">
    <path d="M 120.096188 84.538622 
Q 230.39893 84.538622 337.347569 84.538622 
" clip-path="url(#p814a1c16fb)" style="fill: none; stroke: #004c00; stroke-opacity: 0.6; stroke-width: 3; stroke-linecap: round"/>
    <path d="M 327.347569 79.538622 
L 337.347569 84.538622 
L 327.347569 89.538622 
" clip-path="url(#p814a1c16fb)" style="fill: none; stroke: #004c00; stroke-opacity: 0.6; stroke-width: 3; stroke-linecap: round"/>
   </g>
   <g id="patch_40">
    <path d="M 119.552215 81.08356 
Q 192.86103 57.264079 262.979904 34.481074 
" clip-path="url(#p814a1c16fb)" style="fill: none; stroke: #004c00; stroke-opacity: 0.6; stroke-width: 3; stroke-linecap: round"/>
    <path d="M 251.924254 32.815961 
L 262.979904 34.481074 
L 255.014424 42.326527 
" clip-path="url(#p814a1c16fb)" style="fill: none; stroke: #004c00; stroke-opacity: 0.6; stroke-width: 3; stroke-linecap: round"/>
   </g>
   <g id="patch_41">
    <path d="M 117.962182 77.968095 
Q 146.455951 57.26616 172.236194 38.535718 
" clip-path="url(#p814a1c16fb)" style="fill: none; stroke: #004c00; stroke-opacity: 0.6; stroke-width: 3; stroke-linecap: round"/>
    <path d="M 161.207098 40.368485 
L 172.236194 38.535718 
L 167.08495 48.458655 
" clip-path="url(#p814a1c16fb)" style="fill: none; stroke: #004c00; stroke-opacity: 0.6; stroke-width: 3; stroke-linecap: round"/>
   </g>
   <g id="patch_42">
    <path d="M 105.464295 95.169962 
Q 94.580644 128.666402 84.733467 158.972902 
" clip-path="url(#p814a1c16fb)" style="fill: none; stroke: #004c00; stroke-opacity: 0.6; stroke-width: 3; stroke-linecap: round"/>
    <path d="M 92.578919 151.007421 
L 84.733467 158.972902 
L 83.068354 147.917252 
" clip-path="url(#p814a1c16fb)" style="fill: none; stroke: #004c00; stroke-opacity: 0.6; stroke-width: 3; stroke-linecap: round"/>
   </g>
   <g id="patch_43">
    <path d="M 108.918627 95.719439 
Q 108.918631 172.800893 108.918635 246.528244 
" clip-path="url(#p814a1c16fb)" style="fill: none; stroke: #004c00; stroke-opacity: 0.6; stroke-width: 3; stroke-linecap: round"/>
    <path d="M 113.918634 236.528244 
L 108.918635 246.528244 
L 103.918634 236.528244 
" clip-path="url(#p814a1c16fb)" style="fill: none; stroke: #004c00; stroke-opacity: 0.6; stroke-width: 3; stroke-linecap: round"/>
   </g>
   <g id="patch_44">
    <path d="M 112.372682 95.169115 
Q 146.458095 200.073252 179.507034 301.787448 
" clip-path="url(#p814a1c16fb)" style="fill: none; stroke: #004c00; stroke-opacity: 0.6; stroke-width: 3; stroke-linecap: round"/>
    <path d="M 181.172147 290.731798 
L 179.507034 301.787448 
L 171.661582 293.821968 
" clip-path="url(#p814a1c16fb)" style="fill: none; stroke: #004c00; stroke-opacity: 0.6; stroke-width: 3; stroke-linecap: round"/>
   </g>
   <g id="patch_45">
    <path d="M 115.48937 93.582474 
Q 192.860791 200.075083 268.260721 303.854167 
" clip-path="url(#p814a1c16fb)" style="fill: none; stroke: #004c00; stroke-opacity: 0.6; stroke-width: 3; stroke-linecap: round"/>
    <path d="M 266.427952 292.825071 
L 268.260721 303.854167 
L 258.337783 298.702924 
" clip-path="url(#p814a1c16fb)" style="fill: none; stroke: #004c00; stroke-opacity: 0.6; stroke-width: 3; stroke-linecap: round"/>
   </g>
   <g id="patch_46">
    <path d="M 117.960773 91.108127 
Q 230.396924 172.797777 340.11955 252.515936 
" clip-path="url(#p814a1c16fb)" style="fill: none; stroke: #004c00; stroke-opacity: 0.6; stroke-width: 3; stroke-linecap: round"/>
    <path d="M 334.968306 242.592999 
L 340.11955 252.515936 
L 329.090454 250.683168 
" clip-path="url(#p814a1c16fb)" style="fill: none; stroke: #004c00; stroke-opacity: 0.6; stroke-width: 3; stroke-linecap: round"/>
   </g>
   <g id="patch_47">
    <path d="M 91.417474 172.800017 
Q 230.396203 172.800011 366.020831 172.800005 
" clip-path="url(#p814a1c16fb)" style="fill: none; stroke: #004c00; stroke-opacity: 0.6; stroke-width: 3; stroke-linecap: round"/>
    <path d="M 356.020831 167.800006 
L 366.020831 172.800005 
L 356.020831 177.800006 
" clip-path="url(#p814a1c16fb)" style="fill: none; stroke: #004c00; stroke-opacity: 0.6; stroke-width: 3; stroke-linecap: round"/>
   </g>
   <g id="patch_48">
    <path d="M 90.872451 169.345573 
Q 216.062026 128.669009 338.06166 89.02892 
" clip-path="url(#p814a1c16fb)" style="fill: none; stroke: #004c00; stroke-opacity: 0.6; stroke-width: 3; stroke-linecap: round"/>
    <path d="M 327.00601 87.363808 
L 338.06166 89.02892 
L 330.09618 96.874373 
" clip-path="url(#p814a1c16fb)" style="fill: none; stroke: #004c00; stroke-opacity: 0.6; stroke-width: 3; stroke-linecap: round"/>
   </g>
   <g id="patch_49">
    <path d="M 89.283603 166.230011 
Q 178.520393 101.395679 265.043658 38.532839 
" clip-path="url(#p814a1c16fb)" style="fill: none; stroke: #004c00; stroke-opacity: 0.6; stroke-width: 3; stroke-linecap: round"/>
    <path d="M 254.014562 40.365608 
L 265.043658 38.532839 
L 259.892415 48.455777 
" clip-path="url(#p814a1c16fb)" style="fill: none; stroke: #004c00; stroke-opacity: 0.6; stroke-width: 3; stroke-linecap: round"/>
   </g>
   <g id="patch_50">
    <path d="M 86.812685 163.754546 
Q 132.120022 101.39434 175.455867 41.747659 
" clip-path="url(#p814a1c16fb)" style="fill: none; stroke: #004c00; stroke-opacity: 0.6; stroke-width: 3; stroke-linecap: round"/>
    <path d="M 165.53293 46.898903 
L 175.455867 41.747659 
L 173.623101 52.776755 
" clip-path="url(#p814a1c16fb)" style="fill: none; stroke: #004c00; stroke-opacity: 0.6; stroke-width: 3; stroke-linecap: round"/>
   </g>
   <g id="patch_51">
    <path d="M 83.695097 162.168678 
Q 94.578748 128.672238 104.425925 98.365738 
" clip-path="url(#p814a1c16fb)" style="fill: none; stroke: #004c00; stroke-opacity: 0.6; stroke-width: 3; stroke-linecap: round"/>
    <path d="M 96.580473 106.331219 
L 104.425925 98.365738 
L 106.091038 109.421388 
" clip-path="url(#p814a1c16fb)" style="fill: none; stroke: #004c00; stroke-opacity: 0.6; stroke-width: 3; stroke-linecap: round"/>
   </g>
   <g id="patch_52">
    <path d="M 83.695098 183.431355 
Q 94.578752 216.927789 104.425932 247.234282 
" clip-path="url(#p814a1c16fb)" style="fill: none; stroke: #004c00; stroke-opacity: 0.6; stroke-width: 3; stroke-linecap: round"/>
    <path d="M 106.091044 236.178632 
L 104.425932 247.234282 
L 96.580479 239.268803 
" clip-path="url(#p814a1c16fb)" style="fill: none; stroke: #004c00; stroke-opacity: 0.6; stroke-width: 3; stroke-linecap: round"/>
   </g>
   <g id="patch_53">
    <path d="M 86.812684 181.845487 
Q 132.120015 244.205682 175.455855 303.852352 
" clip-path="url(#p814a1c16fb)" style="fill: none; stroke: #004c00; stroke-opacity: 0.6; stroke-width: 3; stroke-linecap: round"/>
    <path d="M 173.623088 292.823256 
L 175.455855 303.852352 
L 165.532917 298.701108 
" clip-path="url(#p814a1c16fb)" style="fill: none; stroke: #004c00; stroke-opacity: 0.6; stroke-width: 3; stroke-linecap: round"/>
   </g>
   <g id="patch_54">
    <path d="M 89.283604 179.370023 
Q 178.520404 244.204338 265.043679 307.067163 
" clip-path="url(#p814a1c16fb)" style="fill: none; stroke: #004c00; stroke-opacity: 0.6; stroke-width: 3; stroke-linecap: round"/>
    <path d="M 259.892434 297.144226 
L 265.043679 307.067163 
L 254.014582 305.234396 
" clip-path="url(#p814a1c16fb)" style="fill: none; stroke: #004c00; stroke-opacity: 0.6; stroke-width: 3; stroke-linecap: round"/>
   </g>
   <g id="patch_55">
    <path d="M 90.872451 176.254461 
Q 216.062022 216.931017 338.061651 256.571099 
" clip-path="url(#p814a1c16fb)" style="fill: none; stroke: #004c00; stroke-opacity: 0.6; stroke-width: 3; stroke-linecap: round"/>
    <path d="M 330.096171 248.725646 
L 338.061651 256.571099 
L 327.006001 258.236211 
" clip-path="url(#p814a1c16fb)" style="fill: none; stroke: #004c00; stroke-opacity: 0.6; stroke-width: 3; stroke-linecap: round"/>
   </g>
   <g id="patch_56">
    <path d="M 119.550321 257.606951 
Q 244.739891 216.930389 366.739521 177.290302 
" clip-path="url(#p814a1c16fb)" style="fill: none; stroke: #004c00; stroke-opacity: 0.6; stroke-width: 3; stroke-linecap: round"/>
    <path d="M 355.683871 175.62519 
L 366.739521 177.290302 
L 358.774041 185.135755 
" clip-path="url(#p814a1c16fb)" style="fill: none; stroke: #004c00; stroke-opacity: 0.6; stroke-width: 3; stroke-linecap: round"/>
   </g>
   <g id="patch_57">
    <path d="M 117.960782 254.491891 
Q 230.396933 172.80224 340.119559 93.084082 
" clip-path="url(#p814a1c16fb)" style="fill: none; stroke: #004c00; stroke-opacity: 0.6; stroke-width: 3; stroke-linecap: round"/>
    <path d="M 329.090463 94.916849 
L 340.119559 93.084082 
L 334.968315 103.007019 
" clip-path="url(#p814a1c16fb)" style="fill: none; stroke: #004c00; stroke-opacity: 0.6; stroke-width: 3; stroke-linecap: round"/>
   </g>
   <g id="patch_58">
    <path d="M 115.489378 252.017543 
Q 192.860785 145.524926 268.2607 41.745834 
" clip-path="url(#p814a1c16fb)" style="fill: none; stroke: #004c00; stroke-opacity: 0.6; stroke-width: 3; stroke-linecap: round"/>
    <path d="M 258.337763 46.897078 
L 268.2607 41.745834 
L 266.427933 52.77493 
" clip-path="url(#p814a1c16fb)" style="fill: none; stroke: #004c00; stroke-opacity: 0.6; stroke-width: 3; stroke-linecap: round"/>
   </g>
   <g id="patch_59">
    <path d="M 112.372691 250.430903 
Q 146.458106 145.526762 179.507047 43.812561 
" clip-path="url(#p814a1c16fb)" style="fill: none; stroke: #004c00; stroke-opacity: 0.6; stroke-width: 3; stroke-linecap: round"/>
    <path d="M 171.661595 51.778042 
L 179.507047 43.812561 
L 181.172161 54.868211 
" clip-path="url(#p814a1c16fb)" style="fill: none; stroke: #004c00; stroke-opacity: 0.6; stroke-width: 3; stroke-linecap: round"/>
   </g>
   <g id="patch_60">
    <path d="M 108.918635 249.880578 
Q 108.918631 172.799125 108.918627 99.071774 
" clip-path="url(#p814a1c16fb)" style="fill: none; stroke: #004c00; stroke-opacity: 0.6; stroke-width: 3; stroke-linecap: round"/>
    <path d="M 103.918628 109.071774 
L 108.918627 99.071774 
L 113.918628 109.071774 
" clip-path="url(#p814a1c16fb)" style="fill: none; stroke: #004c00; stroke-opacity: 0.6; stroke-width: 3; stroke-linecap: round"/>
   </g>
   <g id="patch_61">
    <path d="M 105.464303 250.430058 
Q 94.580649 216.933624 84.733469 186.627131 
" clip-path="url(#p814a1c16fb)" style="fill: none; stroke: #004c00; stroke-opacity: 0.6; stroke-width: 3; stroke-linecap: round"/>
    <path d="M 83.068357 197.682781 
L 84.733469 186.627131 
L 92.578922 194.59261 
" clip-path="url(#p814a1c16fb)" style="fill: none; stroke: #004c00; stroke-opacity: 0.6; stroke-width: 3; stroke-linecap: round"/>
   </g>
   <g id="patch_62">
    <path d="M 117.962188 267.631922 
Q 146.455948 288.333853 172.236183 307.064292 
" clip-path="url(#p814a1c16fb)" style="fill: none; stroke: #004c00; stroke-opacity: 0.6; stroke-width: 3; stroke-linecap: round"/>
    <path d="M 167.08494 297.141355 
L 172.236183 307.064292 
L 161.207087 305.231524 
" clip-path="url(#p814a1c16fb)" style="fill: none; stroke: #004c00; stroke-opacity: 0.6; stroke-width: 3; stroke-linecap: round"/>
   </g>
   <g id="patch_63">
    <path d="M 119.552225 264.516457 
Q 192.861045 288.33593 262.979925 311.118928 
" clip-path="url(#p814a1c16fb)" style="fill: none; stroke: #004c00; stroke-opacity: 0.6; stroke-width: 3; stroke-linecap: round"/>
    <path d="M 255.014444 303.273476 
L 262.979925 311.118928 
L 251.924275 312.784041 
" clip-path="url(#p814a1c16fb)" style="fill: none; stroke: #004c00; stroke-opacity: 0.6; stroke-width: 3; stroke-linecap: round"/>
   </g>
   <g id="patch_64">
    <path d="M 120.096196 261.061396 
Q 230.39893 261.061396 337.347561 261.061396 
" clip-path="url(#p814a1c16fb)" style="fill: none; stroke: #004c00; stroke-opacity: 0.6; stroke-width: 3; stroke-linecap: round"/>
    <path d="M 327.347561 256.061396 
L 337.347561 261.061396 
L 327.347561 266.061396 
" clip-path="url(#p814a1c16fb)" style="fill: none; stroke: #004c00; stroke-opacity: 0.6; stroke-width: 3; stroke-linecap: round"/>
   </g>
   <g id="patch_65">
    <path d="M 193.041064 309.039912 
Q 282.277864 244.20559 368.801139 181.34276 
" clip-path="url(#p814a1c16fb)" style="fill: none; stroke: #004c00; stroke-opacity: 0.6; stroke-width: 3; stroke-linecap: round"/>
    <path d="M 357.772042 183.175527 
L 368.801139 181.34276 
L 363.649894 191.265697 
" clip-path="url(#p814a1c16fb)" style="fill: none; stroke: #004c00; stroke-opacity: 0.6; stroke-width: 3; stroke-linecap: round"/>
   </g>
   <g id="patch_66">
    <path d="M 190.56897 306.566066 
Q 267.940391 200.073456 343.34032 96.294372 
" clip-path="url(#p814a1c16fb)" style="fill: none; stroke: #004c00; stroke-opacity: 0.6; stroke-width: 3; stroke-linecap: round"/>
    <path d="M 333.417382 101.445615 
L 343.34032 96.294372 
L 341.507552 107.323469 
" clip-path="url(#p814a1c16fb)" style="fill: none; stroke: #004c00; stroke-opacity: 0.6; stroke-width: 3; stroke-linecap: round"/>
   </g>
   <g id="patch_67">
    <path d="M 187.452019 304.980236 
Q 230.398816 172.803611 272.309138 43.816926 
" clip-path="url(#p814a1c16fb)" style="fill: none; stroke: #004c00; stroke-opacity: 0.6; stroke-width: 3; stroke-linecap: round"/>
    <path d="M 264.463685 51.782405 
L 272.309138 43.816926 
L 273.97425 54.872576 
" clip-path="url(#p814a1c16fb)" style="fill: none; stroke: #004c00; stroke-opacity: 0.6; stroke-width: 3; stroke-linecap: round"/>
   </g>
   <g id="patch_68">
    <path d="M 183.998226 304.431102 
Q 183.998232 172.798999 183.998238 44.520998 
" clip-path="url(#p814a1c16fb)" style="fill: none; stroke: #004c00; stroke-opacity: 0.6; stroke-width: 3; stroke-linecap: round"/>
    <path d="M 178.998238 54.520998 
L 183.998238 44.520998 
L 188.998238 54.520998 
" clip-path="url(#p814a1c16fb)" style="fill: none; stroke: #004c00; stroke-opacity: 0.6; stroke-width: 3; stroke-linecap: round"/>
   </g>
   <g id="patch_69">
    <path d="M 180.54417 304.979425 
Q 146.458757 200.075288 113.409818 98.361091 
" clip-path="url(#p814a1c16fb)" style="fill: none; stroke: #004c00; stroke-opacity: 0.6; stroke-width: 3; stroke-linecap: round"/>
    <path d="M 111.744704 109.416741 
L 113.409818 98.361091 
L 121.25527 106.326572 
" clip-path="url(#p814a1c16fb)" style="fill: none; stroke: #004c00; stroke-opacity: 0.6; stroke-width: 3; stroke-linecap: round"/>
   </g>
   <g id="patch_70">
    <path d="M 177.426308 306.564448 
Q 132.118976 244.204253 88.783136 184.557583 
" clip-path="url(#p814a1c16fb)" style="fill: none; stroke: #004c00; stroke-opacity: 0.6; stroke-width: 3; stroke-linecap: round"/>
    <path d="M 90.615904 195.586679 
L 88.783136 184.557583 
L 98.706074 189.708827 
" clip-path="url(#p814a1c16fb)" style="fill: none; stroke: #004c00; stroke-opacity: 0.6; stroke-width: 3; stroke-linecap: round"/>
   </g>
   <g id="patch_71">
    <path d="M 174.954673 309.039391 
Q 146.460913 288.33746 120.680678 269.607021 
" clip-path="url(#p814a1c16fb)" style="fill: none; stroke: #004c00; stroke-opacity: 0.6; stroke-width: 3; stroke-linecap: round"/>
    <path d="M 125.831921 279.529958 
L 120.680678 269.607021 
L 131.709774 271.439789 
" clip-path="url(#p814a1c16fb)" style="fill: none; stroke: #004c00; stroke-opacity: 0.6; stroke-width: 3; stroke-linecap: round"/>
   </g>
   <g id="patch_72">
    <path d="M 195.17668 315.609917 
Q 230.396932 315.609917 262.263082 315.609917 
" clip-path="url(#p814a1c16fb)" style="fill: none; stroke: #004c00; stroke-opacity: 0.6; stroke-width: 3; stroke-linecap: round"/>
    <path d="M 252.263082 310.609917 
L 262.263082 315.609917 
L 252.263082 320.609917 
" clip-path="url(#p814a1c16fb)" style="fill: none; stroke: #004c00; stroke-opacity: 0.6; stroke-width: 3; stroke-linecap: round"/>
   </g>
   <g id="patch_73">
    <path d="M 194.631815 312.154856 
Q 267.940636 288.335383 338.059516 265.552385 
" clip-path="url(#p814a1c16fb)" style="fill: none; stroke: #004c00; stroke-opacity: 0.6; stroke-width: 3; stroke-linecap: round"/>
    <path d="M 327.003866 263.887272 
L 338.059516 265.552385 
L 330.094035 273.397837 
" clip-path="url(#p814a1c16fb)" style="fill: none; stroke: #004c00; stroke-opacity: 0.6; stroke-width: 3; stroke-linecap: round"/>
   </g>
   <g id="patch_74">
    <path d="M 283.373692 306.564447 
Q 328.681024 244.204246 372.016864 184.557571 
" clip-path="url(#p814a1c16fb)" style="fill: none; stroke: #004c00; stroke-opacity: 0.6; stroke-width: 3; stroke-linecap: round"/>
    <path d="M 362.093927 189.708815 
L 372.016864 184.557571 
L 370.184097 195.586667 
" clip-path="url(#p814a1c16fb)" style="fill: none; stroke: #004c00; stroke-opacity: 0.6; stroke-width: 3; stroke-linecap: round"/>
   </g>
   <g id="patch_75">
    <path d="M 280.25583 304.979425 
Q 314.341243 200.075288 347.390182 98.361091 
" clip-path="url(#p814a1c16fb)" style="fill: none; stroke: #004c00; stroke-opacity: 0.6; stroke-width: 3; stroke-linecap: round"/>
    <path d="M 339.54473 106.326572 
L 347.390182 98.361091 
L 349.055296 109.416741 
" clip-path="url(#p814a1c16fb)" style="fill: none; stroke: #004c00; stroke-opacity: 0.6; stroke-width: 3; stroke-linecap: round"/>
   </g>
   <g id="patch_76">
    <path d="M 276.801774 304.431101 
Q 276.801763 172.798994 276.801753 44.520989 
" clip-path="url(#p814a1c16fb)" style="fill: none; stroke: #004c00; stroke-opacity: 0.6; stroke-width: 3; stroke-linecap: round"/>
    <path d="M 271.801754 54.52099 
L 276.801753 44.520989 
L 281.801754 54.520989 
" clip-path="url(#p814a1c16fb)" style="fill: none; stroke: #004c00; stroke-opacity: 0.6; stroke-width: 3; stroke-linecap: round"/>
   </g>
   <g id="patch_77">
    <path d="M 273.347981 304.980237 
Q 230.40118 172.803615 188.490854 43.816934 
" clip-path="url(#p814a1c16fb)" style="fill: none; stroke: #004c00; stroke-opacity: 0.6; stroke-width: 3; stroke-linecap: round"/>
    <path d="M 186.825742 54.872584 
L 188.490854 43.816934 
L 196.336307 51.782414 
" clip-path="url(#p814a1c16fb)" style="fill: none; stroke: #004c00; stroke-opacity: 0.6; stroke-width: 3; stroke-linecap: round"/>
   </g>
   <g id="patch_78">
    <path d="M 270.23103 306.566066 
Q 192.859609 200.073456 117.45968 96.294372 
" clip-path="url(#p814a1c16fb)" style="fill: none; stroke: #004c00; stroke-opacity: 0.6; stroke-width: 3; stroke-linecap: round"/>
    <path d="M 119.292448 107.323469 
L 117.45968 96.294372 
L 127.382618 101.445615 
" clip-path="url(#p814a1c16fb)" style="fill: none; stroke: #004c00; stroke-opacity: 0.6; stroke-width: 3; stroke-linecap: round"/>
   </g>
   <g id="patch_79">
    <path d="M 267.758936 309.039912 
Q 178.522136 244.205597 91.998861 181.342772 
" clip-path="url(#p814a1c16fb)" style="fill: none; stroke: #004c00; stroke-opacity: 0.6; stroke-width: 3; stroke-linecap: round"/>
    <path d="M 97.150106 191.265709 
L 91.998861 181.342772 
L 103.027958 183.175539 
" clip-path="url(#p814a1c16fb)" style="fill: none; stroke: #004c00; stroke-opacity: 0.6; stroke-width: 3; stroke-linecap: round"/>
   </g>
   <g id="patch_80">
    <path d="M 266.168185 312.154856 
Q 192.859364 288.335383 122.740484 265.552385 
" clip-path="url(#p814a1c16fb)" style="fill: none; stroke: #004c00; stroke-opacity: 0.6; stroke-width: 3; stroke-linecap: round"/>
    <path d="M 130.705965 273.397837 
L 122.740484 265.552385 
L 133.796134 263.887272 
" clip-path="url(#p814a1c16fb)" style="fill: none; stroke: #004c00; stroke-opacity: 0.6; stroke-width: 3; stroke-linecap: round"/>
   </g>
   <g id="patch_81">
    <path d="M 265.62332 315.609917 
Q 230.403068 315.609917 198.536918 315.609917 
" clip-path="url(#p814a1c16fb)" style="fill: none; stroke: #004c00; stroke-opacity: 0.6; stroke-width: 3; stroke-linecap: round"/>
    <path d="M 208.536918 320.609917 
L 198.536918 315.609917 
L 208.536918 310.609917 
" clip-path="url(#p814a1c16fb)" style="fill: none; stroke: #004c00; stroke-opacity: 0.6; stroke-width: 3; stroke-linecap: round"/>
   </g>
   <g id="patch_82">
    <path d="M 285.845327 309.039391 
Q 314.339087 288.33746 340.119322 269.607021 
" clip-path="url(#p814a1c16fb)" style="fill: none; stroke: #004c00; stroke-opacity: 0.6; stroke-width: 3; stroke-linecap: round"/>
    <path d="M 329.090226 271.439789 
L 340.119322 269.607021 
L 334.968079 279.529958 
" clip-path="url(#p814a1c16fb)" style="fill: none; stroke: #004c00; stroke-opacity: 0.6; stroke-width: 3; stroke-linecap: round"/>
   </g>
   <g id="patch_83">
    <path d="M 355.335697 250.430057 
Q 366.219351 216.933618 376.066531 186.627119 
" clip-path="url(#p814a1c16fb)" style="fill: none; stroke: #004c00; stroke-opacity: 0.6; stroke-width: 3; stroke-linecap: round"/>
    <path d="M 368.221079 194.592599 
L 376.066531 186.627119 
L 377.731644 197.68277 
" clip-path="url(#p814a1c16fb)" style="fill: none; stroke: #004c00; stroke-opacity: 0.6; stroke-width: 3; stroke-linecap: round"/>
   </g>
   <g id="patch_84">
    <path d="M 351.881365 249.880578 
Q 351.881369 172.799125 351.881373 99.071774 
" clip-path="url(#p814a1c16fb)" style="fill: none; stroke: #004c00; stroke-opacity: 0.6; stroke-width: 3; stroke-linecap: round"/>
    <path d="M 346.881372 109.071774 
L 351.881373 99.071774 
L 356.881372 109.071774 
" clip-path="url(#p814a1c16fb)" style="fill: none; stroke: #004c00; stroke-opacity: 0.6; stroke-width: 3; stroke-linecap: round"/>
   </g>
   <g id="patch_85">
    <path d="M 348.427308 250.430902 
Q 314.341889 145.526757 281.292944 43.812552 
" clip-path="url(#p814a1c16fb)" style="fill: none; stroke: #004c00; stroke-opacity: 0.6; stroke-width: 3; stroke-linecap: round"/>
    <path d="M 279.627831 54.868202 
L 281.292944 43.812552 
L 289.138396 51.778033 
" clip-path="url(#p814a1c16fb)" style="fill: none; stroke: #004c00; stroke-opacity: 0.6; stroke-width: 3; stroke-linecap: round"/>
   </g>
   <g id="patch_86">
    <path d="M 345.310622 252.017543 
Q 267.939211 145.52493 192.539292 41.745842 
" clip-path="url(#p814a1c16fb)" style="fill: none; stroke: #004c00; stroke-opacity: 0.6; stroke-width: 3; stroke-linecap: round"/>
    <path d="M 194.372059 52.774939 
L 192.539292 41.745842 
L 202.462229 46.897086 
" clip-path="url(#p814a1c16fb)" style="fill: none; stroke: #004c00; stroke-opacity: 0.6; stroke-width: 3; stroke-linecap: round"/>
   </g>
   <g id="patch_87">
    <path d="M 342.839218 254.491891 
Q 230.403067 172.80224 120.680441 93.084082 
" clip-path="url(#p814a1c16fb)" style="fill: none; stroke: #004c00; stroke-opacity: 0.6; stroke-width: 3; stroke-linecap: round"/>
    <path d="M 125.831685 103.007019 
L 120.680441 93.084082 
L 131.709537 94.916849 
" clip-path="url(#p814a1c16fb)" style="fill: none; stroke: #004c00; stroke-opacity: 0.6; stroke-width: 3; stroke-linecap: round"/>
   </g>
   <g id="patch_88">
    <path d="M 341.249679 257.606952 
Q 216.060109 216.930396 94.060479 177.290315 
" clip-path="url(#p814a1c16fb)" style="fill: none; stroke: #004c00; stroke-opacity: 0.6; stroke-width: 3; stroke-linecap: round"/>
    <path d="M 102.025959 185.135767 
L 94.060479 177.290315 
L 105.116129 175.625202 
" clip-path="url(#p814a1c16fb)" style="fill: none; stroke: #004c00; stroke-opacity: 0.6; stroke-width: 3; stroke-linecap: round"/>
   </g>
   <g id="patch_89">
    <path d="M 340.703804 261.061396 
Q 230.40107 261.061396 123.452439 261.061396 
" clip-path="url(#p814a1c16fb)" style="fill: none; stroke: #004c00; stroke-opacity: 0.6; stroke-width: 3; stroke-linecap: round"/>
    <path d="M 133.452439 266.061396 
L 123.452439 261.061396 
L 133.452439 256.061396 
" clip-path="url(#p814a1c16fb)" style="fill: none; stroke: #004c00; stroke-opacity: 0.6; stroke-width: 3; stroke-linecap: round"/>
   </g>
   <g id="patch_90">
    <path d="M 341.247775 264.516457 
Q 267.938955 288.33593 197.820075 311.118928 
" clip-path="url(#p814a1c16fb)" style="fill: none; stroke: #004c00; stroke-opacity: 0.6; stroke-width: 3; stroke-linecap: round"/>
    <path d="M 208.875725 312.784041 
L 197.820075 311.118928 
L 205.785556 303.273476 
" clip-path="url(#p814a1c16fb)" style="fill: none; stroke: #004c00; stroke-opacity: 0.6; stroke-width: 3; stroke-linecap: round"/>
   </g>
   <g id="patch_91">
    <path d="M 342.837812 267.631922 
Q 314.344052 288.333853 288.563817 307.064292 
" clip-path="url(#p814a1c16fb)" style="fill: none; stroke: #004c00; stroke-opacity: 0.6; stroke-width: 3; stroke-linecap: round"/>
    <path d="M 299.592913 305.231524 
L 288.563817 307.064292 
L 293.71506 297.141355 
" clip-path="url(#p814a1c16fb)" style="fill: none; stroke: #004c00; stroke-opacity: 0.6; stroke-width: 3; stroke-linecap: round"/>
   </g>
   <g id="PathCollection_1">
    <defs>
     <path id="m426982a292" d="M 0 11.18034 
C 2.965061 11.18034 5.80908 10.002309 7.905694 7.905694 
C 10.002309 5.80908 11.18034 2.965061 11.18034 0 
C 11.18034 -2.965061 10.002309 -5.80908 7.905694 -7.905694 
C 5.80908 -10.002309 2.965061 -11.18034 0 -11.18034 
C -2.965061 -11.18034 -5.80908 -10.002309 -7.905694 -7.905694 
C -10.002309 -5.80908 -11.18034 -2.965061 -11.18034 0 
C -11.18034 2.965061 -10.002309 5.80908 -7.905694 7.905694 
C -5.80908 10.002309 -2.965061 11.18034 0 11.18034 
z
" style="stroke: #004c00; stroke-opacity: 0.6"/>
    </defs>
    <g clip-path="url(#p814a1c16fb)">
     <use xlink:href="#m426982a292" x="380.559234" y="172.800004" style="fill: #004c00; fill-opacity: 0.6; stroke: #004c00; stroke-opacity: 0.6"/>
     <use xlink:href="#m426982a292" x="351.881374" y="84.538622" style="fill: #004c00; fill-opacity: 0.6; stroke: #004c00; stroke-opacity: 0.6"/>
     <use xlink:href="#m426982a292" x="276.801752" y="29.990083" style="fill: #004c00; fill-opacity: 0.6; stroke: #004c00; stroke-opacity: 0.6"/>
     <use xlink:href="#m426982a292" x="183.998239" y="29.990092" style="fill: #004c00; fill-opacity: 0.6; stroke: #004c00; stroke-opacity: 0.6"/>
     <use xlink:href="#m426982a292" x="108.918626" y="84.538622" style="fill: #004c00; fill-opacity: 0.6; stroke: #004c00; stroke-opacity: 0.6"/>
     <use xlink:href="#m426982a292" x="80.240766" y="172.800018" style="fill: #004c00; fill-opacity: 0.6; stroke: #004c00; stroke-opacity: 0.6"/>
     <use xlink:href="#m426982a292" x="108.918635" y="261.061396" style="fill: #004c00; fill-opacity: 0.6; stroke: #004c00; stroke-opacity: 0.6"/>
     <use xlink:href="#m426982a292" x="183.998226" y="315.609917" style="fill: #004c00; fill-opacity: 0.6; stroke: #004c00; stroke-opacity: 0.6"/>
     <use xlink:href="#m426982a292" x="276.801774" y="315.609917" style="fill: #004c00; fill-opacity: 0.6; stroke: #004c00; stroke-opacity: 0.6"/>
     <use xlink:href="#m426982a292" x="351.881365" y="261.061396" style="fill: #004c00; fill-opacity: 0.6; stroke: #004c00; stroke-opacity: 0.6"/>
    </g>
   </g>
  </g>
 </g>
 <defs>
  <clipPath id="p814a1c16fb">
   <rect x="0" y="0" width="460.8" height="345.6"/>
  </clipPath>
 </defs>
</svg>
