<?xml version="1.0" encoding="utf-8" standalone="no"?>
<!DOCTYPE svg PUBLIC "-//W3C//DTD SVG 1.1//EN"
  "http://www.w3.org/Graphics/SVG/1.1/DTD/svg11.dtd">
<svg xmlns:xlink="http://www.w3.org/1999/xlink" width="432pt" height="324pt" viewBox="0 0 432 324" xmlns="http://www.w3.org/2000/svg" version="1.1">
 <metadata>
  <rdf:RDF xmlns:dc="http://purl.org/dc/elements/1.1/" xmlns:cc="http://creativecommons.org/ns#" xmlns:rdf="http://www.w3.org/1999/02/22-rdf-syntax-ns#">
   <cc:Work>
    <dc:type rdf:resource="http://purl.org/dc/dcmitype/StillImage"/>
    <dc:date>2025-08-20T14:12:52.368033</dc:date>
    <dc:format>image/svg+xml</dc:format>
    <dc:creator>
     <cc:Agent>
      <dc:title>Matplotlib v3.9.1.post1, https://matplotlib.org/</dc:title>
     </cc:Agent>
    </dc:creator>
   </cc:Work>
  </rdf:RDF>
 </metadata>
 <defs>
  <style type="text/css">*{stroke-linejoin: round; stroke-linecap: butt}</style>
 </defs>
 <g id="figure_1">
  <g id="patch_1">
   <path d="M 0 324 
L 432 324 
L 432 0 
L 0 0 
z
" style="fill: #ffffff"/>
  </g>
  <g id="axes_1">
   <g id="patch_2">
    <path d="M 62.03 242.946877 
L 224.879001 242.946877 
L 224.879001 42.32 
L 62.03 42.32 
z
" style="fill: #ffffff"/>
   </g>
   <g id="PolyCollection_1">
    <path d="M 81.976424 205.931008 
L 78.037251 205.931008 
L 77.886724 205.855219 
L 77.729733 205.779431 
L 77.566272 205.703643 
L 77.396365 205.627854 
L 77.220073 205.552066 
L 77.037502 205.476277 
L 76.848813 205.400489 
L 76.654224 205.3247 
L 76.45402 205.248912 
L 76.248549 205.173124 
L 76.038227 205.097335 
L 75.823538 205.021547 
L 75.605021 204.945758 
L 75.383272 204.86997 
L 75.158928 204.794181 
L 74.932659 204.718393 
L 74.705152 204.642605 
L 74.477096 204.566816 
L 74.24917 204.491028 
L 74.022023 204.415239 
L 73.796263 204.339451 
L 73.57244 204.263662 
L 73.351036 204.187874 
L 73.132456 204.112086 
L 72.917023 204.036297 
L 72.704976 203.960509 
L 72.496473 203.88472 
L 72.2916 203.808932 
L 72.090386 203.733143 
L 71.892817 203.657355 
L 71.698864 203.581567 
L 71.508511 203.505778 
L 71.321781 203.42999 
L 71.138779 203.354201 
L 70.959717 203.278413 
L 70.784957 203.202624 
L 70.615035 203.126836 
L 70.450693 203.051048 
L 70.292894 202.975259 
L 70.142838 202.899471 
L 70.00196 202.823682 
L 69.871918 202.747894 
L 69.754575 202.672105 
L 69.651959 202.596317 
L 69.566217 202.520528 
L 69.499559 202.44474 
L 69.454187 202.368952 
L 69.432227 202.293163 
L 69.435651 202.217375 
L 69.466198 202.141586 
L 69.525302 202.065798 
L 69.614029 201.990009 
L 69.733015 201.914221 
L 69.882427 201.838433 
L 70.061932 201.762644 
L 70.270686 201.686856 
L 70.507335 201.611067 
L 70.770042 201.535279 
L 71.056517 201.45949 
L 71.364072 201.383702 
L 71.689684 201.307914 
L 72.030061 201.232125 
L 72.381724 201.156337 
L 72.741083 201.080548 
L 73.104519 201.00476 
L 73.468454 200.928971 
L 73.829427 200.853183 
L 74.184151 200.777395 
L 74.529572 200.701606 
L 74.86291 200.625818 
L 75.181694 200.550029 
L 75.483791 200.474241 
L 75.767418 200.398452 
L 76.031155 200.322664 
L 76.273947 200.246876 
L 76.495099 200.171087 
L 76.694272 200.095299 
L 76.871468 200.01951 
L 77.027017 199.943722 
L 77.161559 199.867933 
L 77.276025 199.792145 
L 77.371613 199.716357 
L 77.44976 199.640568 
L 77.512119 199.56478 
L 77.560521 199.488991 
L 77.596943 199.413203 
L 77.623471 199.337414 
L 77.642253 199.261626 
L 77.655463 199.185838 
L 77.665251 199.110049 
L 77.673701 199.034261 
L 77.682783 198.958472 
L 77.694317 198.882684 
L 77.709928 198.806895 
L 77.731018 198.731107 
L 77.758737 198.655319 
L 77.793963 198.57953 
L 77.837291 198.503742 
L 77.889029 198.427953 
L 82.124646 198.427953 
L 82.124646 198.427953 
L 82.176385 198.503742 
L 82.219712 198.57953 
L 82.254938 198.655319 
L 82.282657 198.731107 
L 82.303748 198.806895 
L 82.319359 198.882684 
L 82.330892 198.958472 
L 82.339975 199.034261 
L 82.348424 199.110049 
L 82.358212 199.185838 
L 82.371422 199.261626 
L 82.390205 199.337414 
L 82.416732 199.413203 
L 82.453155 199.488991 
L 82.501557 199.56478 
L 82.563916 199.640568 
L 82.642063 199.716357 
L 82.73765 199.792145 
L 82.852117 199.867933 
L 82.986659 199.943722 
L 83.142208 200.01951 
L 83.319404 200.095299 
L 83.518577 200.171087 
L 83.739729 200.246876 
L 83.982521 200.322664 
L 84.246258 200.398452 
L 84.529885 200.474241 
L 84.831982 200.550029 
L 85.150766 200.625818 
L 85.484104 200.701606 
L 85.829525 200.777395 
L 86.184249 200.853183 
L 86.545221 200.928971 
L 86.909157 201.00476 
L 87.272592 201.080548 
L 87.631952 201.156337 
L 87.983615 201.232125 
L 88.323992 201.307914 
L 88.649603 201.383702 
L 88.957159 201.45949 
L 89.243634 201.535279 
L 89.50634 201.611067 
L 89.74299 201.686856 
L 89.951744 201.762644 
L 90.131249 201.838433 
L 90.280661 201.914221 
L 90.399647 201.990009 
L 90.488374 202.065798 
L 90.547478 202.141586 
L 90.578024 202.217375 
L 90.581448 202.293163 
L 90.559489 202.368952 
L 90.514117 202.44474 
L 90.447458 202.520528 
L 90.361716 202.596317 
L 90.2591 202.672105 
L 90.141757 202.747894 
L 90.011716 202.823682 
L 89.870838 202.899471 
L 89.720782 202.975259 
L 89.562983 203.051048 
L 89.39864 203.126836 
L 89.228719 203.202624 
L 89.053958 203.278413 
L 88.874897 203.354201 
L 88.691894 203.42999 
L 88.505165 203.505778 
L 88.314811 203.581567 
L 88.120859 203.657355 
L 87.92329 203.733143 
L 87.722075 203.808932 
L 87.517203 203.88472 
L 87.3087 203.960509 
L 87.096653 204.036297 
L 86.88122 204.112086 
L 86.66264 204.187874 
L 86.441236 204.263662 
L 86.217412 204.339451 
L 85.991652 204.415239 
L 85.764506 204.491028 
L 85.53658 204.566816 
L 85.308524 204.642605 
L 85.081016 204.718393 
L 84.854747 204.794181 
L 84.630403 204.86997 
L 84.408654 204.945758 
L 84.190138 205.021547 
L 83.975448 205.097335 
L 83.765127 205.173124 
L 83.559656 205.248912 
L 83.359451 205.3247 
L 83.164863 205.400489 
L 82.976174 205.476277 
L 82.793603 205.552066 
L 82.617311 205.627854 
L 82.447403 205.703643 
L 82.283942 205.779431 
L 82.126951 205.855219 
L 81.976424 205.931008 
z
" clip-path="url(#pe57a3b1d7e)" style="fill: #d2691e; fill-opacity: 0.3"/>
   </g>
   <g id="PathCollection_1">
    <defs>
     <path id="ma6895eedf8" d="M 0 3 
C 0.795609 3 1.55874 2.683901 2.12132 2.12132 
C 2.683901 1.55874 3 0.795609 3 0 
C 3 -0.795609 2.683901 -1.55874 2.12132 -2.12132 
C 1.55874 -2.683901 0.795609 -3 0 -3 
C -0.795609 -3 -1.55874 -2.683901 -2.12132 -2.12132 
C -2.683901 -1.55874 -3 -0.795609 -3 0 
C -3 0.795609 -2.683901 1.55874 -2.12132 2.12132 
C -1.55874 2.683901 -0.795609 3 0 3 
z
" style="stroke: #d2691e"/>
    </defs>
    <g clip-path="url(#pe57a3b1d7e)">
     <use xlink:href="#ma6895eedf8" x="80.006838" y="202.365556" style="fill: #d2691e; stroke: #d2691e"/>
    </g>
   </g>
   <g id="PolyCollection_2">
    <path d="M 132.87989 171.825123 
L 111.730669 171.825123 
L 111.730669 171.825123 
L 111.730669 171.825123 
L 111.730669 171.825123 
L 111.730669 171.825123 
L 111.730669 171.825123 
L 111.730669 171.825123 
L 111.730669 171.825123 
L 111.730669 171.825123 
L 111.730669 171.825123 
L 111.730669 171.825123 
L 111.730669 171.825123 
L 111.730669 171.825123 
L 111.730669 171.825123 
L 111.730669 171.825123 
L 111.730669 171.825123 
L 111.730669 171.825123 
L 111.730669 171.825123 
L 111.730669 171.825123 
L 111.730669 171.825123 
L 111.730669 171.825123 
L 111.730669 171.825123 
L 111.730669 171.825123 
L 111.730669 171.825123 
L 111.730669 171.825123 
L 111.730669 171.825123 
L 111.730669 171.825123 
L 111.730669 171.825123 
L 111.730669 171.825123 
L 111.730669 171.825123 
L 111.730669 171.825123 
L 111.730669 171.825123 
L 111.730669 171.825123 
L 111.730669 171.825123 
L 111.730669 171.825123 
L 111.730669 171.825123 
L 111.730669 171.825123 
L 111.730669 171.825123 
L 111.730669 171.825123 
L 111.730669 171.825123 
L 111.730669 171.825123 
L 111.730669 171.825123 
L 111.730669 171.825123 
L 111.730669 171.825123 
L 111.730669 171.825123 
L 111.730669 171.825123 
L 111.730669 171.825123 
L 111.730669 171.825123 
L 111.730669 171.825123 
L 111.730669 171.825123 
L 111.730669 171.825123 
L 111.730669 171.825123 
L 111.730669 171.825123 
L 111.730669 171.825123 
L 111.730669 171.825123 
L 111.730669 171.825123 
L 111.730669 171.825123 
L 111.730669 171.825123 
L 111.730669 171.825123 
L 111.730669 171.825123 
L 111.730669 171.825123 
L 111.730669 171.825123 
L 111.730669 171.825123 
L 111.730669 171.825123 
L 111.730669 171.825123 
L 111.730669 171.825123 
L 111.730669 171.825123 
L 111.730669 171.825123 
L 111.730669 171.825123 
L 111.730669 171.825123 
L 111.730669 171.825123 
L 111.730669 171.825123 
L 111.730669 171.825123 
L 111.730669 171.825123 
L 111.730669 171.825123 
L 111.730669 171.825123 
L 111.730669 171.825123 
L 111.730669 171.825123 
L 111.730669 171.825123 
L 111.730669 171.825123 
L 111.730669 171.825123 
L 111.730669 171.825123 
L 111.730669 171.825123 
L 111.730669 171.825123 
L 111.730669 171.825123 
L 111.730669 171.825123 
L 111.730669 171.825123 
L 111.730669 171.825123 
L 111.730669 171.825123 
L 111.730669 171.825123 
L 111.730669 171.825123 
L 111.730669 171.825123 
L 111.730669 171.825123 
L 111.730669 171.825123 
L 111.730669 171.825123 
L 111.730669 171.825123 
L 111.730669 171.825123 
L 111.730669 171.825123 
L 111.730669 171.825123 
L 111.730669 171.825123 
L 132.87989 171.825123 
L 132.87989 171.825123 
L 132.87989 171.825123 
L 132.87989 171.825123 
L 132.87989 171.825123 
L 132.87989 171.825123 
L 132.87989 171.825123 
L 132.87989 171.825123 
L 132.87989 171.825123 
L 132.87989 171.825123 
L 132.87989 171.825123 
L 132.87989 171.825123 
L 132.87989 171.825123 
L 132.87989 171.825123 
L 132.87989 171.825123 
L 132.87989 171.825123 
L 132.87989 171.825123 
L 132.87989 171.825123 
L 132.87989 171.825123 
L 132.87989 171.825123 
L 132.87989 171.825123 
L 132.87989 171.825123 
L 132.87989 171.825123 
L 132.87989 171.825123 
L 132.87989 171.825123 
L 132.87989 171.825123 
L 132.87989 171.825123 
L 132.87989 171.825123 
L 132.87989 171.825123 
L 132.87989 171.825123 
L 132.87989 171.825123 
L 132.87989 171.825123 
L 132.87989 171.825123 
L 132.87989 171.825123 
L 132.87989 171.825123 
L 132.87989 171.825123 
L 132.87989 171.825123 
L 132.87989 171.825123 
L 132.87989 171.825123 
L 132.87989 171.825123 
L 132.87989 171.825123 
L 132.87989 171.825123 
L 132.87989 171.825123 
L 132.87989 171.825123 
L 132.87989 171.825123 
L 132.87989 171.825123 
L 132.87989 171.825123 
L 132.87989 171.825123 
L 132.87989 171.825123 
L 132.87989 171.825123 
L 132.87989 171.825123 
L 132.87989 171.825123 
L 132.87989 171.825123 
L 132.87989 171.825123 
L 132.87989 171.825123 
L 132.87989 171.825123 
L 132.87989 171.825123 
L 132.87989 171.825123 
L 132.87989 171.825123 
L 132.87989 171.825123 
L 132.87989 171.825123 
L 132.87989 171.825123 
L 132.87989 171.825123 
L 132.87989 171.825123 
L 132.87989 171.825123 
L 132.87989 171.825123 
L 132.87989 171.825123 
L 132.87989 171.825123 
L 132.87989 171.825123 
L 132.87989 171.825123 
L 132.87989 171.825123 
L 132.87989 171.825123 
L 132.87989 171.825123 
L 132.87989 171.825123 
L 132.87989 171.825123 
L 132.87989 171.825123 
L 132.87989 171.825123 
L 132.87989 171.825123 
L 132.87989 171.825123 
L 132.87989 171.825123 
L 132.87989 171.825123 
L 132.87989 171.825123 
L 132.87989 171.825123 
L 132.87989 171.825123 
L 132.87989 171.825123 
L 132.87989 171.825123 
L 132.87989 171.825123 
L 132.87989 171.825123 
L 132.87989 171.825123 
L 132.87989 171.825123 
L 132.87989 171.825123 
L 132.87989 171.825123 
L 132.87989 171.825123 
L 132.87989 171.825123 
L 132.87989 171.825123 
L 132.87989 171.825123 
L 132.87989 171.825123 
L 132.87989 171.825123 
L 132.87989 171.825123 
L 132.87989 171.825123 
L 132.87989 171.825123 
z
" clip-path="url(#pe57a3b1d7e)" style="fill: #1f77b4; fill-opacity: 0.3"/>
   </g>
   <g id="PathCollection_2">
    <defs>
     <path id="m35fc5b52c4" d="M 0 3 
C 0.795609 3 1.55874 2.683901 2.12132 2.12132 
C 2.683901 1.55874 3 0.795609 3 0 
C 3 -0.795609 2.683901 -1.55874 2.12132 -2.12132 
C 1.55874 -2.683901 0.795609 -3 0 -3 
C -0.795609 -3 -1.55874 -2.683901 -2.12132 -2.12132 
C -2.683901 -1.55874 -3 -0.795609 -3 0 
C -3 0.795609 -2.683901 1.55874 -2.12132 2.12132 
C -1.55874 2.683901 -0.795609 3 0 3 
z
" style="stroke: #1f77b4"/>
    </defs>
    <g clip-path="url(#pe57a3b1d7e)">
     <use xlink:href="#m35fc5b52c4" x="122.30528" y="171.825123" style="fill: #1f77b4; stroke: #1f77b4"/>
    </g>
   </g>
   <g id="PolyCollection_3">
    <path d="M 165.632622 164.91631 
L 163.574821 164.91631 
L 163.53372 164.892119 
L 163.490803 164.867927 
L 163.44516 164.843735 
L 163.395778 164.819544 
L 163.341575 164.795352 
L 163.28142 164.77116 
L 163.214175 164.746969 
L 163.138725 164.722777 
L 163.054022 164.698585 
L 162.959115 164.674394 
L 162.853195 164.650202 
L 162.73562 164.62601 
L 162.605949 164.601819 
L 162.463961 164.577627 
L 162.309676 164.553435 
L 162.143356 164.529244 
L 161.965511 164.505052 
L 161.776884 164.48086 
L 161.578442 164.456669 
L 161.371344 164.432477 
L 161.156912 164.408285 
L 160.936593 164.384094 
L 160.71192 164.359902 
L 160.484462 164.33571 
L 160.255783 164.311519 
L 160.027396 164.287327 
L 159.800719 164.263135 
L 159.577043 164.238944 
L 159.357491 164.214752 
L 159.143 164.19056 
L 158.9343 164.166369 
L 158.731907 164.142177 
L 158.53612 164.117985 
L 158.347031 164.093794 
L 158.164539 164.069602 
L 157.988374 164.04541 
L 157.818128 164.021219 
L 157.653282 163.997027 
L 157.493254 163.972835 
L 157.337425 163.948644 
L 157.185186 163.924452 
L 157.035972 163.90026 
L 156.889292 163.876069 
L 156.744758 163.851877 
L 156.602109 163.827685 
L 156.461219 163.803494 
L 156.322108 163.779302 
L 156.184936 163.75511 
L 156.049991 163.730919 
L 155.917676 163.706727 
L 155.788477 163.682535 
L 155.662934 163.658344 
L 155.54161 163.634152 
L 155.425049 163.60996 
L 155.313741 163.585769 
L 155.20809 163.561577 
L 155.108386 163.537385 
L 155.014778 163.513194 
L 154.927263 163.489002 
L 154.845683 163.46481 
L 154.769731 163.440619 
L 154.698966 163.416427 
L 154.632844 163.392235 
L 154.570755 163.368044 
L 154.512069 163.343852 
L 154.456182 163.31966 
L 154.402578 163.295469 
L 154.350878 163.271277 
L 154.300893 163.247085 
L 154.252671 163.222894 
L 154.206529 163.198702 
L 154.163084 163.17451 
L 154.123264 163.150319 
L 154.088305 163.126127 
L 154.059733 163.101935 
L 154.039335 163.077744 
L 154.029111 163.053552 
L 154.031219 163.02936 
L 154.047903 163.005169 
L 154.081421 162.980977 
L 154.133965 162.956785 
L 154.207583 162.932594 
L 154.304098 162.908402 
L 154.425042 162.88421 
L 154.571591 162.860019 
L 154.744513 162.835827 
L 154.944132 162.811635 
L 155.170307 162.787444 
L 155.422418 162.763252 
L 155.699377 162.73906 
L 155.999648 162.714869 
L 156.321284 162.690677 
L 156.661969 162.666485 
L 157.019074 162.642294 
L 157.389726 162.618102 
L 157.770868 162.59391 
L 158.159333 162.569719 
L 158.551916 162.545527 
L 158.945437 162.521335 
L 170.262007 162.521335 
L 170.262007 162.521335 
L 170.655527 162.545527 
L 171.04811 162.569719 
L 171.436576 162.59391 
L 171.817717 162.618102 
L 172.188369 162.642294 
L 172.545475 162.666485 
L 172.886159 162.690677 
L 173.207795 162.714869 
L 173.508067 162.73906 
L 173.785026 162.763252 
L 174.037137 162.787444 
L 174.263311 162.811635 
L 174.462931 162.835827 
L 174.635853 162.860019 
L 174.782401 162.88421 
L 174.903345 162.908402 
L 174.99986 162.932594 
L 175.073478 162.956785 
L 175.126022 162.980977 
L 175.15954 163.005169 
L 175.176224 163.02936 
L 175.178332 163.053552 
L 175.168109 163.077744 
L 175.147711 163.101935 
L 175.119139 163.126127 
L 175.084179 163.150319 
L 175.044359 163.17451 
L 175.000915 163.198702 
L 174.954773 163.222894 
L 174.90655 163.247085 
L 174.856565 163.271277 
L 174.804866 163.295469 
L 174.751262 163.31966 
L 174.695375 163.343852 
L 174.636688 163.368044 
L 174.574599 163.392235 
L 174.508478 163.416427 
L 174.437713 163.440619 
L 174.36176 163.46481 
L 174.280181 163.489002 
L 174.192666 163.513194 
L 174.099057 163.537385 
L 173.999353 163.561577 
L 173.893703 163.585769 
L 173.782395 163.60996 
L 173.665833 163.634152 
L 173.544509 163.658344 
L 173.418967 163.682535 
L 173.289767 163.706727 
L 173.157452 163.730919 
L 173.022508 163.75511 
L 172.885335 163.779302 
L 172.746224 163.803494 
L 172.605334 163.827685 
L 172.462685 163.851877 
L 172.318152 163.876069 
L 172.171472 163.90026 
L 172.022257 163.924452 
L 171.870019 163.948644 
L 171.71419 163.972835 
L 171.554161 163.997027 
L 171.389316 164.021219 
L 171.219069 164.04541 
L 171.042904 164.069602 
L 170.860412 164.093794 
L 170.671323 164.117985 
L 170.475536 164.142177 
L 170.273143 164.166369 
L 170.064444 164.19056 
L 169.849953 164.214752 
L 169.630401 164.238944 
L 169.406724 164.263135 
L 169.180048 164.287327 
L 168.951661 164.311519 
L 168.722982 164.33571 
L 168.495524 164.359902 
L 168.27085 164.384094 
L 168.050532 164.408285 
L 167.8361 164.432477 
L 167.629001 164.456669 
L 167.430559 164.48086 
L 167.241933 164.505052 
L 167.064087 164.529244 
L 166.897767 164.553435 
L 166.743482 164.577627 
L 166.601495 164.601819 
L 166.471824 164.62601 
L 166.354249 164.650202 
L 166.248328 164.674394 
L 166.153422 164.698585 
L 166.068718 164.722777 
L 165.993268 164.746969 
L 165.926023 164.77116 
L 165.865868 164.795352 
L 165.811665 164.819544 
L 165.762284 164.843735 
L 165.71664 164.867927 
L 165.673723 164.892119 
L 165.632622 164.91631 
z
" clip-path="url(#pe57a3b1d7e)" style="fill: #a52a2a; fill-opacity: 0.3"/>
   </g>
   <g id="PathCollection_3">
    <defs>
     <path id="mc76d7cbb23" d="M 0 3 
C 0.795609 3 1.55874 2.683901 2.12132 2.12132 
C 2.683901 1.55874 3 0.795609 3 0 
C 3 -0.795609 2.683901 -1.55874 2.12132 -2.12132 
C 1.55874 -2.683901 0.795609 -3 0 -3 
C -0.795609 -3 -1.55874 -2.683901 -2.12132 -2.12132 
C -2.683901 -1.55874 -3 -0.795609 -3 0 
C -3 0.795609 -2.683901 1.55874 -2.12132 2.12132 
C -1.55874 2.683901 -0.795609 3 0 3 
z
" style="stroke: #a52a2a"/>
    </defs>
    <g clip-path="url(#pe57a3b1d7e)">
     <use xlink:href="#mc76d7cbb23" x="164.603722" y="163.403895" style="fill: #a52a2a; stroke: #a52a2a"/>
    </g>
   </g>
   <g id="PolyCollection_4">
    <path d="M 209.805846 159.436079 
L 203.998481 159.436079 
L 203.800656 159.419406 
L 203.604575 159.402732 
L 203.411819 159.386059 
L 203.223896 159.369385 
L 203.042203 159.352712 
L 202.867972 159.336039 
L 202.702227 159.319365 
L 202.545748 159.302692 
L 202.399027 159.286018 
L 202.26225 159.269345 
L 202.135272 159.252671 
L 202.01761 159.235998 
L 201.908445 159.219324 
L 201.806636 159.202651 
L 201.710743 159.185977 
L 201.619066 159.169304 
L 201.529687 159.152631 
L 201.440526 159.135957 
L 201.349404 159.119284 
L 201.254111 159.10261 
L 201.152474 159.085937 
L 201.042431 159.069263 
L 200.922102 159.05259 
L 200.789859 159.035916 
L 200.644381 159.019243 
L 200.484718 159.002569 
L 200.310328 158.985896 
L 200.121114 158.969223 
L 199.917449 158.952549 
L 199.700179 158.935876 
L 199.470624 158.919202 
L 199.230555 158.902529 
L 198.982163 158.885855 
L 198.728018 158.869182 
L 198.471013 158.852508 
L 198.214295 158.835835 
L 197.961198 158.819161 
L 197.715163 158.802488 
L 197.479661 158.785815 
L 197.258109 158.769141 
L 197.0538 158.752468 
L 196.869825 158.735794 
L 196.709017 158.719121 
L 196.573892 158.702447 
L 196.466611 158.685774 
L 196.388949 158.6691 
L 196.342276 158.652427 
L 196.327553 158.635753 
L 196.345336 158.61908 
L 196.39579 158.602407 
L 196.478711 158.585733 
L 196.593553 158.56906 
L 196.739457 158.552386 
L 196.91528 158.535713 
L 197.119626 158.519039 
L 197.350873 158.502366 
L 197.607196 158.485692 
L 197.886585 158.469019 
L 198.186862 158.452345 
L 198.505697 158.435672 
L 198.840618 158.418999 
L 199.189021 158.402325 
L 199.548188 158.385652 
L 199.9153 158.368978 
L 200.28746 158.352305 
L 200.66172 158.335631 
L 201.035109 158.318958 
L 201.404679 158.302284 
L 201.76754 158.285611 
L 202.120914 158.268937 
L 202.462179 158.252264 
L 202.788925 158.235591 
L 203.098997 158.218917 
L 203.390543 158.202244 
L 203.662048 158.18557 
L 203.912372 158.168897 
L 204.14076 158.152223 
L 204.346861 158.13555 
L 204.530721 158.118876 
L 204.692776 158.102203 
L 204.833821 158.085529 
L 204.954984 158.068856 
L 205.057682 158.052183 
L 205.143571 158.035509 
L 205.214498 158.018836 
L 205.272438 158.002162 
L 205.319444 157.985489 
L 205.357587 157.968815 
L 205.388907 157.952142 
L 205.415358 157.935468 
L 205.438772 157.918795 
L 205.460818 157.902121 
L 205.482975 157.885448 
L 205.506507 157.868775 
L 205.532456 157.852101 
L 205.561625 157.835428 
L 205.59459 157.818754 
L 205.631696 157.802081 
L 205.673082 157.785407 
L 208.131245 157.785407 
L 208.131245 157.785407 
L 208.172631 157.802081 
L 208.209738 157.818754 
L 208.242702 157.835428 
L 208.271871 157.852101 
L 208.29782 157.868775 
L 208.321353 157.885448 
L 208.343509 157.902121 
L 208.365556 157.918795 
L 208.38897 157.935468 
L 208.415421 157.952142 
L 208.44674 157.968815 
L 208.484884 157.985489 
L 208.53189 158.002162 
L 208.58983 158.018836 
L 208.660756 158.035509 
L 208.746645 158.052183 
L 208.849343 158.068856 
L 208.970506 158.085529 
L 209.111551 158.102203 
L 209.273606 158.118876 
L 209.457467 158.13555 
L 209.663568 158.152223 
L 209.891956 158.168897 
L 210.142279 158.18557 
L 210.413785 158.202244 
L 210.70533 158.218917 
L 211.015402 158.235591 
L 211.342148 158.252264 
L 211.683413 158.268937 
L 212.036787 158.285611 
L 212.399648 158.302284 
L 212.769218 158.318958 
L 213.142608 158.335631 
L 213.516867 158.352305 
L 213.889027 158.368978 
L 214.256139 158.385652 
L 214.615306 158.402325 
L 214.963709 158.418999 
L 215.29863 158.435672 
L 215.617465 158.452345 
L 215.917743 158.469019 
L 216.197131 158.485692 
L 216.453454 158.502366 
L 216.684701 158.519039 
L 216.889048 158.535713 
L 217.06487 158.552386 
L 217.210774 158.56906 
L 217.325616 158.585733 
L 217.408537 158.602407 
L 217.458991 158.61908 
L 217.476774 158.635753 
L 217.462051 158.652427 
L 217.415378 158.6691 
L 217.337716 158.685774 
L 217.230436 158.702447 
L 217.095311 158.719121 
L 216.934502 158.735794 
L 216.750528 158.752468 
L 216.546218 158.769141 
L 216.324667 158.785815 
L 216.089164 158.802488 
L 215.84313 158.819161 
L 215.590032 158.835835 
L 215.333314 158.852508 
L 215.076309 158.869182 
L 214.822165 158.885855 
L 214.573773 158.902529 
L 214.333703 158.919202 
L 214.104148 158.935876 
L 213.886878 158.952549 
L 213.683213 158.969223 
L 213.494 158.985896 
L 213.319609 159.002569 
L 213.159946 159.019243 
L 213.014468 159.035916 
L 212.882225 159.05259 
L 212.761897 159.069263 
L 212.651853 159.085937 
L 212.550216 159.10261 
L 212.454923 159.119284 
L 212.363802 159.135957 
L 212.274641 159.152631 
L 212.185261 159.169304 
L 212.093584 159.185977 
L 211.997692 159.202651 
L 211.895882 159.219324 
L 211.786717 159.235998 
L 211.669055 159.252671 
L 211.542077 159.269345 
L 211.4053 159.286018 
L 211.25858 159.302692 
L 211.1021 159.319365 
L 210.936356 159.336039 
L 210.762124 159.352712 
L 210.580431 159.369385 
L 210.392509 159.386059 
L 210.199752 159.402732 
L 210.003671 159.419406 
L 209.805846 159.436079 
z
" clip-path="url(#pe57a3b1d7e)" style="fill: #008000; fill-opacity: 0.3"/>
   </g>
   <g id="PathCollection_4">
    <defs>
     <path id="m0a49cb2e7e" d="M 0 3 
C 0.795609 3 1.55874 2.683901 2.12132 2.12132 
C 2.683901 1.55874 3 0.795609 3 0 
C 3 -0.795609 2.683901 -1.55874 2.12132 -2.12132 
C 1.55874 -2.683901 0.795609 -3 0 -3 
C -0.795609 -3 -1.55874 -2.683901 -2.12132 -2.12132 
C -2.683901 -1.55874 -3 -0.795609 -3 0 
C -3 0.795609 -2.683901 1.55874 -2.12132 2.12132 
C -1.55874 2.683901 -0.795609 3 0 3 
z
" style="stroke: #008000"/>
    </defs>
    <g clip-path="url(#pe57a3b1d7e)">
     <use xlink:href="#m0a49cb2e7e" x="206.902164" y="158.716786" style="fill: #008000; stroke: #008000"/>
    </g>
   </g>
   <g id="matplotlib.axis_1">
    <g id="xtick_1">
     <g id="line2d_1">
      <defs>
       <path id="m05b4d34759" d="M 0 0 
L 0 3.5 
" style="stroke: #000000; stroke-width: 0.8"/>
      </defs>
      <g>
       <use xlink:href="#m05b4d34759" x="80.006838" y="242.946877" style="stroke: #000000; stroke-width: 0.8"/>
      </g>
     </g>
     <g id="text_1">
      <!-- Untrained -->
      <g style="fill: #d2691e" transform="translate(58.33171 301.249173) rotate(-50) scale(0.12 -0.12)">
       <defs>
        <path id="DejaVuSans-55" d="M 556 4666 
L 1191 4666 
L 1191 1831 
Q 1191 1081 1462 751 
Q 1734 422 2344 422 
Q 2950 422 3222 751 
Q 3494 1081 3494 1831 
L 3494 4666 
L 4128 4666 
L 4128 1753 
Q 4128 841 3676 375 
Q 3225 -91 2344 -91 
Q 1459 -91 1007 375 
Q 556 841 556 1753 
L 556 4666 
z
" transform="scale(0.015625)"/>
        <path id="DejaVuSans-6e" d="M 3513 2113 
L 3513 0 
L 2938 0 
L 2938 2094 
Q 2938 2591 2744 2837 
Q 2550 3084 2163 3084 
Q 1697 3084 1428 2787 
Q 1159 2491 1159 1978 
L 1159 0 
L 581 0 
L 581 3500 
L 1159 3500 
L 1159 2956 
Q 1366 3272 1645 3428 
Q 1925 3584 2291 3584 
Q 2894 3584 3203 3211 
Q 3513 2838 3513 2113 
z
" transform="scale(0.015625)"/>
        <path id="DejaVuSans-74" d="M 1172 4494 
L 1172 3500 
L 2356 3500 
L 2356 3053 
L 1172 3053 
L 1172 1153 
Q 1172 725 1289 603 
Q 1406 481 1766 481 
L 2356 481 
L 2356 0 
L 1766 0 
Q 1100 0 847 248 
Q 594 497 594 1153 
L 594 3053 
L 172 3053 
L 172 3500 
L 594 3500 
L 594 4494 
L 1172 4494 
z
" transform="scale(0.015625)"/>
        <path id="DejaVuSans-72" d="M 2631 2963 
Q 2534 3019 2420 3045 
Q 2306 3072 2169 3072 
Q 1681 3072 1420 2755 
Q 1159 2438 1159 1844 
L 1159 0 
L 581 0 
L 581 3500 
L 1159 3500 
L 1159 2956 
Q 1341 3275 1631 3429 
Q 1922 3584 2338 3584 
Q 2397 3584 2469 3576 
Q 2541 3569 2628 3553 
L 2631 2963 
z
" transform="scale(0.015625)"/>
        <path id="DejaVuSans-61" d="M 2194 1759 
Q 1497 1759 1228 1600 
Q 959 1441 959 1056 
Q 959 750 1161 570 
Q 1363 391 1709 391 
Q 2188 391 2477 730 
Q 2766 1069 2766 1631 
L 2766 1759 
L 2194 1759 
z
M 3341 1997 
L 3341 0 
L 2766 0 
L 2766 531 
Q 2569 213 2275 61 
Q 1981 -91 1556 -91 
Q 1019 -91 701 211 
Q 384 513 384 1019 
Q 384 1609 779 1909 
Q 1175 2209 1959 2209 
L 2766 2209 
L 2766 2266 
Q 2766 2663 2505 2880 
Q 2244 3097 1772 3097 
Q 1472 3097 1187 3025 
Q 903 2953 641 2809 
L 641 3341 
Q 956 3463 1253 3523 
Q 1550 3584 1831 3584 
Q 2591 3584 2966 3190 
Q 3341 2797 3341 1997 
z
" transform="scale(0.015625)"/>
        <path id="DejaVuSans-69" d="M 603 3500 
L 1178 3500 
L 1178 0 
L 603 0 
L 603 3500 
z
M 603 4863 
L 1178 4863 
L 1178 4134 
L 603 4134 
L 603 4863 
z
" transform="scale(0.015625)"/>
        <path id="DejaVuSans-65" d="M 3597 1894 
L 3597 1613 
L 953 1613 
Q 991 1019 1311 708 
Q 1631 397 2203 397 
Q 2534 397 2845 478 
Q 3156 559 3463 722 
L 3463 178 
Q 3153 47 2828 -22 
Q 2503 -91 2169 -91 
Q 1331 -91 842 396 
Q 353 884 353 1716 
Q 353 2575 817 3079 
Q 1281 3584 2069 3584 
Q 2775 3584 3186 3129 
Q 3597 2675 3597 1894 
z
M 3022 2063 
Q 3016 2534 2758 2815 
Q 2500 3097 2075 3097 
Q 1594 3097 1305 2825 
Q 1016 2553 972 2059 
L 3022 2063 
z
" transform="scale(0.015625)"/>
        <path id="DejaVuSans-64" d="M 2906 2969 
L 2906 4863 
L 3481 4863 
L 3481 0 
L 2906 0 
L 2906 525 
Q 2725 213 2448 61 
Q 2172 -91 1784 -91 
Q 1150 -91 751 415 
Q 353 922 353 1747 
Q 353 2572 751 3078 
Q 1150 3584 1784 3584 
Q 2172 3584 2448 3432 
Q 2725 3281 2906 2969 
z
M 947 1747 
Q 947 1113 1208 752 
Q 1469 391 1925 391 
Q 2381 391 2643 752 
Q 2906 1113 2906 1747 
Q 2906 2381 2643 2742 
Q 2381 3103 1925 3103 
Q 1469 3103 1208 2742 
Q 947 2381 947 1747 
z
" transform="scale(0.015625)"/>
       </defs>
       <use xlink:href="#DejaVuSans-55"/>
       <use xlink:href="#DejaVuSans-6e" x="73.193359"/>
       <use xlink:href="#DejaVuSans-74" x="136.572266"/>
       <use xlink:href="#DejaVuSans-72" x="175.78125"/>
       <use xlink:href="#DejaVuSans-61" x="216.894531"/>
       <use xlink:href="#DejaVuSans-69" x="278.173828"/>
       <use xlink:href="#DejaVuSans-6e" x="305.957031"/>
       <use xlink:href="#DejaVuSans-65" x="369.335938"/>
       <use xlink:href="#DejaVuSans-64" x="430.859375"/>
      </g>
      <!-- model -->
      <g style="fill: #d2691e" transform="translate(75.680734 301.478256) rotate(-50) scale(0.12 -0.12)">
       <defs>
        <path id="DejaVuSans-6d" d="M 3328 2828 
Q 3544 3216 3844 3400 
Q 4144 3584 4550 3584 
Q 5097 3584 5394 3201 
Q 5691 2819 5691 2113 
L 5691 0 
L 5113 0 
L 5113 2094 
Q 5113 2597 4934 2840 
Q 4756 3084 4391 3084 
Q 3944 3084 3684 2787 
Q 3425 2491 3425 1978 
L 3425 0 
L 2847 0 
L 2847 2094 
Q 2847 2600 2669 2842 
Q 2491 3084 2119 3084 
Q 1678 3084 1418 2786 
Q 1159 2488 1159 1978 
L 1159 0 
L 581 0 
L 581 3500 
L 1159 3500 
L 1159 2956 
Q 1356 3278 1631 3431 
Q 1906 3584 2284 3584 
Q 2666 3584 2933 3390 
Q 3200 3197 3328 2828 
z
" transform="scale(0.015625)"/>
        <path id="DejaVuSans-6f" d="M 1959 3097 
Q 1497 3097 1228 2736 
Q 959 2375 959 1747 
Q 959 1119 1226 758 
Q 1494 397 1959 397 
Q 2419 397 2687 759 
Q 2956 1122 2956 1747 
Q 2956 2369 2687 2733 
Q 2419 3097 1959 3097 
z
M 1959 3584 
Q 2709 3584 3137 3096 
Q 3566 2609 3566 1747 
Q 3566 888 3137 398 
Q 2709 -91 1959 -91 
Q 1206 -91 779 398 
Q 353 888 353 1747 
Q 353 2609 779 3096 
Q 1206 3584 1959 3584 
z
" transform="scale(0.015625)"/>
        <path id="DejaVuSans-6c" d="M 603 4863 
L 1178 4863 
L 1178 0 
L 603 0 
L 603 4863 
z
" transform="scale(0.015625)"/>
       </defs>
       <use xlink:href="#DejaVuSans-6d"/>
       <use xlink:href="#DejaVuSans-6f" x="97.412109"/>
       <use xlink:href="#DejaVuSans-64" x="158.59375"/>
       <use xlink:href="#DejaVuSans-65" x="222.070312"/>
       <use xlink:href="#DejaVuSans-6c" x="283.59375"/>
      </g>
     </g>
    </g>
    <g id="xtick_2">
     <g id="line2d_2">
      <g>
       <use xlink:href="#m05b4d34759" x="122.30528" y="242.946877" style="stroke: #000000; stroke-width: 0.8"/>
      </g>
     </g>
     <g id="text_2">
      <!-- Masked -->
      <g style="fill: #1f77b4" transform="translate(105.079849 294.973832) rotate(-50) scale(0.12 -0.12)">
       <defs>
        <path id="DejaVuSans-4d" d="M 628 4666 
L 1569 4666 
L 2759 1491 
L 3956 4666 
L 4897 4666 
L 4897 0 
L 4281 0 
L 4281 4097 
L 3078 897 
L 2444 897 
L 1241 4097 
L 1241 0 
L 628 0 
L 628 4666 
z
" transform="scale(0.015625)"/>
        <path id="DejaVuSans-73" d="M 2834 3397 
L 2834 2853 
Q 2591 2978 2328 3040 
Q 2066 3103 1784 3103 
Q 1356 3103 1142 2972 
Q 928 2841 928 2578 
Q 928 2378 1081 2264 
Q 1234 2150 1697 2047 
L 1894 2003 
Q 2506 1872 2764 1633 
Q 3022 1394 3022 966 
Q 3022 478 2636 193 
Q 2250 -91 1575 -91 
Q 1294 -91 989 -36 
Q 684 19 347 128 
L 347 722 
Q 666 556 975 473 
Q 1284 391 1588 391 
Q 1994 391 2212 530 
Q 2431 669 2431 922 
Q 2431 1156 2273 1281 
Q 2116 1406 1581 1522 
L 1381 1569 
Q 847 1681 609 1914 
Q 372 2147 372 2553 
Q 372 3047 722 3315 
Q 1072 3584 1716 3584 
Q 2034 3584 2315 3537 
Q 2597 3491 2834 3397 
z
" transform="scale(0.015625)"/>
        <path id="DejaVuSans-6b" d="M 581 4863 
L 1159 4863 
L 1159 1991 
L 2875 3500 
L 3609 3500 
L 1753 1863 
L 3688 0 
L 2938 0 
L 1159 1709 
L 1159 0 
L 581 0 
L 581 4863 
z
" transform="scale(0.015625)"/>
       </defs>
       <use xlink:href="#DejaVuSans-4d"/>
       <use xlink:href="#DejaVuSans-61" x="86.279297"/>
       <use xlink:href="#DejaVuSans-73" x="147.558594"/>
       <use xlink:href="#DejaVuSans-6b" x="199.658203"/>
       <use xlink:href="#DejaVuSans-65" x="253.943359"/>
       <use xlink:href="#DejaVuSans-64" x="315.466797"/>
      </g>
      <!-- raw input -->
      <g style="fill: #1f77b4" transform="translate(111.739717 307.941756) rotate(-50) scale(0.12 -0.12)">
       <defs>
        <path id="DejaVuSans-77" d="M 269 3500 
L 844 3500 
L 1563 769 
L 2278 3500 
L 2956 3500 
L 3675 769 
L 4391 3500 
L 4966 3500 
L 4050 0 
L 3372 0 
L 2619 2869 
L 1863 0 
L 1184 0 
L 269 3500 
z
" transform="scale(0.015625)"/>
        <path id="DejaVuSans-20" transform="scale(0.015625)"/>
        <path id="DejaVuSans-70" d="M 1159 525 
L 1159 -1331 
L 581 -1331 
L 581 3500 
L 1159 3500 
L 1159 2969 
Q 1341 3281 1617 3432 
Q 1894 3584 2278 3584 
Q 2916 3584 3314 3078 
Q 3713 2572 3713 1747 
Q 3713 922 3314 415 
Q 2916 -91 2278 -91 
Q 1894 -91 1617 61 
Q 1341 213 1159 525 
z
M 3116 1747 
Q 3116 2381 2855 2742 
Q 2594 3103 2138 3103 
Q 1681 3103 1420 2742 
Q 1159 2381 1159 1747 
Q 1159 1113 1420 752 
Q 1681 391 2138 391 
Q 2594 391 2855 752 
Q 3116 1113 3116 1747 
z
" transform="scale(0.015625)"/>
        <path id="DejaVuSans-75" d="M 544 1381 
L 544 3500 
L 1119 3500 
L 1119 1403 
Q 1119 906 1312 657 
Q 1506 409 1894 409 
Q 2359 409 2629 706 
Q 2900 1003 2900 1516 
L 2900 3500 
L 3475 3500 
L 3475 0 
L 2900 0 
L 2900 538 
Q 2691 219 2414 64 
Q 2138 -91 1772 -91 
Q 1169 -91 856 284 
Q 544 659 544 1381 
z
M 1991 3584 
L 1991 3584 
z
" transform="scale(0.015625)"/>
       </defs>
       <use xlink:href="#DejaVuSans-72"/>
       <use xlink:href="#DejaVuSans-61" x="41.113281"/>
       <use xlink:href="#DejaVuSans-77" x="102.392578"/>
       <use xlink:href="#DejaVuSans-20" x="184.179688"/>
       <use xlink:href="#DejaVuSans-69" x="215.966797"/>
       <use xlink:href="#DejaVuSans-6e" x="243.75"/>
       <use xlink:href="#DejaVuSans-70" x="307.128906"/>
       <use xlink:href="#DejaVuSans-75" x="370.605469"/>
       <use xlink:href="#DejaVuSans-74" x="433.984375"/>
      </g>
     </g>
    </g>
    <g id="xtick_3">
     <g id="line2d_3">
      <g>
       <use xlink:href="#m05b4d34759" x="164.603722" y="242.946877" style="stroke: #000000; stroke-width: 0.8"/>
      </g>
     </g>
     <g id="text_3">
      <!-- LPL -->
      <g style="fill: #a52a2a" transform="translate(160.516963 271.594635) rotate(-50) scale(0.12 -0.12)">
       <defs>
        <path id="DejaVuSans-4c" d="M 628 4666 
L 1259 4666 
L 1259 531 
L 3531 531 
L 3531 0 
L 628 0 
L 628 4666 
z
" transform="scale(0.015625)"/>
        <path id="DejaVuSans-50" d="M 1259 4147 
L 1259 2394 
L 2053 2394 
Q 2494 2394 2734 2622 
Q 2975 2850 2975 3272 
Q 2975 3691 2734 3919 
Q 2494 4147 2053 4147 
L 1259 4147 
z
M 628 4666 
L 2053 4666 
Q 2838 4666 3239 4311 
Q 3641 3956 3641 3272 
Q 3641 2581 3239 2228 
Q 2838 1875 2053 1875 
L 1259 1875 
L 1259 0 
L 628 0 
L 628 4666 
z
" transform="scale(0.015625)"/>
       </defs>
       <use xlink:href="#DejaVuSans-4c"/>
       <use xlink:href="#DejaVuSans-50" x="55.712891"/>
       <use xlink:href="#DejaVuSans-4c" x="116.015625"/>
      </g>
     </g>
    </g>
    <g id="xtick_4">
     <g id="line2d_4">
      <g>
       <use xlink:href="#m05b4d34759" x="206.902164" y="242.946877" style="stroke: #000000; stroke-width: 0.8"/>
      </g>
     </g>
     <g id="text_4">
      <!-- TCLoSeR -->
      <g style="fill: #008000" transform="translate(192.674024 295.766688) rotate(-50) scale(0.12 -0.12)">
       <defs>
        <path id="DejaVuSans-54" d="M -19 4666 
L 3928 4666 
L 3928 4134 
L 2272 4134 
L 2272 0 
L 1638 0 
L 1638 4134 
L -19 4134 
L -19 4666 
z
" transform="scale(0.015625)"/>
        <path id="DejaVuSans-43" d="M 4122 4306 
L 4122 3641 
Q 3803 3938 3442 4084 
Q 3081 4231 2675 4231 
Q 1875 4231 1450 3742 
Q 1025 3253 1025 2328 
Q 1025 1406 1450 917 
Q 1875 428 2675 428 
Q 3081 428 3442 575 
Q 3803 722 4122 1019 
L 4122 359 
Q 3791 134 3420 21 
Q 3050 -91 2638 -91 
Q 1578 -91 968 557 
Q 359 1206 359 2328 
Q 359 3453 968 4101 
Q 1578 4750 2638 4750 
Q 3056 4750 3426 4639 
Q 3797 4528 4122 4306 
z
" transform="scale(0.015625)"/>
        <path id="DejaVuSans-53" d="M 3425 4513 
L 3425 3897 
Q 3066 4069 2747 4153 
Q 2428 4238 2131 4238 
Q 1616 4238 1336 4038 
Q 1056 3838 1056 3469 
Q 1056 3159 1242 3001 
Q 1428 2844 1947 2747 
L 2328 2669 
Q 3034 2534 3370 2195 
Q 3706 1856 3706 1288 
Q 3706 609 3251 259 
Q 2797 -91 1919 -91 
Q 1588 -91 1214 -16 
Q 841 59 441 206 
L 441 856 
Q 825 641 1194 531 
Q 1563 422 1919 422 
Q 2459 422 2753 634 
Q 3047 847 3047 1241 
Q 3047 1584 2836 1778 
Q 2625 1972 2144 2069 
L 1759 2144 
Q 1053 2284 737 2584 
Q 422 2884 422 3419 
Q 422 4038 858 4394 
Q 1294 4750 2059 4750 
Q 2388 4750 2728 4690 
Q 3069 4631 3425 4513 
z
" transform="scale(0.015625)"/>
        <path id="DejaVuSans-52" d="M 2841 2188 
Q 3044 2119 3236 1894 
Q 3428 1669 3622 1275 
L 4263 0 
L 3584 0 
L 2988 1197 
Q 2756 1666 2539 1819 
Q 2322 1972 1947 1972 
L 1259 1972 
L 1259 0 
L 628 0 
L 628 4666 
L 2053 4666 
Q 2853 4666 3247 4331 
Q 3641 3997 3641 3322 
Q 3641 2881 3436 2590 
Q 3231 2300 2841 2188 
z
M 1259 4147 
L 1259 2491 
L 2053 2491 
Q 2509 2491 2742 2702 
Q 2975 2913 2975 3322 
Q 2975 3731 2742 3939 
Q 2509 4147 2053 4147 
L 1259 4147 
z
" transform="scale(0.015625)"/>
       </defs>
       <use xlink:href="#DejaVuSans-54"/>
       <use xlink:href="#DejaVuSans-43" x="55.208984"/>
       <use xlink:href="#DejaVuSans-4c" x="125.033203"/>
       <use xlink:href="#DejaVuSans-6f" x="178.996094"/>
       <use xlink:href="#DejaVuSans-53" x="240.177734"/>
       <use xlink:href="#DejaVuSans-65" x="303.654297"/>
       <use xlink:href="#DejaVuSans-52" x="365.177734"/>
      </g>
     </g>
    </g>
   </g>
   <g id="matplotlib.axis_2">
    <g id="ytick_1">
     <g id="line2d_5">
      <defs>
       <path id="mc5ee3180d3" d="M 0 0 
L -3.5 0 
" style="stroke: #000000; stroke-width: 0.8"/>
      </defs>
      <g>
       <use xlink:href="#mc5ee3180d3" x="62.03" y="204.115869" style="stroke: #000000; stroke-width: 0.8"/>
      </g>
     </g>
     <g id="text_5">
      <!-- 0.72 -->
      <g transform="translate(28.31125 208.674931) scale(0.12 -0.12)">
       <defs>
        <path id="DejaVuSans-30" d="M 2034 4250 
Q 1547 4250 1301 3770 
Q 1056 3291 1056 2328 
Q 1056 1369 1301 889 
Q 1547 409 2034 409 
Q 2525 409 2770 889 
Q 3016 1369 3016 2328 
Q 3016 3291 2770 3770 
Q 2525 4250 2034 4250 
z
M 2034 4750 
Q 2819 4750 3233 4129 
Q 3647 3509 3647 2328 
Q 3647 1150 3233 529 
Q 2819 -91 2034 -91 
Q 1250 -91 836 529 
Q 422 1150 422 2328 
Q 422 3509 836 4129 
Q 1250 4750 2034 4750 
z
" transform="scale(0.015625)"/>
        <path id="DejaVuSans-2e" d="M 684 794 
L 1344 794 
L 1344 0 
L 684 0 
L 684 794 
z
" transform="scale(0.015625)"/>
        <path id="DejaVuSans-37" d="M 525 4666 
L 3525 4666 
L 3525 4397 
L 1831 0 
L 1172 0 
L 2766 4134 
L 525 4134 
L 525 4666 
z
" transform="scale(0.015625)"/>
        <path id="DejaVuSans-32" d="M 1228 531 
L 3431 531 
L 3431 0 
L 469 0 
L 469 531 
Q 828 903 1448 1529 
Q 2069 2156 2228 2338 
Q 2531 2678 2651 2914 
Q 2772 3150 2772 3378 
Q 2772 3750 2511 3984 
Q 2250 4219 1831 4219 
Q 1534 4219 1204 4116 
Q 875 4013 500 3803 
L 500 4441 
Q 881 4594 1212 4672 
Q 1544 4750 1819 4750 
Q 2544 4750 2975 4387 
Q 3406 4025 3406 3419 
Q 3406 3131 3298 2873 
Q 3191 2616 2906 2266 
Q 2828 2175 2409 1742 
Q 1991 1309 1228 531 
z
" transform="scale(0.015625)"/>
       </defs>
       <use xlink:href="#DejaVuSans-30"/>
       <use xlink:href="#DejaVuSans-2e" x="63.623047"/>
       <use xlink:href="#DejaVuSans-37" x="95.410156"/>
       <use xlink:href="#DejaVuSans-32" x="159.033203"/>
      </g>
     </g>
    </g>
    <g id="ytick_2">
     <g id="line2d_6">
      <g>
       <use xlink:href="#mc5ee3180d3" x="62.03" y="152.341191" style="stroke: #000000; stroke-width: 0.8"/>
      </g>
     </g>
     <g id="text_6">
      <!-- 0.80 -->
      <g transform="translate(28.31125 156.900253) scale(0.12 -0.12)">
       <defs>
        <path id="DejaVuSans-38" d="M 2034 2216 
Q 1584 2216 1326 1975 
Q 1069 1734 1069 1313 
Q 1069 891 1326 650 
Q 1584 409 2034 409 
Q 2484 409 2743 651 
Q 3003 894 3003 1313 
Q 3003 1734 2745 1975 
Q 2488 2216 2034 2216 
z
M 1403 2484 
Q 997 2584 770 2862 
Q 544 3141 544 3541 
Q 544 4100 942 4425 
Q 1341 4750 2034 4750 
Q 2731 4750 3128 4425 
Q 3525 4100 3525 3541 
Q 3525 3141 3298 2862 
Q 3072 2584 2669 2484 
Q 3125 2378 3379 2068 
Q 3634 1759 3634 1313 
Q 3634 634 3220 271 
Q 2806 -91 2034 -91 
Q 1263 -91 848 271 
Q 434 634 434 1313 
Q 434 1759 690 2068 
Q 947 2378 1403 2484 
z
M 1172 3481 
Q 1172 3119 1398 2916 
Q 1625 2713 2034 2713 
Q 2441 2713 2670 2916 
Q 2900 3119 2900 3481 
Q 2900 3844 2670 4047 
Q 2441 4250 2034 4250 
Q 1625 4250 1398 4047 
Q 1172 3844 1172 3481 
z
" transform="scale(0.015625)"/>
       </defs>
       <use xlink:href="#DejaVuSans-30"/>
       <use xlink:href="#DejaVuSans-2e" x="63.623047"/>
       <use xlink:href="#DejaVuSans-38" x="95.410156"/>
       <use xlink:href="#DejaVuSans-30" x="159.033203"/>
      </g>
     </g>
    </g>
    <g id="ytick_3">
     <g id="line2d_7">
      <g>
       <use xlink:href="#mc5ee3180d3" x="62.03" y="100.566513" style="stroke: #000000; stroke-width: 0.8"/>
      </g>
     </g>
     <g id="text_7">
      <!-- 0.88 -->
      <g transform="translate(28.31125 105.125575) scale(0.12 -0.12)">
       <use xlink:href="#DejaVuSans-30"/>
       <use xlink:href="#DejaVuSans-2e" x="63.623047"/>
       <use xlink:href="#DejaVuSans-38" x="95.410156"/>
       <use xlink:href="#DejaVuSans-38" x="159.033203"/>
      </g>
     </g>
    </g>
    <g id="ytick_4">
     <g id="line2d_8">
      <g>
       <use xlink:href="#mc5ee3180d3" x="62.03" y="48.791835" style="stroke: #000000; stroke-width: 0.8"/>
      </g>
     </g>
     <g id="text_8">
      <!-- 0.96 -->
      <g transform="translate(28.31125 53.350897) scale(0.12 -0.12)">
       <defs>
        <path id="DejaVuSans-39" d="M 703 97 
L 703 672 
Q 941 559 1184 500 
Q 1428 441 1663 441 
Q 2288 441 2617 861 
Q 2947 1281 2994 2138 
Q 2813 1869 2534 1725 
Q 2256 1581 1919 1581 
Q 1219 1581 811 2004 
Q 403 2428 403 3163 
Q 403 3881 828 4315 
Q 1253 4750 1959 4750 
Q 2769 4750 3195 4129 
Q 3622 3509 3622 2328 
Q 3622 1225 3098 567 
Q 2575 -91 1691 -91 
Q 1453 -91 1209 -44 
Q 966 3 703 97 
z
M 1959 2075 
Q 2384 2075 2632 2365 
Q 2881 2656 2881 3163 
Q 2881 3666 2632 3958 
Q 2384 4250 1959 4250 
Q 1534 4250 1286 3958 
Q 1038 3666 1038 3163 
Q 1038 2656 1286 2365 
Q 1534 2075 1959 2075 
z
" transform="scale(0.015625)"/>
        <path id="DejaVuSans-36" d="M 2113 2584 
Q 1688 2584 1439 2293 
Q 1191 2003 1191 1497 
Q 1191 994 1439 701 
Q 1688 409 2113 409 
Q 2538 409 2786 701 
Q 3034 994 3034 1497 
Q 3034 2003 2786 2293 
Q 2538 2584 2113 2584 
z
M 3366 4563 
L 3366 3988 
Q 3128 4100 2886 4159 
Q 2644 4219 2406 4219 
Q 1781 4219 1451 3797 
Q 1122 3375 1075 2522 
Q 1259 2794 1537 2939 
Q 1816 3084 2150 3084 
Q 2853 3084 3261 2657 
Q 3669 2231 3669 1497 
Q 3669 778 3244 343 
Q 2819 -91 2113 -91 
Q 1303 -91 875 529 
Q 447 1150 447 2328 
Q 447 3434 972 4092 
Q 1497 4750 2381 4750 
Q 2619 4750 2861 4703 
Q 3103 4656 3366 4563 
z
" transform="scale(0.015625)"/>
       </defs>
       <use xlink:href="#DejaVuSans-30"/>
       <use xlink:href="#DejaVuSans-2e" x="63.623047"/>
       <use xlink:href="#DejaVuSans-39" x="95.410156"/>
       <use xlink:href="#DejaVuSans-36" x="159.033203"/>
      </g>
     </g>
    </g>
    <g id="text_9">
     <!-- Stimulus decoding accuracy -->
     <g transform="translate(21.503672 237.711407) rotate(-90) scale(0.135 -0.135)">
      <defs>
       <path id="DejaVuSans-63" d="M 3122 3366 
L 3122 2828 
Q 2878 2963 2633 3030 
Q 2388 3097 2138 3097 
Q 1578 3097 1268 2742 
Q 959 2388 959 1747 
Q 959 1106 1268 751 
Q 1578 397 2138 397 
Q 2388 397 2633 464 
Q 2878 531 3122 666 
L 3122 134 
Q 2881 22 2623 -34 
Q 2366 -91 2075 -91 
Q 1284 -91 818 406 
Q 353 903 353 1747 
Q 353 2603 823 3093 
Q 1294 3584 2113 3584 
Q 2378 3584 2631 3529 
Q 2884 3475 3122 3366 
z
" transform="scale(0.015625)"/>
       <path id="DejaVuSans-67" d="M 2906 1791 
Q 2906 2416 2648 2759 
Q 2391 3103 1925 3103 
Q 1463 3103 1205 2759 
Q 947 2416 947 1791 
Q 947 1169 1205 825 
Q 1463 481 1925 481 
Q 2391 481 2648 825 
Q 2906 1169 2906 1791 
z
M 3481 434 
Q 3481 -459 3084 -895 
Q 2688 -1331 1869 -1331 
Q 1566 -1331 1297 -1286 
Q 1028 -1241 775 -1147 
L 775 -588 
Q 1028 -725 1275 -790 
Q 1522 -856 1778 -856 
Q 2344 -856 2625 -561 
Q 2906 -266 2906 331 
L 2906 616 
Q 2728 306 2450 153 
Q 2172 0 1784 0 
Q 1141 0 747 490 
Q 353 981 353 1791 
Q 353 2603 747 3093 
Q 1141 3584 1784 3584 
Q 2172 3584 2450 3431 
Q 2728 3278 2906 2969 
L 2906 3500 
L 3481 3500 
L 3481 434 
z
" transform="scale(0.015625)"/>
       <path id="DejaVuSans-79" d="M 2059 -325 
Q 1816 -950 1584 -1140 
Q 1353 -1331 966 -1331 
L 506 -1331 
L 506 -850 
L 844 -850 
Q 1081 -850 1212 -737 
Q 1344 -625 1503 -206 
L 1606 56 
L 191 3500 
L 800 3500 
L 1894 763 
L 2988 3500 
L 3597 3500 
L 2059 -325 
z
" transform="scale(0.015625)"/>
      </defs>
      <use xlink:href="#DejaVuSans-53"/>
      <use xlink:href="#DejaVuSans-74" x="63.476562"/>
      <use xlink:href="#DejaVuSans-69" x="102.685547"/>
      <use xlink:href="#DejaVuSans-6d" x="130.46875"/>
      <use xlink:href="#DejaVuSans-75" x="227.880859"/>
      <use xlink:href="#DejaVuSans-6c" x="291.259766"/>
      <use xlink:href="#DejaVuSans-75" x="319.042969"/>
      <use xlink:href="#DejaVuSans-73" x="382.421875"/>
      <use xlink:href="#DejaVuSans-20" x="434.521484"/>
      <use xlink:href="#DejaVuSans-64" x="466.308594"/>
      <use xlink:href="#DejaVuSans-65" x="529.785156"/>
      <use xlink:href="#DejaVuSans-63" x="591.308594"/>
      <use xlink:href="#DejaVuSans-6f" x="646.289062"/>
      <use xlink:href="#DejaVuSans-64" x="707.470703"/>
      <use xlink:href="#DejaVuSans-69" x="770.947266"/>
      <use xlink:href="#DejaVuSans-6e" x="798.730469"/>
      <use xlink:href="#DejaVuSans-67" x="862.109375"/>
      <use xlink:href="#DejaVuSans-20" x="925.585938"/>
      <use xlink:href="#DejaVuSans-61" x="957.373047"/>
      <use xlink:href="#DejaVuSans-63" x="1018.652344"/>
      <use xlink:href="#DejaVuSans-63" x="1073.632812"/>
      <use xlink:href="#DejaVuSans-75" x="1128.613281"/>
      <use xlink:href="#DejaVuSans-72" x="1191.992188"/>
      <use xlink:href="#DejaVuSans-61" x="1233.105469"/>
      <use xlink:href="#DejaVuSans-63" x="1294.384766"/>
      <use xlink:href="#DejaVuSans-79" x="1349.365234"/>
     </g>
    </g>
   </g>
   <g id="line2d_9">
    <path d="M 126.535124 131.898068 
L 202.672319 131.898068 
" clip-path="url(#pe57a3b1d7e)" style="fill: none; stroke: #000000; stroke-linecap: square"/>
   </g>
   <g id="line2d_10">
    <path d="M 126.535124 138.369903 
L 126.535124 131.898068 
" clip-path="url(#pe57a3b1d7e)" style="fill: none; stroke: #000000; stroke-linecap: square"/>
   </g>
   <g id="line2d_11">
    <path d="M 202.672319 138.369903 
L 202.672319 131.898068 
" clip-path="url(#pe57a3b1d7e)" style="fill: none; stroke: #000000; stroke-linecap: square"/>
   </g>
   <g id="line2d_12">
    <path d="M 168.833566 144.841738 
L 202.672319 144.841738 
" clip-path="url(#pe57a3b1d7e)" style="fill: none; stroke: #000000; stroke-linecap: square"/>
   </g>
   <g id="line2d_13">
    <path d="M 168.833566 151.313572 
L 168.833566 144.841738 
" clip-path="url(#pe57a3b1d7e)" style="fill: none; stroke: #000000; stroke-linecap: square"/>
   </g>
   <g id="line2d_14">
    <path d="M 202.672319 151.313572 
L 202.672319 144.841738 
" clip-path="url(#pe57a3b1d7e)" style="fill: none; stroke: #000000; stroke-linecap: square"/>
   </g>
   <g id="line2d_15">
    <path d="M 62.03 238.632321 
L 224.879001 238.632321 
" clip-path="url(#pe57a3b1d7e)" style="fill: none; stroke-dasharray: 1.5,2.475; stroke-dashoffset: 0; stroke: #000000; stroke-width: 1.5"/>
   </g>
   <g id="patch_3">
    <path d="M 62.03 242.946877 
L 62.03 42.32 
" style="fill: none; stroke: #000000; stroke-width: 0.8; stroke-linejoin: miter; stroke-linecap: square"/>
   </g>
   <g id="patch_4">
    <path d="M 62.03 242.946877 
L 224.879001 242.946877 
" style="fill: none; stroke: #000000; stroke-width: 0.8; stroke-linejoin: miter; stroke-linecap: square"/>
   </g>
   <g id="text_10">
    <!-- ∗∗∗ -->
    <g transform="translate(152.03419 128.185608) scale(0.1 -0.1)">
     <defs>
      <path id="DejaVuSans-2217" d="M 2153 2006 
L 816 2778 
L 1081 3238 
L 2419 2466 
L 2419 4013 
L 2944 4013 
L 2944 2466 
L 4281 3238 
L 4547 2778 
L 3209 2006 
L 4547 1234 
L 4281 775 
L 2944 1547 
L 2944 0 
L 2419 0 
L 2419 1547 
L 1081 775 
L 816 1234 
L 2153 2006 
z
" transform="scale(0.015625)"/>
     </defs>
     <use xlink:href="#DejaVuSans-2217"/>
     <use xlink:href="#DejaVuSans-2217" x="83.789062"/>
     <use xlink:href="#DejaVuSans-2217" x="167.578125"/>
    </g>
   </g>
   <g id="text_11">
    <!-- ∗∗∗ -->
    <g transform="translate(173.183411 141.129278) scale(0.1 -0.1)">
     <use xlink:href="#DejaVuSans-2217"/>
     <use xlink:href="#DejaVuSans-2217" x="83.789062"/>
     <use xlink:href="#DejaVuSans-2217" x="167.578125"/>
    </g>
   </g>
   <g id="text_12">
    <!-- Single encoder -->
    <g transform="translate(88.032677 22.32) scale(0.1485 -0.1485)">
     <use xlink:href="#DejaVuSans-53"/>
     <use xlink:href="#DejaVuSans-69" x="63.476562"/>
     <use xlink:href="#DejaVuSans-6e" x="91.259766"/>
     <use xlink:href="#DejaVuSans-67" x="154.638672"/>
     <use xlink:href="#DejaVuSans-6c" x="218.115234"/>
     <use xlink:href="#DejaVuSans-65" x="245.898438"/>
     <use xlink:href="#DejaVuSans-20" x="307.421875"/>
     <use xlink:href="#DejaVuSans-65" x="339.208984"/>
     <use xlink:href="#DejaVuSans-6e" x="400.732422"/>
     <use xlink:href="#DejaVuSans-63" x="464.111328"/>
     <use xlink:href="#DejaVuSans-6f" x="519.091797"/>
     <use xlink:href="#DejaVuSans-64" x="580.273438"/>
     <use xlink:href="#DejaVuSans-65" x="643.75"/>
     <use xlink:href="#DejaVuSans-72" x="705.273438"/>
    </g>
   </g>
  </g>
  <g id="axes_2">
   <g id="patch_5">
    <path d="M 253.467416 242.946877 
L 416.316418 242.946877 
L 416.316418 42.32 
L 253.467416 42.32 
z
" style="fill: #ffffff"/>
   </g>
   <g id="PolyCollection_5">
    <path d="M 274.362053 144.093833 
L 268.526455 144.093833 
L 268.283729 143.950138 
L 268.03094 143.806444 
L 267.768827 143.662749 
L 267.498269 143.519054 
L 267.220273 143.375359 
L 266.935969 143.231664 
L 266.64659 143.087969 
L 266.353453 142.944274 
L 266.05794 142.800579 
L 265.761468 142.656885 
L 265.465466 142.51319 
L 265.171344 142.369495 
L 264.88047 142.2258 
L 264.594143 142.082105 
L 264.313572 141.93841 
L 264.039861 141.794715 
L 263.773995 141.651021 
L 263.516833 141.507326 
L 263.269108 141.363631 
L 263.031436 141.219936 
L 262.804319 141.076241 
L 262.588171 140.932546 
L 262.383327 140.788851 
L 262.190071 140.645157 
L 262.008656 140.501462 
L 261.839325 140.357767 
L 261.682334 140.214072 
L 261.537962 140.070377 
L 261.406528 139.926682 
L 261.288389 139.782987 
L 261.183949 139.639292 
L 261.093641 139.495598 
L 261.017923 139.351903 
L 260.957252 139.208208 
L 260.912067 139.064513 
L 260.882758 138.920818 
L 260.869644 138.777123 
L 260.872942 138.633428 
L 260.892745 138.489734 
L 260.929002 138.346039 
L 260.981499 138.202344 
L 261.049853 138.058649 
L 261.133508 137.914954 
L 261.231741 137.771259 
L 261.343674 137.627564 
L 261.468296 137.48387 
L 261.604485 137.340175 
L 261.75104 137.19648 
L 261.906714 137.052785 
L 262.07025 136.90909 
L 262.240412 136.765395 
L 262.416019 136.6217 
L 262.595975 136.478005 
L 262.779289 136.334311 
L 262.965091 136.190616 
L 263.152646 136.046921 
L 263.341351 135.903226 
L 263.53073 135.759531 
L 263.720428 135.615836 
L 263.910185 135.472141 
L 264.099819 135.328447 
L 264.289197 135.184752 
L 264.478214 135.041057 
L 264.666759 134.897362 
L 264.854693 134.753667 
L 265.041832 134.609972 
L 265.227923 134.466277 
L 265.412642 134.322583 
L 265.595582 134.178888 
L 265.776261 134.035193 
L 265.954129 133.891498 
L 266.128583 133.747803 
L 266.298992 133.604108 
L 266.464715 133.460413 
L 266.625134 133.316718 
L 266.779683 133.173024 
L 266.92787 133.029329 
L 267.069313 132.885634 
L 267.203756 132.741939 
L 267.331087 132.598244 
L 267.451358 132.454549 
L 267.564781 132.310854 
L 267.671733 132.16716 
L 267.772748 132.023465 
L 267.868499 131.87977 
L 267.959778 131.736075 
L 268.047475 131.59238 
L 268.132538 131.448685 
L 268.21595 131.30499 
L 268.298691 131.161296 
L 268.381701 131.017601 
L 268.465855 130.873906 
L 268.551926 130.730211 
L 268.640568 130.586516 
L 268.732287 130.442821 
L 268.827436 130.299126 
L 268.9262 130.155432 
L 269.028595 130.011737 
L 269.134475 129.868042 
L 273.754033 129.868042 
L 273.754033 129.868042 
L 273.859914 130.011737 
L 273.962309 130.155432 
L 274.061072 130.299126 
L 274.156221 130.442821 
L 274.247941 130.586516 
L 274.336582 130.730211 
L 274.422654 130.873906 
L 274.506807 131.017601 
L 274.589818 131.161296 
L 274.672558 131.30499 
L 274.755971 131.448685 
L 274.841034 131.59238 
L 274.92873 131.736075 
L 275.02001 131.87977 
L 275.115761 132.023465 
L 275.216775 132.16716 
L 275.323728 132.310854 
L 275.437151 132.454549 
L 275.557421 132.598244 
L 275.684753 132.741939 
L 275.819195 132.885634 
L 275.960638 133.029329 
L 276.108826 133.173024 
L 276.263374 133.316718 
L 276.423794 133.460413 
L 276.589517 133.604108 
L 276.759925 133.747803 
L 276.93438 133.891498 
L 277.112247 134.035193 
L 277.292926 134.178888 
L 277.475866 134.322583 
L 277.660585 134.466277 
L 277.846677 134.609972 
L 278.033815 134.753667 
L 278.22175 134.897362 
L 278.410294 135.041057 
L 278.599311 135.184752 
L 278.78869 135.328447 
L 278.978324 135.472141 
L 279.16808 135.615836 
L 279.357778 135.759531 
L 279.547158 135.903226 
L 279.735862 136.046921 
L 279.923417 136.190616 
L 280.10922 136.334311 
L 280.292534 136.478005 
L 280.47249 136.6217 
L 280.648097 136.765395 
L 280.818259 136.90909 
L 280.981794 137.052785 
L 281.137468 137.19648 
L 281.284023 137.340175 
L 281.420212 137.48387 
L 281.544834 137.627564 
L 281.656768 137.771259 
L 281.755 137.914954 
L 281.838655 138.058649 
L 281.907009 138.202344 
L 281.959506 138.346039 
L 281.995763 138.489734 
L 282.015567 138.633428 
L 282.018865 138.777123 
L 282.00575 138.920818 
L 281.976442 139.064513 
L 281.931256 139.208208 
L 281.870585 139.351903 
L 281.794867 139.495598 
L 281.70456 139.639292 
L 281.600119 139.782987 
L 281.481981 139.926682 
L 281.350546 140.070377 
L 281.206174 140.214072 
L 281.049183 140.357767 
L 280.879853 140.501462 
L 280.698438 140.645157 
L 280.505181 140.788851 
L 280.300337 140.932546 
L 280.084189 141.076241 
L 279.857073 141.219936 
L 279.6194 141.363631 
L 279.371676 141.507326 
L 279.114514 141.651021 
L 278.848647 141.794715 
L 278.574937 141.93841 
L 278.294366 142.082105 
L 278.008039 142.2258 
L 277.717164 142.369495 
L 277.423042 142.51319 
L 277.12704 142.656885 
L 276.830568 142.800579 
L 276.535056 142.944274 
L 276.241919 143.087969 
L 275.952539 143.231664 
L 275.668235 143.375359 
L 275.390239 143.519054 
L 275.119681 143.662749 
L 274.857569 143.806444 
L 274.60478 143.950138 
L 274.362053 144.093833 
z
" clip-path="url(#p594598bf44)" style="fill: #d2691e; fill-opacity: 0.3"/>
   </g>
   <g id="PathCollection_5">
    <g clip-path="url(#p594598bf44)">
     <use xlink:href="#ma6895eedf8" x="271.444254" y="137.67522" style="fill: #d2691e; stroke: #d2691e"/>
    </g>
   </g>
   <g id="PolyCollection_6">
    <path d="M 324.317307 83.829299 
L 303.168086 83.829299 
L 303.168086 83.829299 
L 303.168086 83.829299 
L 303.168086 83.829299 
L 303.168086 83.829299 
L 303.168086 83.829299 
L 303.168086 83.829299 
L 303.168086 83.829299 
L 303.168086 83.829299 
L 303.168086 83.829299 
L 303.168086 83.829299 
L 303.168086 83.829299 
L 303.168086 83.829299 
L 303.168086 83.829299 
L 303.168086 83.829299 
L 303.168086 83.829299 
L 303.168086 83.829299 
L 303.168086 83.829299 
L 303.168086 83.829299 
L 303.168086 83.829299 
L 303.168086 83.829299 
L 303.168086 83.829299 
L 303.168086 83.829299 
L 303.168086 83.829299 
L 303.168086 83.829299 
L 303.168086 83.829299 
L 303.168086 83.829299 
L 303.168086 83.829299 
L 303.168086 83.829299 
L 303.168086 83.829299 
L 303.168086 83.829299 
L 303.168086 83.829299 
L 303.168086 83.829299 
L 303.168086 83.829299 
L 303.168086 83.829299 
L 303.168086 83.829299 
L 303.168086 83.829299 
L 303.168086 83.829299 
L 303.168086 83.829299 
L 303.168086 83.829299 
L 303.168086 83.829299 
L 303.168086 83.829299 
L 303.168086 83.829299 
L 303.168086 83.829299 
L 303.168086 83.829299 
L 303.168086 83.829299 
L 303.168086 83.829299 
L 303.168086 83.829299 
L 303.168086 83.829299 
L 303.168086 83.829299 
L 303.168086 83.829299 
L 303.168086 83.829299 
L 303.168086 83.829299 
L 303.168086 83.829299 
L 303.168086 83.829299 
L 303.168086 83.829299 
L 303.168086 83.829299 
L 303.168086 83.829299 
L 303.168086 83.829299 
L 303.168086 83.829299 
L 303.168086 83.829299 
L 303.168086 83.829299 
L 303.168086 83.829299 
L 303.168086 83.829299 
L 303.168086 83.829299 
L 303.168086 83.829299 
L 303.168086 83.829299 
L 303.168086 83.829299 
L 303.168086 83.829299 
L 303.168086 83.829299 
L 303.168086 83.829299 
L 303.168086 83.829299 
L 303.168086 83.829299 
L 303.168086 83.829299 
L 303.168086 83.829299 
L 303.168086 83.829299 
L 303.168086 83.829299 
L 303.168086 83.829299 
L 303.168086 83.829299 
L 303.168086 83.829299 
L 303.168086 83.829299 
L 303.168086 83.829299 
L 303.168086 83.829299 
L 303.168086 83.829299 
L 303.168086 83.829299 
L 303.168086 83.829299 
L 303.168086 83.829299 
L 303.168086 83.829299 
L 303.168086 83.829299 
L 303.168086 83.829299 
L 303.168086 83.829299 
L 303.168086 83.829299 
L 303.168086 83.829299 
L 303.168086 83.829299 
L 303.168086 83.829299 
L 303.168086 83.829299 
L 303.168086 83.829299 
L 303.168086 83.829299 
L 303.168086 83.829299 
L 303.168086 83.829299 
L 324.317307 83.829299 
L 324.317307 83.829299 
L 324.317307 83.829299 
L 324.317307 83.829299 
L 324.317307 83.829299 
L 324.317307 83.829299 
L 324.317307 83.829299 
L 324.317307 83.829299 
L 324.317307 83.829299 
L 324.317307 83.829299 
L 324.317307 83.829299 
L 324.317307 83.829299 
L 324.317307 83.829299 
L 324.317307 83.829299 
L 324.317307 83.829299 
L 324.317307 83.829299 
L 324.317307 83.829299 
L 324.317307 83.829299 
L 324.317307 83.829299 
L 324.317307 83.829299 
L 324.317307 83.829299 
L 324.317307 83.829299 
L 324.317307 83.829299 
L 324.317307 83.829299 
L 324.317307 83.829299 
L 324.317307 83.829299 
L 324.317307 83.829299 
L 324.317307 83.829299 
L 324.317307 83.829299 
L 324.317307 83.829299 
L 324.317307 83.829299 
L 324.317307 83.829299 
L 324.317307 83.829299 
L 324.317307 83.829299 
L 324.317307 83.829299 
L 324.317307 83.829299 
L 324.317307 83.829299 
L 324.317307 83.829299 
L 324.317307 83.829299 
L 324.317307 83.829299 
L 324.317307 83.829299 
L 324.317307 83.829299 
L 324.317307 83.829299 
L 324.317307 83.829299 
L 324.317307 83.829299 
L 324.317307 83.829299 
L 324.317307 83.829299 
L 324.317307 83.829299 
L 324.317307 83.829299 
L 324.317307 83.829299 
L 324.317307 83.829299 
L 324.317307 83.829299 
L 324.317307 83.829299 
L 324.317307 83.829299 
L 324.317307 83.829299 
L 324.317307 83.829299 
L 324.317307 83.829299 
L 324.317307 83.829299 
L 324.317307 83.829299 
L 324.317307 83.829299 
L 324.317307 83.829299 
L 324.317307 83.829299 
L 324.317307 83.829299 
L 324.317307 83.829299 
L 324.317307 83.829299 
L 324.317307 83.829299 
L 324.317307 83.829299 
L 324.317307 83.829299 
L 324.317307 83.829299 
L 324.317307 83.829299 
L 324.317307 83.829299 
L 324.317307 83.829299 
L 324.317307 83.829299 
L 324.317307 83.829299 
L 324.317307 83.829299 
L 324.317307 83.829299 
L 324.317307 83.829299 
L 324.317307 83.829299 
L 324.317307 83.829299 
L 324.317307 83.829299 
L 324.317307 83.829299 
L 324.317307 83.829299 
L 324.317307 83.829299 
L 324.317307 83.829299 
L 324.317307 83.829299 
L 324.317307 83.829299 
L 324.317307 83.829299 
L 324.317307 83.829299 
L 324.317307 83.829299 
L 324.317307 83.829299 
L 324.317307 83.829299 
L 324.317307 83.829299 
L 324.317307 83.829299 
L 324.317307 83.829299 
L 324.317307 83.829299 
L 324.317307 83.829299 
L 324.317307 83.829299 
L 324.317307 83.829299 
L 324.317307 83.829299 
L 324.317307 83.829299 
L 324.317307 83.829299 
z
" clip-path="url(#p594598bf44)" style="fill: #1f77b4; fill-opacity: 0.3"/>
   </g>
   <g id="PathCollection_6">
    <g clip-path="url(#p594598bf44)">
     <use xlink:href="#m35fc5b52c4" x="313.742696" y="83.829299" style="fill: #1f77b4; stroke: #1f77b4"/>
    </g>
   </g>
   <g id="PolyCollection_7">
    <path d="M 362.653592 91.452402 
L 349.428684 91.452402 
L 349.221805 91.389346 
L 349.02505 91.32629 
L 348.838534 91.263234 
L 348.662169 91.200178 
L 348.495671 91.137122 
L 348.338575 91.074066 
L 348.190257 91.011011 
L 348.049953 90.947955 
L 347.916794 90.884899 
L 347.789836 90.821843 
L 347.668094 90.758787 
L 347.550575 90.695731 
L 347.43632 90.632675 
L 347.324434 90.569619 
L 347.21412 90.506563 
L 347.104708 90.443507 
L 346.995679 90.380451 
L 346.886686 90.317395 
L 346.777566 90.254339 
L 346.66835 90.191283 
L 346.55926 90.128227 
L 346.450706 90.065171 
L 346.343273 90.002115 
L 346.2377 89.939059 
L 346.134862 89.876003 
L 346.035731 89.812947 
L 345.941354 89.749891 
L 345.852809 89.686835 
L 345.771174 89.623779 
L 345.697484 89.560723 
L 345.632701 89.497667 
L 345.577671 89.434611 
L 345.533102 89.371555 
L 345.499527 89.308499 
L 345.477291 89.245443 
L 345.466528 89.182387 
L 345.467153 89.119331 
L 345.478863 89.056275 
L 345.501131 88.993219 
L 345.533225 88.930163 
L 345.574222 88.867107 
L 345.623027 88.804051 
L 345.678403 88.740995 
L 345.739005 88.677939 
L 345.803411 88.614884 
L 345.870162 88.551828 
L 345.937803 88.488772 
L 346.004916 88.425716 
L 346.070166 88.36266 
L 346.132329 88.299604 
L 346.190333 88.236548 
L 346.24328 88.173492 
L 346.290476 88.110436 
L 346.331449 88.04738 
L 346.365959 87.984324 
L 346.39401 87.921268 
L 346.41585 87.858212 
L 346.431962 87.795156 
L 346.443061 87.7321 
L 346.45007 87.669044 
L 346.454103 87.605988 
L 346.456437 87.542932 
L 346.458483 87.479876 
L 346.461753 87.41682 
L 346.467826 87.353764 
L 346.47831 87.290708 
L 346.494809 87.227652 
L 346.518885 87.164596 
L 346.552026 87.10154 
L 346.595613 87.038484 
L 346.65089 86.975428 
L 346.718945 86.912372 
L 346.800682 86.849316 
L 346.896809 86.78626 
L 347.007825 86.723204 
L 347.134015 86.660148 
L 347.275446 86.597092 
L 347.431973 86.534036 
L 347.603243 86.47098 
L 347.788708 86.407924 
L 347.987639 86.344868 
L 348.199148 86.281812 
L 348.422203 86.218757 
L 348.655654 86.155701 
L 348.898253 86.092645 
L 349.148682 86.029589 
L 349.405575 85.966533 
L 349.66754 85.903477 
L 349.933183 85.840421 
L 350.201126 85.777365 
L 350.470029 85.714309 
L 350.738603 85.651253 
L 351.005627 85.588197 
L 351.269957 85.525141 
L 351.530535 85.462085 
L 351.786396 85.399029 
L 352.036675 85.335973 
L 352.280603 85.272917 
L 352.517514 85.209861 
L 359.564763 85.209861 
L 359.564763 85.209861 
L 359.801673 85.272917 
L 360.045601 85.335973 
L 360.29588 85.399029 
L 360.551742 85.462085 
L 360.812319 85.525141 
L 361.076649 85.588197 
L 361.343673 85.651253 
L 361.612248 85.714309 
L 361.881151 85.777365 
L 362.149094 85.840421 
L 362.414736 85.903477 
L 362.676701 85.966533 
L 362.933594 86.029589 
L 363.184023 86.092645 
L 363.426622 86.155701 
L 363.660073 86.218757 
L 363.883128 86.281812 
L 364.094637 86.344868 
L 364.293569 86.407924 
L 364.479033 86.47098 
L 364.650303 86.534036 
L 364.80683 86.597092 
L 364.948261 86.660148 
L 365.074452 86.723204 
L 365.185468 86.78626 
L 365.281594 86.849316 
L 365.363331 86.912372 
L 365.431386 86.975428 
L 365.486664 87.038484 
L 365.53025 87.10154 
L 365.563391 87.164596 
L 365.587467 87.227652 
L 365.603966 87.290708 
L 365.61445 87.353764 
L 365.620523 87.41682 
L 365.623793 87.479876 
L 365.625839 87.542932 
L 365.628173 87.605988 
L 365.632206 87.669044 
L 365.639215 87.7321 
L 365.650314 87.795156 
L 365.666427 87.858212 
L 365.688266 87.921268 
L 365.716317 87.984324 
L 365.750827 88.04738 
L 365.7918 88.110436 
L 365.838996 88.173492 
L 365.891944 88.236548 
L 365.949947 88.299604 
L 366.012111 88.36266 
L 366.07736 88.425716 
L 366.144473 88.488772 
L 366.212114 88.551828 
L 366.278866 88.614884 
L 366.343272 88.677939 
L 366.403873 88.740995 
L 366.45925 88.804051 
L 366.508054 88.867107 
L 366.549051 88.930163 
L 366.581146 88.993219 
L 366.603414 89.056275 
L 366.615123 89.119331 
L 366.615749 89.182387 
L 366.604985 89.245443 
L 366.582749 89.308499 
L 366.549174 89.371555 
L 366.504605 89.434611 
L 366.449576 89.497667 
L 366.384792 89.560723 
L 366.311103 89.623779 
L 366.229467 89.686835 
L 366.140923 89.749891 
L 366.046545 89.812947 
L 365.947415 89.876003 
L 365.844576 89.939059 
L 365.739004 90.002115 
L 365.63157 90.065171 
L 365.523016 90.128227 
L 365.413926 90.191283 
L 365.30471 90.254339 
L 365.19559 90.317395 
L 365.086597 90.380451 
L 364.977568 90.443507 
L 364.868156 90.506563 
L 364.757842 90.569619 
L 364.645957 90.632675 
L 364.531702 90.695731 
L 364.414183 90.758787 
L 364.29244 90.821843 
L 364.165482 90.884899 
L 364.032323 90.947955 
L 363.89202 91.011011 
L 363.743701 91.074066 
L 363.586605 91.137122 
L 363.420107 91.200178 
L 363.243742 91.263234 
L 363.057226 91.32629 
L 362.860471 91.389346 
L 362.653592 91.452402 
z
" clip-path="url(#p594598bf44)" style="fill: #a52a2a; fill-opacity: 0.3"/>
   </g>
   <g id="PathCollection_7">
    <g clip-path="url(#p594598bf44)">
     <use xlink:href="#mc76d7cbb23" x="356.041138" y="88.687277" style="fill: #a52a2a; stroke: #a52a2a"/>
    </g>
   </g>
   <g id="PolyCollection_8">
    <path d="M 399.109274 79.147393 
L 397.569886 79.147393 
L 397.558377 79.075242 
L 397.551774 79.003092 
L 397.549243 78.930941 
L 397.549703 78.85879 
L 397.551876 78.78664 
L 397.554342 78.714489 
L 397.5556 78.642339 
L 397.554121 78.570188 
L 397.548393 78.498038 
L 397.536945 78.425887 
L 397.518358 78.353736 
L 397.49125 78.281586 
L 397.45424 78.209435 
L 397.4059 78.137285 
L 397.344689 78.065134 
L 397.268893 77.992983 
L 397.176574 77.920833 
L 397.065528 77.848682 
L 396.933292 77.776532 
L 396.777171 77.704381 
L 396.594325 77.632231 
L 396.381898 77.56008 
L 396.137193 77.487929 
L 395.857883 77.415779 
L 395.542251 77.343628 
L 395.18943 77.271478 
L 394.799641 77.199327 
L 394.374384 77.127176 
L 393.916577 77.055026 
L 393.43062 76.982875 
L 392.922363 76.910725 
L 392.398981 76.838574 
L 391.868739 76.766424 
L 391.340681 76.694273 
L 390.824234 76.622122 
L 390.328767 76.549972 
L 389.863131 76.477821 
L 389.435217 76.405671 
L 389.05156 76.33352 
L 388.717018 76.261369 
L 388.434564 76.189219 
L 388.205189 76.117068 
L 388.027939 76.044918 
L 387.900078 75.972767 
L 387.817353 75.900616 
L 387.774362 75.828466 
L 387.76497 75.756315 
L 387.782761 75.684165 
L 387.821485 75.612014 
L 387.875464 75.539864 
L 387.939935 75.467713 
L 388.011308 75.395562 
L 388.087322 75.323412 
L 388.167094 75.251261 
L 388.251074 75.179111 
L 388.340897 75.10696 
L 388.439165 75.034809 
L 388.549174 74.962659 
L 388.674606 74.890508 
L 388.819212 74.818358 
L 388.986512 74.746207 
L 389.179521 74.674057 
L 389.400529 74.601906 
L 389.650932 74.529755 
L 389.931139 74.457605 
L 390.240527 74.385454 
L 390.577468 74.313304 
L 390.939405 74.241153 
L 391.32297 74.169002 
L 391.724134 74.096852 
L 392.138371 74.024701 
L 392.560836 73.952551 
L 392.986539 73.8804 
L 393.410499 73.80825 
L 393.827894 73.736099 
L 394.234184 73.663948 
L 394.625212 73.591798 
L 394.997285 73.519647 
L 395.347236 73.447497 
L 395.672464 73.375346 
L 395.970967 73.303195 
L 396.241347 73.231045 
L 396.482817 73.158894 
L 396.695191 73.086744 
L 396.878859 73.014593 
L 397.034762 72.942442 
L 397.164345 72.870292 
L 397.269506 72.798141 
L 397.352531 72.725991 
L 397.416021 72.65384 
L 397.462809 72.58169 
L 397.495867 72.509539 
L 397.518211 72.437388 
L 397.532806 72.365238 
L 397.542472 72.293087 
L 397.549799 72.220937 
L 397.557069 72.148786 
L 397.566198 72.076635 
L 397.578696 72.004485 
L 399.100465 72.004485 
L 399.100465 72.004485 
L 399.112962 72.076635 
L 399.122091 72.148786 
L 399.129361 72.220937 
L 399.136688 72.293087 
L 399.146354 72.365238 
L 399.160949 72.437388 
L 399.183293 72.509539 
L 399.216351 72.58169 
L 399.263139 72.65384 
L 399.32663 72.725991 
L 399.409655 72.798141 
L 399.514815 72.870292 
L 399.644398 72.942442 
L 399.800301 73.014593 
L 399.98397 73.086744 
L 400.196343 73.158894 
L 400.437814 73.231045 
L 400.708193 73.303195 
L 401.006696 73.375346 
L 401.331925 73.447497 
L 401.681875 73.519647 
L 402.053948 73.591798 
L 402.444976 73.663948 
L 402.851266 73.736099 
L 403.268662 73.80825 
L 403.692621 73.8804 
L 404.118324 73.952551 
L 404.540789 74.024701 
L 404.955026 74.096852 
L 405.35619 74.169002 
L 405.739755 74.241153 
L 406.101693 74.313304 
L 406.438633 74.385454 
L 406.748021 74.457605 
L 407.028228 74.529755 
L 407.278632 74.601906 
L 407.499639 74.674057 
L 407.692648 74.746207 
L 407.859948 74.818358 
L 408.004554 74.890508 
L 408.129986 74.962659 
L 408.239995 75.034809 
L 408.338263 75.10696 
L 408.428086 75.179111 
L 408.512066 75.251261 
L 408.591838 75.323412 
L 408.667852 75.395562 
L 408.739225 75.467713 
L 408.803697 75.539864 
L 408.857676 75.612014 
L 408.8964 75.684165 
L 408.914191 75.756315 
L 408.904798 75.828466 
L 408.861807 75.900616 
L 408.779082 75.972767 
L 408.651221 76.044918 
L 408.473972 76.117068 
L 408.244596 76.189219 
L 407.962142 76.261369 
L 407.6276 76.33352 
L 407.243943 76.405671 
L 406.81603 76.477821 
L 406.350394 76.549972 
L 405.854926 76.622122 
L 405.338479 76.694273 
L 404.810421 76.766424 
L 404.280179 76.838574 
L 403.756797 76.910725 
L 403.24854 76.982875 
L 402.762583 77.055026 
L 402.304776 77.127176 
L 401.879519 77.199327 
L 401.48973 77.271478 
L 401.13691 77.343628 
L 400.821277 77.415779 
L 400.541967 77.487929 
L 400.297262 77.56008 
L 400.084835 77.632231 
L 399.901989 77.704381 
L 399.745868 77.776532 
L 399.613632 77.848682 
L 399.502586 77.920833 
L 399.410267 77.992983 
L 399.334471 78.065134 
L 399.27326 78.137285 
L 399.22492 78.209435 
L 399.18791 78.281586 
L 399.160802 78.353736 
L 399.142216 78.425887 
L 399.130767 78.498038 
L 399.125039 78.570188 
L 399.12356 78.642339 
L 399.124818 78.714489 
L 399.127284 78.78664 
L 399.129457 78.85879 
L 399.129917 78.930941 
L 399.127386 79.003092 
L 399.120783 79.075242 
L 399.109274 79.147393 
z
" clip-path="url(#p594598bf44)" style="fill: #008000; fill-opacity: 0.3"/>
   </g>
   <g id="PathCollection_8">
    <g clip-path="url(#p594598bf44)">
     <use xlink:href="#m0a49cb2e7e" x="398.33958" y="75.443885" style="fill: #008000; stroke: #008000"/>
    </g>
   </g>
   <g id="matplotlib.axis_3">
    <g id="xtick_5">
     <g id="line2d_16">
      <g>
       <use xlink:href="#m05b4d34759" x="271.444254" y="242.946877" style="stroke: #000000; stroke-width: 0.8"/>
      </g>
     </g>
     <g id="text_13">
      <!-- Untrained -->
      <g style="fill: #d2691e" transform="translate(249.769126 301.249173) rotate(-50) scale(0.12 -0.12)">
       <use xlink:href="#DejaVuSans-55"/>
       <use xlink:href="#DejaVuSans-6e" x="73.193359"/>
       <use xlink:href="#DejaVuSans-74" x="136.572266"/>
       <use xlink:href="#DejaVuSans-72" x="175.78125"/>
       <use xlink:href="#DejaVuSans-61" x="216.894531"/>
       <use xlink:href="#DejaVuSans-69" x="278.173828"/>
       <use xlink:href="#DejaVuSans-6e" x="305.957031"/>
       <use xlink:href="#DejaVuSans-65" x="369.335938"/>
       <use xlink:href="#DejaVuSans-64" x="430.859375"/>
      </g>
      <!-- model -->
      <g style="fill: #d2691e" transform="translate(267.11815 301.478256) rotate(-50) scale(0.12 -0.12)">
       <use xlink:href="#DejaVuSans-6d"/>
       <use xlink:href="#DejaVuSans-6f" x="97.412109"/>
       <use xlink:href="#DejaVuSans-64" x="158.59375"/>
       <use xlink:href="#DejaVuSans-65" x="222.070312"/>
       <use xlink:href="#DejaVuSans-6c" x="283.59375"/>
      </g>
     </g>
    </g>
    <g id="xtick_6">
     <g id="line2d_17">
      <g>
       <use xlink:href="#m05b4d34759" x="313.742696" y="242.946877" style="stroke: #000000; stroke-width: 0.8"/>
      </g>
     </g>
     <g id="text_14">
      <!-- Masked -->
      <g style="fill: #1f77b4" transform="translate(296.517265 294.973832) rotate(-50) scale(0.12 -0.12)">
       <use xlink:href="#DejaVuSans-4d"/>
       <use xlink:href="#DejaVuSans-61" x="86.279297"/>
       <use xlink:href="#DejaVuSans-73" x="147.558594"/>
       <use xlink:href="#DejaVuSans-6b" x="199.658203"/>
       <use xlink:href="#DejaVuSans-65" x="253.943359"/>
       <use xlink:href="#DejaVuSans-64" x="315.466797"/>
      </g>
      <!-- raw input -->
      <g style="fill: #1f77b4" transform="translate(303.177133 307.941756) rotate(-50) scale(0.12 -0.12)">
       <use xlink:href="#DejaVuSans-72"/>
       <use xlink:href="#DejaVuSans-61" x="41.113281"/>
       <use xlink:href="#DejaVuSans-77" x="102.392578"/>
       <use xlink:href="#DejaVuSans-20" x="184.179688"/>
       <use xlink:href="#DejaVuSans-69" x="215.966797"/>
       <use xlink:href="#DejaVuSans-6e" x="243.75"/>
       <use xlink:href="#DejaVuSans-70" x="307.128906"/>
       <use xlink:href="#DejaVuSans-75" x="370.605469"/>
       <use xlink:href="#DejaVuSans-74" x="433.984375"/>
      </g>
     </g>
    </g>
    <g id="xtick_7">
     <g id="line2d_18">
      <g>
       <use xlink:href="#m05b4d34759" x="356.041138" y="242.946877" style="stroke: #000000; stroke-width: 0.8"/>
      </g>
     </g>
     <g id="text_15">
      <!-- LPL -->
      <g style="fill: #a52a2a" transform="translate(351.954379 271.594635) rotate(-50) scale(0.12 -0.12)">
       <use xlink:href="#DejaVuSans-4c"/>
       <use xlink:href="#DejaVuSans-50" x="55.712891"/>
       <use xlink:href="#DejaVuSans-4c" x="116.015625"/>
      </g>
     </g>
    </g>
    <g id="xtick_8">
     <g id="line2d_19">
      <g>
       <use xlink:href="#m05b4d34759" x="398.33958" y="242.946877" style="stroke: #000000; stroke-width: 0.8"/>
      </g>
     </g>
     <g id="text_16">
      <!-- TCLoSeR -->
      <g style="fill: #008000" transform="translate(384.11144 295.766688) rotate(-50) scale(0.12 -0.12)">
       <use xlink:href="#DejaVuSans-54"/>
       <use xlink:href="#DejaVuSans-43" x="55.208984"/>
       <use xlink:href="#DejaVuSans-4c" x="125.033203"/>
       <use xlink:href="#DejaVuSans-6f" x="178.996094"/>
       <use xlink:href="#DejaVuSans-53" x="240.177734"/>
       <use xlink:href="#DejaVuSans-65" x="303.654297"/>
       <use xlink:href="#DejaVuSans-52" x="365.177734"/>
      </g>
     </g>
    </g>
   </g>
   <g id="matplotlib.axis_4">
    <g id="ytick_5">
     <g id="line2d_20">
      <g>
       <use xlink:href="#mc5ee3180d3" x="253.467416" y="204.115869" style="stroke: #000000; stroke-width: 0.8"/>
      </g>
     </g>
    </g>
    <g id="ytick_6">
     <g id="line2d_21">
      <g>
       <use xlink:href="#mc5ee3180d3" x="253.467416" y="152.341191" style="stroke: #000000; stroke-width: 0.8"/>
      </g>
     </g>
    </g>
    <g id="ytick_7">
     <g id="line2d_22">
      <g>
       <use xlink:href="#mc5ee3180d3" x="253.467416" y="100.566513" style="stroke: #000000; stroke-width: 0.8"/>
      </g>
     </g>
    </g>
    <g id="ytick_8">
     <g id="line2d_23">
      <g>
       <use xlink:href="#mc5ee3180d3" x="253.467416" y="48.791835" style="stroke: #000000; stroke-width: 0.8"/>
      </g>
     </g>
    </g>
   </g>
   <g id="line2d_24">
    <path d="M 317.97254 46.117146 
L 394.109736 46.117146 
" clip-path="url(#p594598bf44)" style="fill: none; stroke: #000000; stroke-linecap: square"/>
   </g>
   <g id="line2d_25">
    <path d="M 317.97254 52.588981 
L 317.97254 46.117146 
" clip-path="url(#p594598bf44)" style="fill: none; stroke: #000000; stroke-linecap: square"/>
   </g>
   <g id="line2d_26">
    <path d="M 394.109736 52.588981 
L 394.109736 46.117146 
" clip-path="url(#p594598bf44)" style="fill: none; stroke: #000000; stroke-linecap: square"/>
   </g>
   <g id="line2d_27">
    <path d="M 360.270982 59.060815 
L 394.109736 59.060815 
" clip-path="url(#p594598bf44)" style="fill: none; stroke: #000000; stroke-linecap: square"/>
   </g>
   <g id="line2d_28">
    <path d="M 360.270982 65.53265 
L 360.270982 59.060815 
" clip-path="url(#p594598bf44)" style="fill: none; stroke: #000000; stroke-linecap: square"/>
   </g>
   <g id="line2d_29">
    <path d="M 394.109736 65.53265 
L 394.109736 59.060815 
" clip-path="url(#p594598bf44)" style="fill: none; stroke: #000000; stroke-linecap: square"/>
   </g>
   <g id="line2d_30">
    <path d="M 253.467416 238.632321 
L 416.316418 238.632321 
" clip-path="url(#p594598bf44)" style="fill: none; stroke-dasharray: 1.5,2.475; stroke-dashoffset: 0; stroke: #000000; stroke-width: 1.5"/>
   </g>
   <g id="patch_6">
    <path d="M 253.467416 242.946877 
L 253.467416 42.32 
" style="fill: none; stroke: #000000; stroke-width: 0.8; stroke-linejoin: miter; stroke-linecap: square"/>
   </g>
   <g id="patch_7">
    <path d="M 253.467416 242.946877 
L 416.316418 242.946877 
" style="fill: none; stroke: #000000; stroke-width: 0.8; stroke-linejoin: miter; stroke-linecap: square"/>
   </g>
   <g id="text_17">
    <!-- ∗∗∗ -->
    <g transform="translate(343.471607 42.404686) scale(0.1 -0.1)">
     <use xlink:href="#DejaVuSans-2217"/>
     <use xlink:href="#DejaVuSans-2217" x="83.789062"/>
     <use xlink:href="#DejaVuSans-2217" x="167.578125"/>
    </g>
   </g>
   <g id="text_18">
    <!-- ∗∗∗ -->
    <g transform="translate(364.620828 55.348356) scale(0.1 -0.1)">
     <use xlink:href="#DejaVuSans-2217"/>
     <use xlink:href="#DejaVuSans-2217" x="83.789062"/>
     <use xlink:href="#DejaVuSans-2217" x="167.578125"/>
    </g>
   </g>
   <g id="text_19">
    <!-- Ensemble -->
    <g transform="translate(298.480413 22.32) scale(0.1485 -0.1485)">
     <defs>
      <path id="DejaVuSans-45" d="M 628 4666 
L 3578 4666 
L 3578 4134 
L 1259 4134 
L 1259 2753 
L 3481 2753 
L 3481 2222 
L 1259 2222 
L 1259 531 
L 3634 531 
L 3634 0 
L 628 0 
L 628 4666 
z
" transform="scale(0.015625)"/>
      <path id="DejaVuSans-62" d="M 3116 1747 
Q 3116 2381 2855 2742 
Q 2594 3103 2138 3103 
Q 1681 3103 1420 2742 
Q 1159 2381 1159 1747 
Q 1159 1113 1420 752 
Q 1681 391 2138 391 
Q 2594 391 2855 752 
Q 3116 1113 3116 1747 
z
M 1159 2969 
Q 1341 3281 1617 3432 
Q 1894 3584 2278 3584 
Q 2916 3584 3314 3078 
Q 3713 2572 3713 1747 
Q 3713 922 3314 415 
Q 2916 -91 2278 -91 
Q 1894 -91 1617 61 
Q 1341 213 1159 525 
L 1159 0 
L 581 0 
L 581 4863 
L 1159 4863 
L 1159 2969 
z
" transform="scale(0.015625)"/>
     </defs>
     <use xlink:href="#DejaVuSans-45"/>
     <use xlink:href="#DejaVuSans-6e" x="63.183594"/>
     <use xlink:href="#DejaVuSans-73" x="126.5625"/>
     <use xlink:href="#DejaVuSans-65" x="178.662109"/>
     <use xlink:href="#DejaVuSans-6d" x="240.185547"/>
     <use xlink:href="#DejaVuSans-62" x="337.597656"/>
     <use xlink:href="#DejaVuSans-6c" x="401.074219"/>
     <use xlink:href="#DejaVuSans-65" x="428.857422"/>
    </g>
   </g>
  </g>
 </g>
 <defs>
  <clipPath id="pe57a3b1d7e">
   <rect x="62.03" y="42.32" width="162.849001" height="200.626877"/>
  </clipPath>
  <clipPath id="p594598bf44">
   <rect x="253.467416" y="42.32" width="162.849001" height="200.626877"/>
  </clipPath>
 </defs>
</svg>
