<?xml version="1.0" encoding="utf-8" standalone="no"?>
<!DOCTYPE svg PUBLIC "-//W3C//DTD SVG 1.1//EN"
  "http://www.w3.org/Graphics/SVG/1.1/DTD/svg11.dtd">
<svg xmlns:xlink="http://www.w3.org/1999/xlink" width="432pt" height="324pt" viewBox="0 0 432 324" xmlns="http://www.w3.org/2000/svg" version="1.1">
 <metadata>
  <rdf:RDF xmlns:dc="http://purl.org/dc/elements/1.1/" xmlns:cc="http://creativecommons.org/ns#" xmlns:rdf="http://www.w3.org/1999/02/22-rdf-syntax-ns#">
   <cc:Work>
    <dc:type rdf:resource="http://purl.org/dc/dcmitype/StillImage"/>
    <dc:date>2025-08-20T14:12:53.557465</dc:date>
    <dc:format>image/svg+xml</dc:format>
    <dc:creator>
     <cc:Agent>
      <dc:title>Matplotlib v3.9.1.post1, https://matplotlib.org/</dc:title>
     </cc:Agent>
    </dc:creator>
   </cc:Work>
  </rdf:RDF>
 </metadata>
 <defs>
  <style type="text/css">*{stroke-linejoin: round; stroke-linecap: butt}</style>
 </defs>
 <g id="figure_1">
  <g id="patch_1">
   <path d="M 0 324 
L 432 324 
L 432 0 
L 0 0 
z
" style="fill: #ffffff"/>
  </g>
  <g id="axes_1">
   <g id="patch_2">
    <path d="M 62.03 242.946877 
L 224.879001 242.946877 
L 224.879001 42.32 
L 62.03 42.32 
z
" style="fill: #ffffff"/>
   </g>
   <g id="PolyCollection_1">
    <path d="M 83.453875 230.240905 
L 76.5598 230.240905 
L 76.297159 230.152687 
L 76.03353 230.064469 
L 75.770153 229.976251 
L 75.50803 229.888034 
L 75.247886 229.799816 
L 74.990151 229.711598 
L 74.73495 229.623381 
L 74.482122 229.535163 
L 74.23125 229.446945 
L 73.98172 229.358727 
L 73.732786 229.27051 
L 73.483658 229.182292 
L 73.233594 229.094074 
L 72.981998 229.005856 
L 72.72851 228.917639 
L 72.473093 228.829421 
L 72.2161 228.741203 
L 71.958317 228.652985 
L 71.700989 228.564768 
L 71.445803 228.47655 
L 71.194859 228.388332 
L 70.950596 228.300115 
L 70.715705 228.211897 
L 70.493022 228.123679 
L 70.285404 228.035461 
L 70.095612 227.947244 
L 69.92619 227.859026 
L 69.779368 227.770808 
L 69.656976 227.68259 
L 69.560393 227.594373 
L 69.490524 227.506155 
L 69.447803 227.417937 
L 69.432227 227.329719 
L 69.443415 227.241502 
L 69.480681 227.153284 
L 69.543117 227.065066 
L 69.629682 226.976849 
L 69.73928 226.888631 
L 69.870825 226.800413 
L 70.023294 226.712195 
L 70.195752 226.623978 
L 70.387356 226.53576 
L 70.597345 226.447542 
L 70.825004 226.359324 
L 71.06962 226.271107 
L 71.330434 226.182889 
L 71.606582 226.094671 
L 71.897055 226.006454 
L 72.200661 225.918236 
L 72.515998 225.830018 
L 72.841456 225.7418 
L 73.175219 225.653583 
L 73.5153 225.565365 
L 73.859574 225.477147 
L 74.205832 225.388929 
L 74.551837 225.300712 
L 74.895379 225.212494 
L 75.234335 225.124276 
L 75.566713 225.036058 
L 75.890697 224.947841 
L 76.204673 224.859623 
L 76.507252 224.771405 
L 76.797275 224.683188 
L 77.073808 224.59497 
L 77.336135 224.506752 
L 77.583736 224.418534 
L 77.816266 224.330317 
L 78.033529 224.242099 
L 78.235453 224.153881 
L 78.422066 224.065663 
L 78.593479 223.977446 
L 78.749862 223.889228 
L 78.891437 223.80101 
L 79.018466 223.712792 
L 79.131249 223.624575 
L 79.230123 223.536357 
L 79.315461 223.448139 
L 79.387682 223.359922 
L 79.447252 223.271704 
L 79.494698 223.183486 
L 79.53061 223.095268 
L 79.555654 223.007051 
L 79.570573 222.918833 
L 79.576199 222.830615 
L 79.573447 222.742397 
L 79.563322 222.65418 
L 79.546909 222.565962 
L 79.525366 222.477744 
L 79.49991 222.389526 
L 79.471798 222.301309 
L 79.442307 222.213091 
L 79.412704 222.124873 
L 79.384218 222.036656 
L 79.35801 221.948438 
L 79.335141 221.86022 
L 79.31654 221.772002 
L 79.30298 221.683785 
L 79.295057 221.595567 
L 79.293168 221.507349 
L 80.720508 221.507349 
L 80.720508 221.507349 
L 80.718619 221.595567 
L 80.710695 221.683785 
L 80.697136 221.772002 
L 80.678535 221.86022 
L 80.655665 221.948438 
L 80.629457 222.036656 
L 80.600972 222.124873 
L 80.571368 222.213091 
L 80.541877 222.301309 
L 80.513766 222.389526 
L 80.488309 222.477744 
L 80.466766 222.565962 
L 80.450353 222.65418 
L 80.440229 222.742397 
L 80.437477 222.830615 
L 80.443103 222.918833 
L 80.458022 223.007051 
L 80.483065 223.095268 
L 80.518978 223.183486 
L 80.566423 223.271704 
L 80.625994 223.359922 
L 80.698214 223.448139 
L 80.783552 223.536357 
L 80.882426 223.624575 
L 80.99521 223.712792 
L 81.122239 223.80101 
L 81.263814 223.889228 
L 81.420197 223.977446 
L 81.591609 224.065663 
L 81.778223 224.153881 
L 81.980147 224.242099 
L 82.197409 224.330317 
L 82.429939 224.418534 
L 82.677541 224.506752 
L 82.939868 224.59497 
L 83.216401 224.683188 
L 83.506424 224.771405 
L 83.809003 224.859623 
L 84.122979 224.947841 
L 84.446962 225.036058 
L 84.77934 225.124276 
L 85.118296 225.212494 
L 85.461839 225.300712 
L 85.807844 225.388929 
L 86.154102 225.477147 
L 86.498376 225.565365 
L 86.838456 225.653583 
L 87.17222 225.7418 
L 87.497677 225.830018 
L 87.813015 225.918236 
L 88.11662 226.006454 
L 88.407094 226.094671 
L 88.683242 226.182889 
L 88.944055 226.271107 
L 89.188672 226.359324 
L 89.416331 226.447542 
L 89.62632 226.53576 
L 89.817924 226.623978 
L 89.990381 226.712195 
L 90.142851 226.800413 
L 90.274396 226.888631 
L 90.383994 226.976849 
L 90.470559 227.065066 
L 90.532995 227.153284 
L 90.57026 227.241502 
L 90.581448 227.329719 
L 90.565872 227.417937 
L 90.523151 227.506155 
L 90.453282 227.594373 
L 90.3567 227.68259 
L 90.234308 227.770808 
L 90.087485 227.859026 
L 89.918064 227.947244 
L 89.728272 228.035461 
L 89.520654 228.123679 
L 89.297971 228.211897 
L 89.06308 228.300115 
L 88.818816 228.388332 
L 88.567872 228.47655 
L 88.312687 228.564768 
L 88.055358 228.652985 
L 87.797576 228.741203 
L 87.540582 228.829421 
L 87.285165 228.917639 
L 87.031678 229.005856 
L 86.780082 229.094074 
L 86.530018 229.182292 
L 86.28089 229.27051 
L 86.031956 229.358727 
L 85.782425 229.446945 
L 85.531554 229.535163 
L 85.278725 229.623381 
L 85.023525 229.711598 
L 84.76579 229.799816 
L 84.505646 229.888034 
L 84.243522 229.976251 
L 83.980145 230.064469 
L 83.716516 230.152687 
L 83.453875 230.240905 
z
" clip-path="url(#pf0a5d9c52c)" style="fill: #d2691e; fill-opacity: 0.3"/>
   </g>
   <g id="PathCollection_1">
    <defs>
     <path id="mbe2e17358f" d="M 0 3 
C 0.795609 3 1.55874 2.683901 2.12132 2.12132 
C 2.683901 1.55874 3 0.795609 3 0 
C 3 -0.795609 2.683901 -1.55874 2.12132 -2.12132 
C 1.55874 -2.683901 0.795609 -3 0 -3 
C -0.795609 -3 -1.55874 -2.683901 -2.12132 -2.12132 
C -2.683901 -1.55874 -3 -0.795609 -3 0 
C -3 0.795609 -2.683901 1.55874 -2.12132 2.12132 
C -1.55874 2.683901 -0.795609 3 0 3 
z
" style="stroke: #d2691e"/>
    </defs>
    <g clip-path="url(#pf0a5d9c52c)">
     <use xlink:href="#mbe2e17358f" x="80.006838" y="227.249887" style="fill: #d2691e; stroke: #d2691e"/>
    </g>
   </g>
   <g id="PolyCollection_2">
    <path d="M 132.87989 207.599687 
L 111.730669 207.599687 
L 111.730669 207.599687 
L 111.730669 207.599687 
L 111.730669 207.599687 
L 111.730669 207.599687 
L 111.730669 207.599687 
L 111.730669 207.599687 
L 111.730669 207.599687 
L 111.730669 207.599687 
L 111.730669 207.599687 
L 111.730669 207.599687 
L 111.730669 207.599687 
L 111.730669 207.599687 
L 111.730669 207.599687 
L 111.730669 207.599687 
L 111.730669 207.599687 
L 111.730669 207.599687 
L 111.730669 207.599687 
L 111.730669 207.599687 
L 111.730669 207.599687 
L 111.730669 207.599687 
L 111.730669 207.599687 
L 111.730669 207.599687 
L 111.730669 207.599687 
L 111.730669 207.599687 
L 111.730669 207.599687 
L 111.730669 207.599687 
L 111.730669 207.599687 
L 111.730669 207.599687 
L 111.730669 207.599687 
L 111.730669 207.599687 
L 111.730669 207.599687 
L 111.730669 207.599687 
L 111.730669 207.599687 
L 111.730669 207.599687 
L 111.730669 207.599687 
L 111.730669 207.599687 
L 111.730669 207.599687 
L 111.730669 207.599687 
L 111.730669 207.599687 
L 111.730669 207.599687 
L 111.730669 207.599687 
L 111.730669 207.599687 
L 111.730669 207.599687 
L 111.730669 207.599687 
L 111.730669 207.599687 
L 111.730669 207.599687 
L 111.730669 207.599687 
L 111.730669 207.599687 
L 111.730669 207.599687 
L 111.730669 207.599687 
L 111.730669 207.599687 
L 111.730669 207.599687 
L 111.730669 207.599687 
L 111.730669 207.599687 
L 111.730669 207.599687 
L 111.730669 207.599687 
L 111.730669 207.599687 
L 111.730669 207.599687 
L 111.730669 207.599687 
L 111.730669 207.599687 
L 111.730669 207.599687 
L 111.730669 207.599687 
L 111.730669 207.599687 
L 111.730669 207.599687 
L 111.730669 207.599687 
L 111.730669 207.599687 
L 111.730669 207.599687 
L 111.730669 207.599687 
L 111.730669 207.599687 
L 111.730669 207.599687 
L 111.730669 207.599687 
L 111.730669 207.599687 
L 111.730669 207.599687 
L 111.730669 207.599687 
L 111.730669 207.599687 
L 111.730669 207.599687 
L 111.730669 207.599687 
L 111.730669 207.599687 
L 111.730669 207.599687 
L 111.730669 207.599687 
L 111.730669 207.599687 
L 111.730669 207.599687 
L 111.730669 207.599687 
L 111.730669 207.599687 
L 111.730669 207.599687 
L 111.730669 207.599687 
L 111.730669 207.599687 
L 111.730669 207.599687 
L 111.730669 207.599687 
L 111.730669 207.599687 
L 111.730669 207.599687 
L 111.730669 207.599687 
L 111.730669 207.599687 
L 111.730669 207.599687 
L 111.730669 207.599687 
L 111.730669 207.599687 
L 111.730669 207.599687 
L 111.730669 207.599687 
L 111.730669 207.599687 
L 132.87989 207.599687 
L 132.87989 207.599687 
L 132.87989 207.599687 
L 132.87989 207.599687 
L 132.87989 207.599687 
L 132.87989 207.599687 
L 132.87989 207.599687 
L 132.87989 207.599687 
L 132.87989 207.599687 
L 132.87989 207.599687 
L 132.87989 207.599687 
L 132.87989 207.599687 
L 132.87989 207.599687 
L 132.87989 207.599687 
L 132.87989 207.599687 
L 132.87989 207.599687 
L 132.87989 207.599687 
L 132.87989 207.599687 
L 132.87989 207.599687 
L 132.87989 207.599687 
L 132.87989 207.599687 
L 132.87989 207.599687 
L 132.87989 207.599687 
L 132.87989 207.599687 
L 132.87989 207.599687 
L 132.87989 207.599687 
L 132.87989 207.599687 
L 132.87989 207.599687 
L 132.87989 207.599687 
L 132.87989 207.599687 
L 132.87989 207.599687 
L 132.87989 207.599687 
L 132.87989 207.599687 
L 132.87989 207.599687 
L 132.87989 207.599687 
L 132.87989 207.599687 
L 132.87989 207.599687 
L 132.87989 207.599687 
L 132.87989 207.599687 
L 132.87989 207.599687 
L 132.87989 207.599687 
L 132.87989 207.599687 
L 132.87989 207.599687 
L 132.87989 207.599687 
L 132.87989 207.599687 
L 132.87989 207.599687 
L 132.87989 207.599687 
L 132.87989 207.599687 
L 132.87989 207.599687 
L 132.87989 207.599687 
L 132.87989 207.599687 
L 132.87989 207.599687 
L 132.87989 207.599687 
L 132.87989 207.599687 
L 132.87989 207.599687 
L 132.87989 207.599687 
L 132.87989 207.599687 
L 132.87989 207.599687 
L 132.87989 207.599687 
L 132.87989 207.599687 
L 132.87989 207.599687 
L 132.87989 207.599687 
L 132.87989 207.599687 
L 132.87989 207.599687 
L 132.87989 207.599687 
L 132.87989 207.599687 
L 132.87989 207.599687 
L 132.87989 207.599687 
L 132.87989 207.599687 
L 132.87989 207.599687 
L 132.87989 207.599687 
L 132.87989 207.599687 
L 132.87989 207.599687 
L 132.87989 207.599687 
L 132.87989 207.599687 
L 132.87989 207.599687 
L 132.87989 207.599687 
L 132.87989 207.599687 
L 132.87989 207.599687 
L 132.87989 207.599687 
L 132.87989 207.599687 
L 132.87989 207.599687 
L 132.87989 207.599687 
L 132.87989 207.599687 
L 132.87989 207.599687 
L 132.87989 207.599687 
L 132.87989 207.599687 
L 132.87989 207.599687 
L 132.87989 207.599687 
L 132.87989 207.599687 
L 132.87989 207.599687 
L 132.87989 207.599687 
L 132.87989 207.599687 
L 132.87989 207.599687 
L 132.87989 207.599687 
L 132.87989 207.599687 
L 132.87989 207.599687 
L 132.87989 207.599687 
L 132.87989 207.599687 
L 132.87989 207.599687 
L 132.87989 207.599687 
z
" clip-path="url(#pf0a5d9c52c)" style="fill: #1f77b4; fill-opacity: 0.3"/>
   </g>
   <g id="PathCollection_2">
    <defs>
     <path id="m2be457158b" d="M 0 3 
C 0.795609 3 1.55874 2.683901 2.12132 2.12132 
C 2.683901 1.55874 3 0.795609 3 0 
C 3 -0.795609 2.683901 -1.55874 2.12132 -2.12132 
C 1.55874 -2.683901 0.795609 -3 0 -3 
C -0.795609 -3 -1.55874 -2.683901 -2.12132 -2.12132 
C -2.683901 -1.55874 -3 -0.795609 -3 0 
C -3 0.795609 -2.683901 1.55874 -2.12132 2.12132 
C -1.55874 2.683901 -0.795609 3 0 3 
z
" style="stroke: #1f77b4"/>
    </defs>
    <g clip-path="url(#pf0a5d9c52c)">
     <use xlink:href="#m2be457158b" x="122.30528" y="207.599687" style="fill: #1f77b4; stroke: #1f77b4"/>
    </g>
   </g>
   <g id="PolyCollection_3">
    <path d="M 170.699957 200.516804 
L 158.507486 200.516804 
L 158.236578 200.486185 
L 157.970863 200.455567 
L 157.711292 200.424948 
L 157.458719 200.39433 
L 157.213895 200.363711 
L 156.977459 200.333093 
L 156.749947 200.302474 
L 156.531782 200.271855 
L 156.323288 200.241237 
L 156.124691 200.210618 
L 155.936126 200.18 
L 155.757651 200.149381 
L 155.589252 200.118763 
L 155.430857 200.088144 
L 155.282342 200.057526 
L 155.143547 200.026907 
L 155.014279 199.996289 
L 154.894323 199.96567 
L 154.78345 199.935052 
L 154.681418 199.904433 
L 154.587981 199.873815 
L 154.502886 199.843196 
L 154.42588 199.812578 
L 154.356704 199.781959 
L 154.295095 199.751341 
L 154.240785 199.720722 
L 154.193494 199.690103 
L 154.152932 199.659485 
L 154.118791 199.628866 
L 154.090748 199.598248 
L 154.068456 199.567629 
L 154.05155 199.537011 
L 154.039637 199.506392 
L 154.032303 199.475774 
L 154.029111 199.445155 
L 154.029604 199.414537 
L 154.033305 199.383918 
L 154.039726 199.3533 
L 154.048368 199.322681 
L 154.058731 199.292063 
L 154.070317 199.261444 
L 154.08264 199.230826 
L 154.095233 199.200207 
L 154.107656 199.169589 
L 154.119503 199.13897 
L 154.130414 199.108351 
L 154.140078 199.077733 
L 154.148242 199.047114 
L 154.154722 199.016496 
L 154.159402 198.985877 
L 154.162243 198.955259 
L 154.163287 198.92464 
L 154.162657 198.894022 
L 154.160561 198.863403 
L 154.157291 198.832785 
L 154.153218 198.802166 
L 154.148794 198.771548 
L 154.144544 198.740929 
L 154.14106 198.710311 
L 154.138996 198.679692 
L 154.139058 198.649074 
L 154.141993 198.618455 
L 154.148582 198.587837 
L 154.159627 198.557218 
L 154.175942 198.526599 
L 154.198336 198.495981 
L 154.227608 198.465362 
L 154.26453 198.434744 
L 154.309839 198.404125 
L 154.364226 198.373507 
L 154.428323 198.342888 
L 154.502698 198.31227 
L 154.587845 198.281651 
L 154.684174 198.251033 
L 154.792012 198.220414 
L 154.911591 198.189796 
L 155.043049 198.159177 
L 155.186427 198.128559 
L 155.341668 198.09794 
L 155.508617 198.067322 
L 155.687022 198.036703 
L 155.876539 198.006085 
L 156.076734 197.975466 
L 156.287088 197.944848 
L 156.507001 197.914229 
L 156.735801 197.88361 
L 156.972748 197.852992 
L 157.217044 197.822373 
L 157.467838 197.791755 
L 157.724234 197.761136 
L 157.985301 197.730518 
L 158.250081 197.699899 
L 158.517597 197.669281 
L 158.786857 197.638662 
L 159.056872 197.608044 
L 159.326655 197.577425 
L 159.595234 197.546807 
L 159.861658 197.516188 
L 160.125005 197.48557 
L 169.082438 197.48557 
L 169.082438 197.48557 
L 169.345785 197.516188 
L 169.612209 197.546807 
L 169.880788 197.577425 
L 170.150571 197.608044 
L 170.420586 197.638662 
L 170.689847 197.669281 
L 170.957362 197.699899 
L 171.222142 197.730518 
L 171.48321 197.761136 
L 171.739606 197.791755 
L 171.990399 197.822373 
L 172.234695 197.852992 
L 172.471643 197.88361 
L 172.700443 197.914229 
L 172.920356 197.944848 
L 173.130709 197.975466 
L 173.330904 198.006085 
L 173.520421 198.036703 
L 173.698826 198.067322 
L 173.865775 198.09794 
L 174.021016 198.128559 
L 174.164394 198.159177 
L 174.295853 198.189796 
L 174.415432 198.220414 
L 174.523269 198.251033 
L 174.619599 198.281651 
L 174.704745 198.31227 
L 174.77912 198.342888 
L 174.843218 198.373507 
L 174.897604 198.404125 
L 174.942914 198.434744 
L 174.979836 198.465362 
L 175.009107 198.495981 
L 175.031502 198.526599 
L 175.047816 198.557218 
L 175.058862 198.587837 
L 175.065451 198.618455 
L 175.068386 198.649074 
L 175.068447 198.679692 
L 175.066383 198.710311 
L 175.062899 198.740929 
L 175.058649 198.771548 
L 175.054225 198.802166 
L 175.050152 198.832785 
L 175.046882 198.863403 
L 175.044787 198.894022 
L 175.044157 198.92464 
L 175.045201 198.955259 
L 175.048042 198.985877 
L 175.052721 199.016496 
L 175.059201 199.047114 
L 175.067366 199.077733 
L 175.077029 199.108351 
L 175.08794 199.13897 
L 175.099788 199.169589 
L 175.11221 199.200207 
L 175.124803 199.230826 
L 175.137126 199.261444 
L 175.148712 199.292063 
L 175.159075 199.322681 
L 175.167717 199.3533 
L 175.174138 199.383918 
L 175.17784 199.414537 
L 175.178332 199.445155 
L 175.175141 199.475774 
L 175.167807 199.506392 
L 175.155894 199.537011 
L 175.138987 199.567629 
L 175.116696 199.598248 
L 175.088652 199.628866 
L 175.054512 199.659485 
L 175.013949 199.690103 
L 174.966658 199.720722 
L 174.912348 199.751341 
L 174.85074 199.781959 
L 174.781564 199.812578 
L 174.704557 199.843196 
L 174.619463 199.873815 
L 174.526025 199.904433 
L 174.423994 199.935052 
L 174.31312 199.96567 
L 174.193165 199.996289 
L 174.063896 200.026907 
L 173.925101 200.057526 
L 173.776587 200.088144 
L 173.618191 200.118763 
L 173.449792 200.149381 
L 173.271317 200.18 
L 173.082753 200.210618 
L 172.884155 200.241237 
L 172.675661 200.271855 
L 172.457497 200.302474 
L 172.229984 200.333093 
L 171.993549 200.363711 
L 171.748724 200.39433 
L 171.496151 200.424948 
L 171.236581 200.455567 
L 170.970865 200.486185 
L 170.699957 200.516804 
z
" clip-path="url(#pf0a5d9c52c)" style="fill: #a52a2a; fill-opacity: 0.3"/>
   </g>
   <g id="PathCollection_3">
    <defs>
     <path id="mb87c8959a4" d="M 0 3 
C 0.795609 3 1.55874 2.683901 2.12132 2.12132 
C 2.683901 1.55874 3 0.795609 3 0 
C 3 -0.795609 2.683901 -1.55874 2.12132 -2.12132 
C 1.55874 -2.683901 0.795609 -3 0 -3 
C -0.795609 -3 -1.55874 -2.683901 -2.12132 -2.12132 
C -2.683901 -1.55874 -3 -0.795609 -3 0 
C -3 0.795609 -2.683901 1.55874 -2.12132 2.12132 
C -1.55874 2.683901 -0.795609 3 0 3 
z
" style="stroke: #a52a2a"/>
    </defs>
    <g clip-path="url(#pf0a5d9c52c)">
     <use xlink:href="#mb87c8959a4" x="164.603722" y="199.08222" style="fill: #a52a2a; stroke: #a52a2a"/>
    </g>
   </g>
   <g id="PolyCollection_4">
    <path d="M 208.681259 191.729226 
L 205.123068 191.729226 
L 204.980957 191.709764 
L 204.831347 191.690301 
L 204.673954 191.670839 
L 204.508511 191.651376 
L 204.334781 191.631914 
L 204.152572 191.612451 
L 203.961744 191.592989 
L 203.762228 191.573526 
L 203.554031 191.554064 
L 203.33725 191.534601 
L 203.112078 191.515139 
L 202.878813 191.495677 
L 202.637861 191.476214 
L 202.389741 191.456752 
L 202.135083 191.437289 
L 201.874634 191.417827 
L 201.609249 191.398364 
L 201.339887 191.378902 
L 201.067607 191.359439 
L 200.79355 191.339977 
L 200.518929 191.320514 
L 200.245007 191.301052 
L 199.973081 191.281589 
L 199.704454 191.262127 
L 199.440409 191.242664 
L 199.182188 191.223202 
L 198.930957 191.203739 
L 198.687791 191.184277 
L 198.453647 191.164815 
L 198.229355 191.145352 
L 198.015606 191.12589 
L 197.812955 191.106427 
L 197.621829 191.086965 
L 197.442547 191.067502 
L 197.275346 191.04804 
L 197.120414 191.028577 
L 196.977929 191.009115 
L 196.848102 190.989652 
L 196.731217 190.97019 
L 196.627668 190.950727 
L 196.537991 190.931265 
L 196.46288 190.911802 
L 196.403197 190.89234 
L 196.359962 190.872878 
L 196.33433 190.853415 
L 196.327553 190.833953 
L 196.340922 190.81449 
L 196.375704 190.795028 
L 196.433064 190.775565 
L 196.513984 190.756103 
L 196.619183 190.73664 
L 196.74904 190.717178 
L 196.903524 190.697715 
L 197.082144 190.678253 
L 197.283913 190.65879 
L 197.50733 190.639328 
L 197.750393 190.619865 
L 198.010631 190.600403 
L 198.285157 190.58094 
L 198.570749 190.561478 
L 198.86394 190.542016 
L 199.161132 190.522553 
L 199.458711 190.503091 
L 199.753168 190.483628 
L 200.041215 190.464166 
L 200.319899 190.444703 
L 200.586692 190.425241 
L 200.839572 190.405778 
L 201.077075 190.386316 
L 201.298325 190.366853 
L 201.503038 190.347391 
L 201.691504 190.327928 
L 201.864535 190.308466 
L 202.023401 190.289003 
L 202.169749 190.269541 
L 202.3055 190.250079 
L 202.432753 190.230616 
L 202.553673 190.211154 
L 202.670392 190.191691 
L 202.784918 190.172229 
L 202.899053 190.152766 
L 203.01433 190.133304 
L 203.131968 190.113841 
L 203.252845 190.094379 
L 203.377495 190.074916 
L 203.506116 190.055454 
L 203.638599 190.035991 
L 203.774566 190.016529 
L 203.913423 189.997066 
L 204.054408 189.977604 
L 204.196652 189.958141 
L 204.339234 189.938679 
L 204.481223 189.919217 
L 204.621731 189.899754 
L 204.759939 189.880292 
L 204.895124 189.860829 
L 205.026675 189.841367 
L 205.154097 189.821904 
L 205.277011 189.802442 
L 208.527316 189.802442 
L 208.527316 189.802442 
L 208.650231 189.821904 
L 208.777653 189.841367 
L 208.909203 189.860829 
L 209.044388 189.880292 
L 209.182596 189.899754 
L 209.323104 189.919217 
L 209.465094 189.938679 
L 209.607675 189.958141 
L 209.749919 189.977604 
L 209.890904 189.997066 
L 210.029761 190.016529 
L 210.165729 190.035991 
L 210.298211 190.055454 
L 210.426832 190.074916 
L 210.551482 190.094379 
L 210.67236 190.113841 
L 210.789997 190.133304 
L 210.905274 190.152766 
L 211.019409 190.172229 
L 211.133935 190.191691 
L 211.250655 190.211154 
L 211.371574 190.230616 
L 211.498827 190.250079 
L 211.634579 190.269541 
L 211.780926 190.289003 
L 211.939793 190.308466 
L 212.112823 190.327928 
L 212.301289 190.347391 
L 212.506003 190.366853 
L 212.727252 190.386316 
L 212.964755 190.405778 
L 213.217635 190.425241 
L 213.484428 190.444703 
L 213.763112 190.464166 
L 214.05116 190.483628 
L 214.345616 190.503091 
L 214.643195 190.522553 
L 214.940388 190.542016 
L 215.233579 190.561478 
L 215.51917 190.58094 
L 215.793696 190.600403 
L 216.053934 190.619865 
L 216.296997 190.639328 
L 216.520414 190.65879 
L 216.722183 190.678253 
L 216.900803 190.697715 
L 217.055288 190.717178 
L 217.185144 190.73664 
L 217.290343 190.756103 
L 217.371263 190.775565 
L 217.428623 190.795028 
L 217.463405 190.81449 
L 217.476774 190.833953 
L 217.469997 190.853415 
L 217.444365 190.872878 
L 217.40113 190.89234 
L 217.341447 190.911802 
L 217.266336 190.931265 
L 217.176659 190.950727 
L 217.073111 190.97019 
L 216.956226 190.989652 
L 216.826399 191.009115 
L 216.683913 191.028577 
L 216.528981 191.04804 
L 216.36178 191.067502 
L 216.182498 191.086965 
L 215.991373 191.106427 
L 215.788722 191.12589 
L 215.574973 191.145352 
L 215.35068 191.164815 
L 215.116537 191.184277 
L 214.87337 191.203739 
L 214.62214 191.223202 
L 214.363918 191.242664 
L 214.099874 191.262127 
L 213.831246 191.281589 
L 213.55932 191.301052 
L 213.285399 191.320514 
L 213.010777 191.339977 
L 212.73672 191.359439 
L 212.46444 191.378902 
L 212.195079 191.398364 
L 211.929693 191.417827 
L 211.669244 191.437289 
L 211.414587 191.456752 
L 211.166466 191.476214 
L 210.925514 191.495677 
L 210.692249 191.515139 
L 210.467078 191.534601 
L 210.250297 191.554064 
L 210.0421 191.573526 
L 209.842583 191.592989 
L 209.651756 191.612451 
L 209.469546 191.631914 
L 209.295817 191.651376 
L 209.130374 191.670839 
L 208.97298 191.690301 
L 208.82337 191.709764 
L 208.681259 191.729226 
z
" clip-path="url(#pf0a5d9c52c)" style="fill: #008000; fill-opacity: 0.3"/>
   </g>
   <g id="PathCollection_4">
    <defs>
     <path id="m2fff5af578" d="M 0 3 
C 0.795609 3 1.55874 2.683901 2.12132 2.12132 
C 2.683901 1.55874 3 0.795609 3 0 
C 3 -0.795609 2.683901 -1.55874 2.12132 -2.12132 
C 1.55874 -2.683901 0.795609 -3 0 -3 
C -0.795609 -3 -1.55874 -2.683901 -2.12132 -2.12132 
C -2.683901 -1.55874 -3 -0.795609 -3 0 
C -3 0.795609 -2.683901 1.55874 -2.12132 2.12132 
C -1.55874 2.683901 -0.795609 3 0 3 
z
" style="stroke: #008000"/>
    </defs>
    <g clip-path="url(#pf0a5d9c52c)">
     <use xlink:href="#m2fff5af578" x="206.902164" y="190.813853" style="fill: #008000; stroke: #008000"/>
    </g>
   </g>
   <g id="matplotlib.axis_1">
    <g id="xtick_1">
     <g id="line2d_1">
      <defs>
       <path id="m474dbbf2c4" d="M 0 0 
L 0 3.5 
" style="stroke: #000000; stroke-width: 0.8"/>
      </defs>
      <g>
       <use xlink:href="#m474dbbf2c4" x="80.006838" y="242.946877" style="stroke: #000000; stroke-width: 0.8"/>
      </g>
     </g>
     <g id="text_1">
      <!-- Untrained -->
      <g style="fill: #d2691e" transform="translate(58.33171 301.249173) rotate(-50) scale(0.12 -0.12)">
       <defs>
        <path id="DejaVuSans-55" d="M 556 4666 
L 1191 4666 
L 1191 1831 
Q 1191 1081 1462 751 
Q 1734 422 2344 422 
Q 2950 422 3222 751 
Q 3494 1081 3494 1831 
L 3494 4666 
L 4128 4666 
L 4128 1753 
Q 4128 841 3676 375 
Q 3225 -91 2344 -91 
Q 1459 -91 1007 375 
Q 556 841 556 1753 
L 556 4666 
z
" transform="scale(0.015625)"/>
        <path id="DejaVuSans-6e" d="M 3513 2113 
L 3513 0 
L 2938 0 
L 2938 2094 
Q 2938 2591 2744 2837 
Q 2550 3084 2163 3084 
Q 1697 3084 1428 2787 
Q 1159 2491 1159 1978 
L 1159 0 
L 581 0 
L 581 3500 
L 1159 3500 
L 1159 2956 
Q 1366 3272 1645 3428 
Q 1925 3584 2291 3584 
Q 2894 3584 3203 3211 
Q 3513 2838 3513 2113 
z
" transform="scale(0.015625)"/>
        <path id="DejaVuSans-74" d="M 1172 4494 
L 1172 3500 
L 2356 3500 
L 2356 3053 
L 1172 3053 
L 1172 1153 
Q 1172 725 1289 603 
Q 1406 481 1766 481 
L 2356 481 
L 2356 0 
L 1766 0 
Q 1100 0 847 248 
Q 594 497 594 1153 
L 594 3053 
L 172 3053 
L 172 3500 
L 594 3500 
L 594 4494 
L 1172 4494 
z
" transform="scale(0.015625)"/>
        <path id="DejaVuSans-72" d="M 2631 2963 
Q 2534 3019 2420 3045 
Q 2306 3072 2169 3072 
Q 1681 3072 1420 2755 
Q 1159 2438 1159 1844 
L 1159 0 
L 581 0 
L 581 3500 
L 1159 3500 
L 1159 2956 
Q 1341 3275 1631 3429 
Q 1922 3584 2338 3584 
Q 2397 3584 2469 3576 
Q 2541 3569 2628 3553 
L 2631 2963 
z
" transform="scale(0.015625)"/>
        <path id="DejaVuSans-61" d="M 2194 1759 
Q 1497 1759 1228 1600 
Q 959 1441 959 1056 
Q 959 750 1161 570 
Q 1363 391 1709 391 
Q 2188 391 2477 730 
Q 2766 1069 2766 1631 
L 2766 1759 
L 2194 1759 
z
M 3341 1997 
L 3341 0 
L 2766 0 
L 2766 531 
Q 2569 213 2275 61 
Q 1981 -91 1556 -91 
Q 1019 -91 701 211 
Q 384 513 384 1019 
Q 384 1609 779 1909 
Q 1175 2209 1959 2209 
L 2766 2209 
L 2766 2266 
Q 2766 2663 2505 2880 
Q 2244 3097 1772 3097 
Q 1472 3097 1187 3025 
Q 903 2953 641 2809 
L 641 3341 
Q 956 3463 1253 3523 
Q 1550 3584 1831 3584 
Q 2591 3584 2966 3190 
Q 3341 2797 3341 1997 
z
" transform="scale(0.015625)"/>
        <path id="DejaVuSans-69" d="M 603 3500 
L 1178 3500 
L 1178 0 
L 603 0 
L 603 3500 
z
M 603 4863 
L 1178 4863 
L 1178 4134 
L 603 4134 
L 603 4863 
z
" transform="scale(0.015625)"/>
        <path id="DejaVuSans-65" d="M 3597 1894 
L 3597 1613 
L 953 1613 
Q 991 1019 1311 708 
Q 1631 397 2203 397 
Q 2534 397 2845 478 
Q 3156 559 3463 722 
L 3463 178 
Q 3153 47 2828 -22 
Q 2503 -91 2169 -91 
Q 1331 -91 842 396 
Q 353 884 353 1716 
Q 353 2575 817 3079 
Q 1281 3584 2069 3584 
Q 2775 3584 3186 3129 
Q 3597 2675 3597 1894 
z
M 3022 2063 
Q 3016 2534 2758 2815 
Q 2500 3097 2075 3097 
Q 1594 3097 1305 2825 
Q 1016 2553 972 2059 
L 3022 2063 
z
" transform="scale(0.015625)"/>
        <path id="DejaVuSans-64" d="M 2906 2969 
L 2906 4863 
L 3481 4863 
L 3481 0 
L 2906 0 
L 2906 525 
Q 2725 213 2448 61 
Q 2172 -91 1784 -91 
Q 1150 -91 751 415 
Q 353 922 353 1747 
Q 353 2572 751 3078 
Q 1150 3584 1784 3584 
Q 2172 3584 2448 3432 
Q 2725 3281 2906 2969 
z
M 947 1747 
Q 947 1113 1208 752 
Q 1469 391 1925 391 
Q 2381 391 2643 752 
Q 2906 1113 2906 1747 
Q 2906 2381 2643 2742 
Q 2381 3103 1925 3103 
Q 1469 3103 1208 2742 
Q 947 2381 947 1747 
z
" transform="scale(0.015625)"/>
       </defs>
       <use xlink:href="#DejaVuSans-55"/>
       <use xlink:href="#DejaVuSans-6e" x="73.193359"/>
       <use xlink:href="#DejaVuSans-74" x="136.572266"/>
       <use xlink:href="#DejaVuSans-72" x="175.78125"/>
       <use xlink:href="#DejaVuSans-61" x="216.894531"/>
       <use xlink:href="#DejaVuSans-69" x="278.173828"/>
       <use xlink:href="#DejaVuSans-6e" x="305.957031"/>
       <use xlink:href="#DejaVuSans-65" x="369.335938"/>
       <use xlink:href="#DejaVuSans-64" x="430.859375"/>
      </g>
      <!-- model -->
      <g style="fill: #d2691e" transform="translate(75.680734 301.478256) rotate(-50) scale(0.12 -0.12)">
       <defs>
        <path id="DejaVuSans-6d" d="M 3328 2828 
Q 3544 3216 3844 3400 
Q 4144 3584 4550 3584 
Q 5097 3584 5394 3201 
Q 5691 2819 5691 2113 
L 5691 0 
L 5113 0 
L 5113 2094 
Q 5113 2597 4934 2840 
Q 4756 3084 4391 3084 
Q 3944 3084 3684 2787 
Q 3425 2491 3425 1978 
L 3425 0 
L 2847 0 
L 2847 2094 
Q 2847 2600 2669 2842 
Q 2491 3084 2119 3084 
Q 1678 3084 1418 2786 
Q 1159 2488 1159 1978 
L 1159 0 
L 581 0 
L 581 3500 
L 1159 3500 
L 1159 2956 
Q 1356 3278 1631 3431 
Q 1906 3584 2284 3584 
Q 2666 3584 2933 3390 
Q 3200 3197 3328 2828 
z
" transform="scale(0.015625)"/>
        <path id="DejaVuSans-6f" d="M 1959 3097 
Q 1497 3097 1228 2736 
Q 959 2375 959 1747 
Q 959 1119 1226 758 
Q 1494 397 1959 397 
Q 2419 397 2687 759 
Q 2956 1122 2956 1747 
Q 2956 2369 2687 2733 
Q 2419 3097 1959 3097 
z
M 1959 3584 
Q 2709 3584 3137 3096 
Q 3566 2609 3566 1747 
Q 3566 888 3137 398 
Q 2709 -91 1959 -91 
Q 1206 -91 779 398 
Q 353 888 353 1747 
Q 353 2609 779 3096 
Q 1206 3584 1959 3584 
z
" transform="scale(0.015625)"/>
        <path id="DejaVuSans-6c" d="M 603 4863 
L 1178 4863 
L 1178 0 
L 603 0 
L 603 4863 
z
" transform="scale(0.015625)"/>
       </defs>
       <use xlink:href="#DejaVuSans-6d"/>
       <use xlink:href="#DejaVuSans-6f" x="97.412109"/>
       <use xlink:href="#DejaVuSans-64" x="158.59375"/>
       <use xlink:href="#DejaVuSans-65" x="222.070312"/>
       <use xlink:href="#DejaVuSans-6c" x="283.59375"/>
      </g>
     </g>
    </g>
    <g id="xtick_2">
     <g id="line2d_2">
      <g>
       <use xlink:href="#m474dbbf2c4" x="122.30528" y="242.946877" style="stroke: #000000; stroke-width: 0.8"/>
      </g>
     </g>
     <g id="text_2">
      <!-- Masked -->
      <g style="fill: #1f77b4" transform="translate(105.079849 294.973832) rotate(-50) scale(0.12 -0.12)">
       <defs>
        <path id="DejaVuSans-4d" d="M 628 4666 
L 1569 4666 
L 2759 1491 
L 3956 4666 
L 4897 4666 
L 4897 0 
L 4281 0 
L 4281 4097 
L 3078 897 
L 2444 897 
L 1241 4097 
L 1241 0 
L 628 0 
L 628 4666 
z
" transform="scale(0.015625)"/>
        <path id="DejaVuSans-73" d="M 2834 3397 
L 2834 2853 
Q 2591 2978 2328 3040 
Q 2066 3103 1784 3103 
Q 1356 3103 1142 2972 
Q 928 2841 928 2578 
Q 928 2378 1081 2264 
Q 1234 2150 1697 2047 
L 1894 2003 
Q 2506 1872 2764 1633 
Q 3022 1394 3022 966 
Q 3022 478 2636 193 
Q 2250 -91 1575 -91 
Q 1294 -91 989 -36 
Q 684 19 347 128 
L 347 722 
Q 666 556 975 473 
Q 1284 391 1588 391 
Q 1994 391 2212 530 
Q 2431 669 2431 922 
Q 2431 1156 2273 1281 
Q 2116 1406 1581 1522 
L 1381 1569 
Q 847 1681 609 1914 
Q 372 2147 372 2553 
Q 372 3047 722 3315 
Q 1072 3584 1716 3584 
Q 2034 3584 2315 3537 
Q 2597 3491 2834 3397 
z
" transform="scale(0.015625)"/>
        <path id="DejaVuSans-6b" d="M 581 4863 
L 1159 4863 
L 1159 1991 
L 2875 3500 
L 3609 3500 
L 1753 1863 
L 3688 0 
L 2938 0 
L 1159 1709 
L 1159 0 
L 581 0 
L 581 4863 
z
" transform="scale(0.015625)"/>
       </defs>
       <use xlink:href="#DejaVuSans-4d"/>
       <use xlink:href="#DejaVuSans-61" x="86.279297"/>
       <use xlink:href="#DejaVuSans-73" x="147.558594"/>
       <use xlink:href="#DejaVuSans-6b" x="199.658203"/>
       <use xlink:href="#DejaVuSans-65" x="253.943359"/>
       <use xlink:href="#DejaVuSans-64" x="315.466797"/>
      </g>
      <!-- raw input -->
      <g style="fill: #1f77b4" transform="translate(111.739717 307.941756) rotate(-50) scale(0.12 -0.12)">
       <defs>
        <path id="DejaVuSans-77" d="M 269 3500 
L 844 3500 
L 1563 769 
L 2278 3500 
L 2956 3500 
L 3675 769 
L 4391 3500 
L 4966 3500 
L 4050 0 
L 3372 0 
L 2619 2869 
L 1863 0 
L 1184 0 
L 269 3500 
z
" transform="scale(0.015625)"/>
        <path id="DejaVuSans-20" transform="scale(0.015625)"/>
        <path id="DejaVuSans-70" d="M 1159 525 
L 1159 -1331 
L 581 -1331 
L 581 3500 
L 1159 3500 
L 1159 2969 
Q 1341 3281 1617 3432 
Q 1894 3584 2278 3584 
Q 2916 3584 3314 3078 
Q 3713 2572 3713 1747 
Q 3713 922 3314 415 
Q 2916 -91 2278 -91 
Q 1894 -91 1617 61 
Q 1341 213 1159 525 
z
M 3116 1747 
Q 3116 2381 2855 2742 
Q 2594 3103 2138 3103 
Q 1681 3103 1420 2742 
Q 1159 2381 1159 1747 
Q 1159 1113 1420 752 
Q 1681 391 2138 391 
Q 2594 391 2855 752 
Q 3116 1113 3116 1747 
z
" transform="scale(0.015625)"/>
        <path id="DejaVuSans-75" d="M 544 1381 
L 544 3500 
L 1119 3500 
L 1119 1403 
Q 1119 906 1312 657 
Q 1506 409 1894 409 
Q 2359 409 2629 706 
Q 2900 1003 2900 1516 
L 2900 3500 
L 3475 3500 
L 3475 0 
L 2900 0 
L 2900 538 
Q 2691 219 2414 64 
Q 2138 -91 1772 -91 
Q 1169 -91 856 284 
Q 544 659 544 1381 
z
M 1991 3584 
L 1991 3584 
z
" transform="scale(0.015625)"/>
       </defs>
       <use xlink:href="#DejaVuSans-72"/>
       <use xlink:href="#DejaVuSans-61" x="41.113281"/>
       <use xlink:href="#DejaVuSans-77" x="102.392578"/>
       <use xlink:href="#DejaVuSans-20" x="184.179688"/>
       <use xlink:href="#DejaVuSans-69" x="215.966797"/>
       <use xlink:href="#DejaVuSans-6e" x="243.75"/>
       <use xlink:href="#DejaVuSans-70" x="307.128906"/>
       <use xlink:href="#DejaVuSans-75" x="370.605469"/>
       <use xlink:href="#DejaVuSans-74" x="433.984375"/>
      </g>
     </g>
    </g>
    <g id="xtick_3">
     <g id="line2d_3">
      <g>
       <use xlink:href="#m474dbbf2c4" x="164.603722" y="242.946877" style="stroke: #000000; stroke-width: 0.8"/>
      </g>
     </g>
     <g id="text_3">
      <!-- LPL -->
      <g style="fill: #a52a2a" transform="translate(160.516963 271.594635) rotate(-50) scale(0.12 -0.12)">
       <defs>
        <path id="DejaVuSans-4c" d="M 628 4666 
L 1259 4666 
L 1259 531 
L 3531 531 
L 3531 0 
L 628 0 
L 628 4666 
z
" transform="scale(0.015625)"/>
        <path id="DejaVuSans-50" d="M 1259 4147 
L 1259 2394 
L 2053 2394 
Q 2494 2394 2734 2622 
Q 2975 2850 2975 3272 
Q 2975 3691 2734 3919 
Q 2494 4147 2053 4147 
L 1259 4147 
z
M 628 4666 
L 2053 4666 
Q 2838 4666 3239 4311 
Q 3641 3956 3641 3272 
Q 3641 2581 3239 2228 
Q 2838 1875 2053 1875 
L 1259 1875 
L 1259 0 
L 628 0 
L 628 4666 
z
" transform="scale(0.015625)"/>
       </defs>
       <use xlink:href="#DejaVuSans-4c"/>
       <use xlink:href="#DejaVuSans-50" x="55.712891"/>
       <use xlink:href="#DejaVuSans-4c" x="116.015625"/>
      </g>
     </g>
    </g>
    <g id="xtick_4">
     <g id="line2d_4">
      <g>
       <use xlink:href="#m474dbbf2c4" x="206.902164" y="242.946877" style="stroke: #000000; stroke-width: 0.8"/>
      </g>
     </g>
     <g id="text_4">
      <!-- TCLoSeR -->
      <g style="fill: #008000" transform="translate(192.674024 295.766688) rotate(-50) scale(0.12 -0.12)">
       <defs>
        <path id="DejaVuSans-54" d="M -19 4666 
L 3928 4666 
L 3928 4134 
L 2272 4134 
L 2272 0 
L 1638 0 
L 1638 4134 
L -19 4134 
L -19 4666 
z
" transform="scale(0.015625)"/>
        <path id="DejaVuSans-43" d="M 4122 4306 
L 4122 3641 
Q 3803 3938 3442 4084 
Q 3081 4231 2675 4231 
Q 1875 4231 1450 3742 
Q 1025 3253 1025 2328 
Q 1025 1406 1450 917 
Q 1875 428 2675 428 
Q 3081 428 3442 575 
Q 3803 722 4122 1019 
L 4122 359 
Q 3791 134 3420 21 
Q 3050 -91 2638 -91 
Q 1578 -91 968 557 
Q 359 1206 359 2328 
Q 359 3453 968 4101 
Q 1578 4750 2638 4750 
Q 3056 4750 3426 4639 
Q 3797 4528 4122 4306 
z
" transform="scale(0.015625)"/>
        <path id="DejaVuSans-53" d="M 3425 4513 
L 3425 3897 
Q 3066 4069 2747 4153 
Q 2428 4238 2131 4238 
Q 1616 4238 1336 4038 
Q 1056 3838 1056 3469 
Q 1056 3159 1242 3001 
Q 1428 2844 1947 2747 
L 2328 2669 
Q 3034 2534 3370 2195 
Q 3706 1856 3706 1288 
Q 3706 609 3251 259 
Q 2797 -91 1919 -91 
Q 1588 -91 1214 -16 
Q 841 59 441 206 
L 441 856 
Q 825 641 1194 531 
Q 1563 422 1919 422 
Q 2459 422 2753 634 
Q 3047 847 3047 1241 
Q 3047 1584 2836 1778 
Q 2625 1972 2144 2069 
L 1759 2144 
Q 1053 2284 737 2584 
Q 422 2884 422 3419 
Q 422 4038 858 4394 
Q 1294 4750 2059 4750 
Q 2388 4750 2728 4690 
Q 3069 4631 3425 4513 
z
" transform="scale(0.015625)"/>
        <path id="DejaVuSans-52" d="M 2841 2188 
Q 3044 2119 3236 1894 
Q 3428 1669 3622 1275 
L 4263 0 
L 3584 0 
L 2988 1197 
Q 2756 1666 2539 1819 
Q 2322 1972 1947 1972 
L 1259 1972 
L 1259 0 
L 628 0 
L 628 4666 
L 2053 4666 
Q 2853 4666 3247 4331 
Q 3641 3997 3641 3322 
Q 3641 2881 3436 2590 
Q 3231 2300 2841 2188 
z
M 1259 4147 
L 1259 2491 
L 2053 2491 
Q 2509 2491 2742 2702 
Q 2975 2913 2975 3322 
Q 2975 3731 2742 3939 
Q 2509 4147 2053 4147 
L 1259 4147 
z
" transform="scale(0.015625)"/>
       </defs>
       <use xlink:href="#DejaVuSans-54"/>
       <use xlink:href="#DejaVuSans-43" x="55.208984"/>
       <use xlink:href="#DejaVuSans-4c" x="125.033203"/>
       <use xlink:href="#DejaVuSans-6f" x="178.996094"/>
       <use xlink:href="#DejaVuSans-53" x="240.177734"/>
       <use xlink:href="#DejaVuSans-65" x="303.654297"/>
       <use xlink:href="#DejaVuSans-52" x="365.177734"/>
      </g>
     </g>
    </g>
   </g>
   <g id="matplotlib.axis_2">
    <g id="ytick_1">
     <g id="line2d_5">
      <defs>
       <path id="m957a96a290" d="M 0 0 
L -3.5 0 
" style="stroke: #000000; stroke-width: 0.8"/>
      </defs>
      <g>
       <use xlink:href="#m957a96a290" x="62.03" y="204.115869" style="stroke: #000000; stroke-width: 0.8"/>
      </g>
     </g>
     <g id="text_5">
      <!-- 0.72 -->
      <g transform="translate(28.31125 208.674931) scale(0.12 -0.12)">
       <defs>
        <path id="DejaVuSans-30" d="M 2034 4250 
Q 1547 4250 1301 3770 
Q 1056 3291 1056 2328 
Q 1056 1369 1301 889 
Q 1547 409 2034 409 
Q 2525 409 2770 889 
Q 3016 1369 3016 2328 
Q 3016 3291 2770 3770 
Q 2525 4250 2034 4250 
z
M 2034 4750 
Q 2819 4750 3233 4129 
Q 3647 3509 3647 2328 
Q 3647 1150 3233 529 
Q 2819 -91 2034 -91 
Q 1250 -91 836 529 
Q 422 1150 422 2328 
Q 422 3509 836 4129 
Q 1250 4750 2034 4750 
z
" transform="scale(0.015625)"/>
        <path id="DejaVuSans-2e" d="M 684 794 
L 1344 794 
L 1344 0 
L 684 0 
L 684 794 
z
" transform="scale(0.015625)"/>
        <path id="DejaVuSans-37" d="M 525 4666 
L 3525 4666 
L 3525 4397 
L 1831 0 
L 1172 0 
L 2766 4134 
L 525 4134 
L 525 4666 
z
" transform="scale(0.015625)"/>
        <path id="DejaVuSans-32" d="M 1228 531 
L 3431 531 
L 3431 0 
L 469 0 
L 469 531 
Q 828 903 1448 1529 
Q 2069 2156 2228 2338 
Q 2531 2678 2651 2914 
Q 2772 3150 2772 3378 
Q 2772 3750 2511 3984 
Q 2250 4219 1831 4219 
Q 1534 4219 1204 4116 
Q 875 4013 500 3803 
L 500 4441 
Q 881 4594 1212 4672 
Q 1544 4750 1819 4750 
Q 2544 4750 2975 4387 
Q 3406 4025 3406 3419 
Q 3406 3131 3298 2873 
Q 3191 2616 2906 2266 
Q 2828 2175 2409 1742 
Q 1991 1309 1228 531 
z
" transform="scale(0.015625)"/>
       </defs>
       <use xlink:href="#DejaVuSans-30"/>
       <use xlink:href="#DejaVuSans-2e" x="63.623047"/>
       <use xlink:href="#DejaVuSans-37" x="95.410156"/>
       <use xlink:href="#DejaVuSans-32" x="159.033203"/>
      </g>
     </g>
    </g>
    <g id="ytick_2">
     <g id="line2d_6">
      <g>
       <use xlink:href="#m957a96a290" x="62.03" y="152.341191" style="stroke: #000000; stroke-width: 0.8"/>
      </g>
     </g>
     <g id="text_6">
      <!-- 0.80 -->
      <g transform="translate(28.31125 156.900253) scale(0.12 -0.12)">
       <defs>
        <path id="DejaVuSans-38" d="M 2034 2216 
Q 1584 2216 1326 1975 
Q 1069 1734 1069 1313 
Q 1069 891 1326 650 
Q 1584 409 2034 409 
Q 2484 409 2743 651 
Q 3003 894 3003 1313 
Q 3003 1734 2745 1975 
Q 2488 2216 2034 2216 
z
M 1403 2484 
Q 997 2584 770 2862 
Q 544 3141 544 3541 
Q 544 4100 942 4425 
Q 1341 4750 2034 4750 
Q 2731 4750 3128 4425 
Q 3525 4100 3525 3541 
Q 3525 3141 3298 2862 
Q 3072 2584 2669 2484 
Q 3125 2378 3379 2068 
Q 3634 1759 3634 1313 
Q 3634 634 3220 271 
Q 2806 -91 2034 -91 
Q 1263 -91 848 271 
Q 434 634 434 1313 
Q 434 1759 690 2068 
Q 947 2378 1403 2484 
z
M 1172 3481 
Q 1172 3119 1398 2916 
Q 1625 2713 2034 2713 
Q 2441 2713 2670 2916 
Q 2900 3119 2900 3481 
Q 2900 3844 2670 4047 
Q 2441 4250 2034 4250 
Q 1625 4250 1398 4047 
Q 1172 3844 1172 3481 
z
" transform="scale(0.015625)"/>
       </defs>
       <use xlink:href="#DejaVuSans-30"/>
       <use xlink:href="#DejaVuSans-2e" x="63.623047"/>
       <use xlink:href="#DejaVuSans-38" x="95.410156"/>
       <use xlink:href="#DejaVuSans-30" x="159.033203"/>
      </g>
     </g>
    </g>
    <g id="ytick_3">
     <g id="line2d_7">
      <g>
       <use xlink:href="#m957a96a290" x="62.03" y="100.566513" style="stroke: #000000; stroke-width: 0.8"/>
      </g>
     </g>
     <g id="text_7">
      <!-- 0.88 -->
      <g transform="translate(28.31125 105.125575) scale(0.12 -0.12)">
       <use xlink:href="#DejaVuSans-30"/>
       <use xlink:href="#DejaVuSans-2e" x="63.623047"/>
       <use xlink:href="#DejaVuSans-38" x="95.410156"/>
       <use xlink:href="#DejaVuSans-38" x="159.033203"/>
      </g>
     </g>
    </g>
    <g id="ytick_4">
     <g id="line2d_8">
      <g>
       <use xlink:href="#m957a96a290" x="62.03" y="48.791835" style="stroke: #000000; stroke-width: 0.8"/>
      </g>
     </g>
     <g id="text_8">
      <!-- 0.96 -->
      <g transform="translate(28.31125 53.350897) scale(0.12 -0.12)">
       <defs>
        <path id="DejaVuSans-39" d="M 703 97 
L 703 672 
Q 941 559 1184 500 
Q 1428 441 1663 441 
Q 2288 441 2617 861 
Q 2947 1281 2994 2138 
Q 2813 1869 2534 1725 
Q 2256 1581 1919 1581 
Q 1219 1581 811 2004 
Q 403 2428 403 3163 
Q 403 3881 828 4315 
Q 1253 4750 1959 4750 
Q 2769 4750 3195 4129 
Q 3622 3509 3622 2328 
Q 3622 1225 3098 567 
Q 2575 -91 1691 -91 
Q 1453 -91 1209 -44 
Q 966 3 703 97 
z
M 1959 2075 
Q 2384 2075 2632 2365 
Q 2881 2656 2881 3163 
Q 2881 3666 2632 3958 
Q 2384 4250 1959 4250 
Q 1534 4250 1286 3958 
Q 1038 3666 1038 3163 
Q 1038 2656 1286 2365 
Q 1534 2075 1959 2075 
z
" transform="scale(0.015625)"/>
        <path id="DejaVuSans-36" d="M 2113 2584 
Q 1688 2584 1439 2293 
Q 1191 2003 1191 1497 
Q 1191 994 1439 701 
Q 1688 409 2113 409 
Q 2538 409 2786 701 
Q 3034 994 3034 1497 
Q 3034 2003 2786 2293 
Q 2538 2584 2113 2584 
z
M 3366 4563 
L 3366 3988 
Q 3128 4100 2886 4159 
Q 2644 4219 2406 4219 
Q 1781 4219 1451 3797 
Q 1122 3375 1075 2522 
Q 1259 2794 1537 2939 
Q 1816 3084 2150 3084 
Q 2853 3084 3261 2657 
Q 3669 2231 3669 1497 
Q 3669 778 3244 343 
Q 2819 -91 2113 -91 
Q 1303 -91 875 529 
Q 447 1150 447 2328 
Q 447 3434 972 4092 
Q 1497 4750 2381 4750 
Q 2619 4750 2861 4703 
Q 3103 4656 3366 4563 
z
" transform="scale(0.015625)"/>
       </defs>
       <use xlink:href="#DejaVuSans-30"/>
       <use xlink:href="#DejaVuSans-2e" x="63.623047"/>
       <use xlink:href="#DejaVuSans-39" x="95.410156"/>
       <use xlink:href="#DejaVuSans-36" x="159.033203"/>
      </g>
     </g>
    </g>
    <g id="text_9">
     <!-- Stimulus decoding accuracy -->
     <g transform="translate(21.503672 237.711407) rotate(-90) scale(0.135 -0.135)">
      <defs>
       <path id="DejaVuSans-63" d="M 3122 3366 
L 3122 2828 
Q 2878 2963 2633 3030 
Q 2388 3097 2138 3097 
Q 1578 3097 1268 2742 
Q 959 2388 959 1747 
Q 959 1106 1268 751 
Q 1578 397 2138 397 
Q 2388 397 2633 464 
Q 2878 531 3122 666 
L 3122 134 
Q 2881 22 2623 -34 
Q 2366 -91 2075 -91 
Q 1284 -91 818 406 
Q 353 903 353 1747 
Q 353 2603 823 3093 
Q 1294 3584 2113 3584 
Q 2378 3584 2631 3529 
Q 2884 3475 3122 3366 
z
" transform="scale(0.015625)"/>
       <path id="DejaVuSans-67" d="M 2906 1791 
Q 2906 2416 2648 2759 
Q 2391 3103 1925 3103 
Q 1463 3103 1205 2759 
Q 947 2416 947 1791 
Q 947 1169 1205 825 
Q 1463 481 1925 481 
Q 2391 481 2648 825 
Q 2906 1169 2906 1791 
z
M 3481 434 
Q 3481 -459 3084 -895 
Q 2688 -1331 1869 -1331 
Q 1566 -1331 1297 -1286 
Q 1028 -1241 775 -1147 
L 775 -588 
Q 1028 -725 1275 -790 
Q 1522 -856 1778 -856 
Q 2344 -856 2625 -561 
Q 2906 -266 2906 331 
L 2906 616 
Q 2728 306 2450 153 
Q 2172 0 1784 0 
Q 1141 0 747 490 
Q 353 981 353 1791 
Q 353 2603 747 3093 
Q 1141 3584 1784 3584 
Q 2172 3584 2450 3431 
Q 2728 3278 2906 2969 
L 2906 3500 
L 3481 3500 
L 3481 434 
z
" transform="scale(0.015625)"/>
       <path id="DejaVuSans-79" d="M 2059 -325 
Q 1816 -950 1584 -1140 
Q 1353 -1331 966 -1331 
L 506 -1331 
L 506 -850 
L 844 -850 
Q 1081 -850 1212 -737 
Q 1344 -625 1503 -206 
L 1606 56 
L 191 3500 
L 800 3500 
L 1894 763 
L 2988 3500 
L 3597 3500 
L 2059 -325 
z
" transform="scale(0.015625)"/>
      </defs>
      <use xlink:href="#DejaVuSans-53"/>
      <use xlink:href="#DejaVuSans-74" x="63.476562"/>
      <use xlink:href="#DejaVuSans-69" x="102.685547"/>
      <use xlink:href="#DejaVuSans-6d" x="130.46875"/>
      <use xlink:href="#DejaVuSans-75" x="227.880859"/>
      <use xlink:href="#DejaVuSans-6c" x="291.259766"/>
      <use xlink:href="#DejaVuSans-75" x="319.042969"/>
      <use xlink:href="#DejaVuSans-73" x="382.421875"/>
      <use xlink:href="#DejaVuSans-20" x="434.521484"/>
      <use xlink:href="#DejaVuSans-64" x="466.308594"/>
      <use xlink:href="#DejaVuSans-65" x="529.785156"/>
      <use xlink:href="#DejaVuSans-63" x="591.308594"/>
      <use xlink:href="#DejaVuSans-6f" x="646.289062"/>
      <use xlink:href="#DejaVuSans-64" x="707.470703"/>
      <use xlink:href="#DejaVuSans-69" x="770.947266"/>
      <use xlink:href="#DejaVuSans-6e" x="798.730469"/>
      <use xlink:href="#DejaVuSans-67" x="862.109375"/>
      <use xlink:href="#DejaVuSans-20" x="925.585938"/>
      <use xlink:href="#DejaVuSans-61" x="957.373047"/>
      <use xlink:href="#DejaVuSans-63" x="1018.652344"/>
      <use xlink:href="#DejaVuSans-63" x="1073.632812"/>
      <use xlink:href="#DejaVuSans-75" x="1128.613281"/>
      <use xlink:href="#DejaVuSans-72" x="1191.992188"/>
      <use xlink:href="#DejaVuSans-61" x="1233.105469"/>
      <use xlink:href="#DejaVuSans-63" x="1294.384766"/>
      <use xlink:href="#DejaVuSans-79" x="1349.365234"/>
     </g>
    </g>
   </g>
   <g id="line2d_9">
    <path d="M 126.535124 163.915103 
L 202.672319 163.915103 
" clip-path="url(#pf0a5d9c52c)" style="fill: none; stroke: #000000; stroke-linecap: square"/>
   </g>
   <g id="line2d_10">
    <path d="M 126.535124 170.386937 
L 126.535124 163.915103 
" clip-path="url(#pf0a5d9c52c)" style="fill: none; stroke: #000000; stroke-linecap: square"/>
   </g>
   <g id="line2d_11">
    <path d="M 202.672319 170.386937 
L 202.672319 163.915103 
" clip-path="url(#pf0a5d9c52c)" style="fill: none; stroke: #000000; stroke-linecap: square"/>
   </g>
   <g id="line2d_12">
    <path d="M 168.833566 176.858772 
L 202.672319 176.858772 
" clip-path="url(#pf0a5d9c52c)" style="fill: none; stroke: #000000; stroke-linecap: square"/>
   </g>
   <g id="line2d_13">
    <path d="M 168.833566 183.330607 
L 168.833566 176.858772 
" clip-path="url(#pf0a5d9c52c)" style="fill: none; stroke: #000000; stroke-linecap: square"/>
   </g>
   <g id="line2d_14">
    <path d="M 202.672319 183.330607 
L 202.672319 176.858772 
" clip-path="url(#pf0a5d9c52c)" style="fill: none; stroke: #000000; stroke-linecap: square"/>
   </g>
   <g id="line2d_15">
    <path d="M 62.03 238.632321 
L 224.879001 238.632321 
" clip-path="url(#pf0a5d9c52c)" style="fill: none; stroke-dasharray: 1.5,2.475; stroke-dashoffset: 0; stroke: #000000; stroke-width: 1.5"/>
   </g>
   <g id="patch_3">
    <path d="M 62.03 242.946877 
L 62.03 42.32 
" style="fill: none; stroke: #000000; stroke-width: 0.8; stroke-linejoin: miter; stroke-linecap: square"/>
   </g>
   <g id="patch_4">
    <path d="M 62.03 242.946877 
L 224.879001 242.946877 
" style="fill: none; stroke: #000000; stroke-width: 0.8; stroke-linejoin: miter; stroke-linecap: square"/>
   </g>
   <g id="text_10">
    <!-- ∗∗∗ -->
    <g transform="translate(152.03419 160.202643) scale(0.1 -0.1)">
     <defs>
      <path id="DejaVuSans-2217" d="M 2153 2006 
L 816 2778 
L 1081 3238 
L 2419 2466 
L 2419 4013 
L 2944 4013 
L 2944 2466 
L 4281 3238 
L 4547 2778 
L 3209 2006 
L 4547 1234 
L 4281 775 
L 2944 1547 
L 2944 0 
L 2419 0 
L 2419 1547 
L 1081 775 
L 816 1234 
L 2153 2006 
z
" transform="scale(0.015625)"/>
     </defs>
     <use xlink:href="#DejaVuSans-2217"/>
     <use xlink:href="#DejaVuSans-2217" x="83.789062"/>
     <use xlink:href="#DejaVuSans-2217" x="167.578125"/>
    </g>
   </g>
   <g id="text_11">
    <!-- ∗∗∗ -->
    <g transform="translate(173.183411 173.146312) scale(0.1 -0.1)">
     <use xlink:href="#DejaVuSans-2217"/>
     <use xlink:href="#DejaVuSans-2217" x="83.789062"/>
     <use xlink:href="#DejaVuSans-2217" x="167.578125"/>
    </g>
   </g>
   <g id="text_12">
    <!-- Single encoder -->
    <g transform="translate(88.032677 22.32) scale(0.1485 -0.1485)">
     <use xlink:href="#DejaVuSans-53"/>
     <use xlink:href="#DejaVuSans-69" x="63.476562"/>
     <use xlink:href="#DejaVuSans-6e" x="91.259766"/>
     <use xlink:href="#DejaVuSans-67" x="154.638672"/>
     <use xlink:href="#DejaVuSans-6c" x="218.115234"/>
     <use xlink:href="#DejaVuSans-65" x="245.898438"/>
     <use xlink:href="#DejaVuSans-20" x="307.421875"/>
     <use xlink:href="#DejaVuSans-65" x="339.208984"/>
     <use xlink:href="#DejaVuSans-6e" x="400.732422"/>
     <use xlink:href="#DejaVuSans-63" x="464.111328"/>
     <use xlink:href="#DejaVuSans-6f" x="519.091797"/>
     <use xlink:href="#DejaVuSans-64" x="580.273438"/>
     <use xlink:href="#DejaVuSans-65" x="643.75"/>
     <use xlink:href="#DejaVuSans-72" x="705.273438"/>
    </g>
   </g>
  </g>
  <g id="axes_2">
   <g id="patch_5">
    <path d="M 253.467416 242.946877 
L 416.316418 242.946877 
L 416.316418 42.32 
L 253.467416 42.32 
z
" style="fill: #ffffff"/>
   </g>
   <g id="PolyCollection_5">
    <path d="M 273.199262 184.190157 
L 269.689246 184.190157 
L 269.602161 183.985225 
L 269.516306 183.780293 
L 269.431832 183.575361 
L 269.348836 183.370429 
L 269.267367 183.165497 
L 269.187429 182.960565 
L 269.108986 182.755634 
L 269.031974 182.550702 
L 268.956299 182.34577 
L 268.881843 182.140838 
L 268.808467 181.935906 
L 268.736013 181.730974 
L 268.664295 181.526042 
L 268.593098 181.32111 
L 268.522166 181.116178 
L 268.451196 180.911246 
L 268.379822 180.706314 
L 268.307606 180.501382 
L 268.234022 180.296451 
L 268.158451 180.091519 
L 268.08017 179.886587 
L 267.998349 179.681655 
L 267.912057 179.476723 
L 267.820268 179.271791 
L 267.721874 179.066859 
L 267.61571 178.861927 
L 267.500581 178.656995 
L 267.375297 178.452063 
L 267.238715 178.247131 
L 267.089777 178.042199 
L 266.927562 177.837268 
L 266.751328 177.632336 
L 266.560558 177.427404 
L 266.354996 177.222472 
L 266.134685 177.01754 
L 265.899991 176.812608 
L 265.651616 176.607676 
L 265.390607 176.402744 
L 265.11835 176.197812 
L 264.836551 175.99288 
L 264.54721 175.787948 
L 264.252582 175.583016 
L 263.955135 175.378085 
L 263.657497 175.173153 
L 263.362402 174.968221 
L 263.072632 174.763289 
L 262.790967 174.558357 
L 262.520125 174.353425 
L 262.262724 174.148493 
L 262.021233 173.943561 
L 261.797946 173.738629 
L 261.594952 173.533697 
L 261.414118 173.328765 
L 261.257081 173.123834 
L 261.125239 172.918902 
L 261.019758 172.71397 
L 260.941567 172.509038 
L 260.891369 172.304106 
L 260.869644 172.099174 
L 260.876652 171.894242 
L 260.912437 171.68931 
L 260.976822 171.484378 
L 261.069413 171.279446 
L 261.189584 171.074514 
L 261.33648 170.869582 
L 261.509003 170.664651 
L 261.70581 170.459719 
L 261.925312 170.254787 
L 262.165673 170.049855 
L 262.42482 169.844923 
L 262.700459 169.639991 
L 262.990097 169.435059 
L 263.291074 169.230127 
L 263.600603 169.025195 
L 263.915815 168.820263 
L 264.233815 168.615331 
L 264.551737 168.410399 
L 264.866802 168.205468 
L 265.176383 168.000536 
L 265.478057 167.795604 
L 265.769665 167.590672 
L 266.049352 167.38574 
L 266.31561 167.180808 
L 266.567303 166.975876 
L 266.803685 166.770944 
L 267.0244 166.566012 
L 267.22948 166.36108 
L 267.419317 166.156148 
L 267.594638 165.951216 
L 267.756456 165.746285 
L 267.906028 165.541353 
L 268.044792 165.336421 
L 268.174313 165.131489 
L 268.296218 164.926557 
L 268.412137 164.721625 
L 268.523645 164.516693 
L 268.632212 164.311761 
L 268.739159 164.106829 
L 268.845618 163.901897 
L 274.042891 163.901897 
L 274.042891 163.901897 
L 274.149349 164.106829 
L 274.256296 164.311761 
L 274.364864 164.516693 
L 274.476372 164.721625 
L 274.59229 164.926557 
L 274.714195 165.131489 
L 274.843716 165.336421 
L 274.982481 165.541353 
L 275.132053 165.746285 
L 275.293871 165.951216 
L 275.469191 166.156148 
L 275.659028 166.36108 
L 275.864108 166.566012 
L 276.084824 166.770944 
L 276.321205 166.975876 
L 276.572898 167.180808 
L 276.839156 167.38574 
L 277.118844 167.590672 
L 277.410451 167.795604 
L 277.712126 168.000536 
L 278.021706 168.205468 
L 278.336772 168.410399 
L 278.654693 168.615331 
L 278.972693 168.820263 
L 279.287906 169.025195 
L 279.597435 169.230127 
L 279.898412 169.435059 
L 280.18805 169.639991 
L 280.463688 169.844923 
L 280.722835 170.049855 
L 280.963196 170.254787 
L 281.182698 170.459719 
L 281.379506 170.664651 
L 281.552029 170.869582 
L 281.698924 171.074514 
L 281.819096 171.279446 
L 281.911686 171.484378 
L 281.976072 171.68931 
L 282.011856 171.894242 
L 282.018865 172.099174 
L 281.99714 172.304106 
L 281.946942 172.509038 
L 281.868751 172.71397 
L 281.763269 172.918902 
L 281.631428 173.123834 
L 281.47439 173.328765 
L 281.293556 173.533697 
L 281.090562 173.738629 
L 280.867275 173.943561 
L 280.625785 174.148493 
L 280.368383 174.353425 
L 280.097542 174.558357 
L 279.815876 174.763289 
L 279.526107 174.968221 
L 279.231012 175.173153 
L 278.933374 175.378085 
L 278.635927 175.583016 
L 278.341299 175.787948 
L 278.051957 175.99288 
L 277.770158 176.197812 
L 277.497901 176.402744 
L 277.236893 176.607676 
L 276.988518 176.812608 
L 276.753823 177.01754 
L 276.533512 177.222472 
L 276.327951 177.427404 
L 276.13718 177.632336 
L 275.960946 177.837268 
L 275.798732 178.042199 
L 275.649794 178.247131 
L 275.513211 178.452063 
L 275.387928 178.656995 
L 275.272799 178.861927 
L 275.166635 179.066859 
L 275.06824 179.271791 
L 274.976451 179.476723 
L 274.89016 179.681655 
L 274.808339 179.886587 
L 274.730057 180.091519 
L 274.654486 180.296451 
L 274.580902 180.501382 
L 274.508686 180.706314 
L 274.437312 180.911246 
L 274.366342 181.116178 
L 274.295411 181.32111 
L 274.224213 181.526042 
L 274.152495 181.730974 
L 274.080041 181.935906 
L 274.006666 182.140838 
L 273.93221 182.34577 
L 273.856534 182.550702 
L 273.779522 182.755634 
L 273.70108 182.960565 
L 273.621141 183.165497 
L 273.539672 183.370429 
L 273.456677 183.575361 
L 273.372203 183.780293 
L 273.286348 183.985225 
L 273.199262 184.190157 
z
" clip-path="url(#pecfb551b50)" style="fill: #d2691e; fill-opacity: 0.3"/>
   </g>
   <g id="PathCollection_5">
    <g clip-path="url(#pecfb551b50)">
     <use xlink:href="#mbe2e17358f" x="271.444254" y="172.841537" style="fill: #d2691e; stroke: #d2691e"/>
    </g>
   </g>
   <g id="PolyCollection_6">
    <path d="M 324.317307 123.805574 
L 303.168086 123.805574 
L 303.168086 123.805574 
L 303.168086 123.805574 
L 303.168086 123.805574 
L 303.168086 123.805574 
L 303.168086 123.805574 
L 303.168086 123.805574 
L 303.168086 123.805574 
L 303.168086 123.805574 
L 303.168086 123.805574 
L 303.168086 123.805574 
L 303.168086 123.805574 
L 303.168086 123.805574 
L 303.168086 123.805574 
L 303.168086 123.805574 
L 303.168086 123.805574 
L 303.168086 123.805574 
L 303.168086 123.805574 
L 303.168086 123.805574 
L 303.168086 123.805574 
L 303.168086 123.805574 
L 303.168086 123.805574 
L 303.168086 123.805574 
L 303.168086 123.805574 
L 303.168086 123.805574 
L 303.168086 123.805574 
L 303.168086 123.805574 
L 303.168086 123.805574 
L 303.168086 123.805574 
L 303.168086 123.805574 
L 303.168086 123.805574 
L 303.168086 123.805574 
L 303.168086 123.805574 
L 303.168086 123.805574 
L 303.168086 123.805574 
L 303.168086 123.805574 
L 303.168086 123.805574 
L 303.168086 123.805574 
L 303.168086 123.805574 
L 303.168086 123.805574 
L 303.168086 123.805574 
L 303.168086 123.805574 
L 303.168086 123.805574 
L 303.168086 123.805574 
L 303.168086 123.805574 
L 303.168086 123.805574 
L 303.168086 123.805574 
L 303.168086 123.805574 
L 303.168086 123.805574 
L 303.168086 123.805574 
L 303.168086 123.805574 
L 303.168086 123.805574 
L 303.168086 123.805574 
L 303.168086 123.805574 
L 303.168086 123.805574 
L 303.168086 123.805574 
L 303.168086 123.805574 
L 303.168086 123.805574 
L 303.168086 123.805574 
L 303.168086 123.805574 
L 303.168086 123.805574 
L 303.168086 123.805574 
L 303.168086 123.805574 
L 303.168086 123.805574 
L 303.168086 123.805574 
L 303.168086 123.805574 
L 303.168086 123.805574 
L 303.168086 123.805574 
L 303.168086 123.805574 
L 303.168086 123.805574 
L 303.168086 123.805574 
L 303.168086 123.805574 
L 303.168086 123.805574 
L 303.168086 123.805574 
L 303.168086 123.805574 
L 303.168086 123.805574 
L 303.168086 123.805574 
L 303.168086 123.805574 
L 303.168086 123.805574 
L 303.168086 123.805574 
L 303.168086 123.805574 
L 303.168086 123.805574 
L 303.168086 123.805574 
L 303.168086 123.805574 
L 303.168086 123.805574 
L 303.168086 123.805574 
L 303.168086 123.805574 
L 303.168086 123.805574 
L 303.168086 123.805574 
L 303.168086 123.805574 
L 303.168086 123.805574 
L 303.168086 123.805574 
L 303.168086 123.805574 
L 303.168086 123.805574 
L 303.168086 123.805574 
L 303.168086 123.805574 
L 303.168086 123.805574 
L 303.168086 123.805574 
L 303.168086 123.805574 
L 303.168086 123.805574 
L 324.317307 123.805574 
L 324.317307 123.805574 
L 324.317307 123.805574 
L 324.317307 123.805574 
L 324.317307 123.805574 
L 324.317307 123.805574 
L 324.317307 123.805574 
L 324.317307 123.805574 
L 324.317307 123.805574 
L 324.317307 123.805574 
L 324.317307 123.805574 
L 324.317307 123.805574 
L 324.317307 123.805574 
L 324.317307 123.805574 
L 324.317307 123.805574 
L 324.317307 123.805574 
L 324.317307 123.805574 
L 324.317307 123.805574 
L 324.317307 123.805574 
L 324.317307 123.805574 
L 324.317307 123.805574 
L 324.317307 123.805574 
L 324.317307 123.805574 
L 324.317307 123.805574 
L 324.317307 123.805574 
L 324.317307 123.805574 
L 324.317307 123.805574 
L 324.317307 123.805574 
L 324.317307 123.805574 
L 324.317307 123.805574 
L 324.317307 123.805574 
L 324.317307 123.805574 
L 324.317307 123.805574 
L 324.317307 123.805574 
L 324.317307 123.805574 
L 324.317307 123.805574 
L 324.317307 123.805574 
L 324.317307 123.805574 
L 324.317307 123.805574 
L 324.317307 123.805574 
L 324.317307 123.805574 
L 324.317307 123.805574 
L 324.317307 123.805574 
L 324.317307 123.805574 
L 324.317307 123.805574 
L 324.317307 123.805574 
L 324.317307 123.805574 
L 324.317307 123.805574 
L 324.317307 123.805574 
L 324.317307 123.805574 
L 324.317307 123.805574 
L 324.317307 123.805574 
L 324.317307 123.805574 
L 324.317307 123.805574 
L 324.317307 123.805574 
L 324.317307 123.805574 
L 324.317307 123.805574 
L 324.317307 123.805574 
L 324.317307 123.805574 
L 324.317307 123.805574 
L 324.317307 123.805574 
L 324.317307 123.805574 
L 324.317307 123.805574 
L 324.317307 123.805574 
L 324.317307 123.805574 
L 324.317307 123.805574 
L 324.317307 123.805574 
L 324.317307 123.805574 
L 324.317307 123.805574 
L 324.317307 123.805574 
L 324.317307 123.805574 
L 324.317307 123.805574 
L 324.317307 123.805574 
L 324.317307 123.805574 
L 324.317307 123.805574 
L 324.317307 123.805574 
L 324.317307 123.805574 
L 324.317307 123.805574 
L 324.317307 123.805574 
L 324.317307 123.805574 
L 324.317307 123.805574 
L 324.317307 123.805574 
L 324.317307 123.805574 
L 324.317307 123.805574 
L 324.317307 123.805574 
L 324.317307 123.805574 
L 324.317307 123.805574 
L 324.317307 123.805574 
L 324.317307 123.805574 
L 324.317307 123.805574 
L 324.317307 123.805574 
L 324.317307 123.805574 
L 324.317307 123.805574 
L 324.317307 123.805574 
L 324.317307 123.805574 
L 324.317307 123.805574 
L 324.317307 123.805574 
L 324.317307 123.805574 
L 324.317307 123.805574 
L 324.317307 123.805574 
L 324.317307 123.805574 
z
" clip-path="url(#pecfb551b50)" style="fill: #1f77b4; fill-opacity: 0.3"/>
   </g>
   <g id="PathCollection_6">
    <g clip-path="url(#pecfb551b50)">
     <use xlink:href="#m2be457158b" x="313.742696" y="123.805574" style="fill: #1f77b4; stroke: #1f77b4"/>
    </g>
   </g>
   <g id="PolyCollection_7">
    <path d="M 357.427757 133.76963 
L 354.65452 133.76963 
L 354.544735 133.632605 
L 354.425262 133.495579 
L 354.294606 133.358554 
L 354.151185 133.221528 
L 353.993372 133.084503 
L 353.819553 132.947477 
L 353.628179 132.810452 
L 353.417839 132.673426 
L 353.187326 132.536401 
L 352.935705 132.399375 
L 352.662387 132.26235 
L 352.367193 132.125324 
L 352.050411 131.988299 
L 351.712846 131.851273 
L 351.355856 131.714248 
L 350.981372 131.577222 
L 350.591902 131.440197 
L 350.190511 131.303171 
L 349.780784 131.166146 
L 349.366762 131.029121 
L 348.952863 130.892095 
L 348.543775 130.75507 
L 348.14434 130.618044 
L 347.759412 130.481019 
L 347.393716 130.343993 
L 347.051701 130.206968 
L 346.737387 130.069942 
L 346.454232 129.932917 
L 346.205006 129.795891 
L 345.991694 129.658866 
L 345.815418 129.52184 
L 345.676399 129.384815 
L 345.573953 129.247789 
L 345.50652 129.110764 
L 345.471735 128.973738 
L 345.466528 128.836713 
L 345.48726 128.699687 
L 345.52988 128.562662 
L 345.590101 128.425636 
L 345.663577 128.288611 
L 345.746096 128.151585 
L 345.833745 128.01456 
L 345.923072 127.877534 
L 346.011214 127.740509 
L 346.095999 127.603483 
L 346.176009 127.466458 
L 346.250611 127.329433 
L 346.319942 127.192407 
L 346.384865 127.055382 
L 346.446891 126.918356 
L 346.50807 126.781331 
L 346.57087 126.644305 
L 346.638035 126.50728 
L 346.712439 126.370254 
L 346.796946 126.233229 
L 346.894271 126.096203 
L 347.006863 125.959178 
L 347.136801 125.822152 
L 347.285711 125.685127 
L 347.454713 125.548101 
L 347.644384 125.411076 
L 347.854749 125.27405 
L 348.085288 125.137025 
L 348.334969 124.999999 
L 348.602286 124.862974 
L 348.885314 124.725948 
L 349.181774 124.588923 
L 349.489098 124.451897 
L 349.804498 124.314872 
L 350.125038 124.177846 
L 350.4477 124.040821 
L 350.769451 123.903795 
L 351.087304 123.76677 
L 351.398375 123.629745 
L 351.699942 123.492719 
L 351.989489 123.355694 
L 352.264757 123.218668 
L 352.523783 123.081643 
L 352.764936 122.944617 
L 352.986947 122.807592 
L 353.188934 122.670566 
L 353.370416 122.533541 
L 353.531322 122.396515 
L 353.671988 122.25949 
L 353.793145 122.122464 
L 353.895893 121.985439 
L 353.981672 121.848413 
L 354.052215 121.711388 
L 354.109492 121.574362 
L 354.155659 121.437337 
L 354.192979 121.300311 
L 354.223762 121.163286 
L 354.250292 121.02626 
L 354.274754 120.889235 
L 354.299177 120.752209 
L 354.325374 120.615184 
L 354.354895 120.478158 
L 354.388991 120.341133 
L 354.428594 120.204107 
L 357.653682 120.204107 
L 357.653682 120.204107 
L 357.693285 120.341133 
L 357.727382 120.478158 
L 357.756902 120.615184 
L 357.783099 120.752209 
L 357.807522 120.889235 
L 357.831985 121.02626 
L 357.858514 121.163286 
L 357.889298 121.300311 
L 357.926618 121.437337 
L 357.972784 121.574362 
L 358.030062 121.711388 
L 358.100604 121.848413 
L 358.186383 121.985439 
L 358.289131 122.122464 
L 358.410288 122.25949 
L 358.550954 122.396515 
L 358.71186 122.533541 
L 358.893342 122.670566 
L 359.095329 122.807592 
L 359.31734 122.944617 
L 359.558493 123.081643 
L 359.817519 123.218668 
L 360.092787 123.355694 
L 360.382335 123.492719 
L 360.683901 123.629745 
L 360.994972 123.76677 
L 361.312825 123.903795 
L 361.634576 124.040821 
L 361.957238 124.177846 
L 362.277778 124.314872 
L 362.593179 124.451897 
L 362.900502 124.588923 
L 363.196963 124.725948 
L 363.479991 124.862974 
L 363.747307 124.999999 
L 363.996988 125.137025 
L 364.227528 125.27405 
L 364.437892 125.411076 
L 364.627563 125.548101 
L 364.796565 125.685127 
L 364.945476 125.822152 
L 365.075413 125.959178 
L 365.188005 126.096203 
L 365.28533 126.233229 
L 365.369837 126.370254 
L 365.444241 126.50728 
L 365.511406 126.644305 
L 365.574206 126.781331 
L 365.635385 126.918356 
L 365.697411 127.055382 
L 365.762334 127.192407 
L 365.831665 127.329433 
L 365.906267 127.466458 
L 365.986277 127.603483 
L 366.071062 127.740509 
L 366.159204 127.877534 
L 366.248531 128.01456 
L 366.33618 128.151585 
L 366.418699 128.288611 
L 366.492176 128.425636 
L 366.552396 128.562662 
L 366.595016 128.699687 
L 366.615749 128.836713 
L 366.610541 128.973738 
L 366.575756 129.110764 
L 366.508323 129.247789 
L 366.405877 129.384815 
L 366.266859 129.52184 
L 366.090582 129.658866 
L 365.87727 129.795891 
L 365.628045 129.932917 
L 365.344889 130.069942 
L 365.030575 130.206968 
L 364.68856 130.343993 
L 364.322865 130.481019 
L 363.937936 130.618044 
L 363.538501 130.75507 
L 363.129414 130.892095 
L 362.715515 131.029121 
L 362.301493 131.166146 
L 361.891765 131.303171 
L 361.490374 131.440197 
L 361.100904 131.577222 
L 360.72642 131.714248 
L 360.36943 131.851273 
L 360.031865 131.988299 
L 359.715083 132.125324 
L 359.419889 132.26235 
L 359.146571 132.399375 
L 358.894951 132.536401 
L 358.664437 132.673426 
L 358.454097 132.810452 
L 358.262723 132.947477 
L 358.088904 133.084503 
L 357.931092 133.221528 
L 357.78767 133.358554 
L 357.657014 133.495579 
L 357.537541 133.632605 
L 357.427757 133.76963 
z
" clip-path="url(#pecfb551b50)" style="fill: #a52a2a; fill-opacity: 0.3"/>
   </g>
   <g id="PathCollection_7">
    <g clip-path="url(#pecfb551b50)">
     <use xlink:href="#mb87c8959a4" x="356.041138" y="127.411042" style="fill: #a52a2a; stroke: #a52a2a"/>
    </g>
   </g>
   <g id="PolyCollection_8">
    <path d="M 399.216526 123.205329 
L 397.462634 123.205329 
L 397.444376 123.110139 
L 397.427439 123.014949 
L 397.410733 122.919759 
L 397.392943 122.824568 
L 397.372546 122.729378 
L 397.34784 122.634188 
L 397.316985 122.538997 
L 397.278038 122.443807 
L 397.229013 122.348617 
L 397.16793 122.253427 
L 397.092872 122.158236 
L 397.00205 122.063046 
L 396.893854 121.967856 
L 396.766915 121.872666 
L 396.62015 121.777475 
L 396.452812 121.682285 
L 396.264519 121.587095 
L 396.055287 121.491904 
L 395.825536 121.396714 
L 395.576097 121.301524 
L 395.308197 121.206334 
L 395.023435 121.111143 
L 394.723743 121.015953 
L 394.411338 120.920763 
L 394.088662 120.825573 
L 393.758317 120.730382 
L 393.422989 120.635192 
L 393.085375 120.540002 
L 392.748111 120.444812 
L 392.413701 120.349621 
L 392.084454 120.254431 
L 391.762435 120.159241 
L 391.449418 120.06405 
L 391.146868 119.96886 
L 390.855926 119.87367 
L 390.577413 119.77848 
L 390.311852 119.683289 
L 390.059502 119.588099 
L 389.820398 119.492909 
L 389.594412 119.397719 
L 389.381308 119.302528 
L 389.180806 119.207338 
L 388.992638 119.112148 
L 388.816611 119.016958 
L 388.652644 118.921767 
L 388.500809 118.826577 
L 388.361346 118.731387 
L 388.23467 118.636196 
L 388.121359 118.541006 
L 388.022122 118.445816 
L 387.937761 118.350626 
L 387.869112 118.255435 
L 387.816984 118.160245 
L 387.782087 118.065055 
L 387.76497 117.969865 
L 387.765948 117.874674 
L 387.785056 117.779484 
L 387.822004 117.684294 
L 387.876154 117.589103 
L 387.946517 117.493913 
L 388.031773 117.398723 
L 388.130304 117.303533 
L 388.240258 117.208342 
L 388.35962 117.113152 
L 388.486302 117.017962 
L 388.618239 116.922772 
L 388.753482 116.827581 
L 388.890299 116.732391 
L 389.027251 116.637201 
L 389.163265 116.542011 
L 389.297684 116.44682 
L 389.430294 116.35163 
L 389.561326 116.25644 
L 389.691438 116.161249 
L 389.821667 116.066059 
L 389.953369 115.970869 
L 390.08814 115.875679 
L 390.227717 115.780488 
L 390.373887 115.685298 
L 390.528385 115.590108 
L 390.692801 115.494918 
L 390.868493 115.399727 
L 391.05652 115.304537 
L 391.257583 115.209347 
L 391.471993 115.114157 
L 391.699655 115.018966 
L 391.940069 114.923776 
L 392.192352 114.828586 
L 392.455272 114.733395 
L 392.727301 114.638205 
L 393.006671 114.543015 
L 393.291436 114.447825 
L 393.579537 114.352634 
L 393.868871 114.257444 
L 394.157346 114.162254 
L 394.442942 114.067064 
L 394.723749 113.971873 
L 394.998014 113.876683 
L 395.264163 113.781493 
L 401.414997 113.781493 
L 401.414997 113.781493 
L 401.681146 113.876683 
L 401.955411 113.971873 
L 402.236218 114.067064 
L 402.521814 114.162254 
L 402.810289 114.257444 
L 403.099623 114.352634 
L 403.387724 114.447825 
L 403.672489 114.543015 
L 403.951859 114.638205 
L 404.223888 114.733395 
L 404.486809 114.828586 
L 404.739091 114.923776 
L 404.979505 115.018966 
L 405.207167 115.114157 
L 405.421577 115.209347 
L 405.62264 115.304537 
L 405.810667 115.399727 
L 405.986359 115.494918 
L 406.150775 115.590108 
L 406.305273 115.685298 
L 406.451443 115.780488 
L 406.59102 115.875679 
L 406.725791 115.970869 
L 406.857494 116.066059 
L 406.987723 116.161249 
L 407.117834 116.25644 
L 407.248866 116.35163 
L 407.381476 116.44682 
L 407.515895 116.542011 
L 407.65191 116.637201 
L 407.788861 116.732391 
L 407.925678 116.827581 
L 408.060922 116.922772 
L 408.192858 117.017962 
L 408.31954 117.113152 
L 408.438902 117.208342 
L 408.548856 117.303533 
L 408.647387 117.398723 
L 408.732643 117.493913 
L 408.803007 117.589103 
L 408.857157 117.684294 
L 408.894104 117.779484 
L 408.913212 117.874674 
L 408.914191 117.969865 
L 408.897073 118.065055 
L 408.862177 118.160245 
L 408.810048 118.255435 
L 408.741399 118.350626 
L 408.657038 118.445816 
L 408.557801 118.541006 
L 408.44449 118.636196 
L 408.317814 118.731387 
L 408.178351 118.826577 
L 408.026516 118.921767 
L 407.862549 119.016958 
L 407.686522 119.112148 
L 407.498354 119.207338 
L 407.297852 119.302528 
L 407.084748 119.397719 
L 406.858762 119.492909 
L 406.619659 119.588099 
L 406.367308 119.683289 
L 406.101747 119.77848 
L 405.823234 119.87367 
L 405.532292 119.96886 
L 405.229742 120.06405 
L 404.916726 120.159241 
L 404.594706 120.254431 
L 404.265459 120.349621 
L 403.931049 120.444812 
L 403.593785 120.540002 
L 403.256171 120.635192 
L 402.920843 120.730382 
L 402.590498 120.825573 
L 402.267822 120.920763 
L 401.955417 121.015953 
L 401.655725 121.111143 
L 401.370963 121.206334 
L 401.103063 121.301524 
L 400.853624 121.396714 
L 400.623873 121.491904 
L 400.414641 121.587095 
L 400.226349 121.682285 
L 400.05901 121.777475 
L 399.912245 121.872666 
L 399.785306 121.967856 
L 399.67711 122.063046 
L 399.586288 122.158236 
L 399.511231 122.253427 
L 399.450147 122.348617 
L 399.401122 122.443807 
L 399.362176 122.538997 
L 399.33132 122.634188 
L 399.306614 122.729378 
L 399.286217 122.824568 
L 399.268427 122.919759 
L 399.251721 123.014949 
L 399.234784 123.110139 
L 399.216526 123.205329 
z
" clip-path="url(#pecfb551b50)" style="fill: #008000; fill-opacity: 0.3"/>
   </g>
   <g id="PathCollection_8">
    <g clip-path="url(#pecfb551b50)">
     <use xlink:href="#m2fff5af578" x="398.33958" y="117.695086" style="fill: #008000; stroke: #008000"/>
    </g>
   </g>
   <g id="matplotlib.axis_3">
    <g id="xtick_5">
     <g id="line2d_16">
      <g>
       <use xlink:href="#m474dbbf2c4" x="271.444254" y="242.946877" style="stroke: #000000; stroke-width: 0.8"/>
      </g>
     </g>
     <g id="text_13">
      <!-- Untrained -->
      <g style="fill: #d2691e" transform="translate(249.769126 301.249173) rotate(-50) scale(0.12 -0.12)">
       <use xlink:href="#DejaVuSans-55"/>
       <use xlink:href="#DejaVuSans-6e" x="73.193359"/>
       <use xlink:href="#DejaVuSans-74" x="136.572266"/>
       <use xlink:href="#DejaVuSans-72" x="175.78125"/>
       <use xlink:href="#DejaVuSans-61" x="216.894531"/>
       <use xlink:href="#DejaVuSans-69" x="278.173828"/>
       <use xlink:href="#DejaVuSans-6e" x="305.957031"/>
       <use xlink:href="#DejaVuSans-65" x="369.335938"/>
       <use xlink:href="#DejaVuSans-64" x="430.859375"/>
      </g>
      <!-- model -->
      <g style="fill: #d2691e" transform="translate(267.11815 301.478256) rotate(-50) scale(0.12 -0.12)">
       <use xlink:href="#DejaVuSans-6d"/>
       <use xlink:href="#DejaVuSans-6f" x="97.412109"/>
       <use xlink:href="#DejaVuSans-64" x="158.59375"/>
       <use xlink:href="#DejaVuSans-65" x="222.070312"/>
       <use xlink:href="#DejaVuSans-6c" x="283.59375"/>
      </g>
     </g>
    </g>
    <g id="xtick_6">
     <g id="line2d_17">
      <g>
       <use xlink:href="#m474dbbf2c4" x="313.742696" y="242.946877" style="stroke: #000000; stroke-width: 0.8"/>
      </g>
     </g>
     <g id="text_14">
      <!-- Masked -->
      <g style="fill: #1f77b4" transform="translate(296.517265 294.973832) rotate(-50) scale(0.12 -0.12)">
       <use xlink:href="#DejaVuSans-4d"/>
       <use xlink:href="#DejaVuSans-61" x="86.279297"/>
       <use xlink:href="#DejaVuSans-73" x="147.558594"/>
       <use xlink:href="#DejaVuSans-6b" x="199.658203"/>
       <use xlink:href="#DejaVuSans-65" x="253.943359"/>
       <use xlink:href="#DejaVuSans-64" x="315.466797"/>
      </g>
      <!-- raw input -->
      <g style="fill: #1f77b4" transform="translate(303.177133 307.941756) rotate(-50) scale(0.12 -0.12)">
       <use xlink:href="#DejaVuSans-72"/>
       <use xlink:href="#DejaVuSans-61" x="41.113281"/>
       <use xlink:href="#DejaVuSans-77" x="102.392578"/>
       <use xlink:href="#DejaVuSans-20" x="184.179688"/>
       <use xlink:href="#DejaVuSans-69" x="215.966797"/>
       <use xlink:href="#DejaVuSans-6e" x="243.75"/>
       <use xlink:href="#DejaVuSans-70" x="307.128906"/>
       <use xlink:href="#DejaVuSans-75" x="370.605469"/>
       <use xlink:href="#DejaVuSans-74" x="433.984375"/>
      </g>
     </g>
    </g>
    <g id="xtick_7">
     <g id="line2d_18">
      <g>
       <use xlink:href="#m474dbbf2c4" x="356.041138" y="242.946877" style="stroke: #000000; stroke-width: 0.8"/>
      </g>
     </g>
     <g id="text_15">
      <!-- LPL -->
      <g style="fill: #a52a2a" transform="translate(351.954379 271.594635) rotate(-50) scale(0.12 -0.12)">
       <use xlink:href="#DejaVuSans-4c"/>
       <use xlink:href="#DejaVuSans-50" x="55.712891"/>
       <use xlink:href="#DejaVuSans-4c" x="116.015625"/>
      </g>
     </g>
    </g>
    <g id="xtick_8">
     <g id="line2d_19">
      <g>
       <use xlink:href="#m474dbbf2c4" x="398.33958" y="242.946877" style="stroke: #000000; stroke-width: 0.8"/>
      </g>
     </g>
     <g id="text_16">
      <!-- TCLoSeR -->
      <g style="fill: #008000" transform="translate(384.11144 295.766688) rotate(-50) scale(0.12 -0.12)">
       <use xlink:href="#DejaVuSans-54"/>
       <use xlink:href="#DejaVuSans-43" x="55.208984"/>
       <use xlink:href="#DejaVuSans-4c" x="125.033203"/>
       <use xlink:href="#DejaVuSans-6f" x="178.996094"/>
       <use xlink:href="#DejaVuSans-53" x="240.177734"/>
       <use xlink:href="#DejaVuSans-65" x="303.654297"/>
       <use xlink:href="#DejaVuSans-52" x="365.177734"/>
      </g>
     </g>
    </g>
   </g>
   <g id="matplotlib.axis_4">
    <g id="ytick_5">
     <g id="line2d_20">
      <g>
       <use xlink:href="#m957a96a290" x="253.467416" y="204.115869" style="stroke: #000000; stroke-width: 0.8"/>
      </g>
     </g>
    </g>
    <g id="ytick_6">
     <g id="line2d_21">
      <g>
       <use xlink:href="#m957a96a290" x="253.467416" y="152.341191" style="stroke: #000000; stroke-width: 0.8"/>
      </g>
     </g>
    </g>
    <g id="ytick_7">
     <g id="line2d_22">
      <g>
       <use xlink:href="#m957a96a290" x="253.467416" y="100.566513" style="stroke: #000000; stroke-width: 0.8"/>
      </g>
     </g>
    </g>
    <g id="ytick_8">
     <g id="line2d_23">
      <g>
       <use xlink:href="#m957a96a290" x="253.467416" y="48.791835" style="stroke: #000000; stroke-width: 0.8"/>
      </g>
     </g>
    </g>
   </g>
   <g id="line2d_24">
    <path d="M 317.97254 87.894154 
L 394.109736 87.894154 
" clip-path="url(#pecfb551b50)" style="fill: none; stroke: #000000; stroke-linecap: square"/>
   </g>
   <g id="line2d_25">
    <path d="M 317.97254 94.365988 
L 317.97254 87.894154 
" clip-path="url(#pecfb551b50)" style="fill: none; stroke: #000000; stroke-linecap: square"/>
   </g>
   <g id="line2d_26">
    <path d="M 394.109736 94.365988 
L 394.109736 87.894154 
" clip-path="url(#pecfb551b50)" style="fill: none; stroke: #000000; stroke-linecap: square"/>
   </g>
   <g id="line2d_27">
    <path d="M 360.270982 100.837823 
L 394.109736 100.837823 
" clip-path="url(#pecfb551b50)" style="fill: none; stroke: #000000; stroke-linecap: square"/>
   </g>
   <g id="line2d_28">
    <path d="M 360.270982 107.309658 
L 360.270982 100.837823 
" clip-path="url(#pecfb551b50)" style="fill: none; stroke: #000000; stroke-linecap: square"/>
   </g>
   <g id="line2d_29">
    <path d="M 394.109736 107.309658 
L 394.109736 100.837823 
" clip-path="url(#pecfb551b50)" style="fill: none; stroke: #000000; stroke-linecap: square"/>
   </g>
   <g id="line2d_30">
    <path d="M 253.467416 238.632321 
L 416.316418 238.632321 
" clip-path="url(#pecfb551b50)" style="fill: none; stroke-dasharray: 1.5,2.475; stroke-dashoffset: 0; stroke: #000000; stroke-width: 1.5"/>
   </g>
   <g id="patch_6">
    <path d="M 253.467416 242.946877 
L 253.467416 42.32 
" style="fill: none; stroke: #000000; stroke-width: 0.8; stroke-linejoin: miter; stroke-linecap: square"/>
   </g>
   <g id="patch_7">
    <path d="M 253.467416 242.946877 
L 416.316418 242.946877 
" style="fill: none; stroke: #000000; stroke-width: 0.8; stroke-linejoin: miter; stroke-linecap: square"/>
   </g>
   <g id="text_17">
    <!-- ∗∗∗ -->
    <g transform="translate(343.471607 84.181694) scale(0.1 -0.1)">
     <use xlink:href="#DejaVuSans-2217"/>
     <use xlink:href="#DejaVuSans-2217" x="83.789062"/>
     <use xlink:href="#DejaVuSans-2217" x="167.578125"/>
    </g>
   </g>
   <g id="text_18">
    <!-- ∗∗∗ -->
    <g transform="translate(364.620828 97.125363) scale(0.1 -0.1)">
     <use xlink:href="#DejaVuSans-2217"/>
     <use xlink:href="#DejaVuSans-2217" x="83.789062"/>
     <use xlink:href="#DejaVuSans-2217" x="167.578125"/>
    </g>
   </g>
   <g id="text_19">
    <!-- Ensemble -->
    <g transform="translate(298.480413 22.32) scale(0.1485 -0.1485)">
     <defs>
      <path id="DejaVuSans-45" d="M 628 4666 
L 3578 4666 
L 3578 4134 
L 1259 4134 
L 1259 2753 
L 3481 2753 
L 3481 2222 
L 1259 2222 
L 1259 531 
L 3634 531 
L 3634 0 
L 628 0 
L 628 4666 
z
" transform="scale(0.015625)"/>
      <path id="DejaVuSans-62" d="M 3116 1747 
Q 3116 2381 2855 2742 
Q 2594 3103 2138 3103 
Q 1681 3103 1420 2742 
Q 1159 2381 1159 1747 
Q 1159 1113 1420 752 
Q 1681 391 2138 391 
Q 2594 391 2855 752 
Q 3116 1113 3116 1747 
z
M 1159 2969 
Q 1341 3281 1617 3432 
Q 1894 3584 2278 3584 
Q 2916 3584 3314 3078 
Q 3713 2572 3713 1747 
Q 3713 922 3314 415 
Q 2916 -91 2278 -91 
Q 1894 -91 1617 61 
Q 1341 213 1159 525 
L 1159 0 
L 581 0 
L 581 4863 
L 1159 4863 
L 1159 2969 
z
" transform="scale(0.015625)"/>
     </defs>
     <use xlink:href="#DejaVuSans-45"/>
     <use xlink:href="#DejaVuSans-6e" x="63.183594"/>
     <use xlink:href="#DejaVuSans-73" x="126.5625"/>
     <use xlink:href="#DejaVuSans-65" x="178.662109"/>
     <use xlink:href="#DejaVuSans-6d" x="240.185547"/>
     <use xlink:href="#DejaVuSans-62" x="337.597656"/>
     <use xlink:href="#DejaVuSans-6c" x="401.074219"/>
     <use xlink:href="#DejaVuSans-65" x="428.857422"/>
    </g>
   </g>
  </g>
 </g>
 <defs>
  <clipPath id="pf0a5d9c52c">
   <rect x="62.03" y="42.32" width="162.849001" height="200.626877"/>
  </clipPath>
  <clipPath id="pecfb551b50">
   <rect x="253.467416" y="42.32" width="162.849001" height="200.626877"/>
  </clipPath>
 </defs>
</svg>
