<?xml version="1.0" encoding="utf-8" standalone="no"?>
<!DOCTYPE svg PUBLIC "-//W3C//DTD SVG 1.1//EN"
  "http://www.w3.org/Graphics/SVG/1.1/DTD/svg11.dtd">
<svg xmlns:xlink="http://www.w3.org/1999/xlink" width="432pt" height="324pt" viewBox="0 0 432 324" xmlns="http://www.w3.org/2000/svg" version="1.1">
 <metadata>
  <rdf:RDF xmlns:dc="http://purl.org/dc/elements/1.1/" xmlns:cc="http://creativecommons.org/ns#" xmlns:rdf="http://www.w3.org/1999/02/22-rdf-syntax-ns#">
   <cc:Work>
    <dc:type rdf:resource="http://purl.org/dc/dcmitype/StillImage"/>
    <dc:date>2025-08-20T14:12:55.323184</dc:date>
    <dc:format>image/svg+xml</dc:format>
    <dc:creator>
     <cc:Agent>
      <dc:title>Matplotlib v3.9.1.post1, https://matplotlib.org/</dc:title>
     </cc:Agent>
    </dc:creator>
   </cc:Work>
  </rdf:RDF>
 </metadata>
 <defs>
  <style type="text/css">*{stroke-linejoin: round; stroke-linecap: butt}</style>
 </defs>
 <g id="figure_1">
  <g id="patch_1">
   <path d="M 0 324 
L 432 324 
L 432 0 
L 0 0 
z
" style="fill: #ffffff"/>
  </g>
  <g id="axes_1">
   <g id="patch_2">
    <path d="M 61.94 242.946877 
L 224.834001 242.946877 
L 224.834001 42.32 
L 61.94 42.32 
z
" style="fill: #ffffff"/>
   </g>
   <g id="PolyCollection_1">
    <path d="M 82.714991 233.224119 
L 77.12862 233.224119 
L 76.993388 233.170097 
L 76.856044 233.116075 
L 76.716255 233.062053 
L 76.57363 233.008031 
L 76.427734 232.954009 
L 76.278105 232.899987 
L 76.124274 232.845965 
L 75.965782 232.791943 
L 75.802202 232.737921 
L 75.63316 232.683899 
L 75.458357 232.629877 
L 75.277583 232.575855 
L 75.09074 232.521833 
L 74.897854 232.467811 
L 74.699082 232.413789 
L 74.494727 232.359767 
L 74.285235 232.305745 
L 74.071197 232.251723 
L 73.853343 232.197701 
L 73.632533 232.143679 
L 73.40974 232.089657 
L 73.186039 232.035635 
L 72.96258 231.981613 
L 72.740566 231.927591 
L 72.521229 231.873569 
L 72.305799 231.819547 
L 72.09548 231.765525 
L 71.89142 231.711503 
L 71.694684 231.657481 
L 71.506231 231.603459 
L 71.326892 231.549437 
L 71.157351 231.495415 
L 70.998129 231.441393 
L 70.849581 231.387371 
L 70.711882 231.333349 
L 70.585037 231.279327 
L 70.468882 231.225305 
L 70.363092 231.171283 
L 70.267206 231.117261 
L 70.180636 231.063239 
L 70.102697 231.009217 
L 70.03263 230.955195 
L 69.969626 230.901173 
L 69.912859 230.847151 
L 69.861508 230.793129 
L 69.814781 230.739107 
L 69.771943 230.685086 
L 69.732329 230.631064 
L 69.695362 230.577042 
L 69.660565 230.52302 
L 69.627561 230.468998 
L 69.596083 230.414976 
L 69.565963 230.360954 
L 69.537131 230.306932 
L 69.509601 230.25291 
L 69.483462 230.198888 
L 69.458862 230.144866 
L 69.435995 230.090844 
L 69.415083 230.036822 
L 69.396372 229.9828 
L 69.380111 229.928778 
L 69.366554 229.874756 
L 69.355948 229.820734 
L 69.348538 229.766712 
L 69.344565 229.71269 
L 69.344273 229.658668 
L 69.347917 229.604646 
L 69.355773 229.550624 
L 69.36815 229.496602 
L 69.385399 229.44258 
L 69.407927 229.388558 
L 69.436203 229.334536 
L 69.470765 229.280514 
L 69.512224 229.226492 
L 69.561263 229.17247 
L 69.61863 229.118448 
L 69.68513 229.064426 
L 69.761607 229.010404 
L 69.848932 228.956382 
L 69.947973 228.90236 
L 70.059576 228.848338 
L 70.184533 228.794316 
L 70.323558 228.740294 
L 70.477255 228.686272 
L 70.646093 228.63225 
L 70.830381 228.578228 
L 71.030246 228.524206 
L 71.245617 228.470184 
L 71.476211 228.416162 
L 71.721527 228.36214 
L 71.980846 228.308118 
L 72.253234 228.254096 
L 72.537554 228.200074 
L 72.832481 228.146052 
L 73.136524 228.09203 
L 73.448051 228.038008 
L 73.765318 227.983986 
L 74.086498 227.929964 
L 74.409718 227.875942 
L 85.433893 227.875942 
L 85.433893 227.875942 
L 85.757113 227.929964 
L 86.078293 227.983986 
L 86.395559 228.038008 
L 86.707087 228.09203 
L 87.01113 228.146052 
L 87.306057 228.200074 
L 87.590377 228.254096 
L 87.862765 228.308118 
L 88.122084 228.36214 
L 88.3674 228.416162 
L 88.597994 228.470184 
L 88.813365 228.524206 
L 89.01323 228.578228 
L 89.197517 228.63225 
L 89.366355 228.686272 
L 89.520052 228.740294 
L 89.659077 228.794316 
L 89.784035 228.848338 
L 89.895638 228.90236 
L 89.994679 228.956382 
L 90.082003 229.010404 
L 90.158481 229.064426 
L 90.22498 229.118448 
L 90.282347 229.17247 
L 90.331386 229.226492 
L 90.372846 229.280514 
L 90.407408 229.334536 
L 90.435684 229.388558 
L 90.458212 229.44258 
L 90.475461 229.496602 
L 90.487838 229.550624 
L 90.495694 229.604646 
L 90.499338 229.658668 
L 90.499046 229.71269 
L 90.495072 229.766712 
L 90.487663 229.820734 
L 90.477057 229.874756 
L 90.4635 229.928778 
L 90.447239 229.9828 
L 90.428527 230.036822 
L 90.407616 230.090844 
L 90.384748 230.144866 
L 90.360149 230.198888 
L 90.33401 230.25291 
L 90.30648 230.306932 
L 90.277648 230.360954 
L 90.247528 230.414976 
L 90.216049 230.468998 
L 90.183046 230.52302 
L 90.148248 230.577042 
L 90.111282 230.631064 
L 90.071668 230.685086 
L 90.02883 230.739107 
L 89.982103 230.793129 
L 89.930751 230.847151 
L 89.873984 230.901173 
L 89.810981 230.955195 
L 89.740913 231.009217 
L 89.662975 231.063239 
L 89.576405 231.117261 
L 89.480518 231.171283 
L 89.374729 231.225305 
L 89.258573 231.279327 
L 89.131728 231.333349 
L 88.99403 231.387371 
L 88.845481 231.441393 
L 88.68626 231.495415 
L 88.516719 231.549437 
L 88.33738 231.603459 
L 88.148927 231.657481 
L 87.952191 231.711503 
L 87.74813 231.765525 
L 87.537811 231.819547 
L 87.322382 231.873569 
L 87.103044 231.927591 
L 86.88103 231.981613 
L 86.657571 232.035635 
L 86.43387 232.089657 
L 86.211078 232.143679 
L 85.990267 232.197701 
L 85.772413 232.251723 
L 85.558375 232.305745 
L 85.348883 232.359767 
L 85.144528 232.413789 
L 84.945757 232.467811 
L 84.75287 232.521833 
L 84.566028 232.575855 
L 84.385254 232.629877 
L 84.21045 232.683899 
L 84.041409 232.737921 
L 83.877828 232.791943 
L 83.719336 232.845965 
L 83.565505 232.899987 
L 83.415877 232.954009 
L 83.269981 233.008031 
L 83.127355 233.062053 
L 82.987566 233.116075 
L 82.850223 233.170097 
L 82.714991 233.224119 
z
" clip-path="url(#p4b4e0db38b)" style="fill: #d2691e; fill-opacity: 0.3"/>
   </g>
   <g id="PathCollection_1">
    <defs>
     <path id="m15615c4c9c" d="M 0 3 
C 0.795609 3 1.55874 2.683901 2.12132 2.12132 
C 2.683901 1.55874 3 0.795609 3 0 
C 3 -0.795609 2.683901 -1.55874 2.12132 -2.12132 
C 1.55874 -2.683901 0.795609 -3 0 -3 
C -0.795609 -3 -1.55874 -2.683901 -2.12132 -2.12132 
C -2.683901 -1.55874 -3 -0.795609 -3 0 
C -3 0.795609 -2.683901 1.55874 -2.12132 2.12132 
C -1.55874 2.683901 -0.795609 3 0 3 
z
" style="stroke: #d2691e"/>
    </defs>
    <g clip-path="url(#p4b4e0db38b)">
     <use xlink:href="#m15615c4c9c" x="79.921805" y="230.235102" style="fill: #d2691e; stroke: #d2691e"/>
    </g>
   </g>
   <g id="PolyCollection_2">
    <path d="M 132.809468 192.899703 
L 111.654403 192.899703 
L 111.654403 192.899703 
L 111.654403 192.899703 
L 111.654403 192.899703 
L 111.654403 192.899703 
L 111.654403 192.899703 
L 111.654403 192.899703 
L 111.654403 192.899703 
L 111.654403 192.899703 
L 111.654403 192.899703 
L 111.654403 192.899703 
L 111.654403 192.899703 
L 111.654403 192.899703 
L 111.654403 192.899703 
L 111.654403 192.899703 
L 111.654403 192.899703 
L 111.654403 192.899703 
L 111.654403 192.899703 
L 111.654403 192.899703 
L 111.654403 192.899703 
L 111.654403 192.899703 
L 111.654403 192.899703 
L 111.654403 192.899703 
L 111.654403 192.899703 
L 111.654403 192.899703 
L 111.654403 192.899703 
L 111.654403 192.899703 
L 111.654403 192.899703 
L 111.654403 192.899703 
L 111.654403 192.899703 
L 111.654403 192.899703 
L 111.654403 192.899703 
L 111.654403 192.899703 
L 111.654403 192.899703 
L 111.654403 192.899703 
L 111.654403 192.899703 
L 111.654403 192.899703 
L 111.654403 192.899703 
L 111.654403 192.899703 
L 111.654403 192.899703 
L 111.654403 192.899703 
L 111.654403 192.899703 
L 111.654403 192.899703 
L 111.654403 192.899703 
L 111.654403 192.899703 
L 111.654403 192.899703 
L 111.654403 192.899703 
L 111.654403 192.899703 
L 111.654403 192.899703 
L 111.654403 192.899703 
L 111.654403 192.899703 
L 111.654403 192.899703 
L 111.654403 192.899703 
L 111.654403 192.899703 
L 111.654403 192.899703 
L 111.654403 192.899703 
L 111.654403 192.899703 
L 111.654403 192.899703 
L 111.654403 192.899703 
L 111.654403 192.899703 
L 111.654403 192.899703 
L 111.654403 192.899703 
L 111.654403 192.899703 
L 111.654403 192.899703 
L 111.654403 192.899703 
L 111.654403 192.899703 
L 111.654403 192.899703 
L 111.654403 192.899703 
L 111.654403 192.899703 
L 111.654403 192.899703 
L 111.654403 192.899703 
L 111.654403 192.899703 
L 111.654403 192.899703 
L 111.654403 192.899703 
L 111.654403 192.899703 
L 111.654403 192.899703 
L 111.654403 192.899703 
L 111.654403 192.899703 
L 111.654403 192.899703 
L 111.654403 192.899703 
L 111.654403 192.899703 
L 111.654403 192.899703 
L 111.654403 192.899703 
L 111.654403 192.899703 
L 111.654403 192.899703 
L 111.654403 192.899703 
L 111.654403 192.899703 
L 111.654403 192.899703 
L 111.654403 192.899703 
L 111.654403 192.899703 
L 111.654403 192.899703 
L 111.654403 192.899703 
L 111.654403 192.899703 
L 111.654403 192.899703 
L 111.654403 192.899703 
L 111.654403 192.899703 
L 111.654403 192.899703 
L 111.654403 192.899703 
L 111.654403 192.899703 
L 111.654403 192.899703 
L 132.809468 192.899703 
L 132.809468 192.899703 
L 132.809468 192.899703 
L 132.809468 192.899703 
L 132.809468 192.899703 
L 132.809468 192.899703 
L 132.809468 192.899703 
L 132.809468 192.899703 
L 132.809468 192.899703 
L 132.809468 192.899703 
L 132.809468 192.899703 
L 132.809468 192.899703 
L 132.809468 192.899703 
L 132.809468 192.899703 
L 132.809468 192.899703 
L 132.809468 192.899703 
L 132.809468 192.899703 
L 132.809468 192.899703 
L 132.809468 192.899703 
L 132.809468 192.899703 
L 132.809468 192.899703 
L 132.809468 192.899703 
L 132.809468 192.899703 
L 132.809468 192.899703 
L 132.809468 192.899703 
L 132.809468 192.899703 
L 132.809468 192.899703 
L 132.809468 192.899703 
L 132.809468 192.899703 
L 132.809468 192.899703 
L 132.809468 192.899703 
L 132.809468 192.899703 
L 132.809468 192.899703 
L 132.809468 192.899703 
L 132.809468 192.899703 
L 132.809468 192.899703 
L 132.809468 192.899703 
L 132.809468 192.899703 
L 132.809468 192.899703 
L 132.809468 192.899703 
L 132.809468 192.899703 
L 132.809468 192.899703 
L 132.809468 192.899703 
L 132.809468 192.899703 
L 132.809468 192.899703 
L 132.809468 192.899703 
L 132.809468 192.899703 
L 132.809468 192.899703 
L 132.809468 192.899703 
L 132.809468 192.899703 
L 132.809468 192.899703 
L 132.809468 192.899703 
L 132.809468 192.899703 
L 132.809468 192.899703 
L 132.809468 192.899703 
L 132.809468 192.899703 
L 132.809468 192.899703 
L 132.809468 192.899703 
L 132.809468 192.899703 
L 132.809468 192.899703 
L 132.809468 192.899703 
L 132.809468 192.899703 
L 132.809468 192.899703 
L 132.809468 192.899703 
L 132.809468 192.899703 
L 132.809468 192.899703 
L 132.809468 192.899703 
L 132.809468 192.899703 
L 132.809468 192.899703 
L 132.809468 192.899703 
L 132.809468 192.899703 
L 132.809468 192.899703 
L 132.809468 192.899703 
L 132.809468 192.899703 
L 132.809468 192.899703 
L 132.809468 192.899703 
L 132.809468 192.899703 
L 132.809468 192.899703 
L 132.809468 192.899703 
L 132.809468 192.899703 
L 132.809468 192.899703 
L 132.809468 192.899703 
L 132.809468 192.899703 
L 132.809468 192.899703 
L 132.809468 192.899703 
L 132.809468 192.899703 
L 132.809468 192.899703 
L 132.809468 192.899703 
L 132.809468 192.899703 
L 132.809468 192.899703 
L 132.809468 192.899703 
L 132.809468 192.899703 
L 132.809468 192.899703 
L 132.809468 192.899703 
L 132.809468 192.899703 
L 132.809468 192.899703 
L 132.809468 192.899703 
L 132.809468 192.899703 
L 132.809468 192.899703 
L 132.809468 192.899703 
L 132.809468 192.899703 
z
" clip-path="url(#p4b4e0db38b)" style="fill: #1f77b4; fill-opacity: 0.3"/>
   </g>
   <g id="PathCollection_2">
    <defs>
     <path id="mde83dd2ef8" d="M 0 3 
C 0.795609 3 1.55874 2.683901 2.12132 2.12132 
C 2.683901 1.55874 3 0.795609 3 0 
C 3 -0.795609 2.683901 -1.55874 2.12132 -2.12132 
C 1.55874 -2.683901 0.795609 -3 0 -3 
C -0.795609 -3 -1.55874 -2.683901 -2.12132 -2.12132 
C -2.683901 -1.55874 -3 -0.795609 -3 0 
C -3 0.795609 -2.683901 1.55874 -2.12132 2.12132 
C -1.55874 2.683901 -0.795609 3 0 3 
z
" style="stroke: #1f77b4"/>
    </defs>
    <g clip-path="url(#p4b4e0db38b)">
     <use xlink:href="#mde83dd2ef8" x="122.231936" y="192.899703" style="fill: #1f77b4; stroke: #1f77b4"/>
    </g>
   </g>
   <g id="PolyCollection_3">
    <path d="M 166.890072 192.91771 
L 162.19406 192.91771 
L 162.015153 192.883939 
L 161.827996 192.850167 
L 161.63261 192.816396 
L 161.429077 192.782625 
L 161.217547 192.748853 
L 160.998241 192.715082 
L 160.771458 192.681311 
L 160.537579 192.647539 
L 160.297063 192.613768 
L 160.050452 192.579997 
L 159.798366 192.546225 
L 159.541498 192.512454 
L 159.280607 192.478683 
L 159.016518 192.444911 
L 158.750107 192.41114 
L 158.4823 192.377369 
L 158.214061 192.343597 
L 157.946391 192.309826 
L 157.680316 192.276055 
L 157.416884 192.242283 
L 157.157158 192.208512 
L 156.902212 192.174741 
L 156.65312 192.14097 
L 156.410954 192.107198 
L 156.176772 192.073427 
L 155.951606 192.039656 
L 155.736454 192.005884 
L 155.532258 191.972113 
L 155.339893 191.938342 
L 155.160144 191.90457 
L 154.993684 191.870799 
L 154.841057 191.837028 
L 154.702651 191.803256 
L 154.578683 191.769485 
L 154.469177 191.735714 
L 154.373955 191.701942 
L 154.292625 191.668171 
L 154.224585 191.6344 
L 154.169022 191.600628 
L 154.124931 191.566857 
L 154.091136 191.533086 
L 154.066319 191.499314 
L 154.049059 191.465543 
L 154.037875 191.431772 
L 154.031278 191.398 
L 154.02782 191.364229 
L 154.026151 191.330458 
L 154.025069 191.296686 
L 154.023571 191.262915 
L 154.020897 191.229144 
L 154.016565 191.195372 
L 154.010395 191.161601 
L 154.002531 191.12783 
L 153.993437 191.094058 
L 153.983893 191.060287 
L 153.97497 191.026516 
L 153.968001 190.992744 
L 153.964533 190.958973 
L 153.96628 190.925202 
L 153.975057 190.891431 
L 153.992723 190.857659 
L 154.02111 190.823888 
L 154.061964 190.790117 
L 154.116876 190.756345 
L 154.187233 190.722574 
L 154.274164 190.688803 
L 154.378505 190.655031 
L 154.500767 190.62126 
L 154.641122 190.587489 
L 154.799399 190.553717 
L 154.975084 190.519946 
L 155.167347 190.486175 
L 155.375063 190.452403 
L 155.596852 190.418632 
L 155.831119 190.384861 
L 156.076107 190.351089 
L 156.329947 190.317318 
L 156.590707 190.283547 
L 156.856451 190.249775 
L 157.125283 190.216004 
L 157.395393 190.182233 
L 157.665102 190.148461 
L 157.932888 190.11469 
L 158.197416 190.080919 
L 158.457556 190.047147 
L 158.712393 190.013376 
L 158.961227 189.979605 
L 159.203572 189.945833 
L 159.43914 189.912062 
L 159.667824 189.878291 
L 159.889678 189.844519 
L 160.104886 189.810748 
L 160.313736 189.776977 
L 160.51659 189.743205 
L 160.713851 189.709434 
L 160.905935 189.675663 
L 161.093244 189.641892 
L 161.276143 189.60812 
L 161.454939 189.574349 
L 167.629192 189.574349 
L 167.629192 189.574349 
L 167.807989 189.60812 
L 167.990888 189.641892 
L 168.178197 189.675663 
L 168.370281 189.709434 
L 168.567542 189.743205 
L 168.770396 189.776977 
L 168.979246 189.810748 
L 169.194454 189.844519 
L 169.416308 189.878291 
L 169.644992 189.912062 
L 169.880559 189.945833 
L 170.122904 189.979605 
L 170.371739 190.013376 
L 170.626576 190.047147 
L 170.886716 190.080919 
L 171.151244 190.11469 
L 171.41903 190.148461 
L 171.688738 190.182233 
L 171.958849 190.216004 
L 172.22768 190.249775 
L 172.493424 190.283547 
L 172.754185 190.317318 
L 173.008024 190.351089 
L 173.253013 190.384861 
L 173.48728 190.418632 
L 173.709069 190.452403 
L 173.916785 190.486175 
L 174.109048 190.519946 
L 174.284733 190.553717 
L 174.443009 190.587489 
L 174.583365 190.62126 
L 174.705627 190.655031 
L 174.809968 190.688803 
L 174.896899 190.722574 
L 174.967255 190.756345 
L 175.022168 190.790117 
L 175.063021 190.823888 
L 175.091409 190.857659 
L 175.109075 190.891431 
L 175.117852 190.925202 
L 175.119598 190.958973 
L 175.116131 190.992744 
L 175.109162 191.026516 
L 175.100239 191.060287 
L 175.090695 191.094058 
L 175.081601 191.12783 
L 175.073736 191.161601 
L 175.067567 191.195372 
L 175.063234 191.229144 
L 175.060561 191.262915 
L 175.059063 191.296686 
L 175.057981 191.330458 
L 175.056312 191.364229 
L 175.052854 191.398 
L 175.046257 191.431772 
L 175.035073 191.465543 
L 175.017813 191.499314 
L 174.992996 191.533086 
L 174.959201 191.566857 
L 174.91511 191.600628 
L 174.859547 191.6344 
L 174.791506 191.668171 
L 174.710177 191.701942 
L 174.614955 191.735714 
L 174.505449 191.769485 
L 174.38148 191.803256 
L 174.243075 191.837028 
L 174.090448 191.870799 
L 173.923988 191.90457 
L 173.744239 191.938342 
L 173.551874 191.972113 
L 173.347678 192.005884 
L 173.132525 192.039656 
L 172.90736 192.073427 
L 172.673178 192.107198 
L 172.431012 192.14097 
L 172.18192 192.174741 
L 171.926974 192.208512 
L 171.667248 192.242283 
L 171.403816 192.276055 
L 171.137741 192.309826 
L 170.870071 192.343597 
L 170.601832 192.377369 
L 170.334025 192.41114 
L 170.067614 192.444911 
L 169.803524 192.478683 
L 169.542634 192.512454 
L 169.285765 192.546225 
L 169.033679 192.579997 
L 168.787069 192.613768 
L 168.546553 192.647539 
L 168.312674 192.681311 
L 168.085891 192.715082 
L 167.866585 192.748853 
L 167.655055 192.782625 
L 167.451522 192.816396 
L 167.256136 192.850167 
L 167.068978 192.883939 
L 166.890072 192.91771 
z
" clip-path="url(#p4b4e0db38b)" style="fill: #a52a2a; fill-opacity: 0.3"/>
   </g>
   <g id="PathCollection_3">
    <defs>
     <path id="m8dd6a854d4" d="M 0 3 
C 0.795609 3 1.55874 2.683901 2.12132 2.12132 
C 2.683901 1.55874 3 0.795609 3 0 
C 3 -0.795609 2.683901 -1.55874 2.12132 -2.12132 
C 1.55874 -2.683901 0.795609 -3 0 -3 
C -0.795609 -3 -1.55874 -2.683901 -2.12132 -2.12132 
C -2.683901 -1.55874 -3 -0.795609 -3 0 
C -3 0.795609 -2.683901 1.55874 -2.12132 2.12132 
C -1.55874 2.683901 -0.795609 3 0 3 
z
" style="stroke: #a52a2a"/>
    </defs>
    <g clip-path="url(#p4b4e0db38b)">
     <use xlink:href="#m8dd6a854d4" x="164.542066" y="191.190407" style="fill: #a52a2a; stroke: #a52a2a"/>
    </g>
   </g>
   <g id="PolyCollection_4">
    <path d="M 209.661972 187.425474 
L 204.04242 187.425474 
L 203.946475 187.411893 
L 203.854841 187.398311 
L 203.767443 187.38473 
L 203.684079 187.371149 
L 203.604435 187.357568 
L 203.528081 187.343986 
L 203.454488 187.330405 
L 203.383033 187.316824 
L 203.313015 187.303242 
L 203.243664 187.289661 
L 203.174153 187.27608 
L 203.103614 187.262499 
L 203.031143 187.248917 
L 202.955816 187.235336 
L 202.876698 187.221755 
L 202.792851 187.208173 
L 202.703344 187.194592 
L 202.607263 187.181011 
L 202.50372 187.16743 
L 202.391864 187.153848 
L 202.270894 187.140267 
L 202.140069 187.126686 
L 201.998727 187.113104 
L 201.846302 187.099523 
L 201.682339 187.085942 
L 201.50652 187.072361 
L 201.318682 187.058779 
L 201.118837 187.045198 
L 200.907201 187.031617 
L 200.684203 187.018035 
L 200.450508 187.004454 
L 200.20703 186.990873 
L 199.954936 186.977292 
L 199.695648 186.96371 
L 199.43084 186.950129 
L 199.16242 186.936548 
L 198.892514 186.922966 
L 198.623432 186.909385 
L 198.357632 186.895804 
L 198.097676 186.882223 
L 197.846182 186.868641 
L 197.605763 186.85506 
L 197.37898 186.841479 
L 197.168272 186.827897 
L 196.975907 186.814316 
L 196.803924 186.800735 
L 196.654085 186.787154 
L 196.527831 186.773572 
L 196.42625 186.759991 
L 196.35005 186.74641 
L 196.299547 186.732828 
L 196.274664 186.719247 
L 196.274933 186.705666 
L 196.299523 186.692085 
L 196.34726 186.678503 
L 196.416672 186.664922 
L 196.506029 186.651341 
L 196.613397 186.637759 
L 196.73669 186.624178 
L 196.873728 186.610597 
L 197.022289 186.597016 
L 197.180169 186.583434 
L 197.345228 186.569853 
L 197.515435 186.556272 
L 197.688911 186.54269 
L 197.863956 186.529109 
L 198.039078 186.515528 
L 198.213007 186.501947 
L 198.384709 186.488365 
L 198.553382 186.474784 
L 198.718457 186.461203 
L 198.879585 186.447621 
L 199.036624 186.43404 
L 199.18962 186.420459 
L 199.338784 186.406878 
L 199.484472 186.393296 
L 199.627156 186.379715 
L 199.7674 186.366134 
L 199.905841 186.352552 
L 200.043157 186.338971 
L 200.180051 186.32539 
L 200.31723 186.311809 
L 200.455383 186.298227 
L 200.595169 186.284646 
L 200.737198 186.271065 
L 200.882021 186.257483 
L 201.030117 186.243902 
L 201.181887 186.230321 
L 201.337641 186.21674 
L 201.497597 186.203158 
L 201.661875 186.189577 
L 201.830491 186.175996 
L 202.003362 186.162414 
L 202.1803 186.148833 
L 202.361017 186.135252 
L 202.545129 186.121671 
L 202.732163 186.108089 
L 202.921558 186.094508 
L 203.112682 186.080927 
L 210.591711 186.080927 
L 210.591711 186.080927 
L 210.782834 186.094508 
L 210.972229 186.108089 
L 211.159263 186.121671 
L 211.343376 186.135252 
L 211.524093 186.148833 
L 211.70103 186.162414 
L 211.873901 186.175996 
L 212.042518 186.189577 
L 212.206795 186.203158 
L 212.366751 186.21674 
L 212.522506 186.230321 
L 212.674275 186.243902 
L 212.822372 186.257483 
L 212.967194 186.271065 
L 213.109223 186.284646 
L 213.249009 186.298227 
L 213.387162 186.311809 
L 213.524341 186.32539 
L 213.661236 186.338971 
L 213.798552 186.352552 
L 213.936992 186.366134 
L 214.077237 186.379715 
L 214.21992 186.393296 
L 214.365608 186.406878 
L 214.514773 186.420459 
L 214.667769 186.43404 
L 214.824808 186.447621 
L 214.985935 186.461203 
L 215.15101 186.474784 
L 215.319683 186.488365 
L 215.491385 186.501947 
L 215.665315 186.515528 
L 215.840437 186.529109 
L 216.015481 186.54269 
L 216.188957 186.556272 
L 216.359164 186.569853 
L 216.524223 186.583434 
L 216.682103 186.597016 
L 216.830665 186.610597 
L 216.967702 186.624178 
L 217.090995 186.637759 
L 217.198363 186.651341 
L 217.28772 186.664922 
L 217.357132 186.678503 
L 217.40487 186.692085 
L 217.429459 186.705666 
L 217.429729 186.719247 
L 217.404845 186.732828 
L 217.354343 186.74641 
L 217.278143 186.759991 
L 217.176561 186.773572 
L 217.050307 186.787154 
L 216.900468 186.800735 
L 216.728485 186.814316 
L 216.536121 186.827897 
L 216.325413 186.841479 
L 216.098629 186.85506 
L 215.858211 186.868641 
L 215.606716 186.882223 
L 215.34676 186.895804 
L 215.08096 186.909385 
L 214.811878 186.922966 
L 214.541972 186.936548 
L 214.273553 186.950129 
L 214.008744 186.96371 
L 213.749456 186.977292 
L 213.497362 186.990873 
L 213.253884 187.004454 
L 213.02019 187.018035 
L 212.797191 187.031617 
L 212.585555 187.045198 
L 212.385711 187.058779 
L 212.197872 187.072361 
L 212.022053 187.085942 
L 211.85809 187.099523 
L 211.705665 187.113104 
L 211.564323 187.126686 
L 211.433498 187.140267 
L 211.312528 187.153848 
L 211.200672 187.16743 
L 211.09713 187.181011 
L 211.001048 187.194592 
L 210.911541 187.208173 
L 210.827694 187.221755 
L 210.748576 187.235336 
L 210.67325 187.248917 
L 210.600779 187.262499 
L 210.530239 187.27608 
L 210.460729 187.289661 
L 210.391377 187.303242 
L 210.321359 187.316824 
L 210.249905 187.330405 
L 210.176311 187.343986 
L 210.099957 187.357568 
L 210.020313 187.371149 
L 209.93695 187.38473 
L 209.849551 187.398311 
L 209.757917 187.411893 
L 209.661972 187.425474 
z
" clip-path="url(#p4b4e0db38b)" style="fill: #008000; fill-opacity: 0.3"/>
   </g>
   <g id="PathCollection_4">
    <defs>
     <path id="m6efeb76181" d="M 0 3 
C 0.795609 3 1.55874 2.683901 2.12132 2.12132 
C 2.683901 1.55874 3 0.795609 3 0 
C 3 -0.795609 2.683901 -1.55874 2.12132 -2.12132 
C 1.55874 -2.683901 0.795609 -3 0 -3 
C -0.795609 -3 -1.55874 -2.683901 -2.12132 -2.12132 
C -2.683901 -1.55874 -3 -0.795609 -3 0 
C -3 0.795609 -2.683901 1.55874 -2.12132 2.12132 
C -1.55874 2.683901 -0.795609 3 0 3 
z
" style="stroke: #008000"/>
    </defs>
    <g clip-path="url(#p4b4e0db38b)">
     <use xlink:href="#m6efeb76181" x="206.852196" y="186.705581" style="fill: #008000; stroke: #008000"/>
    </g>
   </g>
   <g id="matplotlib.axis_1">
    <g id="xtick_1">
     <g id="line2d_1">
      <defs>
       <path id="m73b92ecd13" d="M 0 0 
L 0 3.5 
" style="stroke: #000000; stroke-width: 0.8"/>
      </defs>
      <g>
       <use xlink:href="#m73b92ecd13" x="79.921805" y="242.946877" style="stroke: #000000; stroke-width: 0.8"/>
      </g>
     </g>
     <g id="text_1">
      <!-- Untrained -->
      <g style="fill: #d2691e" transform="translate(58.246677 301.249173) rotate(-50) scale(0.12 -0.12)">
       <defs>
        <path id="DejaVuSans-55" d="M 556 4666 
L 1191 4666 
L 1191 1831 
Q 1191 1081 1462 751 
Q 1734 422 2344 422 
Q 2950 422 3222 751 
Q 3494 1081 3494 1831 
L 3494 4666 
L 4128 4666 
L 4128 1753 
Q 4128 841 3676 375 
Q 3225 -91 2344 -91 
Q 1459 -91 1007 375 
Q 556 841 556 1753 
L 556 4666 
z
" transform="scale(0.015625)"/>
        <path id="DejaVuSans-6e" d="M 3513 2113 
L 3513 0 
L 2938 0 
L 2938 2094 
Q 2938 2591 2744 2837 
Q 2550 3084 2163 3084 
Q 1697 3084 1428 2787 
Q 1159 2491 1159 1978 
L 1159 0 
L 581 0 
L 581 3500 
L 1159 3500 
L 1159 2956 
Q 1366 3272 1645 3428 
Q 1925 3584 2291 3584 
Q 2894 3584 3203 3211 
Q 3513 2838 3513 2113 
z
" transform="scale(0.015625)"/>
        <path id="DejaVuSans-74" d="M 1172 4494 
L 1172 3500 
L 2356 3500 
L 2356 3053 
L 1172 3053 
L 1172 1153 
Q 1172 725 1289 603 
Q 1406 481 1766 481 
L 2356 481 
L 2356 0 
L 1766 0 
Q 1100 0 847 248 
Q 594 497 594 1153 
L 594 3053 
L 172 3053 
L 172 3500 
L 594 3500 
L 594 4494 
L 1172 4494 
z
" transform="scale(0.015625)"/>
        <path id="DejaVuSans-72" d="M 2631 2963 
Q 2534 3019 2420 3045 
Q 2306 3072 2169 3072 
Q 1681 3072 1420 2755 
Q 1159 2438 1159 1844 
L 1159 0 
L 581 0 
L 581 3500 
L 1159 3500 
L 1159 2956 
Q 1341 3275 1631 3429 
Q 1922 3584 2338 3584 
Q 2397 3584 2469 3576 
Q 2541 3569 2628 3553 
L 2631 2963 
z
" transform="scale(0.015625)"/>
        <path id="DejaVuSans-61" d="M 2194 1759 
Q 1497 1759 1228 1600 
Q 959 1441 959 1056 
Q 959 750 1161 570 
Q 1363 391 1709 391 
Q 2188 391 2477 730 
Q 2766 1069 2766 1631 
L 2766 1759 
L 2194 1759 
z
M 3341 1997 
L 3341 0 
L 2766 0 
L 2766 531 
Q 2569 213 2275 61 
Q 1981 -91 1556 -91 
Q 1019 -91 701 211 
Q 384 513 384 1019 
Q 384 1609 779 1909 
Q 1175 2209 1959 2209 
L 2766 2209 
L 2766 2266 
Q 2766 2663 2505 2880 
Q 2244 3097 1772 3097 
Q 1472 3097 1187 3025 
Q 903 2953 641 2809 
L 641 3341 
Q 956 3463 1253 3523 
Q 1550 3584 1831 3584 
Q 2591 3584 2966 3190 
Q 3341 2797 3341 1997 
z
" transform="scale(0.015625)"/>
        <path id="DejaVuSans-69" d="M 603 3500 
L 1178 3500 
L 1178 0 
L 603 0 
L 603 3500 
z
M 603 4863 
L 1178 4863 
L 1178 4134 
L 603 4134 
L 603 4863 
z
" transform="scale(0.015625)"/>
        <path id="DejaVuSans-65" d="M 3597 1894 
L 3597 1613 
L 953 1613 
Q 991 1019 1311 708 
Q 1631 397 2203 397 
Q 2534 397 2845 478 
Q 3156 559 3463 722 
L 3463 178 
Q 3153 47 2828 -22 
Q 2503 -91 2169 -91 
Q 1331 -91 842 396 
Q 353 884 353 1716 
Q 353 2575 817 3079 
Q 1281 3584 2069 3584 
Q 2775 3584 3186 3129 
Q 3597 2675 3597 1894 
z
M 3022 2063 
Q 3016 2534 2758 2815 
Q 2500 3097 2075 3097 
Q 1594 3097 1305 2825 
Q 1016 2553 972 2059 
L 3022 2063 
z
" transform="scale(0.015625)"/>
        <path id="DejaVuSans-64" d="M 2906 2969 
L 2906 4863 
L 3481 4863 
L 3481 0 
L 2906 0 
L 2906 525 
Q 2725 213 2448 61 
Q 2172 -91 1784 -91 
Q 1150 -91 751 415 
Q 353 922 353 1747 
Q 353 2572 751 3078 
Q 1150 3584 1784 3584 
Q 2172 3584 2448 3432 
Q 2725 3281 2906 2969 
z
M 947 1747 
Q 947 1113 1208 752 
Q 1469 391 1925 391 
Q 2381 391 2643 752 
Q 2906 1113 2906 1747 
Q 2906 2381 2643 2742 
Q 2381 3103 1925 3103 
Q 1469 3103 1208 2742 
Q 947 2381 947 1747 
z
" transform="scale(0.015625)"/>
       </defs>
       <use xlink:href="#DejaVuSans-55"/>
       <use xlink:href="#DejaVuSans-6e" x="73.193359"/>
       <use xlink:href="#DejaVuSans-74" x="136.572266"/>
       <use xlink:href="#DejaVuSans-72" x="175.78125"/>
       <use xlink:href="#DejaVuSans-61" x="216.894531"/>
       <use xlink:href="#DejaVuSans-69" x="278.173828"/>
       <use xlink:href="#DejaVuSans-6e" x="305.957031"/>
       <use xlink:href="#DejaVuSans-65" x="369.335938"/>
       <use xlink:href="#DejaVuSans-64" x="430.859375"/>
      </g>
      <!-- model -->
      <g style="fill: #d2691e" transform="translate(75.595701 301.478256) rotate(-50) scale(0.12 -0.12)">
       <defs>
        <path id="DejaVuSans-6d" d="M 3328 2828 
Q 3544 3216 3844 3400 
Q 4144 3584 4550 3584 
Q 5097 3584 5394 3201 
Q 5691 2819 5691 2113 
L 5691 0 
L 5113 0 
L 5113 2094 
Q 5113 2597 4934 2840 
Q 4756 3084 4391 3084 
Q 3944 3084 3684 2787 
Q 3425 2491 3425 1978 
L 3425 0 
L 2847 0 
L 2847 2094 
Q 2847 2600 2669 2842 
Q 2491 3084 2119 3084 
Q 1678 3084 1418 2786 
Q 1159 2488 1159 1978 
L 1159 0 
L 581 0 
L 581 3500 
L 1159 3500 
L 1159 2956 
Q 1356 3278 1631 3431 
Q 1906 3584 2284 3584 
Q 2666 3584 2933 3390 
Q 3200 3197 3328 2828 
z
" transform="scale(0.015625)"/>
        <path id="DejaVuSans-6f" d="M 1959 3097 
Q 1497 3097 1228 2736 
Q 959 2375 959 1747 
Q 959 1119 1226 758 
Q 1494 397 1959 397 
Q 2419 397 2687 759 
Q 2956 1122 2956 1747 
Q 2956 2369 2687 2733 
Q 2419 3097 1959 3097 
z
M 1959 3584 
Q 2709 3584 3137 3096 
Q 3566 2609 3566 1747 
Q 3566 888 3137 398 
Q 2709 -91 1959 -91 
Q 1206 -91 779 398 
Q 353 888 353 1747 
Q 353 2609 779 3096 
Q 1206 3584 1959 3584 
z
" transform="scale(0.015625)"/>
        <path id="DejaVuSans-6c" d="M 603 4863 
L 1178 4863 
L 1178 0 
L 603 0 
L 603 4863 
z
" transform="scale(0.015625)"/>
       </defs>
       <use xlink:href="#DejaVuSans-6d"/>
       <use xlink:href="#DejaVuSans-6f" x="97.412109"/>
       <use xlink:href="#DejaVuSans-64" x="158.59375"/>
       <use xlink:href="#DejaVuSans-65" x="222.070312"/>
       <use xlink:href="#DejaVuSans-6c" x="283.59375"/>
      </g>
     </g>
    </g>
    <g id="xtick_2">
     <g id="line2d_2">
      <g>
       <use xlink:href="#m73b92ecd13" x="122.231936" y="242.946877" style="stroke: #000000; stroke-width: 0.8"/>
      </g>
     </g>
     <g id="text_2">
      <!-- Masked -->
      <g style="fill: #1f77b4" transform="translate(105.006505 294.973832) rotate(-50) scale(0.12 -0.12)">
       <defs>
        <path id="DejaVuSans-4d" d="M 628 4666 
L 1569 4666 
L 2759 1491 
L 3956 4666 
L 4897 4666 
L 4897 0 
L 4281 0 
L 4281 4097 
L 3078 897 
L 2444 897 
L 1241 4097 
L 1241 0 
L 628 0 
L 628 4666 
z
" transform="scale(0.015625)"/>
        <path id="DejaVuSans-73" d="M 2834 3397 
L 2834 2853 
Q 2591 2978 2328 3040 
Q 2066 3103 1784 3103 
Q 1356 3103 1142 2972 
Q 928 2841 928 2578 
Q 928 2378 1081 2264 
Q 1234 2150 1697 2047 
L 1894 2003 
Q 2506 1872 2764 1633 
Q 3022 1394 3022 966 
Q 3022 478 2636 193 
Q 2250 -91 1575 -91 
Q 1294 -91 989 -36 
Q 684 19 347 128 
L 347 722 
Q 666 556 975 473 
Q 1284 391 1588 391 
Q 1994 391 2212 530 
Q 2431 669 2431 922 
Q 2431 1156 2273 1281 
Q 2116 1406 1581 1522 
L 1381 1569 
Q 847 1681 609 1914 
Q 372 2147 372 2553 
Q 372 3047 722 3315 
Q 1072 3584 1716 3584 
Q 2034 3584 2315 3537 
Q 2597 3491 2834 3397 
z
" transform="scale(0.015625)"/>
        <path id="DejaVuSans-6b" d="M 581 4863 
L 1159 4863 
L 1159 1991 
L 2875 3500 
L 3609 3500 
L 1753 1863 
L 3688 0 
L 2938 0 
L 1159 1709 
L 1159 0 
L 581 0 
L 581 4863 
z
" transform="scale(0.015625)"/>
       </defs>
       <use xlink:href="#DejaVuSans-4d"/>
       <use xlink:href="#DejaVuSans-61" x="86.279297"/>
       <use xlink:href="#DejaVuSans-73" x="147.558594"/>
       <use xlink:href="#DejaVuSans-6b" x="199.658203"/>
       <use xlink:href="#DejaVuSans-65" x="253.943359"/>
       <use xlink:href="#DejaVuSans-64" x="315.466797"/>
      </g>
      <!-- raw input -->
      <g style="fill: #1f77b4" transform="translate(111.666372 307.941756) rotate(-50) scale(0.12 -0.12)">
       <defs>
        <path id="DejaVuSans-77" d="M 269 3500 
L 844 3500 
L 1563 769 
L 2278 3500 
L 2956 3500 
L 3675 769 
L 4391 3500 
L 4966 3500 
L 4050 0 
L 3372 0 
L 2619 2869 
L 1863 0 
L 1184 0 
L 269 3500 
z
" transform="scale(0.015625)"/>
        <path id="DejaVuSans-20" transform="scale(0.015625)"/>
        <path id="DejaVuSans-70" d="M 1159 525 
L 1159 -1331 
L 581 -1331 
L 581 3500 
L 1159 3500 
L 1159 2969 
Q 1341 3281 1617 3432 
Q 1894 3584 2278 3584 
Q 2916 3584 3314 3078 
Q 3713 2572 3713 1747 
Q 3713 922 3314 415 
Q 2916 -91 2278 -91 
Q 1894 -91 1617 61 
Q 1341 213 1159 525 
z
M 3116 1747 
Q 3116 2381 2855 2742 
Q 2594 3103 2138 3103 
Q 1681 3103 1420 2742 
Q 1159 2381 1159 1747 
Q 1159 1113 1420 752 
Q 1681 391 2138 391 
Q 2594 391 2855 752 
Q 3116 1113 3116 1747 
z
" transform="scale(0.015625)"/>
        <path id="DejaVuSans-75" d="M 544 1381 
L 544 3500 
L 1119 3500 
L 1119 1403 
Q 1119 906 1312 657 
Q 1506 409 1894 409 
Q 2359 409 2629 706 
Q 2900 1003 2900 1516 
L 2900 3500 
L 3475 3500 
L 3475 0 
L 2900 0 
L 2900 538 
Q 2691 219 2414 64 
Q 2138 -91 1772 -91 
Q 1169 -91 856 284 
Q 544 659 544 1381 
z
M 1991 3584 
L 1991 3584 
z
" transform="scale(0.015625)"/>
       </defs>
       <use xlink:href="#DejaVuSans-72"/>
       <use xlink:href="#DejaVuSans-61" x="41.113281"/>
       <use xlink:href="#DejaVuSans-77" x="102.392578"/>
       <use xlink:href="#DejaVuSans-20" x="184.179688"/>
       <use xlink:href="#DejaVuSans-69" x="215.966797"/>
       <use xlink:href="#DejaVuSans-6e" x="243.75"/>
       <use xlink:href="#DejaVuSans-70" x="307.128906"/>
       <use xlink:href="#DejaVuSans-75" x="370.605469"/>
       <use xlink:href="#DejaVuSans-74" x="433.984375"/>
      </g>
     </g>
    </g>
    <g id="xtick_3">
     <g id="line2d_3">
      <g>
       <use xlink:href="#m73b92ecd13" x="164.542066" y="242.946877" style="stroke: #000000; stroke-width: 0.8"/>
      </g>
     </g>
     <g id="text_3">
      <!-- LPL -->
      <g style="fill: #a52a2a" transform="translate(160.455307 271.594635) rotate(-50) scale(0.12 -0.12)">
       <defs>
        <path id="DejaVuSans-4c" d="M 628 4666 
L 1259 4666 
L 1259 531 
L 3531 531 
L 3531 0 
L 628 0 
L 628 4666 
z
" transform="scale(0.015625)"/>
        <path id="DejaVuSans-50" d="M 1259 4147 
L 1259 2394 
L 2053 2394 
Q 2494 2394 2734 2622 
Q 2975 2850 2975 3272 
Q 2975 3691 2734 3919 
Q 2494 4147 2053 4147 
L 1259 4147 
z
M 628 4666 
L 2053 4666 
Q 2838 4666 3239 4311 
Q 3641 3956 3641 3272 
Q 3641 2581 3239 2228 
Q 2838 1875 2053 1875 
L 1259 1875 
L 1259 0 
L 628 0 
L 628 4666 
z
" transform="scale(0.015625)"/>
       </defs>
       <use xlink:href="#DejaVuSans-4c"/>
       <use xlink:href="#DejaVuSans-50" x="55.712891"/>
       <use xlink:href="#DejaVuSans-4c" x="116.015625"/>
      </g>
     </g>
    </g>
    <g id="xtick_4">
     <g id="line2d_4">
      <g>
       <use xlink:href="#m73b92ecd13" x="206.852196" y="242.946877" style="stroke: #000000; stroke-width: 0.8"/>
      </g>
     </g>
     <g id="text_4">
      <!-- TCLoSeR -->
      <g style="fill: #008000" transform="translate(192.624056 295.766688) rotate(-50) scale(0.12 -0.12)">
       <defs>
        <path id="DejaVuSans-54" d="M -19 4666 
L 3928 4666 
L 3928 4134 
L 2272 4134 
L 2272 0 
L 1638 0 
L 1638 4134 
L -19 4134 
L -19 4666 
z
" transform="scale(0.015625)"/>
        <path id="DejaVuSans-43" d="M 4122 4306 
L 4122 3641 
Q 3803 3938 3442 4084 
Q 3081 4231 2675 4231 
Q 1875 4231 1450 3742 
Q 1025 3253 1025 2328 
Q 1025 1406 1450 917 
Q 1875 428 2675 428 
Q 3081 428 3442 575 
Q 3803 722 4122 1019 
L 4122 359 
Q 3791 134 3420 21 
Q 3050 -91 2638 -91 
Q 1578 -91 968 557 
Q 359 1206 359 2328 
Q 359 3453 968 4101 
Q 1578 4750 2638 4750 
Q 3056 4750 3426 4639 
Q 3797 4528 4122 4306 
z
" transform="scale(0.015625)"/>
        <path id="DejaVuSans-53" d="M 3425 4513 
L 3425 3897 
Q 3066 4069 2747 4153 
Q 2428 4238 2131 4238 
Q 1616 4238 1336 4038 
Q 1056 3838 1056 3469 
Q 1056 3159 1242 3001 
Q 1428 2844 1947 2747 
L 2328 2669 
Q 3034 2534 3370 2195 
Q 3706 1856 3706 1288 
Q 3706 609 3251 259 
Q 2797 -91 1919 -91 
Q 1588 -91 1214 -16 
Q 841 59 441 206 
L 441 856 
Q 825 641 1194 531 
Q 1563 422 1919 422 
Q 2459 422 2753 634 
Q 3047 847 3047 1241 
Q 3047 1584 2836 1778 
Q 2625 1972 2144 2069 
L 1759 2144 
Q 1053 2284 737 2584 
Q 422 2884 422 3419 
Q 422 4038 858 4394 
Q 1294 4750 2059 4750 
Q 2388 4750 2728 4690 
Q 3069 4631 3425 4513 
z
" transform="scale(0.015625)"/>
        <path id="DejaVuSans-52" d="M 2841 2188 
Q 3044 2119 3236 1894 
Q 3428 1669 3622 1275 
L 4263 0 
L 3584 0 
L 2988 1197 
Q 2756 1666 2539 1819 
Q 2322 1972 1947 1972 
L 1259 1972 
L 1259 0 
L 628 0 
L 628 4666 
L 2053 4666 
Q 2853 4666 3247 4331 
Q 3641 3997 3641 3322 
Q 3641 2881 3436 2590 
Q 3231 2300 2841 2188 
z
M 1259 4147 
L 1259 2491 
L 2053 2491 
Q 2509 2491 2742 2702 
Q 2975 2913 2975 3322 
Q 2975 3731 2742 3939 
Q 2509 4147 2053 4147 
L 1259 4147 
z
" transform="scale(0.015625)"/>
       </defs>
       <use xlink:href="#DejaVuSans-54"/>
       <use xlink:href="#DejaVuSans-43" x="55.208984"/>
       <use xlink:href="#DejaVuSans-4c" x="125.033203"/>
       <use xlink:href="#DejaVuSans-6f" x="178.996094"/>
       <use xlink:href="#DejaVuSans-53" x="240.177734"/>
       <use xlink:href="#DejaVuSans-65" x="303.654297"/>
       <use xlink:href="#DejaVuSans-52" x="365.177734"/>
      </g>
     </g>
    </g>
   </g>
   <g id="matplotlib.axis_2">
    <g id="ytick_1">
     <g id="line2d_5">
      <defs>
       <path id="m1e06f96a57" d="M 0 0 
L -3.5 0 
" style="stroke: #000000; stroke-width: 0.8"/>
      </defs>
      <g>
       <use xlink:href="#m1e06f96a57" x="61.94" y="204.115869" style="stroke: #000000; stroke-width: 0.8"/>
      </g>
     </g>
     <g id="text_5">
      <!-- 0.72 -->
      <g transform="translate(28.22125 208.674931) scale(0.12 -0.12)">
       <defs>
        <path id="DejaVuSans-30" d="M 2034 4250 
Q 1547 4250 1301 3770 
Q 1056 3291 1056 2328 
Q 1056 1369 1301 889 
Q 1547 409 2034 409 
Q 2525 409 2770 889 
Q 3016 1369 3016 2328 
Q 3016 3291 2770 3770 
Q 2525 4250 2034 4250 
z
M 2034 4750 
Q 2819 4750 3233 4129 
Q 3647 3509 3647 2328 
Q 3647 1150 3233 529 
Q 2819 -91 2034 -91 
Q 1250 -91 836 529 
Q 422 1150 422 2328 
Q 422 3509 836 4129 
Q 1250 4750 2034 4750 
z
" transform="scale(0.015625)"/>
        <path id="DejaVuSans-2e" d="M 684 794 
L 1344 794 
L 1344 0 
L 684 0 
L 684 794 
z
" transform="scale(0.015625)"/>
        <path id="DejaVuSans-37" d="M 525 4666 
L 3525 4666 
L 3525 4397 
L 1831 0 
L 1172 0 
L 2766 4134 
L 525 4134 
L 525 4666 
z
" transform="scale(0.015625)"/>
        <path id="DejaVuSans-32" d="M 1228 531 
L 3431 531 
L 3431 0 
L 469 0 
L 469 531 
Q 828 903 1448 1529 
Q 2069 2156 2228 2338 
Q 2531 2678 2651 2914 
Q 2772 3150 2772 3378 
Q 2772 3750 2511 3984 
Q 2250 4219 1831 4219 
Q 1534 4219 1204 4116 
Q 875 4013 500 3803 
L 500 4441 
Q 881 4594 1212 4672 
Q 1544 4750 1819 4750 
Q 2544 4750 2975 4387 
Q 3406 4025 3406 3419 
Q 3406 3131 3298 2873 
Q 3191 2616 2906 2266 
Q 2828 2175 2409 1742 
Q 1991 1309 1228 531 
z
" transform="scale(0.015625)"/>
       </defs>
       <use xlink:href="#DejaVuSans-30"/>
       <use xlink:href="#DejaVuSans-2e" x="63.623047"/>
       <use xlink:href="#DejaVuSans-37" x="95.410156"/>
       <use xlink:href="#DejaVuSans-32" x="159.033203"/>
      </g>
     </g>
    </g>
    <g id="ytick_2">
     <g id="line2d_6">
      <g>
       <use xlink:href="#m1e06f96a57" x="61.94" y="152.341191" style="stroke: #000000; stroke-width: 0.8"/>
      </g>
     </g>
     <g id="text_6">
      <!-- 0.80 -->
      <g transform="translate(28.22125 156.900253) scale(0.12 -0.12)">
       <defs>
        <path id="DejaVuSans-38" d="M 2034 2216 
Q 1584 2216 1326 1975 
Q 1069 1734 1069 1313 
Q 1069 891 1326 650 
Q 1584 409 2034 409 
Q 2484 409 2743 651 
Q 3003 894 3003 1313 
Q 3003 1734 2745 1975 
Q 2488 2216 2034 2216 
z
M 1403 2484 
Q 997 2584 770 2862 
Q 544 3141 544 3541 
Q 544 4100 942 4425 
Q 1341 4750 2034 4750 
Q 2731 4750 3128 4425 
Q 3525 4100 3525 3541 
Q 3525 3141 3298 2862 
Q 3072 2584 2669 2484 
Q 3125 2378 3379 2068 
Q 3634 1759 3634 1313 
Q 3634 634 3220 271 
Q 2806 -91 2034 -91 
Q 1263 -91 848 271 
Q 434 634 434 1313 
Q 434 1759 690 2068 
Q 947 2378 1403 2484 
z
M 1172 3481 
Q 1172 3119 1398 2916 
Q 1625 2713 2034 2713 
Q 2441 2713 2670 2916 
Q 2900 3119 2900 3481 
Q 2900 3844 2670 4047 
Q 2441 4250 2034 4250 
Q 1625 4250 1398 4047 
Q 1172 3844 1172 3481 
z
" transform="scale(0.015625)"/>
       </defs>
       <use xlink:href="#DejaVuSans-30"/>
       <use xlink:href="#DejaVuSans-2e" x="63.623047"/>
       <use xlink:href="#DejaVuSans-38" x="95.410156"/>
       <use xlink:href="#DejaVuSans-30" x="159.033203"/>
      </g>
     </g>
    </g>
    <g id="ytick_3">
     <g id="line2d_7">
      <g>
       <use xlink:href="#m1e06f96a57" x="61.94" y="100.566513" style="stroke: #000000; stroke-width: 0.8"/>
      </g>
     </g>
     <g id="text_7">
      <!-- 0.88 -->
      <g transform="translate(28.22125 105.125575) scale(0.12 -0.12)">
       <use xlink:href="#DejaVuSans-30"/>
       <use xlink:href="#DejaVuSans-2e" x="63.623047"/>
       <use xlink:href="#DejaVuSans-38" x="95.410156"/>
       <use xlink:href="#DejaVuSans-38" x="159.033203"/>
      </g>
     </g>
    </g>
    <g id="ytick_4">
     <g id="line2d_8">
      <g>
       <use xlink:href="#m1e06f96a57" x="61.94" y="48.791835" style="stroke: #000000; stroke-width: 0.8"/>
      </g>
     </g>
     <g id="text_8">
      <!-- 0.96 -->
      <g transform="translate(28.22125 53.350897) scale(0.12 -0.12)">
       <defs>
        <path id="DejaVuSans-39" d="M 703 97 
L 703 672 
Q 941 559 1184 500 
Q 1428 441 1663 441 
Q 2288 441 2617 861 
Q 2947 1281 2994 2138 
Q 2813 1869 2534 1725 
Q 2256 1581 1919 1581 
Q 1219 1581 811 2004 
Q 403 2428 403 3163 
Q 403 3881 828 4315 
Q 1253 4750 1959 4750 
Q 2769 4750 3195 4129 
Q 3622 3509 3622 2328 
Q 3622 1225 3098 567 
Q 2575 -91 1691 -91 
Q 1453 -91 1209 -44 
Q 966 3 703 97 
z
M 1959 2075 
Q 2384 2075 2632 2365 
Q 2881 2656 2881 3163 
Q 2881 3666 2632 3958 
Q 2384 4250 1959 4250 
Q 1534 4250 1286 3958 
Q 1038 3666 1038 3163 
Q 1038 2656 1286 2365 
Q 1534 2075 1959 2075 
z
" transform="scale(0.015625)"/>
        <path id="DejaVuSans-36" d="M 2113 2584 
Q 1688 2584 1439 2293 
Q 1191 2003 1191 1497 
Q 1191 994 1439 701 
Q 1688 409 2113 409 
Q 2538 409 2786 701 
Q 3034 994 3034 1497 
Q 3034 2003 2786 2293 
Q 2538 2584 2113 2584 
z
M 3366 4563 
L 3366 3988 
Q 3128 4100 2886 4159 
Q 2644 4219 2406 4219 
Q 1781 4219 1451 3797 
Q 1122 3375 1075 2522 
Q 1259 2794 1537 2939 
Q 1816 3084 2150 3084 
Q 2853 3084 3261 2657 
Q 3669 2231 3669 1497 
Q 3669 778 3244 343 
Q 2819 -91 2113 -91 
Q 1303 -91 875 529 
Q 447 1150 447 2328 
Q 447 3434 972 4092 
Q 1497 4750 2381 4750 
Q 2619 4750 2861 4703 
Q 3103 4656 3366 4563 
z
" transform="scale(0.015625)"/>
       </defs>
       <use xlink:href="#DejaVuSans-30"/>
       <use xlink:href="#DejaVuSans-2e" x="63.623047"/>
       <use xlink:href="#DejaVuSans-39" x="95.410156"/>
       <use xlink:href="#DejaVuSans-36" x="159.033203"/>
      </g>
     </g>
    </g>
    <g id="text_9">
     <!-- Stimulus decoding accuracy -->
     <g transform="translate(21.413672 237.711407) rotate(-90) scale(0.135 -0.135)">
      <defs>
       <path id="DejaVuSans-63" d="M 3122 3366 
L 3122 2828 
Q 2878 2963 2633 3030 
Q 2388 3097 2138 3097 
Q 1578 3097 1268 2742 
Q 959 2388 959 1747 
Q 959 1106 1268 751 
Q 1578 397 2138 397 
Q 2388 397 2633 464 
Q 2878 531 3122 666 
L 3122 134 
Q 2881 22 2623 -34 
Q 2366 -91 2075 -91 
Q 1284 -91 818 406 
Q 353 903 353 1747 
Q 353 2603 823 3093 
Q 1294 3584 2113 3584 
Q 2378 3584 2631 3529 
Q 2884 3475 3122 3366 
z
" transform="scale(0.015625)"/>
       <path id="DejaVuSans-67" d="M 2906 1791 
Q 2906 2416 2648 2759 
Q 2391 3103 1925 3103 
Q 1463 3103 1205 2759 
Q 947 2416 947 1791 
Q 947 1169 1205 825 
Q 1463 481 1925 481 
Q 2391 481 2648 825 
Q 2906 1169 2906 1791 
z
M 3481 434 
Q 3481 -459 3084 -895 
Q 2688 -1331 1869 -1331 
Q 1566 -1331 1297 -1286 
Q 1028 -1241 775 -1147 
L 775 -588 
Q 1028 -725 1275 -790 
Q 1522 -856 1778 -856 
Q 2344 -856 2625 -561 
Q 2906 -266 2906 331 
L 2906 616 
Q 2728 306 2450 153 
Q 2172 0 1784 0 
Q 1141 0 747 490 
Q 353 981 353 1791 
Q 353 2603 747 3093 
Q 1141 3584 1784 3584 
Q 2172 3584 2450 3431 
Q 2728 3278 2906 2969 
L 2906 3500 
L 3481 3500 
L 3481 434 
z
" transform="scale(0.015625)"/>
       <path id="DejaVuSans-79" d="M 2059 -325 
Q 1816 -950 1584 -1140 
Q 1353 -1331 966 -1331 
L 506 -1331 
L 506 -850 
L 844 -850 
Q 1081 -850 1212 -737 
Q 1344 -625 1503 -206 
L 1606 56 
L 191 3500 
L 800 3500 
L 1894 763 
L 2988 3500 
L 3597 3500 
L 2059 -325 
z
" transform="scale(0.015625)"/>
      </defs>
      <use xlink:href="#DejaVuSans-53"/>
      <use xlink:href="#DejaVuSans-74" x="63.476562"/>
      <use xlink:href="#DejaVuSans-69" x="102.685547"/>
      <use xlink:href="#DejaVuSans-6d" x="130.46875"/>
      <use xlink:href="#DejaVuSans-75" x="227.880859"/>
      <use xlink:href="#DejaVuSans-6c" x="291.259766"/>
      <use xlink:href="#DejaVuSans-75" x="319.042969"/>
      <use xlink:href="#DejaVuSans-73" x="382.421875"/>
      <use xlink:href="#DejaVuSans-20" x="434.521484"/>
      <use xlink:href="#DejaVuSans-64" x="466.308594"/>
      <use xlink:href="#DejaVuSans-65" x="529.785156"/>
      <use xlink:href="#DejaVuSans-63" x="591.308594"/>
      <use xlink:href="#DejaVuSans-6f" x="646.289062"/>
      <use xlink:href="#DejaVuSans-64" x="707.470703"/>
      <use xlink:href="#DejaVuSans-69" x="770.947266"/>
      <use xlink:href="#DejaVuSans-6e" x="798.730469"/>
      <use xlink:href="#DejaVuSans-67" x="862.109375"/>
      <use xlink:href="#DejaVuSans-20" x="925.585938"/>
      <use xlink:href="#DejaVuSans-61" x="957.373047"/>
      <use xlink:href="#DejaVuSans-63" x="1018.652344"/>
      <use xlink:href="#DejaVuSans-63" x="1073.632812"/>
      <use xlink:href="#DejaVuSans-75" x="1128.613281"/>
      <use xlink:href="#DejaVuSans-72" x="1191.992188"/>
      <use xlink:href="#DejaVuSans-61" x="1233.105469"/>
      <use xlink:href="#DejaVuSans-63" x="1294.384766"/>
      <use xlink:href="#DejaVuSans-79" x="1349.365234"/>
     </g>
    </g>
   </g>
   <g id="line2d_9">
    <path d="M 126.462949 160.193588 
L 202.621183 160.193588 
" clip-path="url(#p4b4e0db38b)" style="fill: none; stroke: #000000; stroke-linecap: square"/>
   </g>
   <g id="line2d_10">
    <path d="M 126.462949 166.665422 
L 126.462949 160.193588 
" clip-path="url(#p4b4e0db38b)" style="fill: none; stroke: #000000; stroke-linecap: square"/>
   </g>
   <g id="line2d_11">
    <path d="M 202.621183 166.665422 
L 202.621183 160.193588 
" clip-path="url(#p4b4e0db38b)" style="fill: none; stroke: #000000; stroke-linecap: square"/>
   </g>
   <g id="line2d_12">
    <path d="M 168.773079 173.137257 
L 202.621183 173.137257 
" clip-path="url(#p4b4e0db38b)" style="fill: none; stroke: #000000; stroke-linecap: square"/>
   </g>
   <g id="line2d_13">
    <path d="M 168.773079 179.609092 
L 168.773079 173.137257 
" clip-path="url(#p4b4e0db38b)" style="fill: none; stroke: #000000; stroke-linecap: square"/>
   </g>
   <g id="line2d_14">
    <path d="M 202.621183 179.609092 
L 202.621183 173.137257 
" clip-path="url(#p4b4e0db38b)" style="fill: none; stroke: #000000; stroke-linecap: square"/>
   </g>
   <g id="line2d_15">
    <path d="M 61.94 238.632321 
L 224.834001 238.632321 
" clip-path="url(#p4b4e0db38b)" style="fill: none; stroke-dasharray: 1.5,2.475; stroke-dashoffset: 0; stroke: #000000; stroke-width: 1.5"/>
   </g>
   <g id="patch_3">
    <path d="M 61.94 242.946877 
L 61.94 42.32 
" style="fill: none; stroke: #000000; stroke-width: 0.8; stroke-linejoin: miter; stroke-linecap: square"/>
   </g>
   <g id="patch_4">
    <path d="M 61.94 242.946877 
L 224.834001 242.946877 
" style="fill: none; stroke: #000000; stroke-width: 0.8; stroke-linejoin: miter; stroke-linecap: square"/>
   </g>
   <g id="text_10">
    <!-- ∗∗∗ -->
    <g transform="translate(151.972535 156.481128) scale(0.1 -0.1)">
     <defs>
      <path id="DejaVuSans-2217" d="M 2153 2006 
L 816 2778 
L 1081 3238 
L 2419 2466 
L 2419 4013 
L 2944 4013 
L 2944 2466 
L 4281 3238 
L 4547 2778 
L 3209 2006 
L 4547 1234 
L 4281 775 
L 2944 1547 
L 2944 0 
L 2419 0 
L 2419 1547 
L 1081 775 
L 816 1234 
L 2153 2006 
z
" transform="scale(0.015625)"/>
     </defs>
     <use xlink:href="#DejaVuSans-2217"/>
     <use xlink:href="#DejaVuSans-2217" x="83.789062"/>
     <use xlink:href="#DejaVuSans-2217" x="167.578125"/>
    </g>
   </g>
   <g id="text_11">
    <!-- ∗∗∗ -->
    <g transform="translate(173.1276 169.424797) scale(0.1 -0.1)">
     <use xlink:href="#DejaVuSans-2217"/>
     <use xlink:href="#DejaVuSans-2217" x="83.789062"/>
     <use xlink:href="#DejaVuSans-2217" x="167.578125"/>
    </g>
   </g>
   <g id="text_12">
    <!-- Single encoder -->
    <g transform="translate(87.965177 22.32) scale(0.1485 -0.1485)">
     <use xlink:href="#DejaVuSans-53"/>
     <use xlink:href="#DejaVuSans-69" x="63.476562"/>
     <use xlink:href="#DejaVuSans-6e" x="91.259766"/>
     <use xlink:href="#DejaVuSans-67" x="154.638672"/>
     <use xlink:href="#DejaVuSans-6c" x="218.115234"/>
     <use xlink:href="#DejaVuSans-65" x="245.898438"/>
     <use xlink:href="#DejaVuSans-20" x="307.421875"/>
     <use xlink:href="#DejaVuSans-65" x="339.208984"/>
     <use xlink:href="#DejaVuSans-6e" x="400.732422"/>
     <use xlink:href="#DejaVuSans-63" x="464.111328"/>
     <use xlink:href="#DejaVuSans-6f" x="519.091797"/>
     <use xlink:href="#DejaVuSans-64" x="580.273438"/>
     <use xlink:href="#DejaVuSans-65" x="643.75"/>
     <use xlink:href="#DejaVuSans-72" x="705.273438"/>
    </g>
   </g>
  </g>
  <g id="axes_2">
   <g id="patch_5">
    <path d="M 253.422416 242.946877 
L 416.316418 242.946877 
L 416.316418 42.32 
L 253.422416 42.32 
z
" style="fill: #ffffff"/>
   </g>
   <g id="PolyCollection_5">
    <path d="M 273.671651 168.583803 
L 269.136792 168.583803 
L 269.011963 168.427376 
L 268.889198 168.270949 
L 268.769282 168.114521 
L 268.652969 167.958094 
L 268.540965 167.801667 
L 268.433913 167.645239 
L 268.33238 167.488812 
L 268.236844 167.332385 
L 268.147682 167.175958 
L 268.06516 167.01953 
L 267.989419 166.863103 
L 267.920477 166.706676 
L 267.858213 166.550248 
L 267.802375 166.393821 
L 267.752574 166.237394 
L 267.708286 166.080966 
L 267.668862 165.924539 
L 267.633532 165.768112 
L 267.601418 165.611684 
L 267.571545 165.455257 
L 267.542855 165.29883 
L 267.514228 165.142402 
L 267.484494 164.985975 
L 267.452453 164.829548 
L 267.416895 164.67312 
L 267.376613 164.516693 
L 267.330427 164.360266 
L 267.277194 164.203838 
L 267.215827 164.047411 
L 267.145305 163.890984 
L 267.064685 163.734556 
L 266.973115 163.578129 
L 266.869838 163.421702 
L 266.754205 163.265275 
L 266.625679 163.108847 
L 266.483845 162.95242 
L 266.328413 162.795993 
L 266.159234 162.639565 
L 265.976303 162.483138 
L 265.779774 162.326711 
L 265.569969 162.170283 
L 265.347395 162.013856 
L 265.112755 161.857429 
L 264.866963 161.701001 
L 264.611155 161.544574 
L 264.346702 161.388147 
L 264.075219 161.231719 
L 263.798563 161.075292 
L 263.518838 160.918865 
L 263.238381 160.762437 
L 262.959752 160.60601 
L 262.685705 160.449583 
L 262.41916 160.293155 
L 262.163161 160.136728 
L 261.920829 159.980301 
L 261.695307 159.823873 
L 261.4897 159.667446 
L 261.30701 159.511019 
L 261.150065 159.354592 
L 261.021459 159.198164 
L 260.923481 159.041737 
L 260.858056 158.88531 
L 260.826689 158.728882 
L 260.830422 158.572455 
L 260.869794 158.416028 
L 260.944824 158.2596 
L 261.054993 158.103173 
L 261.199254 157.946746 
L 261.376045 157.790318 
L 261.583323 157.633891 
L 261.818605 157.477464 
L 262.079025 157.321036 
L 262.3614 157.164609 
L 262.662301 157.008182 
L 262.978134 156.851754 
L 263.30522 156.695327 
L 263.639882 156.5389 
L 263.978519 156.382472 
L 264.317689 156.226045 
L 264.654175 156.069618 
L 264.985051 155.91319 
L 265.307726 155.756763 
L 265.619991 155.600336 
L 265.92004 155.443909 
L 266.20649 155.287481 
L 266.478377 155.131054 
L 266.735151 154.974627 
L 266.976649 154.818199 
L 267.203066 154.661772 
L 267.414912 154.505345 
L 267.612964 154.348917 
L 267.798216 154.19249 
L 267.971824 154.036063 
L 268.135046 153.879635 
L 268.289193 153.723208 
L 268.435573 153.566781 
L 268.575447 153.410353 
L 268.70999 153.253926 
L 268.840254 153.097499 
L 273.96819 153.097499 
L 273.96819 153.097499 
L 274.098454 153.253926 
L 274.232996 153.410353 
L 274.372871 153.566781 
L 274.519251 153.723208 
L 274.673397 153.879635 
L 274.83662 154.036063 
L 275.010227 154.19249 
L 275.19548 154.348917 
L 275.393532 154.505345 
L 275.605377 154.661772 
L 275.831794 154.818199 
L 276.073292 154.974627 
L 276.330067 155.131054 
L 276.601954 155.287481 
L 276.888404 155.443909 
L 277.188453 155.600336 
L 277.500717 155.756763 
L 277.823392 155.91319 
L 278.154268 156.069618 
L 278.490755 156.226045 
L 278.829925 156.382472 
L 279.168562 156.5389 
L 279.503223 156.695327 
L 279.83031 156.851754 
L 280.146143 157.008182 
L 280.447044 157.164609 
L 280.729419 157.321036 
L 280.989839 157.477464 
L 281.225121 157.633891 
L 281.432399 157.790318 
L 281.60919 157.946746 
L 281.753451 158.103173 
L 281.86362 158.2596 
L 281.938649 158.416028 
L 281.978022 158.572455 
L 281.981754 158.728882 
L 281.950388 158.88531 
L 281.884962 159.041737 
L 281.786984 159.198164 
L 281.658379 159.354592 
L 281.501434 159.511019 
L 281.318743 159.667446 
L 281.113136 159.823873 
L 280.887615 159.980301 
L 280.645283 160.136728 
L 280.389284 160.293155 
L 280.122738 160.449583 
L 279.848691 160.60601 
L 279.570062 160.762437 
L 279.289606 160.918865 
L 279.00988 161.075292 
L 278.733225 161.231719 
L 278.461741 161.388147 
L 278.197289 161.544574 
L 277.941481 161.701001 
L 277.695689 161.857429 
L 277.461049 162.013856 
L 277.238475 162.170283 
L 277.02867 162.326711 
L 276.83214 162.483138 
L 276.649209 162.639565 
L 276.48003 162.795993 
L 276.324599 162.95242 
L 276.182764 163.108847 
L 276.054239 163.265275 
L 275.938606 163.421702 
L 275.835329 163.578129 
L 275.743759 163.734556 
L 275.663139 163.890984 
L 275.592616 164.047411 
L 275.531249 164.203838 
L 275.478017 164.360266 
L 275.431831 164.516693 
L 275.391549 164.67312 
L 275.35599 164.829548 
L 275.323949 164.985975 
L 275.294215 165.142402 
L 275.265588 165.29883 
L 275.236899 165.455257 
L 275.207026 165.611684 
L 275.174911 165.768112 
L 275.139582 165.924539 
L 275.100158 166.080966 
L 275.05587 166.237394 
L 275.006068 166.393821 
L 274.95023 166.550248 
L 274.887967 166.706676 
L 274.819024 166.863103 
L 274.743284 167.01953 
L 274.660761 167.175958 
L 274.5716 167.332385 
L 274.476064 167.488812 
L 274.374531 167.645239 
L 274.267478 167.801667 
L 274.155474 167.958094 
L 274.039162 168.114521 
L 273.919246 168.270949 
L 273.796481 168.427376 
L 273.671651 168.583803 
z
" clip-path="url(#p5af0edbd9c)" style="fill: #d2691e; fill-opacity: 0.3"/>
   </g>
   <g id="PathCollection_5">
    <g clip-path="url(#p5af0edbd9c)">
     <use xlink:href="#m15615c4c9c" x="271.404222" y="160.02632" style="fill: #d2691e; stroke: #d2691e"/>
    </g>
   </g>
   <g id="PolyCollection_6">
    <path d="M 324.291885 107.598976 
L 303.136819 107.598976 
L 303.136819 107.598976 
L 303.136819 107.598976 
L 303.136819 107.598976 
L 303.136819 107.598976 
L 303.136819 107.598976 
L 303.136819 107.598976 
L 303.136819 107.598976 
L 303.136819 107.598976 
L 303.136819 107.598976 
L 303.136819 107.598976 
L 303.136819 107.598976 
L 303.136819 107.598976 
L 303.136819 107.598976 
L 303.136819 107.598976 
L 303.136819 107.598976 
L 303.136819 107.598976 
L 303.136819 107.598976 
L 303.136819 107.598976 
L 303.136819 107.598976 
L 303.136819 107.598976 
L 303.136819 107.598976 
L 303.136819 107.598976 
L 303.136819 107.598976 
L 303.136819 107.598976 
L 303.136819 107.598976 
L 303.136819 107.598976 
L 303.136819 107.598976 
L 303.136819 107.598976 
L 303.136819 107.598976 
L 303.136819 107.598976 
L 303.136819 107.598976 
L 303.136819 107.598976 
L 303.136819 107.598976 
L 303.136819 107.598976 
L 303.136819 107.598976 
L 303.136819 107.598976 
L 303.136819 107.598976 
L 303.136819 107.598976 
L 303.136819 107.598976 
L 303.136819 107.598976 
L 303.136819 107.598976 
L 303.136819 107.598976 
L 303.136819 107.598976 
L 303.136819 107.598976 
L 303.136819 107.598976 
L 303.136819 107.598976 
L 303.136819 107.598976 
L 303.136819 107.598976 
L 303.136819 107.598976 
L 303.136819 107.598976 
L 303.136819 107.598976 
L 303.136819 107.598976 
L 303.136819 107.598976 
L 303.136819 107.598976 
L 303.136819 107.598976 
L 303.136819 107.598976 
L 303.136819 107.598976 
L 303.136819 107.598976 
L 303.136819 107.598976 
L 303.136819 107.598976 
L 303.136819 107.598976 
L 303.136819 107.598976 
L 303.136819 107.598976 
L 303.136819 107.598976 
L 303.136819 107.598976 
L 303.136819 107.598976 
L 303.136819 107.598976 
L 303.136819 107.598976 
L 303.136819 107.598976 
L 303.136819 107.598976 
L 303.136819 107.598976 
L 303.136819 107.598976 
L 303.136819 107.598976 
L 303.136819 107.598976 
L 303.136819 107.598976 
L 303.136819 107.598976 
L 303.136819 107.598976 
L 303.136819 107.598976 
L 303.136819 107.598976 
L 303.136819 107.598976 
L 303.136819 107.598976 
L 303.136819 107.598976 
L 303.136819 107.598976 
L 303.136819 107.598976 
L 303.136819 107.598976 
L 303.136819 107.598976 
L 303.136819 107.598976 
L 303.136819 107.598976 
L 303.136819 107.598976 
L 303.136819 107.598976 
L 303.136819 107.598976 
L 303.136819 107.598976 
L 303.136819 107.598976 
L 303.136819 107.598976 
L 303.136819 107.598976 
L 303.136819 107.598976 
L 303.136819 107.598976 
L 303.136819 107.598976 
L 303.136819 107.598976 
L 324.291885 107.598976 
L 324.291885 107.598976 
L 324.291885 107.598976 
L 324.291885 107.598976 
L 324.291885 107.598976 
L 324.291885 107.598976 
L 324.291885 107.598976 
L 324.291885 107.598976 
L 324.291885 107.598976 
L 324.291885 107.598976 
L 324.291885 107.598976 
L 324.291885 107.598976 
L 324.291885 107.598976 
L 324.291885 107.598976 
L 324.291885 107.598976 
L 324.291885 107.598976 
L 324.291885 107.598976 
L 324.291885 107.598976 
L 324.291885 107.598976 
L 324.291885 107.598976 
L 324.291885 107.598976 
L 324.291885 107.598976 
L 324.291885 107.598976 
L 324.291885 107.598976 
L 324.291885 107.598976 
L 324.291885 107.598976 
L 324.291885 107.598976 
L 324.291885 107.598976 
L 324.291885 107.598976 
L 324.291885 107.598976 
L 324.291885 107.598976 
L 324.291885 107.598976 
L 324.291885 107.598976 
L 324.291885 107.598976 
L 324.291885 107.598976 
L 324.291885 107.598976 
L 324.291885 107.598976 
L 324.291885 107.598976 
L 324.291885 107.598976 
L 324.291885 107.598976 
L 324.291885 107.598976 
L 324.291885 107.598976 
L 324.291885 107.598976 
L 324.291885 107.598976 
L 324.291885 107.598976 
L 324.291885 107.598976 
L 324.291885 107.598976 
L 324.291885 107.598976 
L 324.291885 107.598976 
L 324.291885 107.598976 
L 324.291885 107.598976 
L 324.291885 107.598976 
L 324.291885 107.598976 
L 324.291885 107.598976 
L 324.291885 107.598976 
L 324.291885 107.598976 
L 324.291885 107.598976 
L 324.291885 107.598976 
L 324.291885 107.598976 
L 324.291885 107.598976 
L 324.291885 107.598976 
L 324.291885 107.598976 
L 324.291885 107.598976 
L 324.291885 107.598976 
L 324.291885 107.598976 
L 324.291885 107.598976 
L 324.291885 107.598976 
L 324.291885 107.598976 
L 324.291885 107.598976 
L 324.291885 107.598976 
L 324.291885 107.598976 
L 324.291885 107.598976 
L 324.291885 107.598976 
L 324.291885 107.598976 
L 324.291885 107.598976 
L 324.291885 107.598976 
L 324.291885 107.598976 
L 324.291885 107.598976 
L 324.291885 107.598976 
L 324.291885 107.598976 
L 324.291885 107.598976 
L 324.291885 107.598976 
L 324.291885 107.598976 
L 324.291885 107.598976 
L 324.291885 107.598976 
L 324.291885 107.598976 
L 324.291885 107.598976 
L 324.291885 107.598976 
L 324.291885 107.598976 
L 324.291885 107.598976 
L 324.291885 107.598976 
L 324.291885 107.598976 
L 324.291885 107.598976 
L 324.291885 107.598976 
L 324.291885 107.598976 
L 324.291885 107.598976 
L 324.291885 107.598976 
L 324.291885 107.598976 
L 324.291885 107.598976 
L 324.291885 107.598976 
L 324.291885 107.598976 
z
" clip-path="url(#p5af0edbd9c)" style="fill: #1f77b4; fill-opacity: 0.3"/>
   </g>
   <g id="PathCollection_6">
    <g clip-path="url(#p5af0edbd9c)">
     <use xlink:href="#mde83dd2ef8" x="313.714352" y="107.598976" style="fill: #1f77b4; stroke: #1f77b4"/>
    </g>
   </g>
   <g id="PolyCollection_7">
    <path d="M 357.168375 114.081615 
L 354.88059 114.081615 
L 354.861486 113.967023 
L 354.849231 113.852431 
L 354.84384 113.737839 
L 354.845152 113.623247 
L 354.852822 113.508654 
L 354.866329 113.394062 
L 354.88498 113.27947 
L 354.90793 113.164878 
L 354.934197 113.050286 
L 354.962685 112.935694 
L 354.992213 112.821102 
L 355.021541 112.70651 
L 355.0494 112.591918 
L 355.074524 112.477325 
L 355.095678 112.362733 
L 355.111685 112.248141 
L 355.121451 112.133549 
L 355.12399 112.018957 
L 355.118438 111.904365 
L 355.104069 111.789773 
L 355.080307 111.675181 
L 355.046727 111.560589 
L 355.003058 111.445997 
L 354.949182 111.331404 
L 354.885124 111.216812 
L 354.811041 111.10222 
L 354.727216 110.987628 
L 354.634034 110.873036 
L 354.531975 110.758444 
L 354.42159 110.643852 
L 354.303489 110.52926 
L 354.17832 110.414668 
L 354.04676 110.300075 
L 353.909493 110.185483 
L 353.767202 110.070891 
L 353.620552 109.956299 
L 353.470185 109.841707 
L 353.316705 109.727115 
L 353.160667 109.612523 
L 353.002574 109.497931 
L 352.84286 109.383339 
L 352.681884 109.268746 
L 352.519921 109.154154 
L 352.357147 109.039562 
L 352.193635 108.92497 
L 352.02934 108.810378 
L 351.864095 108.695786 
L 351.697607 108.581194 
L 351.529452 108.466602 
L 351.359082 108.35201 
L 351.18583 108.237418 
L 351.008933 108.122825 
L 350.827545 108.008233 
L 350.640776 107.893641 
L 350.447725 107.779049 
L 350.247524 107.664457 
L 350.039389 107.549865 
L 349.822672 107.435273 
L 349.596916 107.320681 
L 349.361913 107.206089 
L 349.117754 107.091496 
L 348.864874 106.976904 
L 348.604099 106.862312 
L 348.336665 106.74772 
L 348.064246 106.633128 
L 347.788949 106.518536 
L 347.513304 106.403944 
L 347.240241 106.289352 
L 346.97304 106.17476 
L 346.715279 106.060168 
L 346.470754 105.945575 
L 346.243403 105.830983 
L 346.037205 105.716391 
L 345.856083 105.601799 
L 345.7038 105.487207 
L 345.583852 105.372615 
L 345.499369 105.258023 
L 345.453025 105.143431 
L 345.44695 105.028839 
L 345.482667 104.914246 
L 345.561038 104.799654 
L 345.68223 104.685062 
L 345.845705 104.57047 
L 346.050225 104.455878 
L 346.293879 104.341286 
L 346.574132 104.226694 
L 346.88789 104.112102 
L 347.231575 103.99751 
L 347.601218 103.882917 
L 347.992562 103.768325 
L 348.401157 103.653733 
L 348.822473 103.539141 
L 349.251996 103.424549 
L 349.685327 103.309957 
L 350.118266 103.195365 
L 350.546889 103.080773 
L 350.967609 102.966181 
L 351.377224 102.851589 
L 351.772951 102.736996 
L 360.276014 102.736996 
L 360.276014 102.736996 
L 360.67174 102.851589 
L 361.081355 102.966181 
L 361.502075 103.080773 
L 361.930699 103.195365 
L 362.363638 103.309957 
L 362.796969 103.424549 
L 363.226492 103.539141 
L 363.647807 103.653733 
L 364.056403 103.768325 
L 364.447746 103.882917 
L 364.81739 103.99751 
L 365.161075 104.112102 
L 365.474832 104.226694 
L 365.755086 104.341286 
L 365.99874 104.455878 
L 366.203259 104.57047 
L 366.366734 104.685062 
L 366.487927 104.799654 
L 366.566298 104.914246 
L 366.602015 105.028839 
L 366.59594 105.143431 
L 366.549596 105.258023 
L 366.465113 105.372615 
L 366.345165 105.487207 
L 366.192881 105.601799 
L 366.01176 105.716391 
L 365.805562 105.830983 
L 365.57821 105.945575 
L 365.333686 106.060168 
L 365.075924 106.17476 
L 364.808724 106.289352 
L 364.53566 106.403944 
L 364.260016 106.518536 
L 363.984718 106.633128 
L 363.712299 106.74772 
L 363.444866 106.862312 
L 363.18409 106.976904 
L 362.931211 107.091496 
L 362.687051 107.206089 
L 362.452048 107.320681 
L 362.226293 107.435273 
L 362.009575 107.549865 
L 361.80144 107.664457 
L 361.601239 107.779049 
L 361.408188 107.893641 
L 361.221419 108.008233 
L 361.040032 108.122825 
L 360.863134 108.237418 
L 360.689883 108.35201 
L 360.519512 108.466602 
L 360.351357 108.581194 
L 360.184869 108.695786 
L 360.019625 108.810378 
L 359.85533 108.92497 
L 359.691817 109.039562 
L 359.529044 109.154154 
L 359.367081 109.268746 
L 359.206105 109.383339 
L 359.046391 109.497931 
L 358.888298 109.612523 
L 358.73226 109.727115 
L 358.578779 109.841707 
L 358.428412 109.956299 
L 358.281763 110.070891 
L 358.139471 110.185483 
L 358.002204 110.300075 
L 357.870644 110.414668 
L 357.745476 110.52926 
L 357.627374 110.643852 
L 357.516989 110.758444 
L 357.41493 110.873036 
L 357.321749 110.987628 
L 357.237923 111.10222 
L 357.163841 111.216812 
L 357.099782 111.331404 
L 357.045906 111.445997 
L 357.002238 111.560589 
L 356.968657 111.675181 
L 356.944895 111.789773 
L 356.930527 111.904365 
L 356.924974 112.018957 
L 356.927513 112.133549 
L 356.937279 112.248141 
L 356.953286 112.362733 
L 356.97444 112.477325 
L 356.999564 112.591918 
L 357.027424 112.70651 
L 357.056751 112.821102 
L 357.086279 112.935694 
L 357.114767 113.050286 
L 357.141034 113.164878 
L 357.163984 113.27947 
L 357.182636 113.394062 
L 357.196143 113.508654 
L 357.203813 113.623247 
L 357.205125 113.737839 
L 357.199734 113.852431 
L 357.187478 113.967023 
L 357.168375 114.081615 
z
" clip-path="url(#p5af0edbd9c)" style="fill: #a52a2a; fill-opacity: 0.3"/>
   </g>
   <g id="PathCollection_7">
    <g clip-path="url(#p5af0edbd9c)">
     <use xlink:href="#m8dd6a854d4" x="356.024482" y="106.35647" style="fill: #a52a2a; stroke: #a52a2a"/>
    </g>
   </g>
   <g id="PolyCollection_8">
    <path d="M 401.524016 114.201664 
L 395.145209 114.201664 
L 394.985099 114.129513 
L 394.826419 114.057363 
L 394.668943 113.985212 
L 394.512231 113.913061 
L 394.355635 113.840911 
L 394.19832 113.76876 
L 394.039291 113.69661 
L 393.877433 113.624459 
L 393.711551 113.552309 
L 393.540425 113.480158 
L 393.362865 113.408007 
L 393.177767 113.335857 
L 392.984173 113.263706 
L 392.781326 113.191556 
L 392.568717 113.119405 
L 392.346131 113.047254 
L 392.113683 112.975104 
L 391.871835 112.902953 
L 391.621409 112.830803 
L 391.363586 112.758652 
L 391.099888 112.686502 
L 390.832148 112.614351 
L 390.562472 112.5422 
L 390.293182 112.47005 
L 390.026759 112.397899 
L 389.765771 112.325749 
L 389.512803 112.253598 
L 389.270382 112.181447 
L 389.040904 112.109297 
L 388.826561 112.037146 
L 388.629286 111.964996 
L 388.450687 111.892845 
L 388.292015 111.820694 
L 388.154123 111.748544 
L 388.037451 111.676393 
L 387.94202 111.604243 
L 387.867442 111.532092 
L 387.812939 111.459942 
L 387.77738 111.387791 
L 387.759325 111.31564 
L 387.75708 111.24349 
L 387.768757 111.171339 
L 387.792343 111.099189 
L 387.825772 111.027038 
L 387.866991 110.954887 
L 387.91403 110.882737 
L 387.965072 110.810586 
L 388.018504 110.738436 
L 388.072974 110.666285 
L 388.127427 110.594135 
L 388.181144 110.521984 
L 388.233754 110.449833 
L 388.285243 110.377683 
L 388.335953 110.305532 
L 388.386561 110.233382 
L 388.438051 110.161231 
L 388.491677 110.08908 
L 388.548913 110.01693 
L 388.611397 109.944779 
L 388.680867 109.872629 
L 388.759098 109.800478 
L 388.847832 109.728328 
L 388.948712 109.656177 
L 389.063215 109.584026 
L 389.192594 109.511876 
L 389.337828 109.439725 
L 389.499575 109.367575 
L 389.678144 109.295424 
L 389.873471 109.223273 
L 390.085113 109.151123 
L 390.312258 109.078972 
L 390.553735 109.006822 
L 390.808053 108.934671 
L 391.073437 108.86252 
L 391.347882 108.79037 
L 391.62921 108.718219 
L 391.915131 108.646069 
L 392.203314 108.573918 
L 392.491445 108.501768 
L 392.777297 108.429617 
L 393.058781 108.357466 
L 393.334003 108.285316 
L 393.6013 108.213165 
L 393.859277 108.141015 
L 394.106825 108.068864 
L 394.343134 107.996713 
L 394.567687 107.924563 
L 394.780254 107.852412 
L 394.98087 107.780262 
L 395.169804 107.708111 
L 395.34753 107.635961 
L 395.514683 107.56381 
L 395.672021 107.491659 
L 395.820383 107.419509 
L 395.960646 107.347358 
L 396.093693 107.275208 
L 396.220373 107.203057 
L 396.341474 107.130906 
L 396.457702 107.058756 
L 400.211523 107.058756 
L 400.211523 107.058756 
L 400.327752 107.130906 
L 400.448852 107.203057 
L 400.575532 107.275208 
L 400.708579 107.347358 
L 400.848842 107.419509 
L 400.997204 107.491659 
L 401.154542 107.56381 
L 401.321695 107.635961 
L 401.499421 107.708111 
L 401.688355 107.780262 
L 401.888971 107.852412 
L 402.101538 107.924563 
L 402.326091 107.996713 
L 402.5624 108.068864 
L 402.809948 108.141015 
L 403.067925 108.213165 
L 403.335223 108.285316 
L 403.610444 108.357466 
L 403.891928 108.429617 
L 404.17778 108.501768 
L 404.465911 108.573918 
L 404.754094 108.646069 
L 405.040016 108.718219 
L 405.321343 108.79037 
L 405.595788 108.86252 
L 405.861172 108.934671 
L 406.11549 109.006822 
L 406.356967 109.078972 
L 406.584112 109.151123 
L 406.795755 109.223273 
L 406.991081 109.295424 
L 407.16965 109.367575 
L 407.331397 109.439725 
L 407.476631 109.511876 
L 407.60601 109.584026 
L 407.720513 109.656177 
L 407.821393 109.728328 
L 407.910127 109.800478 
L 407.988358 109.872629 
L 408.057828 109.944779 
L 408.120312 110.01693 
L 408.177548 110.08908 
L 408.231174 110.161231 
L 408.282664 110.233382 
L 408.333272 110.305532 
L 408.383982 110.377683 
L 408.435471 110.449833 
L 408.488081 110.521984 
L 408.541798 110.594135 
L 408.596251 110.666285 
L 408.650721 110.738436 
L 408.704153 110.810586 
L 408.755195 110.882737 
L 408.802235 110.954887 
L 408.843453 111.027038 
L 408.876882 111.099189 
L 408.900468 111.171339 
L 408.912145 111.24349 
L 408.9099 111.31564 
L 408.891845 111.387791 
L 408.856286 111.459942 
L 408.801783 111.532092 
L 408.727205 111.604243 
L 408.631774 111.676393 
L 408.515102 111.748544 
L 408.37721 111.820694 
L 408.218538 111.892845 
L 408.03994 111.964996 
L 407.842664 112.037146 
L 407.628321 112.109297 
L 407.398843 112.181447 
L 407.156422 112.253598 
L 406.903454 112.325749 
L 406.642466 112.397899 
L 406.376043 112.47005 
L 406.106753 112.5422 
L 405.837077 112.614351 
L 405.569337 112.686502 
L 405.305639 112.758652 
L 405.047816 112.830803 
L 404.79739 112.902953 
L 404.555542 112.975104 
L 404.323094 113.047254 
L 404.100509 113.119405 
L 403.887899 113.191556 
L 403.685052 113.263706 
L 403.491458 113.335857 
L 403.306361 113.408007 
L 403.1288 113.480158 
L 402.957674 113.552309 
L 402.791792 113.624459 
L 402.629934 113.69661 
L 402.470905 113.76876 
L 402.31359 113.840911 
L 402.156994 113.913061 
L 402.000282 113.985212 
L 401.842806 114.057363 
L 401.684126 114.129513 
L 401.524016 114.201664 
z
" clip-path="url(#p5af0edbd9c)" style="fill: #008000; fill-opacity: 0.3"/>
   </g>
   <g id="PathCollection_8">
    <g clip-path="url(#p5af0edbd9c)">
     <use xlink:href="#m6efeb76181" x="398.334613" y="110.856302" style="fill: #008000; stroke: #008000"/>
    </g>
   </g>
   <g id="matplotlib.axis_3">
    <g id="xtick_5">
     <g id="line2d_16">
      <g>
       <use xlink:href="#m73b92ecd13" x="271.404222" y="242.946877" style="stroke: #000000; stroke-width: 0.8"/>
      </g>
     </g>
     <g id="text_13">
      <!-- Untrained -->
      <g style="fill: #d2691e" transform="translate(249.729094 301.249173) rotate(-50) scale(0.12 -0.12)">
       <use xlink:href="#DejaVuSans-55"/>
       <use xlink:href="#DejaVuSans-6e" x="73.193359"/>
       <use xlink:href="#DejaVuSans-74" x="136.572266"/>
       <use xlink:href="#DejaVuSans-72" x="175.78125"/>
       <use xlink:href="#DejaVuSans-61" x="216.894531"/>
       <use xlink:href="#DejaVuSans-69" x="278.173828"/>
       <use xlink:href="#DejaVuSans-6e" x="305.957031"/>
       <use xlink:href="#DejaVuSans-65" x="369.335938"/>
       <use xlink:href="#DejaVuSans-64" x="430.859375"/>
      </g>
      <!-- model -->
      <g style="fill: #d2691e" transform="translate(267.078118 301.478256) rotate(-50) scale(0.12 -0.12)">
       <use xlink:href="#DejaVuSans-6d"/>
       <use xlink:href="#DejaVuSans-6f" x="97.412109"/>
       <use xlink:href="#DejaVuSans-64" x="158.59375"/>
       <use xlink:href="#DejaVuSans-65" x="222.070312"/>
       <use xlink:href="#DejaVuSans-6c" x="283.59375"/>
      </g>
     </g>
    </g>
    <g id="xtick_6">
     <g id="line2d_17">
      <g>
       <use xlink:href="#m73b92ecd13" x="313.714352" y="242.946877" style="stroke: #000000; stroke-width: 0.8"/>
      </g>
     </g>
     <g id="text_14">
      <!-- Masked -->
      <g style="fill: #1f77b4" transform="translate(296.488921 294.973832) rotate(-50) scale(0.12 -0.12)">
       <use xlink:href="#DejaVuSans-4d"/>
       <use xlink:href="#DejaVuSans-61" x="86.279297"/>
       <use xlink:href="#DejaVuSans-73" x="147.558594"/>
       <use xlink:href="#DejaVuSans-6b" x="199.658203"/>
       <use xlink:href="#DejaVuSans-65" x="253.943359"/>
       <use xlink:href="#DejaVuSans-64" x="315.466797"/>
      </g>
      <!-- raw input -->
      <g style="fill: #1f77b4" transform="translate(303.148789 307.941756) rotate(-50) scale(0.12 -0.12)">
       <use xlink:href="#DejaVuSans-72"/>
       <use xlink:href="#DejaVuSans-61" x="41.113281"/>
       <use xlink:href="#DejaVuSans-77" x="102.392578"/>
       <use xlink:href="#DejaVuSans-20" x="184.179688"/>
       <use xlink:href="#DejaVuSans-69" x="215.966797"/>
       <use xlink:href="#DejaVuSans-6e" x="243.75"/>
       <use xlink:href="#DejaVuSans-70" x="307.128906"/>
       <use xlink:href="#DejaVuSans-75" x="370.605469"/>
       <use xlink:href="#DejaVuSans-74" x="433.984375"/>
      </g>
     </g>
    </g>
    <g id="xtick_7">
     <g id="line2d_18">
      <g>
       <use xlink:href="#m73b92ecd13" x="356.024482" y="242.946877" style="stroke: #000000; stroke-width: 0.8"/>
      </g>
     </g>
     <g id="text_15">
      <!-- LPL -->
      <g style="fill: #a52a2a" transform="translate(351.937723 271.594635) rotate(-50) scale(0.12 -0.12)">
       <use xlink:href="#DejaVuSans-4c"/>
       <use xlink:href="#DejaVuSans-50" x="55.712891"/>
       <use xlink:href="#DejaVuSans-4c" x="116.015625"/>
      </g>
     </g>
    </g>
    <g id="xtick_8">
     <g id="line2d_19">
      <g>
       <use xlink:href="#m73b92ecd13" x="398.334613" y="242.946877" style="stroke: #000000; stroke-width: 0.8"/>
      </g>
     </g>
     <g id="text_16">
      <!-- TCLoSeR -->
      <g style="fill: #008000" transform="translate(384.106473 295.766688) rotate(-50) scale(0.12 -0.12)">
       <use xlink:href="#DejaVuSans-54"/>
       <use xlink:href="#DejaVuSans-43" x="55.208984"/>
       <use xlink:href="#DejaVuSans-4c" x="125.033203"/>
       <use xlink:href="#DejaVuSans-6f" x="178.996094"/>
       <use xlink:href="#DejaVuSans-53" x="240.177734"/>
       <use xlink:href="#DejaVuSans-65" x="303.654297"/>
       <use xlink:href="#DejaVuSans-52" x="365.177734"/>
      </g>
     </g>
    </g>
   </g>
   <g id="matplotlib.axis_4">
    <g id="ytick_5">
     <g id="line2d_20">
      <g>
       <use xlink:href="#m1e06f96a57" x="253.422416" y="204.115869" style="stroke: #000000; stroke-width: 0.8"/>
      </g>
     </g>
    </g>
    <g id="ytick_6">
     <g id="line2d_21">
      <g>
       <use xlink:href="#m1e06f96a57" x="253.422416" y="152.341191" style="stroke: #000000; stroke-width: 0.8"/>
      </g>
     </g>
    </g>
    <g id="ytick_7">
     <g id="line2d_22">
      <g>
       <use xlink:href="#m1e06f96a57" x="253.422416" y="100.566513" style="stroke: #000000; stroke-width: 0.8"/>
      </g>
     </g>
    </g>
    <g id="ytick_8">
     <g id="line2d_23">
      <g>
       <use xlink:href="#m1e06f96a57" x="253.422416" y="48.791835" style="stroke: #000000; stroke-width: 0.8"/>
      </g>
     </g>
    </g>
   </g>
   <g id="line2d_24">
    <path d="M 253.422416 238.632321 
L 416.316418 238.632321 
" clip-path="url(#p5af0edbd9c)" style="fill: none; stroke-dasharray: 1.5,2.475; stroke-dashoffset: 0; stroke: #000000; stroke-width: 1.5"/>
   </g>
   <g id="patch_6">
    <path d="M 253.422416 242.946877 
L 253.422416 42.32 
" style="fill: none; stroke: #000000; stroke-width: 0.8; stroke-linejoin: miter; stroke-linecap: square"/>
   </g>
   <g id="patch_7">
    <path d="M 253.422416 242.946877 
L 416.316418 242.946877 
" style="fill: none; stroke: #000000; stroke-width: 0.8; stroke-linejoin: miter; stroke-linecap: square"/>
   </g>
   <g id="text_17">
    <!-- Ensemble -->
    <g transform="translate(298.457913 22.32) scale(0.1485 -0.1485)">
     <defs>
      <path id="DejaVuSans-45" d="M 628 4666 
L 3578 4666 
L 3578 4134 
L 1259 4134 
L 1259 2753 
L 3481 2753 
L 3481 2222 
L 1259 2222 
L 1259 531 
L 3634 531 
L 3634 0 
L 628 0 
L 628 4666 
z
" transform="scale(0.015625)"/>
      <path id="DejaVuSans-62" d="M 3116 1747 
Q 3116 2381 2855 2742 
Q 2594 3103 2138 3103 
Q 1681 3103 1420 2742 
Q 1159 2381 1159 1747 
Q 1159 1113 1420 752 
Q 1681 391 2138 391 
Q 2594 391 2855 752 
Q 3116 1113 3116 1747 
z
M 1159 2969 
Q 1341 3281 1617 3432 
Q 1894 3584 2278 3584 
Q 2916 3584 3314 3078 
Q 3713 2572 3713 1747 
Q 3713 922 3314 415 
Q 2916 -91 2278 -91 
Q 1894 -91 1617 61 
Q 1341 213 1159 525 
L 1159 0 
L 581 0 
L 581 4863 
L 1159 4863 
L 1159 2969 
z
" transform="scale(0.015625)"/>
     </defs>
     <use xlink:href="#DejaVuSans-45"/>
     <use xlink:href="#DejaVuSans-6e" x="63.183594"/>
     <use xlink:href="#DejaVuSans-73" x="126.5625"/>
     <use xlink:href="#DejaVuSans-65" x="178.662109"/>
     <use xlink:href="#DejaVuSans-6d" x="240.185547"/>
     <use xlink:href="#DejaVuSans-62" x="337.597656"/>
     <use xlink:href="#DejaVuSans-6c" x="401.074219"/>
     <use xlink:href="#DejaVuSans-65" x="428.857422"/>
    </g>
   </g>
  </g>
 </g>
 <defs>
  <clipPath id="p4b4e0db38b">
   <rect x="61.94" y="42.32" width="162.894001" height="200.626877"/>
  </clipPath>
  <clipPath id="p5af0edbd9c">
   <rect x="253.422416" y="42.32" width="162.894001" height="200.626877"/>
  </clipPath>
 </defs>
</svg>
