<?xml version="1.0" encoding="utf-8" standalone="no"?>
<!DOCTYPE svg PUBLIC "-//W3C//DTD SVG 1.1//EN"
  "http://www.w3.org/Graphics/SVG/1.1/DTD/svg11.dtd">
<svg xmlns:xlink="http://www.w3.org/1999/xlink" width="432pt" height="324pt" viewBox="0 0 432 324" xmlns="http://www.w3.org/2000/svg" version="1.1">
 <metadata>
  <rdf:RDF xmlns:dc="http://purl.org/dc/elements/1.1/" xmlns:cc="http://creativecommons.org/ns#" xmlns:rdf="http://www.w3.org/1999/02/22-rdf-syntax-ns#">
   <cc:Work>
    <dc:type rdf:resource="http://purl.org/dc/dcmitype/StillImage"/>
    <dc:date>2025-08-25T16:46:06.178719</dc:date>
    <dc:format>image/svg+xml</dc:format>
    <dc:creator>
     <cc:Agent>
      <dc:title>Matplotlib v3.9.1.post1, https://matplotlib.org/</dc:title>
     </cc:Agent>
    </dc:creator>
   </cc:Work>
  </rdf:RDF>
 </metadata>
 <defs>
  <style type="text/css">*{stroke-linejoin: round; stroke-linecap: butt}</style>
 </defs>
 <g id="figure_1">
  <g id="patch_1">
   <path d="M 0 324 
L 432 324 
L 432 0 
L 0 0 
z
" style="fill: #ffffff"/>
  </g>
  <g id="axes_1">
   <g id="patch_2">
    <path d="M 62.03 242.946877 
L 224.879001 242.946877 
L 224.879001 42.32 
L 62.03 42.32 
z
" style="fill: #ffffff"/>
   </g>
   <g id="PolyCollection_1">
    <path d="M 84.174021 225.739072 
L 75.839655 225.739072 
L 75.569465 225.696145 
L 75.295537 225.653219 
L 75.018839 225.610292 
L 74.740349 225.567366 
L 74.461047 225.524439 
L 74.181904 225.481513 
L 73.903879 225.438586 
L 73.627911 225.395659 
L 73.354916 225.352733 
L 73.085783 225.309806 
L 72.82137 225.26688 
L 72.562505 225.223953 
L 72.309983 225.181027 
L 72.064566 225.1381 
L 71.826981 225.095173 
L 71.59792 225.052247 
L 71.378037 225.00932 
L 71.167949 224.966394 
L 70.968232 224.923467 
L 70.779416 224.880541 
L 70.601988 224.837614 
L 70.43638 224.794687 
L 70.282967 224.751761 
L 70.142064 224.708834 
L 70.013921 224.665908 
L 69.898711 224.622981 
L 69.796534 224.580055 
L 69.707406 224.537128 
L 69.631261 224.494201 
L 69.567941 224.451275 
L 69.517204 224.408348 
L 69.478718 224.365422 
L 69.452068 224.322495 
L 69.43676 224.279569 
L 69.432227 224.236642 
L 69.43784 224.193716 
L 69.452919 224.150789 
L 69.476745 224.107862 
L 69.50858 224.064936 
L 69.547676 224.022009 
L 69.593301 223.979083 
L 69.644746 223.936156 
L 69.701351 223.89323 
L 69.762516 223.850303 
L 69.827714 223.807376 
L 69.896506 223.76445 
L 69.968546 223.721523 
L 70.043588 223.678597 
L 70.121491 223.63567 
L 70.202211 223.592744 
L 70.285798 223.549817 
L 70.372388 223.50689 
L 70.462191 223.463964 
L 70.555473 223.421037 
L 70.652541 223.378111 
L 70.753724 223.335184 
L 70.859355 223.292258 
L 70.96975 223.249331 
L 71.08519 223.206404 
L 71.205908 223.163478 
L 71.33207 223.120551 
L 71.463766 223.077625 
L 71.601001 223.034698 
L 71.743691 222.991772 
L 71.891659 222.948845 
L 72.044639 222.905919 
L 72.20228 222.862992 
L 72.364157 222.820065 
L 72.529775 222.777139 
L 72.698588 222.734212 
L 72.870011 222.691286 
L 73.043434 222.648359 
L 73.218242 222.605433 
L 73.393825 222.562506 
L 73.569599 222.519579 
L 73.745013 222.476653 
L 73.919571 222.433726 
L 74.092833 222.3908 
L 74.26443 222.347873 
L 74.434068 222.304947 
L 74.601532 222.26202 
L 74.766684 222.219093 
L 74.929466 222.176167 
L 75.089892 222.13324 
L 75.248042 222.090314 
L 75.404055 222.047387 
L 75.558114 222.004461 
L 75.71044 221.961534 
L 75.861273 221.918607 
L 76.010862 221.875681 
L 76.159449 221.832754 
L 76.307257 221.789828 
L 76.454476 221.746901 
L 76.601254 221.703975 
L 76.747686 221.661048 
L 76.893806 221.618122 
L 77.039584 221.575195 
L 77.18492 221.532268 
L 77.32965 221.489342 
L 82.684026 221.489342 
L 82.684026 221.489342 
L 82.828755 221.532268 
L 82.974092 221.575195 
L 83.11987 221.618122 
L 83.265989 221.661048 
L 83.412421 221.703975 
L 83.5592 221.746901 
L 83.706419 221.789828 
L 83.854227 221.832754 
L 84.002814 221.875681 
L 84.152403 221.918607 
L 84.303236 221.961534 
L 84.455562 222.004461 
L 84.609621 222.047387 
L 84.765634 222.090314 
L 84.923784 222.13324 
L 85.084209 222.176167 
L 85.246991 222.219093 
L 85.412144 222.26202 
L 85.579607 222.304947 
L 85.749246 222.347873 
L 85.920843 222.3908 
L 86.094105 222.433726 
L 86.268662 222.476653 
L 86.444077 222.519579 
L 86.61985 222.562506 
L 86.795434 222.605433 
L 86.970241 222.648359 
L 87.143665 222.691286 
L 87.315088 222.734212 
L 87.483901 222.777139 
L 87.649519 222.820065 
L 87.811395 222.862992 
L 87.969037 222.905919 
L 88.122017 222.948845 
L 88.269985 222.991772 
L 88.412674 223.034698 
L 88.54991 223.077625 
L 88.681605 223.120551 
L 88.807767 223.163478 
L 88.928485 223.206404 
L 89.043926 223.249331 
L 89.154321 223.292258 
L 89.259951 223.335184 
L 89.361135 223.378111 
L 89.458203 223.421037 
L 89.551484 223.463964 
L 89.641287 223.50689 
L 89.727878 223.549817 
L 89.811465 223.592744 
L 89.892184 223.63567 
L 89.970087 223.678597 
L 90.04513 223.721523 
L 90.11717 223.76445 
L 90.185961 223.807376 
L 90.251159 223.850303 
L 90.312324 223.89323 
L 90.36893 223.936156 
L 90.420375 223.979083 
L 90.465999 224.022009 
L 90.505096 224.064936 
L 90.536931 224.107862 
L 90.560757 224.150789 
L 90.575835 224.193716 
L 90.581448 224.236642 
L 90.576915 224.279569 
L 90.561607 224.322495 
L 90.534958 224.365422 
L 90.496472 224.408348 
L 90.445735 224.451275 
L 90.382415 224.494201 
L 90.306269 224.537128 
L 90.217142 224.580055 
L 90.114965 224.622981 
L 89.999755 224.665908 
L 89.871611 224.708834 
L 89.730709 224.751761 
L 89.577296 224.794687 
L 89.411687 224.837614 
L 89.234259 224.880541 
L 89.045444 224.923467 
L 88.845727 224.966394 
L 88.635639 225.00932 
L 88.415756 225.052247 
L 88.186694 225.095173 
L 87.949109 225.1381 
L 87.703692 225.181027 
L 87.451171 225.223953 
L 87.192306 225.26688 
L 86.927893 225.309806 
L 86.658759 225.352733 
L 86.385765 225.395659 
L 86.109797 225.438586 
L 85.831772 225.481513 
L 85.552629 225.524439 
L 85.273327 225.567366 
L 84.994837 225.610292 
L 84.718139 225.653219 
L 84.444211 225.696145 
L 84.174021 225.739072 
z
" clip-path="url(#pc329fcc53f)" style="fill: #d2691e; fill-opacity: 0.3"/>
   </g>
   <g id="PathCollection_1">
    <defs>
     <path id="m61e66d8f11" d="M 0 3 
C 0.795609 3 1.55874 2.683901 2.12132 2.12132 
C 2.683901 1.55874 3 0.795609 3 0 
C 3 -0.795609 2.683901 -1.55874 2.12132 -2.12132 
C 1.55874 -2.683901 0.795609 -3 0 -3 
C -0.795609 -3 -1.55874 -2.683901 -2.12132 -2.12132 
C -2.683901 -1.55874 -3 -0.795609 -3 0 
C -3 0.795609 -2.683901 1.55874 -2.12132 2.12132 
C -1.55874 2.683901 -0.795609 3 0 3 
z
" style="stroke: #d2691e"/>
    </defs>
    <g clip-path="url(#pc329fcc53f)">
     <use xlink:href="#m61e66d8f11" x="80.006838" y="223.81909" style="fill: #d2691e; stroke: #d2691e"/>
    </g>
   </g>
   <g id="PolyCollection_2">
    <path d="M 132.87989 203.049835 
L 111.730669 203.049835 
L 111.730669 203.049835 
L 111.730669 203.049835 
L 111.730669 203.049835 
L 111.730669 203.049835 
L 111.730669 203.049835 
L 111.730669 203.049835 
L 111.730669 203.049835 
L 111.730669 203.049835 
L 111.730669 203.049835 
L 111.730669 203.049835 
L 111.730669 203.049835 
L 111.730669 203.049835 
L 111.730669 203.049835 
L 111.730669 203.049835 
L 111.730669 203.049835 
L 111.730669 203.049835 
L 111.730669 203.049835 
L 111.730669 203.049835 
L 111.730669 203.049835 
L 111.730669 203.049835 
L 111.730669 203.049835 
L 111.730669 203.049835 
L 111.730669 203.049835 
L 111.730669 203.049835 
L 111.730669 203.049835 
L 111.730669 203.049835 
L 111.730669 203.049835 
L 111.730669 203.049835 
L 111.730669 203.049835 
L 111.730669 203.049835 
L 111.730669 203.049835 
L 111.730669 203.049835 
L 111.730669 203.049835 
L 111.730669 203.049835 
L 111.730669 203.049835 
L 111.730669 203.049835 
L 111.730669 203.049835 
L 111.730669 203.049835 
L 111.730669 203.049835 
L 111.730669 203.049835 
L 111.730669 203.049835 
L 111.730669 203.049835 
L 111.730669 203.049835 
L 111.730669 203.049835 
L 111.730669 203.049835 
L 111.730669 203.049835 
L 111.730669 203.049835 
L 111.730669 203.049835 
L 111.730669 203.049835 
L 111.730669 203.049835 
L 111.730669 203.049835 
L 111.730669 203.049835 
L 111.730669 203.049835 
L 111.730669 203.049835 
L 111.730669 203.049835 
L 111.730669 203.049835 
L 111.730669 203.049835 
L 111.730669 203.049835 
L 111.730669 203.049835 
L 111.730669 203.049835 
L 111.730669 203.049835 
L 111.730669 203.049835 
L 111.730669 203.049835 
L 111.730669 203.049835 
L 111.730669 203.049835 
L 111.730669 203.049835 
L 111.730669 203.049835 
L 111.730669 203.049835 
L 111.730669 203.049835 
L 111.730669 203.049835 
L 111.730669 203.049835 
L 111.730669 203.049835 
L 111.730669 203.049835 
L 111.730669 203.049835 
L 111.730669 203.049835 
L 111.730669 203.049835 
L 111.730669 203.049835 
L 111.730669 203.049835 
L 111.730669 203.049835 
L 111.730669 203.049835 
L 111.730669 203.049835 
L 111.730669 203.049835 
L 111.730669 203.049835 
L 111.730669 203.049835 
L 111.730669 203.049835 
L 111.730669 203.049835 
L 111.730669 203.049835 
L 111.730669 203.049835 
L 111.730669 203.049835 
L 111.730669 203.049835 
L 111.730669 203.049835 
L 111.730669 203.049835 
L 111.730669 203.049835 
L 111.730669 203.049835 
L 111.730669 203.049835 
L 111.730669 203.049835 
L 111.730669 203.049835 
L 111.730669 203.049835 
L 111.730669 203.049835 
L 132.87989 203.049835 
L 132.87989 203.049835 
L 132.87989 203.049835 
L 132.87989 203.049835 
L 132.87989 203.049835 
L 132.87989 203.049835 
L 132.87989 203.049835 
L 132.87989 203.049835 
L 132.87989 203.049835 
L 132.87989 203.049835 
L 132.87989 203.049835 
L 132.87989 203.049835 
L 132.87989 203.049835 
L 132.87989 203.049835 
L 132.87989 203.049835 
L 132.87989 203.049835 
L 132.87989 203.049835 
L 132.87989 203.049835 
L 132.87989 203.049835 
L 132.87989 203.049835 
L 132.87989 203.049835 
L 132.87989 203.049835 
L 132.87989 203.049835 
L 132.87989 203.049835 
L 132.87989 203.049835 
L 132.87989 203.049835 
L 132.87989 203.049835 
L 132.87989 203.049835 
L 132.87989 203.049835 
L 132.87989 203.049835 
L 132.87989 203.049835 
L 132.87989 203.049835 
L 132.87989 203.049835 
L 132.87989 203.049835 
L 132.87989 203.049835 
L 132.87989 203.049835 
L 132.87989 203.049835 
L 132.87989 203.049835 
L 132.87989 203.049835 
L 132.87989 203.049835 
L 132.87989 203.049835 
L 132.87989 203.049835 
L 132.87989 203.049835 
L 132.87989 203.049835 
L 132.87989 203.049835 
L 132.87989 203.049835 
L 132.87989 203.049835 
L 132.87989 203.049835 
L 132.87989 203.049835 
L 132.87989 203.049835 
L 132.87989 203.049835 
L 132.87989 203.049835 
L 132.87989 203.049835 
L 132.87989 203.049835 
L 132.87989 203.049835 
L 132.87989 203.049835 
L 132.87989 203.049835 
L 132.87989 203.049835 
L 132.87989 203.049835 
L 132.87989 203.049835 
L 132.87989 203.049835 
L 132.87989 203.049835 
L 132.87989 203.049835 
L 132.87989 203.049835 
L 132.87989 203.049835 
L 132.87989 203.049835 
L 132.87989 203.049835 
L 132.87989 203.049835 
L 132.87989 203.049835 
L 132.87989 203.049835 
L 132.87989 203.049835 
L 132.87989 203.049835 
L 132.87989 203.049835 
L 132.87989 203.049835 
L 132.87989 203.049835 
L 132.87989 203.049835 
L 132.87989 203.049835 
L 132.87989 203.049835 
L 132.87989 203.049835 
L 132.87989 203.049835 
L 132.87989 203.049835 
L 132.87989 203.049835 
L 132.87989 203.049835 
L 132.87989 203.049835 
L 132.87989 203.049835 
L 132.87989 203.049835 
L 132.87989 203.049835 
L 132.87989 203.049835 
L 132.87989 203.049835 
L 132.87989 203.049835 
L 132.87989 203.049835 
L 132.87989 203.049835 
L 132.87989 203.049835 
L 132.87989 203.049835 
L 132.87989 203.049835 
L 132.87989 203.049835 
L 132.87989 203.049835 
L 132.87989 203.049835 
L 132.87989 203.049835 
L 132.87989 203.049835 
L 132.87989 203.049835 
z
" clip-path="url(#pc329fcc53f)" style="fill: #1f77b4; fill-opacity: 0.3"/>
   </g>
   <g id="PathCollection_2">
    <defs>
     <path id="m41ab97d4a8" d="M 0 3 
C 0.795609 3 1.55874 2.683901 2.12132 2.12132 
C 2.683901 1.55874 3 0.795609 3 0 
C 3 -0.795609 2.683901 -1.55874 2.12132 -2.12132 
C 1.55874 -2.683901 0.795609 -3 0 -3 
C -0.795609 -3 -1.55874 -2.683901 -2.12132 -2.12132 
C -2.683901 -1.55874 -3 -0.795609 -3 0 
C -3 0.795609 -2.683901 1.55874 -2.12132 2.12132 
C -1.55874 2.683901 -0.795609 3 0 3 
z
" style="stroke: #1f77b4"/>
    </defs>
    <g clip-path="url(#pc329fcc53f)">
     <use xlink:href="#m41ab97d4a8" x="122.30528" y="203.049835" style="fill: #1f77b4; stroke: #1f77b4"/>
    </g>
   </g>
   <g id="PolyCollection_3">
    <path d="M 170.472425 205.792952 
L 158.735019 205.792952 
L 158.435701 205.769609 
L 158.143219 205.746266 
L 157.859231 205.722923 
L 157.585241 205.69958 
L 157.322573 205.676237 
L 157.072343 205.652895 
L 156.835443 205.629552 
L 156.612528 205.606209 
L 156.404007 205.582866 
L 156.210049 205.559523 
L 156.030584 205.53618 
L 155.865324 205.512838 
L 155.713775 205.489495 
L 155.575269 205.466152 
L 155.448988 205.442809 
L 155.333999 205.419466 
L 155.229284 205.396123 
L 155.13378 205.372781 
L 155.046408 205.349438 
L 154.966106 205.326095 
L 154.89186 205.302752 
L 154.822728 205.279409 
L 154.757863 205.256066 
L 154.696526 205.232724 
L 154.638101 205.209381 
L 154.582101 205.186038 
L 154.528167 205.162695 
L 154.47607 205.139352 
L 154.425701 205.116009 
L 154.377065 205.092667 
L 154.330266 205.069324 
L 154.285496 205.045981 
L 154.243021 205.022638 
L 154.20317 204.999295 
L 154.166318 204.975952 
L 154.132874 204.95261 
L 154.103277 204.929267 
L 154.077979 204.905924 
L 154.057444 204.882581 
L 154.042142 204.859238 
L 154.032542 204.835895 
L 154.029111 204.812553 
L 154.032313 204.78921 
L 154.042606 204.765867 
L 154.060439 204.742524 
L 154.086252 204.719181 
L 154.120471 204.695838 
L 154.163504 204.672495 
L 154.215735 204.649153 
L 154.277522 204.62581 
L 154.349182 204.602467 
L 154.430989 204.579124 
L 154.523161 204.555781 
L 154.625854 204.532438 
L 154.739147 204.509096 
L 154.86304 204.485753 
L 154.997443 204.46241 
L 155.142165 204.439067 
L 155.296916 204.415724 
L 155.461299 204.392381 
L 155.634812 204.369039 
L 155.816847 204.345696 
L 156.006695 204.322353 
L 156.203553 204.29901 
L 156.406532 204.275667 
L 156.614672 204.252324 
L 156.826952 204.228982 
L 157.042307 204.205639 
L 157.259648 204.182296 
L 157.477878 204.158953 
L 157.69591 204.13561 
L 157.912694 204.112267 
L 158.127227 204.088925 
L 158.338578 204.065582 
L 158.545904 204.042239 
L 158.748465 204.018896 
L 158.945635 203.995553 
L 159.136915 203.97221 
L 159.32194 203.948868 
L 159.500482 203.925525 
L 159.672448 203.902182 
L 159.83788 203.878839 
L 159.996947 203.855496 
L 160.149933 203.832153 
L 160.297226 203.808811 
L 160.4393 203.785468 
L 160.576699 203.762125 
L 160.710015 203.738782 
L 160.839869 203.715439 
L 160.96689 203.692096 
L 161.091694 203.668754 
L 161.214867 203.645411 
L 161.336943 203.622068 
L 161.458392 203.598725 
L 161.579606 203.575382 
L 161.700889 203.552039 
L 161.822449 203.528697 
L 161.944398 203.505354 
L 162.066746 203.482011 
L 167.140697 203.482011 
L 167.140697 203.482011 
L 167.263046 203.505354 
L 167.384994 203.528697 
L 167.506554 203.552039 
L 167.627837 203.575382 
L 167.749051 203.598725 
L 167.8705 203.622068 
L 167.992576 203.645411 
L 168.115749 203.668754 
L 168.240554 203.692096 
L 168.367575 203.715439 
L 168.497429 203.738782 
L 168.630744 203.762125 
L 168.768143 203.785468 
L 168.910217 203.808811 
L 169.05751 203.832153 
L 169.210497 203.855496 
L 169.369564 203.878839 
L 169.534996 203.902182 
L 169.706962 203.925525 
L 169.885503 203.948868 
L 170.070529 203.97221 
L 170.261809 203.995553 
L 170.458979 204.018896 
L 170.661539 204.042239 
L 170.868865 204.065582 
L 171.080217 204.088925 
L 171.29475 204.112267 
L 171.511533 204.13561 
L 171.729566 204.158953 
L 171.947795 204.182296 
L 172.165136 204.205639 
L 172.380492 204.228982 
L 172.592771 204.252324 
L 172.800911 204.275667 
L 173.003891 204.29901 
L 173.200748 204.322353 
L 173.390596 204.345696 
L 173.572631 204.369039 
L 173.746144 204.392381 
L 173.910528 204.415724 
L 174.065279 204.439067 
L 174.210001 204.46241 
L 174.344403 204.485753 
L 174.468296 204.509096 
L 174.58159 204.532438 
L 174.684282 204.555781 
L 174.776454 204.579124 
L 174.858261 204.602467 
L 174.929921 204.62581 
L 174.991708 204.649153 
L 175.04394 204.672495 
L 175.086972 204.695838 
L 175.121191 204.719181 
L 175.147004 204.742524 
L 175.164837 204.765867 
L 175.17513 204.78921 
L 175.178332 204.812553 
L 175.174901 204.835895 
L 175.165301 204.859238 
L 175.149999 204.882581 
L 175.129465 204.905924 
L 175.104167 204.929267 
L 175.074569 204.95261 
L 175.041126 204.975952 
L 175.004273 204.999295 
L 174.964422 205.022638 
L 174.921948 205.045981 
L 174.877178 205.069324 
L 174.830378 205.092667 
L 174.781742 205.116009 
L 174.731374 205.139352 
L 174.679277 205.162695 
L 174.625343 205.186038 
L 174.569342 205.209381 
L 174.510917 205.232724 
L 174.44958 205.256066 
L 174.384715 205.279409 
L 174.315583 205.302752 
L 174.241338 205.326095 
L 174.161036 205.349438 
L 174.073663 205.372781 
L 173.978159 205.396123 
L 173.873445 205.419466 
L 173.758455 205.442809 
L 173.632174 205.466152 
L 173.493668 205.489495 
L 173.34212 205.512838 
L 173.176859 205.53618 
L 172.997395 205.559523 
L 172.803436 205.582866 
L 172.594916 205.606209 
L 172.372 205.629552 
L 172.1351 205.652895 
L 171.88487 205.676237 
L 171.622202 205.69958 
L 171.348212 205.722923 
L 171.064224 205.746266 
L 170.771743 205.769609 
L 170.472425 205.792952 
z
" clip-path="url(#pc329fcc53f)" style="fill: #a52a2a; fill-opacity: 0.3"/>
   </g>
   <g id="PathCollection_3">
    <defs>
     <path id="m6ecec21a99" d="M 0 3 
C 0.795609 3 1.55874 2.683901 2.12132 2.12132 
C 2.683901 1.55874 3 0.795609 3 0 
C 3 -0.795609 2.683901 -1.55874 2.12132 -2.12132 
C 1.55874 -2.683901 0.795609 -3 0 -3 
C -0.795609 -3 -1.55874 -2.683901 -2.12132 -2.12132 
C -2.683901 -1.55874 -3 -0.795609 -3 0 
C -3 0.795609 -2.683901 1.55874 -2.12132 2.12132 
C -1.55874 2.683901 -0.795609 3 0 3 
z
" style="stroke: #a52a2a"/>
    </defs>
    <g clip-path="url(#pc329fcc53f)">
     <use xlink:href="#m6ecec21a99" x="164.603722" y="204.816354" style="fill: #a52a2a; stroke: #a52a2a"/>
    </g>
   </g>
   <g id="PolyCollection_4">
    <path d="M 208.334521 196.177037 
L 205.469806 196.177037 
L 205.417315 196.163152 
L 205.37122 196.149268 
L 205.331693 196.135384 
L 205.2987 196.121499 
L 205.27199 196.107615 
L 205.2511 196.09373 
L 205.235362 196.079846 
L 205.223914 196.065961 
L 205.215718 196.052077 
L 205.209574 196.038192 
L 205.204146 196.024308 
L 205.197977 196.010424 
L 205.189516 195.996539 
L 205.177134 195.982655 
L 205.159143 195.96877 
L 205.133821 195.954886 
L 205.099423 195.941001 
L 205.054206 195.927117 
L 204.996445 195.913233 
L 204.924456 195.899348 
L 204.836615 195.885464 
L 204.731386 195.871579 
L 204.607346 195.857695 
L 204.463217 195.84381 
L 204.297895 195.829926 
L 204.110486 195.816041 
L 203.90034 195.802157 
L 203.667089 195.788273 
L 203.41068 195.774388 
L 203.13141 195.760504 
L 202.829956 195.746619 
L 202.507404 195.732735 
L 202.165264 195.71885 
L 201.805487 195.704966 
L 201.430465 195.691081 
L 201.043027 195.677197 
L 200.646418 195.663313 
L 200.244264 195.649428 
L 199.840528 195.635544 
L 199.439451 195.621659 
L 199.045472 195.607775 
L 198.663145 195.59389 
L 198.297039 195.580006 
L 197.95163 195.566122 
L 197.631191 195.552237 
L 197.339672 195.538353 
L 197.080596 195.524468 
L 196.85695 195.510584 
L 196.671097 195.496699 
L 196.5247 195.482815 
L 196.418678 195.46893 
L 196.353172 195.455046 
L 196.327553 195.441162 
L 196.340456 195.427277 
L 196.389836 195.413393 
L 196.473061 195.399508 
L 196.587025 195.385624 
L 196.728273 195.371739 
L 196.893151 195.357855 
L 197.077947 195.34397 
L 197.27904 195.330086 
L 197.493032 195.316202 
L 197.716866 195.302317 
L 197.947912 195.288433 
L 198.184037 195.274548 
L 198.42363 195.260664 
L 198.665607 195.246779 
L 198.90937 195.232895 
L 199.154753 195.219011 
L 199.401933 195.205126 
L 199.651332 195.191242 
L 199.903505 195.177357 
L 200.159027 195.163473 
L 200.418387 195.149588 
L 200.681897 195.135704 
L 200.949612 195.121819 
L 201.221281 195.107935 
L 201.496314 195.094051 
L 201.773788 195.080166 
L 202.052464 195.066282 
L 202.330832 195.052397 
L 202.607178 195.038513 
L 202.879657 195.024628 
L 203.146375 195.010744 
L 203.40548 194.996859 
L 203.655237 194.982975 
L 203.894107 194.969091 
L 204.120804 194.955206 
L 204.33434 194.941322 
L 204.534054 194.927437 
L 204.719623 194.913553 
L 204.891052 194.899668 
L 205.048651 194.885784 
L 205.193001 194.871899 
L 205.324902 194.858015 
L 205.445326 194.844131 
L 205.555358 194.830246 
L 205.656135 194.816362 
L 205.748799 194.802477 
L 208.055528 194.802477 
L 208.055528 194.802477 
L 208.148192 194.816362 
L 208.248969 194.830246 
L 208.359001 194.844131 
L 208.479426 194.858015 
L 208.611327 194.871899 
L 208.755676 194.885784 
L 208.913275 194.899668 
L 209.084704 194.913553 
L 209.270273 194.927437 
L 209.469988 194.941322 
L 209.683523 194.955206 
L 209.91022 194.969091 
L 210.14909 194.982975 
L 210.398847 194.996859 
L 210.657952 195.010744 
L 210.924671 195.024628 
L 211.197149 195.038513 
L 211.473495 195.052397 
L 211.751864 195.066282 
L 212.030539 195.080166 
L 212.308013 195.094051 
L 212.583047 195.107935 
L 212.854715 195.121819 
L 213.12243 195.135704 
L 213.38594 195.149588 
L 213.645301 195.163473 
L 213.900822 195.177357 
L 214.152995 195.191242 
L 214.402394 195.205126 
L 214.649574 195.219011 
L 214.894957 195.232895 
L 215.13872 195.246779 
L 215.380697 195.260664 
L 215.620291 195.274548 
L 215.856415 195.288433 
L 216.087461 195.302317 
L 216.311295 195.316202 
L 216.525288 195.330086 
L 216.726381 195.34397 
L 216.911177 195.357855 
L 217.076054 195.371739 
L 217.217302 195.385624 
L 217.331266 195.399508 
L 217.414492 195.413393 
L 217.463872 195.427277 
L 217.476774 195.441162 
L 217.451156 195.455046 
L 217.385649 195.46893 
L 217.279627 195.482815 
L 217.133231 195.496699 
L 216.947377 195.510584 
L 216.723731 195.524468 
L 216.464655 195.538353 
L 216.173136 195.552237 
L 215.852697 195.566122 
L 215.507288 195.580006 
L 215.141182 195.59389 
L 214.758855 195.607775 
L 214.364876 195.621659 
L 213.963799 195.635544 
L 213.560063 195.649428 
L 213.157909 195.663313 
L 212.7613 195.677197 
L 212.373862 195.691081 
L 211.998841 195.704966 
L 211.639063 195.71885 
L 211.296923 195.732735 
L 210.974371 195.746619 
L 210.672918 195.760504 
L 210.393648 195.774388 
L 210.137239 195.788273 
L 209.903987 195.802157 
L 209.693842 195.816041 
L 209.506432 195.829926 
L 209.34111 195.84381 
L 209.196981 195.857695 
L 209.072942 195.871579 
L 208.967712 195.885464 
L 208.879871 195.899348 
L 208.807882 195.913233 
L 208.750121 195.927117 
L 208.704904 195.941001 
L 208.670507 195.954886 
L 208.645184 195.96877 
L 208.627193 195.982655 
L 208.614811 195.996539 
L 208.60635 196.010424 
L 208.600182 196.024308 
L 208.594753 196.038192 
L 208.58861 196.052077 
L 208.580413 196.065961 
L 208.568966 196.079846 
L 208.553227 196.09373 
L 208.532337 196.107615 
L 208.505627 196.121499 
L 208.472634 196.135384 
L 208.433108 196.149268 
L 208.387012 196.163152 
L 208.334521 196.177037 
z
" clip-path="url(#pc329fcc53f)" style="fill: #008000; fill-opacity: 0.3"/>
   </g>
   <g id="PathCollection_4">
    <defs>
     <path id="m09f43fe826" d="M 0 3 
C 0.795609 3 1.55874 2.683901 2.12132 2.12132 
C 2.683901 1.55874 3 0.795609 3 0 
C 3 -0.795609 2.683901 -1.55874 2.12132 -2.12132 
C 1.55874 -2.683901 0.795609 -3 0 -3 
C -0.795609 -3 -1.55874 -2.683901 -2.12132 -2.12132 
C -2.683901 -1.55874 -3 -0.795609 -3 0 
C -3 0.795609 -2.683901 1.55874 -2.12132 2.12132 
C -1.55874 2.683901 -0.795609 3 0 3 
z
" style="stroke: #008000"/>
    </defs>
    <g clip-path="url(#pc329fcc53f)">
     <use xlink:href="#m09f43fe826" x="206.902164" y="195.438336" style="fill: #008000; stroke: #008000"/>
    </g>
   </g>
   <g id="matplotlib.axis_1">
    <g id="xtick_1">
     <g id="line2d_1">
      <defs>
       <path id="m6809fc69f6" d="M 0 0 
L 0 3.5 
" style="stroke: #000000; stroke-width: 0.8"/>
      </defs>
      <g>
       <use xlink:href="#m6809fc69f6" x="80.006838" y="242.946877" style="stroke: #000000; stroke-width: 0.8"/>
      </g>
     </g>
     <g id="text_1">
      <!-- Untrained -->
      <g style="fill: #d2691e" transform="translate(58.33171 301.249173) rotate(-50) scale(0.12 -0.12)">
       <defs>
        <path id="DejaVuSans-55" d="M 556 4666 
L 1191 4666 
L 1191 1831 
Q 1191 1081 1462 751 
Q 1734 422 2344 422 
Q 2950 422 3222 751 
Q 3494 1081 3494 1831 
L 3494 4666 
L 4128 4666 
L 4128 1753 
Q 4128 841 3676 375 
Q 3225 -91 2344 -91 
Q 1459 -91 1007 375 
Q 556 841 556 1753 
L 556 4666 
z
" transform="scale(0.015625)"/>
        <path id="DejaVuSans-6e" d="M 3513 2113 
L 3513 0 
L 2938 0 
L 2938 2094 
Q 2938 2591 2744 2837 
Q 2550 3084 2163 3084 
Q 1697 3084 1428 2787 
Q 1159 2491 1159 1978 
L 1159 0 
L 581 0 
L 581 3500 
L 1159 3500 
L 1159 2956 
Q 1366 3272 1645 3428 
Q 1925 3584 2291 3584 
Q 2894 3584 3203 3211 
Q 3513 2838 3513 2113 
z
" transform="scale(0.015625)"/>
        <path id="DejaVuSans-74" d="M 1172 4494 
L 1172 3500 
L 2356 3500 
L 2356 3053 
L 1172 3053 
L 1172 1153 
Q 1172 725 1289 603 
Q 1406 481 1766 481 
L 2356 481 
L 2356 0 
L 1766 0 
Q 1100 0 847 248 
Q 594 497 594 1153 
L 594 3053 
L 172 3053 
L 172 3500 
L 594 3500 
L 594 4494 
L 1172 4494 
z
" transform="scale(0.015625)"/>
        <path id="DejaVuSans-72" d="M 2631 2963 
Q 2534 3019 2420 3045 
Q 2306 3072 2169 3072 
Q 1681 3072 1420 2755 
Q 1159 2438 1159 1844 
L 1159 0 
L 581 0 
L 581 3500 
L 1159 3500 
L 1159 2956 
Q 1341 3275 1631 3429 
Q 1922 3584 2338 3584 
Q 2397 3584 2469 3576 
Q 2541 3569 2628 3553 
L 2631 2963 
z
" transform="scale(0.015625)"/>
        <path id="DejaVuSans-61" d="M 2194 1759 
Q 1497 1759 1228 1600 
Q 959 1441 959 1056 
Q 959 750 1161 570 
Q 1363 391 1709 391 
Q 2188 391 2477 730 
Q 2766 1069 2766 1631 
L 2766 1759 
L 2194 1759 
z
M 3341 1997 
L 3341 0 
L 2766 0 
L 2766 531 
Q 2569 213 2275 61 
Q 1981 -91 1556 -91 
Q 1019 -91 701 211 
Q 384 513 384 1019 
Q 384 1609 779 1909 
Q 1175 2209 1959 2209 
L 2766 2209 
L 2766 2266 
Q 2766 2663 2505 2880 
Q 2244 3097 1772 3097 
Q 1472 3097 1187 3025 
Q 903 2953 641 2809 
L 641 3341 
Q 956 3463 1253 3523 
Q 1550 3584 1831 3584 
Q 2591 3584 2966 3190 
Q 3341 2797 3341 1997 
z
" transform="scale(0.015625)"/>
        <path id="DejaVuSans-69" d="M 603 3500 
L 1178 3500 
L 1178 0 
L 603 0 
L 603 3500 
z
M 603 4863 
L 1178 4863 
L 1178 4134 
L 603 4134 
L 603 4863 
z
" transform="scale(0.015625)"/>
        <path id="DejaVuSans-65" d="M 3597 1894 
L 3597 1613 
L 953 1613 
Q 991 1019 1311 708 
Q 1631 397 2203 397 
Q 2534 397 2845 478 
Q 3156 559 3463 722 
L 3463 178 
Q 3153 47 2828 -22 
Q 2503 -91 2169 -91 
Q 1331 -91 842 396 
Q 353 884 353 1716 
Q 353 2575 817 3079 
Q 1281 3584 2069 3584 
Q 2775 3584 3186 3129 
Q 3597 2675 3597 1894 
z
M 3022 2063 
Q 3016 2534 2758 2815 
Q 2500 3097 2075 3097 
Q 1594 3097 1305 2825 
Q 1016 2553 972 2059 
L 3022 2063 
z
" transform="scale(0.015625)"/>
        <path id="DejaVuSans-64" d="M 2906 2969 
L 2906 4863 
L 3481 4863 
L 3481 0 
L 2906 0 
L 2906 525 
Q 2725 213 2448 61 
Q 2172 -91 1784 -91 
Q 1150 -91 751 415 
Q 353 922 353 1747 
Q 353 2572 751 3078 
Q 1150 3584 1784 3584 
Q 2172 3584 2448 3432 
Q 2725 3281 2906 2969 
z
M 947 1747 
Q 947 1113 1208 752 
Q 1469 391 1925 391 
Q 2381 391 2643 752 
Q 2906 1113 2906 1747 
Q 2906 2381 2643 2742 
Q 2381 3103 1925 3103 
Q 1469 3103 1208 2742 
Q 947 2381 947 1747 
z
" transform="scale(0.015625)"/>
       </defs>
       <use xlink:href="#DejaVuSans-55"/>
       <use xlink:href="#DejaVuSans-6e" x="73.193359"/>
       <use xlink:href="#DejaVuSans-74" x="136.572266"/>
       <use xlink:href="#DejaVuSans-72" x="175.78125"/>
       <use xlink:href="#DejaVuSans-61" x="216.894531"/>
       <use xlink:href="#DejaVuSans-69" x="278.173828"/>
       <use xlink:href="#DejaVuSans-6e" x="305.957031"/>
       <use xlink:href="#DejaVuSans-65" x="369.335938"/>
       <use xlink:href="#DejaVuSans-64" x="430.859375"/>
      </g>
      <!-- model -->
      <g style="fill: #d2691e" transform="translate(75.680734 301.478256) rotate(-50) scale(0.12 -0.12)">
       <defs>
        <path id="DejaVuSans-6d" d="M 3328 2828 
Q 3544 3216 3844 3400 
Q 4144 3584 4550 3584 
Q 5097 3584 5394 3201 
Q 5691 2819 5691 2113 
L 5691 0 
L 5113 0 
L 5113 2094 
Q 5113 2597 4934 2840 
Q 4756 3084 4391 3084 
Q 3944 3084 3684 2787 
Q 3425 2491 3425 1978 
L 3425 0 
L 2847 0 
L 2847 2094 
Q 2847 2600 2669 2842 
Q 2491 3084 2119 3084 
Q 1678 3084 1418 2786 
Q 1159 2488 1159 1978 
L 1159 0 
L 581 0 
L 581 3500 
L 1159 3500 
L 1159 2956 
Q 1356 3278 1631 3431 
Q 1906 3584 2284 3584 
Q 2666 3584 2933 3390 
Q 3200 3197 3328 2828 
z
" transform="scale(0.015625)"/>
        <path id="DejaVuSans-6f" d="M 1959 3097 
Q 1497 3097 1228 2736 
Q 959 2375 959 1747 
Q 959 1119 1226 758 
Q 1494 397 1959 397 
Q 2419 397 2687 759 
Q 2956 1122 2956 1747 
Q 2956 2369 2687 2733 
Q 2419 3097 1959 3097 
z
M 1959 3584 
Q 2709 3584 3137 3096 
Q 3566 2609 3566 1747 
Q 3566 888 3137 398 
Q 2709 -91 1959 -91 
Q 1206 -91 779 398 
Q 353 888 353 1747 
Q 353 2609 779 3096 
Q 1206 3584 1959 3584 
z
" transform="scale(0.015625)"/>
        <path id="DejaVuSans-6c" d="M 603 4863 
L 1178 4863 
L 1178 0 
L 603 0 
L 603 4863 
z
" transform="scale(0.015625)"/>
       </defs>
       <use xlink:href="#DejaVuSans-6d"/>
       <use xlink:href="#DejaVuSans-6f" x="97.412109"/>
       <use xlink:href="#DejaVuSans-64" x="158.59375"/>
       <use xlink:href="#DejaVuSans-65" x="222.070312"/>
       <use xlink:href="#DejaVuSans-6c" x="283.59375"/>
      </g>
     </g>
    </g>
    <g id="xtick_2">
     <g id="line2d_2">
      <g>
       <use xlink:href="#m6809fc69f6" x="122.30528" y="242.946877" style="stroke: #000000; stroke-width: 0.8"/>
      </g>
     </g>
     <g id="text_2">
      <!-- Masked -->
      <g style="fill: #1f77b4" transform="translate(105.079849 294.973832) rotate(-50) scale(0.12 -0.12)">
       <defs>
        <path id="DejaVuSans-4d" d="M 628 4666 
L 1569 4666 
L 2759 1491 
L 3956 4666 
L 4897 4666 
L 4897 0 
L 4281 0 
L 4281 4097 
L 3078 897 
L 2444 897 
L 1241 4097 
L 1241 0 
L 628 0 
L 628 4666 
z
" transform="scale(0.015625)"/>
        <path id="DejaVuSans-73" d="M 2834 3397 
L 2834 2853 
Q 2591 2978 2328 3040 
Q 2066 3103 1784 3103 
Q 1356 3103 1142 2972 
Q 928 2841 928 2578 
Q 928 2378 1081 2264 
Q 1234 2150 1697 2047 
L 1894 2003 
Q 2506 1872 2764 1633 
Q 3022 1394 3022 966 
Q 3022 478 2636 193 
Q 2250 -91 1575 -91 
Q 1294 -91 989 -36 
Q 684 19 347 128 
L 347 722 
Q 666 556 975 473 
Q 1284 391 1588 391 
Q 1994 391 2212 530 
Q 2431 669 2431 922 
Q 2431 1156 2273 1281 
Q 2116 1406 1581 1522 
L 1381 1569 
Q 847 1681 609 1914 
Q 372 2147 372 2553 
Q 372 3047 722 3315 
Q 1072 3584 1716 3584 
Q 2034 3584 2315 3537 
Q 2597 3491 2834 3397 
z
" transform="scale(0.015625)"/>
        <path id="DejaVuSans-6b" d="M 581 4863 
L 1159 4863 
L 1159 1991 
L 2875 3500 
L 3609 3500 
L 1753 1863 
L 3688 0 
L 2938 0 
L 1159 1709 
L 1159 0 
L 581 0 
L 581 4863 
z
" transform="scale(0.015625)"/>
       </defs>
       <use xlink:href="#DejaVuSans-4d"/>
       <use xlink:href="#DejaVuSans-61" x="86.279297"/>
       <use xlink:href="#DejaVuSans-73" x="147.558594"/>
       <use xlink:href="#DejaVuSans-6b" x="199.658203"/>
       <use xlink:href="#DejaVuSans-65" x="253.943359"/>
       <use xlink:href="#DejaVuSans-64" x="315.466797"/>
      </g>
      <!-- raw input -->
      <g style="fill: #1f77b4" transform="translate(111.739717 307.941756) rotate(-50) scale(0.12 -0.12)">
       <defs>
        <path id="DejaVuSans-77" d="M 269 3500 
L 844 3500 
L 1563 769 
L 2278 3500 
L 2956 3500 
L 3675 769 
L 4391 3500 
L 4966 3500 
L 4050 0 
L 3372 0 
L 2619 2869 
L 1863 0 
L 1184 0 
L 269 3500 
z
" transform="scale(0.015625)"/>
        <path id="DejaVuSans-20" transform="scale(0.015625)"/>
        <path id="DejaVuSans-70" d="M 1159 525 
L 1159 -1331 
L 581 -1331 
L 581 3500 
L 1159 3500 
L 1159 2969 
Q 1341 3281 1617 3432 
Q 1894 3584 2278 3584 
Q 2916 3584 3314 3078 
Q 3713 2572 3713 1747 
Q 3713 922 3314 415 
Q 2916 -91 2278 -91 
Q 1894 -91 1617 61 
Q 1341 213 1159 525 
z
M 3116 1747 
Q 3116 2381 2855 2742 
Q 2594 3103 2138 3103 
Q 1681 3103 1420 2742 
Q 1159 2381 1159 1747 
Q 1159 1113 1420 752 
Q 1681 391 2138 391 
Q 2594 391 2855 752 
Q 3116 1113 3116 1747 
z
" transform="scale(0.015625)"/>
        <path id="DejaVuSans-75" d="M 544 1381 
L 544 3500 
L 1119 3500 
L 1119 1403 
Q 1119 906 1312 657 
Q 1506 409 1894 409 
Q 2359 409 2629 706 
Q 2900 1003 2900 1516 
L 2900 3500 
L 3475 3500 
L 3475 0 
L 2900 0 
L 2900 538 
Q 2691 219 2414 64 
Q 2138 -91 1772 -91 
Q 1169 -91 856 284 
Q 544 659 544 1381 
z
M 1991 3584 
L 1991 3584 
z
" transform="scale(0.015625)"/>
       </defs>
       <use xlink:href="#DejaVuSans-72"/>
       <use xlink:href="#DejaVuSans-61" x="41.113281"/>
       <use xlink:href="#DejaVuSans-77" x="102.392578"/>
       <use xlink:href="#DejaVuSans-20" x="184.179688"/>
       <use xlink:href="#DejaVuSans-69" x="215.966797"/>
       <use xlink:href="#DejaVuSans-6e" x="243.75"/>
       <use xlink:href="#DejaVuSans-70" x="307.128906"/>
       <use xlink:href="#DejaVuSans-75" x="370.605469"/>
       <use xlink:href="#DejaVuSans-74" x="433.984375"/>
      </g>
     </g>
    </g>
    <g id="xtick_3">
     <g id="line2d_3">
      <g>
       <use xlink:href="#m6809fc69f6" x="164.603722" y="242.946877" style="stroke: #000000; stroke-width: 0.8"/>
      </g>
     </g>
     <g id="text_3">
      <!-- LPL -->
      <g style="fill: #a52a2a" transform="translate(160.516963 271.594635) rotate(-50) scale(0.12 -0.12)">
       <defs>
        <path id="DejaVuSans-4c" d="M 628 4666 
L 1259 4666 
L 1259 531 
L 3531 531 
L 3531 0 
L 628 0 
L 628 4666 
z
" transform="scale(0.015625)"/>
        <path id="DejaVuSans-50" d="M 1259 4147 
L 1259 2394 
L 2053 2394 
Q 2494 2394 2734 2622 
Q 2975 2850 2975 3272 
Q 2975 3691 2734 3919 
Q 2494 4147 2053 4147 
L 1259 4147 
z
M 628 4666 
L 2053 4666 
Q 2838 4666 3239 4311 
Q 3641 3956 3641 3272 
Q 3641 2581 3239 2228 
Q 2838 1875 2053 1875 
L 1259 1875 
L 1259 0 
L 628 0 
L 628 4666 
z
" transform="scale(0.015625)"/>
       </defs>
       <use xlink:href="#DejaVuSans-4c"/>
       <use xlink:href="#DejaVuSans-50" x="55.712891"/>
       <use xlink:href="#DejaVuSans-4c" x="116.015625"/>
      </g>
     </g>
    </g>
    <g id="xtick_4">
     <g id="line2d_4">
      <g>
       <use xlink:href="#m6809fc69f6" x="206.902164" y="242.946877" style="stroke: #000000; stroke-width: 0.8"/>
      </g>
     </g>
     <g id="text_4">
      <!-- TCLoSeR -->
      <g style="fill: #008000" transform="translate(192.674024 295.766688) rotate(-50) scale(0.12 -0.12)">
       <defs>
        <path id="DejaVuSans-54" d="M -19 4666 
L 3928 4666 
L 3928 4134 
L 2272 4134 
L 2272 0 
L 1638 0 
L 1638 4134 
L -19 4134 
L -19 4666 
z
" transform="scale(0.015625)"/>
        <path id="DejaVuSans-43" d="M 4122 4306 
L 4122 3641 
Q 3803 3938 3442 4084 
Q 3081 4231 2675 4231 
Q 1875 4231 1450 3742 
Q 1025 3253 1025 2328 
Q 1025 1406 1450 917 
Q 1875 428 2675 428 
Q 3081 428 3442 575 
Q 3803 722 4122 1019 
L 4122 359 
Q 3791 134 3420 21 
Q 3050 -91 2638 -91 
Q 1578 -91 968 557 
Q 359 1206 359 2328 
Q 359 3453 968 4101 
Q 1578 4750 2638 4750 
Q 3056 4750 3426 4639 
Q 3797 4528 4122 4306 
z
" transform="scale(0.015625)"/>
        <path id="DejaVuSans-53" d="M 3425 4513 
L 3425 3897 
Q 3066 4069 2747 4153 
Q 2428 4238 2131 4238 
Q 1616 4238 1336 4038 
Q 1056 3838 1056 3469 
Q 1056 3159 1242 3001 
Q 1428 2844 1947 2747 
L 2328 2669 
Q 3034 2534 3370 2195 
Q 3706 1856 3706 1288 
Q 3706 609 3251 259 
Q 2797 -91 1919 -91 
Q 1588 -91 1214 -16 
Q 841 59 441 206 
L 441 856 
Q 825 641 1194 531 
Q 1563 422 1919 422 
Q 2459 422 2753 634 
Q 3047 847 3047 1241 
Q 3047 1584 2836 1778 
Q 2625 1972 2144 2069 
L 1759 2144 
Q 1053 2284 737 2584 
Q 422 2884 422 3419 
Q 422 4038 858 4394 
Q 1294 4750 2059 4750 
Q 2388 4750 2728 4690 
Q 3069 4631 3425 4513 
z
" transform="scale(0.015625)"/>
        <path id="DejaVuSans-52" d="M 2841 2188 
Q 3044 2119 3236 1894 
Q 3428 1669 3622 1275 
L 4263 0 
L 3584 0 
L 2988 1197 
Q 2756 1666 2539 1819 
Q 2322 1972 1947 1972 
L 1259 1972 
L 1259 0 
L 628 0 
L 628 4666 
L 2053 4666 
Q 2853 4666 3247 4331 
Q 3641 3997 3641 3322 
Q 3641 2881 3436 2590 
Q 3231 2300 2841 2188 
z
M 1259 4147 
L 1259 2491 
L 2053 2491 
Q 2509 2491 2742 2702 
Q 2975 2913 2975 3322 
Q 2975 3731 2742 3939 
Q 2509 4147 2053 4147 
L 1259 4147 
z
" transform="scale(0.015625)"/>
       </defs>
       <use xlink:href="#DejaVuSans-54"/>
       <use xlink:href="#DejaVuSans-43" x="55.208984"/>
       <use xlink:href="#DejaVuSans-4c" x="125.033203"/>
       <use xlink:href="#DejaVuSans-6f" x="178.996094"/>
       <use xlink:href="#DejaVuSans-53" x="240.177734"/>
       <use xlink:href="#DejaVuSans-65" x="303.654297"/>
       <use xlink:href="#DejaVuSans-52" x="365.177734"/>
      </g>
     </g>
    </g>
   </g>
   <g id="matplotlib.axis_2">
    <g id="ytick_1">
     <g id="line2d_5">
      <defs>
       <path id="m8b46d30c71" d="M 0 0 
L -3.5 0 
" style="stroke: #000000; stroke-width: 0.8"/>
      </defs>
      <g>
       <use xlink:href="#m8b46d30c71" x="62.03" y="204.115869" style="stroke: #000000; stroke-width: 0.8"/>
      </g>
     </g>
     <g id="text_5">
      <!-- 0.72 -->
      <g transform="translate(28.31125 208.674931) scale(0.12 -0.12)">
       <defs>
        <path id="DejaVuSans-30" d="M 2034 4250 
Q 1547 4250 1301 3770 
Q 1056 3291 1056 2328 
Q 1056 1369 1301 889 
Q 1547 409 2034 409 
Q 2525 409 2770 889 
Q 3016 1369 3016 2328 
Q 3016 3291 2770 3770 
Q 2525 4250 2034 4250 
z
M 2034 4750 
Q 2819 4750 3233 4129 
Q 3647 3509 3647 2328 
Q 3647 1150 3233 529 
Q 2819 -91 2034 -91 
Q 1250 -91 836 529 
Q 422 1150 422 2328 
Q 422 3509 836 4129 
Q 1250 4750 2034 4750 
z
" transform="scale(0.015625)"/>
        <path id="DejaVuSans-2e" d="M 684 794 
L 1344 794 
L 1344 0 
L 684 0 
L 684 794 
z
" transform="scale(0.015625)"/>
        <path id="DejaVuSans-37" d="M 525 4666 
L 3525 4666 
L 3525 4397 
L 1831 0 
L 1172 0 
L 2766 4134 
L 525 4134 
L 525 4666 
z
" transform="scale(0.015625)"/>
        <path id="DejaVuSans-32" d="M 1228 531 
L 3431 531 
L 3431 0 
L 469 0 
L 469 531 
Q 828 903 1448 1529 
Q 2069 2156 2228 2338 
Q 2531 2678 2651 2914 
Q 2772 3150 2772 3378 
Q 2772 3750 2511 3984 
Q 2250 4219 1831 4219 
Q 1534 4219 1204 4116 
Q 875 4013 500 3803 
L 500 4441 
Q 881 4594 1212 4672 
Q 1544 4750 1819 4750 
Q 2544 4750 2975 4387 
Q 3406 4025 3406 3419 
Q 3406 3131 3298 2873 
Q 3191 2616 2906 2266 
Q 2828 2175 2409 1742 
Q 1991 1309 1228 531 
z
" transform="scale(0.015625)"/>
       </defs>
       <use xlink:href="#DejaVuSans-30"/>
       <use xlink:href="#DejaVuSans-2e" x="63.623047"/>
       <use xlink:href="#DejaVuSans-37" x="95.410156"/>
       <use xlink:href="#DejaVuSans-32" x="159.033203"/>
      </g>
     </g>
    </g>
    <g id="ytick_2">
     <g id="line2d_6">
      <g>
       <use xlink:href="#m8b46d30c71" x="62.03" y="152.341191" style="stroke: #000000; stroke-width: 0.8"/>
      </g>
     </g>
     <g id="text_6">
      <!-- 0.80 -->
      <g transform="translate(28.31125 156.900253) scale(0.12 -0.12)">
       <defs>
        <path id="DejaVuSans-38" d="M 2034 2216 
Q 1584 2216 1326 1975 
Q 1069 1734 1069 1313 
Q 1069 891 1326 650 
Q 1584 409 2034 409 
Q 2484 409 2743 651 
Q 3003 894 3003 1313 
Q 3003 1734 2745 1975 
Q 2488 2216 2034 2216 
z
M 1403 2484 
Q 997 2584 770 2862 
Q 544 3141 544 3541 
Q 544 4100 942 4425 
Q 1341 4750 2034 4750 
Q 2731 4750 3128 4425 
Q 3525 4100 3525 3541 
Q 3525 3141 3298 2862 
Q 3072 2584 2669 2484 
Q 3125 2378 3379 2068 
Q 3634 1759 3634 1313 
Q 3634 634 3220 271 
Q 2806 -91 2034 -91 
Q 1263 -91 848 271 
Q 434 634 434 1313 
Q 434 1759 690 2068 
Q 947 2378 1403 2484 
z
M 1172 3481 
Q 1172 3119 1398 2916 
Q 1625 2713 2034 2713 
Q 2441 2713 2670 2916 
Q 2900 3119 2900 3481 
Q 2900 3844 2670 4047 
Q 2441 4250 2034 4250 
Q 1625 4250 1398 4047 
Q 1172 3844 1172 3481 
z
" transform="scale(0.015625)"/>
       </defs>
       <use xlink:href="#DejaVuSans-30"/>
       <use xlink:href="#DejaVuSans-2e" x="63.623047"/>
       <use xlink:href="#DejaVuSans-38" x="95.410156"/>
       <use xlink:href="#DejaVuSans-30" x="159.033203"/>
      </g>
     </g>
    </g>
    <g id="ytick_3">
     <g id="line2d_7">
      <g>
       <use xlink:href="#m8b46d30c71" x="62.03" y="100.566513" style="stroke: #000000; stroke-width: 0.8"/>
      </g>
     </g>
     <g id="text_7">
      <!-- 0.88 -->
      <g transform="translate(28.31125 105.125575) scale(0.12 -0.12)">
       <use xlink:href="#DejaVuSans-30"/>
       <use xlink:href="#DejaVuSans-2e" x="63.623047"/>
       <use xlink:href="#DejaVuSans-38" x="95.410156"/>
       <use xlink:href="#DejaVuSans-38" x="159.033203"/>
      </g>
     </g>
    </g>
    <g id="ytick_4">
     <g id="line2d_8">
      <g>
       <use xlink:href="#m8b46d30c71" x="62.03" y="48.791835" style="stroke: #000000; stroke-width: 0.8"/>
      </g>
     </g>
     <g id="text_8">
      <!-- 0.96 -->
      <g transform="translate(28.31125 53.350897) scale(0.12 -0.12)">
       <defs>
        <path id="DejaVuSans-39" d="M 703 97 
L 703 672 
Q 941 559 1184 500 
Q 1428 441 1663 441 
Q 2288 441 2617 861 
Q 2947 1281 2994 2138 
Q 2813 1869 2534 1725 
Q 2256 1581 1919 1581 
Q 1219 1581 811 2004 
Q 403 2428 403 3163 
Q 403 3881 828 4315 
Q 1253 4750 1959 4750 
Q 2769 4750 3195 4129 
Q 3622 3509 3622 2328 
Q 3622 1225 3098 567 
Q 2575 -91 1691 -91 
Q 1453 -91 1209 -44 
Q 966 3 703 97 
z
M 1959 2075 
Q 2384 2075 2632 2365 
Q 2881 2656 2881 3163 
Q 2881 3666 2632 3958 
Q 2384 4250 1959 4250 
Q 1534 4250 1286 3958 
Q 1038 3666 1038 3163 
Q 1038 2656 1286 2365 
Q 1534 2075 1959 2075 
z
" transform="scale(0.015625)"/>
        <path id="DejaVuSans-36" d="M 2113 2584 
Q 1688 2584 1439 2293 
Q 1191 2003 1191 1497 
Q 1191 994 1439 701 
Q 1688 409 2113 409 
Q 2538 409 2786 701 
Q 3034 994 3034 1497 
Q 3034 2003 2786 2293 
Q 2538 2584 2113 2584 
z
M 3366 4563 
L 3366 3988 
Q 3128 4100 2886 4159 
Q 2644 4219 2406 4219 
Q 1781 4219 1451 3797 
Q 1122 3375 1075 2522 
Q 1259 2794 1537 2939 
Q 1816 3084 2150 3084 
Q 2853 3084 3261 2657 
Q 3669 2231 3669 1497 
Q 3669 778 3244 343 
Q 2819 -91 2113 -91 
Q 1303 -91 875 529 
Q 447 1150 447 2328 
Q 447 3434 972 4092 
Q 1497 4750 2381 4750 
Q 2619 4750 2861 4703 
Q 3103 4656 3366 4563 
z
" transform="scale(0.015625)"/>
       </defs>
       <use xlink:href="#DejaVuSans-30"/>
       <use xlink:href="#DejaVuSans-2e" x="63.623047"/>
       <use xlink:href="#DejaVuSans-39" x="95.410156"/>
       <use xlink:href="#DejaVuSans-36" x="159.033203"/>
      </g>
     </g>
    </g>
    <g id="text_9">
     <!-- Stimulus decoding accuracy -->
     <g transform="translate(21.503672 237.711407) rotate(-90) scale(0.135 -0.135)">
      <defs>
       <path id="DejaVuSans-63" d="M 3122 3366 
L 3122 2828 
Q 2878 2963 2633 3030 
Q 2388 3097 2138 3097 
Q 1578 3097 1268 2742 
Q 959 2388 959 1747 
Q 959 1106 1268 751 
Q 1578 397 2138 397 
Q 2388 397 2633 464 
Q 2878 531 3122 666 
L 3122 134 
Q 2881 22 2623 -34 
Q 2366 -91 2075 -91 
Q 1284 -91 818 406 
Q 353 903 353 1747 
Q 353 2603 823 3093 
Q 1294 3584 2113 3584 
Q 2378 3584 2631 3529 
Q 2884 3475 3122 3366 
z
" transform="scale(0.015625)"/>
       <path id="DejaVuSans-67" d="M 2906 1791 
Q 2906 2416 2648 2759 
Q 2391 3103 1925 3103 
Q 1463 3103 1205 2759 
Q 947 2416 947 1791 
Q 947 1169 1205 825 
Q 1463 481 1925 481 
Q 2391 481 2648 825 
Q 2906 1169 2906 1791 
z
M 3481 434 
Q 3481 -459 3084 -895 
Q 2688 -1331 1869 -1331 
Q 1566 -1331 1297 -1286 
Q 1028 -1241 775 -1147 
L 775 -588 
Q 1028 -725 1275 -790 
Q 1522 -856 1778 -856 
Q 2344 -856 2625 -561 
Q 2906 -266 2906 331 
L 2906 616 
Q 2728 306 2450 153 
Q 2172 0 1784 0 
Q 1141 0 747 490 
Q 353 981 353 1791 
Q 353 2603 747 3093 
Q 1141 3584 1784 3584 
Q 2172 3584 2450 3431 
Q 2728 3278 2906 2969 
L 2906 3500 
L 3481 3500 
L 3481 434 
z
" transform="scale(0.015625)"/>
       <path id="DejaVuSans-79" d="M 2059 -325 
Q 1816 -950 1584 -1140 
Q 1353 -1331 966 -1331 
L 506 -1331 
L 506 -850 
L 844 -850 
Q 1081 -850 1212 -737 
Q 1344 -625 1503 -206 
L 1606 56 
L 191 3500 
L 800 3500 
L 1894 763 
L 2988 3500 
L 3597 3500 
L 2059 -325 
z
" transform="scale(0.015625)"/>
      </defs>
      <use xlink:href="#DejaVuSans-53"/>
      <use xlink:href="#DejaVuSans-74" x="63.476562"/>
      <use xlink:href="#DejaVuSans-69" x="102.685547"/>
      <use xlink:href="#DejaVuSans-6d" x="130.46875"/>
      <use xlink:href="#DejaVuSans-75" x="227.880859"/>
      <use xlink:href="#DejaVuSans-6c" x="291.259766"/>
      <use xlink:href="#DejaVuSans-75" x="319.042969"/>
      <use xlink:href="#DejaVuSans-73" x="382.421875"/>
      <use xlink:href="#DejaVuSans-20" x="434.521484"/>
      <use xlink:href="#DejaVuSans-64" x="466.308594"/>
      <use xlink:href="#DejaVuSans-65" x="529.785156"/>
      <use xlink:href="#DejaVuSans-63" x="591.308594"/>
      <use xlink:href="#DejaVuSans-6f" x="646.289062"/>
      <use xlink:href="#DejaVuSans-64" x="707.470703"/>
      <use xlink:href="#DejaVuSans-69" x="770.947266"/>
      <use xlink:href="#DejaVuSans-6e" x="798.730469"/>
      <use xlink:href="#DejaVuSans-67" x="862.109375"/>
      <use xlink:href="#DejaVuSans-20" x="925.585938"/>
      <use xlink:href="#DejaVuSans-61" x="957.373047"/>
      <use xlink:href="#DejaVuSans-63" x="1018.652344"/>
      <use xlink:href="#DejaVuSans-63" x="1073.632812"/>
      <use xlink:href="#DejaVuSans-75" x="1128.613281"/>
      <use xlink:href="#DejaVuSans-72" x="1191.992188"/>
      <use xlink:href="#DejaVuSans-61" x="1233.105469"/>
      <use xlink:href="#DejaVuSans-63" x="1294.384766"/>
      <use xlink:href="#DejaVuSans-79" x="1349.365234"/>
     </g>
    </g>
   </g>
   <g id="line2d_9">
    <path d="M 126.535124 168.915138 
L 202.672319 168.915138 
" clip-path="url(#pc329fcc53f)" style="fill: none; stroke: #000000; stroke-linecap: square"/>
   </g>
   <g id="line2d_10">
    <path d="M 126.535124 175.386973 
L 126.535124 168.915138 
" clip-path="url(#pc329fcc53f)" style="fill: none; stroke: #000000; stroke-linecap: square"/>
   </g>
   <g id="line2d_11">
    <path d="M 202.672319 175.386973 
L 202.672319 168.915138 
" clip-path="url(#pc329fcc53f)" style="fill: none; stroke: #000000; stroke-linecap: square"/>
   </g>
   <g id="line2d_12">
    <path d="M 168.833566 181.858808 
L 202.672319 181.858808 
" clip-path="url(#pc329fcc53f)" style="fill: none; stroke: #000000; stroke-linecap: square"/>
   </g>
   <g id="line2d_13">
    <path d="M 168.833566 188.330643 
L 168.833566 181.858808 
" clip-path="url(#pc329fcc53f)" style="fill: none; stroke: #000000; stroke-linecap: square"/>
   </g>
   <g id="line2d_14">
    <path d="M 202.672319 188.330643 
L 202.672319 181.858808 
" clip-path="url(#pc329fcc53f)" style="fill: none; stroke: #000000; stroke-linecap: square"/>
   </g>
   <g id="line2d_15">
    <path d="M 62.03 238.632321 
L 224.879001 238.632321 
" clip-path="url(#pc329fcc53f)" style="fill: none; stroke-dasharray: 1.5,2.475; stroke-dashoffset: 0; stroke: #000000; stroke-width: 1.5"/>
   </g>
   <g id="patch_3">
    <path d="M 62.03 242.946877 
L 62.03 42.32 
" style="fill: none; stroke: #000000; stroke-width: 0.8; stroke-linejoin: miter; stroke-linecap: square"/>
   </g>
   <g id="patch_4">
    <path d="M 62.03 242.946877 
L 224.879001 242.946877 
" style="fill: none; stroke: #000000; stroke-width: 0.8; stroke-linejoin: miter; stroke-linecap: square"/>
   </g>
   <g id="text_10">
    <!-- ∗∗∗ -->
    <g transform="translate(152.03419 165.202679) scale(0.1 -0.1)">
     <defs>
      <path id="DejaVuSans-2217" d="M 2153 2006 
L 816 2778 
L 1081 3238 
L 2419 2466 
L 2419 4013 
L 2944 4013 
L 2944 2466 
L 4281 3238 
L 4547 2778 
L 3209 2006 
L 4547 1234 
L 4281 775 
L 2944 1547 
L 2944 0 
L 2419 0 
L 2419 1547 
L 1081 775 
L 816 1234 
L 2153 2006 
z
" transform="scale(0.015625)"/>
     </defs>
     <use xlink:href="#DejaVuSans-2217"/>
     <use xlink:href="#DejaVuSans-2217" x="83.789062"/>
     <use xlink:href="#DejaVuSans-2217" x="167.578125"/>
    </g>
   </g>
   <g id="text_11">
    <!-- ∗∗∗ -->
    <g transform="translate(173.183411 178.146348) scale(0.1 -0.1)">
     <use xlink:href="#DejaVuSans-2217"/>
     <use xlink:href="#DejaVuSans-2217" x="83.789062"/>
     <use xlink:href="#DejaVuSans-2217" x="167.578125"/>
    </g>
   </g>
   <g id="text_12">
    <!-- Single encoder -->
    <g transform="translate(88.032677 22.32) scale(0.1485 -0.1485)">
     <use xlink:href="#DejaVuSans-53"/>
     <use xlink:href="#DejaVuSans-69" x="63.476562"/>
     <use xlink:href="#DejaVuSans-6e" x="91.259766"/>
     <use xlink:href="#DejaVuSans-67" x="154.638672"/>
     <use xlink:href="#DejaVuSans-6c" x="218.115234"/>
     <use xlink:href="#DejaVuSans-65" x="245.898438"/>
     <use xlink:href="#DejaVuSans-20" x="307.421875"/>
     <use xlink:href="#DejaVuSans-65" x="339.208984"/>
     <use xlink:href="#DejaVuSans-6e" x="400.732422"/>
     <use xlink:href="#DejaVuSans-63" x="464.111328"/>
     <use xlink:href="#DejaVuSans-6f" x="519.091797"/>
     <use xlink:href="#DejaVuSans-64" x="580.273438"/>
     <use xlink:href="#DejaVuSans-65" x="643.75"/>
     <use xlink:href="#DejaVuSans-72" x="705.273438"/>
    </g>
   </g>
  </g>
  <g id="axes_2">
   <g id="patch_5">
    <path d="M 253.467416 242.946877 
L 416.316418 242.946877 
L 416.316418 42.32 
L 253.467416 42.32 
z
" style="fill: #ffffff"/>
   </g>
   <g id="PolyCollection_5">
    <path d="M 276.341995 165.70263 
L 266.546514 165.70263 
L 266.23872 165.538927 
L 265.931654 165.375224 
L 265.627438 165.211521 
L 265.328221 165.047818 
L 265.036149 164.884115 
L 264.753322 164.720412 
L 264.481756 164.556709 
L 264.223344 164.393006 
L 263.979818 164.229303 
L 263.752713 164.0656 
L 263.543334 163.901897 
L 263.352729 163.738194 
L 263.181669 163.574491 
L 263.030623 163.410788 
L 262.899756 163.247085 
L 262.788923 163.083382 
L 262.697666 162.919679 
L 262.625235 162.755976 
L 262.570596 162.592273 
L 262.532459 162.42857 
L 262.509307 162.264867 
L 262.499426 162.101164 
L 262.50095 161.937461 
L 262.511894 161.773758 
L 262.5302 161.610055 
L 262.553782 161.446352 
L 262.580567 161.282649 
L 262.608532 161.118946 
L 262.63575 160.955243 
L 262.660419 160.79154 
L 262.680894 160.627837 
L 262.695714 160.464134 
L 262.703623 160.300431 
L 262.703582 160.136728 
L 262.694781 159.973025 
L 262.676644 159.809322 
L 262.648825 159.645619 
L 262.611207 159.481916 
L 262.563887 159.318213 
L 262.507167 159.15451 
L 262.441536 158.990807 
L 262.367652 158.827104 
L 262.286322 158.663401 
L 262.198481 158.499698 
L 262.105173 158.335995 
L 262.007526 158.172292 
L 261.906738 158.008589 
L 261.804056 157.844886 
L 261.700758 157.681183 
L 261.598139 157.51748 
L 261.497498 157.353777 
L 261.400129 157.190074 
L 261.307306 157.026371 
L 261.220278 156.862668 
L 261.140263 156.698965 
L 261.06844 156.535262 
L 261.005948 156.371559 
L 260.953876 156.207856 
L 260.91326 156.044153 
L 260.885083 155.88045 
L 260.870261 155.716747 
L 260.869644 155.553044 
L 260.884006 155.389341 
L 260.914037 155.225638 
L 260.960337 155.061935 
L 261.023402 154.898232 
L 261.103619 154.734529 
L 261.201253 154.570826 
L 261.31644 154.407123 
L 261.449175 154.24342 
L 261.59931 154.079717 
L 261.766542 153.916014 
L 261.950413 153.752311 
L 262.150309 153.588608 
L 262.365459 153.424905 
L 262.594944 153.261202 
L 262.837702 153.097499 
L 263.092541 152.933796 
L 263.358153 152.770093 
L 263.633132 152.60639 
L 263.915993 152.442687 
L 264.205193 152.278984 
L 264.499158 152.115281 
L 264.796303 151.951578 
L 265.095056 151.787875 
L 265.393886 151.624172 
L 265.691319 151.460469 
L 265.985961 151.296766 
L 266.276515 151.133063 
L 266.561797 150.96936 
L 266.840743 150.805657 
L 267.112424 150.641954 
L 267.376041 150.478251 
L 267.630935 150.314548 
L 267.876578 150.150845 
L 268.112572 149.987142 
L 268.33864 149.823439 
L 268.554614 149.659736 
L 268.760428 149.496033 
L 274.12808 149.496033 
L 274.12808 149.496033 
L 274.333894 149.659736 
L 274.549869 149.823439 
L 274.775936 149.987142 
L 275.011931 150.150845 
L 275.257574 150.314548 
L 275.512468 150.478251 
L 275.776085 150.641954 
L 276.047765 150.805657 
L 276.326712 150.96936 
L 276.611993 151.133063 
L 276.902548 151.296766 
L 277.19719 151.460469 
L 277.494622 151.624172 
L 277.793452 151.787875 
L 278.092206 151.951578 
L 278.38935 152.115281 
L 278.683315 152.278984 
L 278.972516 152.442687 
L 279.255376 152.60639 
L 279.530355 152.770093 
L 279.795967 152.933796 
L 280.050807 153.097499 
L 280.293565 153.261202 
L 280.52305 153.424905 
L 280.7382 153.588608 
L 280.938095 153.752311 
L 281.121966 153.916014 
L 281.289198 154.079717 
L 281.439333 154.24342 
L 281.572069 154.407123 
L 281.687255 154.570826 
L 281.784889 154.734529 
L 281.865106 154.898232 
L 281.928171 155.061935 
L 281.974471 155.225638 
L 282.004503 155.389341 
L 282.018865 155.553044 
L 282.018248 155.716747 
L 282.003426 155.88045 
L 281.975248 156.044153 
L 281.934633 156.207856 
L 281.88256 156.371559 
L 281.820068 156.535262 
L 281.748246 156.698965 
L 281.668231 156.862668 
L 281.581203 157.026371 
L 281.488379 157.190074 
L 281.39101 157.353777 
L 281.29037 157.51748 
L 281.187751 157.681183 
L 281.084452 157.844886 
L 280.98177 158.008589 
L 280.880983 158.172292 
L 280.783336 158.335995 
L 280.690027 158.499698 
L 280.602186 158.663401 
L 280.520856 158.827104 
L 280.446973 158.990807 
L 280.381342 159.15451 
L 280.324622 159.318213 
L 280.277302 159.481916 
L 280.239683 159.645619 
L 280.211864 159.809322 
L 280.193727 159.973025 
L 280.184926 160.136728 
L 280.184885 160.300431 
L 280.192794 160.464134 
L 280.207615 160.627837 
L 280.22809 160.79154 
L 280.252759 160.955243 
L 280.279977 161.118946 
L 280.307942 161.282649 
L 280.334726 161.446352 
L 280.358308 161.610055 
L 280.376615 161.773758 
L 280.387558 161.937461 
L 280.389082 162.101164 
L 280.379202 162.264867 
L 280.356049 162.42857 
L 280.317913 162.592273 
L 280.263274 162.755976 
L 280.190842 162.919679 
L 280.099586 163.083382 
L 279.988752 163.247085 
L 279.857886 163.410788 
L 279.70684 163.574491 
L 279.535779 163.738194 
L 279.345175 163.901897 
L 279.135796 164.0656 
L 278.90869 164.229303 
L 278.665164 164.393006 
L 278.406753 164.556709 
L 278.135187 164.720412 
L 277.85236 164.884115 
L 277.560288 165.047818 
L 277.261071 165.211521 
L 276.956854 165.375224 
L 276.649789 165.538927 
L 276.341995 165.70263 
z
" clip-path="url(#pafae1f61f3)" style="fill: #d2691e; fill-opacity: 0.3"/>
   </g>
   <g id="PathCollection_5">
    <g clip-path="url(#pafae1f61f3)">
     <use xlink:href="#m61e66d8f11" x="271.444254" y="158.103537" style="fill: #d2691e; stroke: #d2691e"/>
    </g>
   </g>
   <g id="PolyCollection_6">
    <path d="M 324.317307 111.860711 
L 303.168086 111.860711 
L 303.168086 111.860711 
L 303.168086 111.860711 
L 303.168086 111.860711 
L 303.168086 111.860711 
L 303.168086 111.860711 
L 303.168086 111.860711 
L 303.168086 111.860711 
L 303.168086 111.860711 
L 303.168086 111.860711 
L 303.168086 111.860711 
L 303.168086 111.860711 
L 303.168086 111.860711 
L 303.168086 111.860711 
L 303.168086 111.860711 
L 303.168086 111.860711 
L 303.168086 111.860711 
L 303.168086 111.860711 
L 303.168086 111.860711 
L 303.168086 111.860711 
L 303.168086 111.860711 
L 303.168086 111.860711 
L 303.168086 111.860711 
L 303.168086 111.860711 
L 303.168086 111.860711 
L 303.168086 111.860711 
L 303.168086 111.860711 
L 303.168086 111.860711 
L 303.168086 111.860711 
L 303.168086 111.860711 
L 303.168086 111.860711 
L 303.168086 111.860711 
L 303.168086 111.860711 
L 303.168086 111.860711 
L 303.168086 111.860711 
L 303.168086 111.860711 
L 303.168086 111.860711 
L 303.168086 111.860711 
L 303.168086 111.860711 
L 303.168086 111.860711 
L 303.168086 111.860711 
L 303.168086 111.860711 
L 303.168086 111.860711 
L 303.168086 111.860711 
L 303.168086 111.860711 
L 303.168086 111.860711 
L 303.168086 111.860711 
L 303.168086 111.860711 
L 303.168086 111.860711 
L 303.168086 111.860711 
L 303.168086 111.860711 
L 303.168086 111.860711 
L 303.168086 111.860711 
L 303.168086 111.860711 
L 303.168086 111.860711 
L 303.168086 111.860711 
L 303.168086 111.860711 
L 303.168086 111.860711 
L 303.168086 111.860711 
L 303.168086 111.860711 
L 303.168086 111.860711 
L 303.168086 111.860711 
L 303.168086 111.860711 
L 303.168086 111.860711 
L 303.168086 111.860711 
L 303.168086 111.860711 
L 303.168086 111.860711 
L 303.168086 111.860711 
L 303.168086 111.860711 
L 303.168086 111.860711 
L 303.168086 111.860711 
L 303.168086 111.860711 
L 303.168086 111.860711 
L 303.168086 111.860711 
L 303.168086 111.860711 
L 303.168086 111.860711 
L 303.168086 111.860711 
L 303.168086 111.860711 
L 303.168086 111.860711 
L 303.168086 111.860711 
L 303.168086 111.860711 
L 303.168086 111.860711 
L 303.168086 111.860711 
L 303.168086 111.860711 
L 303.168086 111.860711 
L 303.168086 111.860711 
L 303.168086 111.860711 
L 303.168086 111.860711 
L 303.168086 111.860711 
L 303.168086 111.860711 
L 303.168086 111.860711 
L 303.168086 111.860711 
L 303.168086 111.860711 
L 303.168086 111.860711 
L 303.168086 111.860711 
L 303.168086 111.860711 
L 303.168086 111.860711 
L 303.168086 111.860711 
L 303.168086 111.860711 
L 303.168086 111.860711 
L 324.317307 111.860711 
L 324.317307 111.860711 
L 324.317307 111.860711 
L 324.317307 111.860711 
L 324.317307 111.860711 
L 324.317307 111.860711 
L 324.317307 111.860711 
L 324.317307 111.860711 
L 324.317307 111.860711 
L 324.317307 111.860711 
L 324.317307 111.860711 
L 324.317307 111.860711 
L 324.317307 111.860711 
L 324.317307 111.860711 
L 324.317307 111.860711 
L 324.317307 111.860711 
L 324.317307 111.860711 
L 324.317307 111.860711 
L 324.317307 111.860711 
L 324.317307 111.860711 
L 324.317307 111.860711 
L 324.317307 111.860711 
L 324.317307 111.860711 
L 324.317307 111.860711 
L 324.317307 111.860711 
L 324.317307 111.860711 
L 324.317307 111.860711 
L 324.317307 111.860711 
L 324.317307 111.860711 
L 324.317307 111.860711 
L 324.317307 111.860711 
L 324.317307 111.860711 
L 324.317307 111.860711 
L 324.317307 111.860711 
L 324.317307 111.860711 
L 324.317307 111.860711 
L 324.317307 111.860711 
L 324.317307 111.860711 
L 324.317307 111.860711 
L 324.317307 111.860711 
L 324.317307 111.860711 
L 324.317307 111.860711 
L 324.317307 111.860711 
L 324.317307 111.860711 
L 324.317307 111.860711 
L 324.317307 111.860711 
L 324.317307 111.860711 
L 324.317307 111.860711 
L 324.317307 111.860711 
L 324.317307 111.860711 
L 324.317307 111.860711 
L 324.317307 111.860711 
L 324.317307 111.860711 
L 324.317307 111.860711 
L 324.317307 111.860711 
L 324.317307 111.860711 
L 324.317307 111.860711 
L 324.317307 111.860711 
L 324.317307 111.860711 
L 324.317307 111.860711 
L 324.317307 111.860711 
L 324.317307 111.860711 
L 324.317307 111.860711 
L 324.317307 111.860711 
L 324.317307 111.860711 
L 324.317307 111.860711 
L 324.317307 111.860711 
L 324.317307 111.860711 
L 324.317307 111.860711 
L 324.317307 111.860711 
L 324.317307 111.860711 
L 324.317307 111.860711 
L 324.317307 111.860711 
L 324.317307 111.860711 
L 324.317307 111.860711 
L 324.317307 111.860711 
L 324.317307 111.860711 
L 324.317307 111.860711 
L 324.317307 111.860711 
L 324.317307 111.860711 
L 324.317307 111.860711 
L 324.317307 111.860711 
L 324.317307 111.860711 
L 324.317307 111.860711 
L 324.317307 111.860711 
L 324.317307 111.860711 
L 324.317307 111.860711 
L 324.317307 111.860711 
L 324.317307 111.860711 
L 324.317307 111.860711 
L 324.317307 111.860711 
L 324.317307 111.860711 
L 324.317307 111.860711 
L 324.317307 111.860711 
L 324.317307 111.860711 
L 324.317307 111.860711 
L 324.317307 111.860711 
L 324.317307 111.860711 
L 324.317307 111.860711 
L 324.317307 111.860711 
L 324.317307 111.860711 
z
" clip-path="url(#pafae1f61f3)" style="fill: #1f77b4; fill-opacity: 0.3"/>
   </g>
   <g id="PathCollection_6">
    <g clip-path="url(#pafae1f61f3)">
     <use xlink:href="#m41ab97d4a8" x="313.742696" y="111.860711" style="fill: #1f77b4; stroke: #1f77b4"/>
    </g>
   </g>
   <g id="PolyCollection_7">
    <path d="M 357.603372 118.103252 
L 354.478905 118.103252 
L 354.365063 118.001393 
L 354.244177 117.899533 
L 354.115642 117.797673 
L 353.978864 117.695814 
L 353.833286 117.593954 
L 353.678411 117.492094 
L 353.513834 117.390235 
L 353.339263 117.288375 
L 353.154543 117.186515 
L 352.959681 117.084656 
L 352.754859 116.982796 
L 352.540452 116.880936 
L 352.317032 116.779077 
L 352.085375 116.677217 
L 351.846454 116.575357 
L 351.601433 116.473498 
L 351.351646 116.371638 
L 351.098582 116.269778 
L 350.843853 116.167919 
L 350.589164 116.066059 
L 350.336272 115.9642 
L 350.08695 115.86234 
L 349.842937 115.76048 
L 349.605897 115.658621 
L 349.377371 115.556761 
L 349.15873 115.454901 
L 348.951134 115.353042 
L 348.755491 115.251182 
L 348.57243 115.149322 
L 348.402266 115.047463 
L 348.244994 114.945603 
L 348.100278 114.843743 
L 347.967457 114.741884 
L 347.845565 114.640024 
L 347.733361 114.538164 
L 347.629371 114.436305 
L 347.531944 114.334445 
L 347.439314 114.232585 
L 347.349667 114.130726 
L 347.261227 114.028866 
L 347.172321 113.927007 
L 347.081468 113.825147 
L 346.98744 113.723287 
L 346.88933 113.621428 
L 346.786605 113.519568 
L 346.679141 113.417708 
L 346.567247 113.315849 
L 346.451667 113.213989 
L 346.333569 113.112129 
L 346.214512 113.01027 
L 346.096401 112.90841 
L 345.98142 112.80655 
L 345.871963 112.704691 
L 345.77055 112.602831 
L 345.679742 112.500971 
L 345.60205 112.399112 
L 345.539855 112.297252 
L 345.495329 112.195392 
L 345.470367 112.093533 
L 345.466528 111.991673 
L 345.484999 111.889814 
L 345.526564 111.787954 
L 345.591595 111.686094 
L 345.680053 111.584235 
L 345.791506 111.482375 
L 345.925157 111.380515 
L 346.079883 111.278656 
L 346.25428 111.176796 
L 346.44671 111.074936 
L 346.655359 110.973077 
L 346.878285 110.871217 
L 347.113473 110.769357 
L 347.358879 110.667498 
L 347.612477 110.565638 
L 347.872294 110.463778 
L 348.13645 110.361919 
L 348.403176 110.260059 
L 348.670844 110.158199 
L 348.937982 110.05634 
L 349.203286 109.95448 
L 349.465627 109.852621 
L 349.724056 109.750761 
L 349.977806 109.648901 
L 350.226284 109.547042 
L 350.469068 109.445182 
L 350.705895 109.343322 
L 350.936649 109.241463 
L 351.161342 109.139603 
L 351.3801 109.037743 
L 351.593136 108.935884 
L 351.800732 108.834024 
L 352.003213 108.732164 
L 352.200924 108.630305 
L 352.394206 108.528445 
L 352.583374 108.426585 
L 352.7687 108.324726 
L 352.95039 108.222866 
L 353.12858 108.121006 
L 353.30332 108.019147 
L 358.778956 108.019147 
L 358.778956 108.019147 
L 358.953696 108.121006 
L 359.131886 108.222866 
L 359.313577 108.324726 
L 359.498902 108.426585 
L 359.688071 108.528445 
L 359.881353 108.630305 
L 360.079064 108.732164 
L 360.281545 108.834024 
L 360.48914 108.935884 
L 360.702176 109.037743 
L 360.920934 109.139603 
L 361.145627 109.241463 
L 361.376381 109.343322 
L 361.613208 109.445182 
L 361.855992 109.547042 
L 362.10447 109.648901 
L 362.35822 109.750761 
L 362.616649 109.852621 
L 362.87899 109.95448 
L 363.144294 110.05634 
L 363.411432 110.158199 
L 363.679101 110.260059 
L 363.945827 110.361919 
L 364.209982 110.463778 
L 364.4698 110.565638 
L 364.723397 110.667498 
L 364.968803 110.769357 
L 365.203991 110.871217 
L 365.426918 110.973077 
L 365.635566 111.074936 
L 365.827997 111.176796 
L 366.002393 111.278656 
L 366.157119 111.380515 
L 366.290771 111.482375 
L 366.402224 111.584235 
L 366.490682 111.686094 
L 366.555712 111.787954 
L 366.597278 111.889814 
L 366.615749 111.991673 
L 366.61191 112.093533 
L 366.586947 112.195392 
L 366.542421 112.297252 
L 366.480227 112.399112 
L 366.402535 112.500971 
L 366.311726 112.602831 
L 366.210313 112.704691 
L 366.100856 112.80655 
L 365.985875 112.90841 
L 365.867764 113.01027 
L 365.748707 113.112129 
L 365.63061 113.213989 
L 365.51503 113.315849 
L 365.403135 113.417708 
L 365.295671 113.519568 
L 365.192946 113.621428 
L 365.094836 113.723287 
L 365.000808 113.825147 
L 364.909955 113.927007 
L 364.82105 114.028866 
L 364.732609 114.130726 
L 364.642963 114.232585 
L 364.550332 114.334445 
L 364.452905 114.436305 
L 364.348916 114.538164 
L 364.236712 114.640024 
L 364.11482 114.741884 
L 363.981999 114.843743 
L 363.837282 114.945603 
L 363.68001 115.047463 
L 363.509847 115.149322 
L 363.326785 115.251182 
L 363.131142 115.353042 
L 362.923546 115.454901 
L 362.704905 115.556761 
L 362.476379 115.658621 
L 362.239339 115.76048 
L 361.995327 115.86234 
L 361.746004 115.9642 
L 361.493112 116.066059 
L 361.238423 116.167919 
L 360.983694 116.269778 
L 360.73063 116.371638 
L 360.480844 116.473498 
L 360.235822 116.575357 
L 359.996901 116.677217 
L 359.765244 116.779077 
L 359.541825 116.880936 
L 359.327417 116.982796 
L 359.122595 117.084656 
L 358.927733 117.186515 
L 358.743013 117.288375 
L 358.568442 117.390235 
L 358.403865 117.492094 
L 358.248991 117.593954 
L 358.103412 117.695814 
L 357.966634 117.797673 
L 357.838099 117.899533 
L 357.717213 118.001393 
L 357.603372 118.103252 
z
" clip-path="url(#pafae1f61f3)" style="fill: #a52a2a; fill-opacity: 0.3"/>
   </g>
   <g id="PathCollection_7">
    <g clip-path="url(#pafae1f61f3)">
     <use xlink:href="#m6ecec21a99" x="356.041138" y="112.689048" style="fill: #a52a2a; stroke: #a52a2a"/>
    </g>
   </g>
   <g id="PolyCollection_8">
    <path d="M 399.878156 107.178805 
L 396.801004 107.178805 
L 396.713274 107.08604 
L 396.624809 106.993275 
L 396.535012 106.90051 
L 396.443099 106.807745 
L 396.348113 106.71498 
L 396.248955 106.622215 
L 396.144417 106.529449 
L 396.033222 106.436684 
L 395.914073 106.343919 
L 395.785698 106.251154 
L 395.646901 106.158389 
L 395.496603 106.065624 
L 395.333886 105.972859 
L 395.158025 105.880094 
L 394.96851 105.787329 
L 394.765066 105.694564 
L 394.54766 105.601799 
L 394.316499 105.509034 
L 394.072021 105.416269 
L 393.814885 105.323504 
L 393.545954 105.230739 
L 393.266273 105.137974 
L 392.977054 105.045209 
L 392.679657 104.952444 
L 392.375573 104.859679 
L 392.066416 104.766914 
L 391.753906 104.674149 
L 391.439864 104.581384 
L 391.126203 104.488619 
L 390.814913 104.395854 
L 390.508058 104.303089 
L 390.207751 104.210324 
L 389.916143 104.117558 
L 389.635389 104.024793 
L 389.367627 103.932028 
L 389.114939 103.839263 
L 388.879318 103.746498 
L 388.662628 103.653733 
L 388.466567 103.560968 
L 388.292628 103.468203 
L 388.142072 103.375438 
L 388.0159 103.282673 
L 387.914827 103.189908 
L 387.83928 103.097143 
L 387.789384 103.004378 
L 387.76497 102.911613 
L 387.765588 102.818848 
L 387.790525 102.726083 
L 387.838835 102.633318 
L 387.909366 102.540553 
L 388.000806 102.447788 
L 388.111718 102.355023 
L 388.24059 102.262258 
L 388.385878 102.169493 
L 388.546053 102.076728 
L 388.719641 101.983963 
L 388.905263 101.891198 
L 389.101665 101.798433 
L 389.307743 101.705667 
L 389.522556 101.612902 
L 389.745325 101.520137 
L 389.975428 101.427372 
L 390.212378 101.334607 
L 390.455791 101.241842 
L 390.705347 101.149077 
L 390.960746 101.056312 
L 391.221657 100.963547 
L 391.487672 100.870782 
L 391.758264 100.778017 
L 392.032749 100.685252 
L 392.310264 100.592487 
L 392.589754 100.499722 
L 392.869978 100.406957 
L 393.149522 100.314192 
L 393.426835 100.221427 
L 393.70027 100.128662 
L 393.968139 100.035897 
L 394.228768 99.943132 
L 394.480564 99.850367 
L 394.722065 99.757602 
L 394.952001 99.664837 
L 395.169336 99.572072 
L 395.373302 99.479307 
L 395.563422 99.386542 
L 395.739519 99.293776 
L 395.901707 99.201011 
L 396.050382 99.108246 
L 396.18619 99.015481 
L 396.309988 98.922716 
L 396.422809 98.829951 
L 396.525809 98.737186 
L 396.620222 98.644421 
L 396.707311 98.551656 
L 396.788324 98.458891 
L 396.86445 98.366126 
L 396.936788 98.273361 
L 397.006314 98.180596 
L 397.073864 98.087831 
L 397.140113 97.995066 
L 399.539047 97.995066 
L 399.539047 97.995066 
L 399.605296 98.087831 
L 399.672846 98.180596 
L 399.742373 98.273361 
L 399.81471 98.366126 
L 399.890836 98.458891 
L 399.971849 98.551656 
L 400.058938 98.644421 
L 400.153351 98.737186 
L 400.256352 98.829951 
L 400.369172 98.922716 
L 400.492971 99.015481 
L 400.628778 99.108246 
L 400.777453 99.201011 
L 400.939642 99.293776 
L 401.115738 99.386542 
L 401.305858 99.479307 
L 401.509824 99.572072 
L 401.727159 99.664837 
L 401.957096 99.757602 
L 402.198597 99.850367 
L 402.450392 99.943132 
L 402.711022 100.035897 
L 402.97889 100.128662 
L 403.252325 100.221427 
L 403.529638 100.314192 
L 403.809182 100.406957 
L 404.089406 100.499722 
L 404.368896 100.592487 
L 404.646411 100.685252 
L 404.920897 100.778017 
L 405.191488 100.870782 
L 405.457503 100.963547 
L 405.718414 101.056312 
L 405.973813 101.149077 
L 406.223369 101.241842 
L 406.466782 101.334607 
L 406.703732 101.427372 
L 406.933835 101.520137 
L 407.156604 101.612902 
L 407.371417 101.705667 
L 407.577495 101.798433 
L 407.773897 101.891198 
L 407.959519 101.983963 
L 408.133107 102.076728 
L 408.293282 102.169493 
L 408.43857 102.262258 
L 408.567442 102.355023 
L 408.678354 102.447788 
L 408.769794 102.540553 
L 408.840325 102.633318 
L 408.888635 102.726083 
L 408.913572 102.818848 
L 408.914191 102.911613 
L 408.889776 103.004378 
L 408.83988 103.097143 
L 408.764333 103.189908 
L 408.663261 103.282673 
L 408.537088 103.375438 
L 408.386532 103.468203 
L 408.212594 103.560968 
L 408.016532 103.653733 
L 407.799842 103.746498 
L 407.564221 103.839263 
L 407.311534 103.932028 
L 407.043771 104.024793 
L 406.763018 104.117558 
L 406.471409 104.210324 
L 406.171102 104.303089 
L 405.864247 104.395854 
L 405.552958 104.488619 
L 405.239296 104.581384 
L 404.925254 104.674149 
L 404.612744 104.766914 
L 404.303587 104.859679 
L 403.999503 104.952444 
L 403.702106 105.045209 
L 403.412887 105.137974 
L 403.133206 105.230739 
L 402.864275 105.323504 
L 402.607139 105.416269 
L 402.362661 105.509034 
L 402.1315 105.601799 
L 401.914094 105.694564 
L 401.710651 105.787329 
L 401.521136 105.880094 
L 401.345274 105.972859 
L 401.182557 106.065624 
L 401.032259 106.158389 
L 400.893462 106.251154 
L 400.765087 106.343919 
L 400.645938 106.436684 
L 400.534743 106.529449 
L 400.430205 106.622215 
L 400.331047 106.71498 
L 400.236062 106.807745 
L 400.144148 106.90051 
L 400.054351 106.993275 
L 399.965886 107.08604 
L 399.878156 107.178805 
z
" clip-path="url(#pafae1f61f3)" style="fill: #008000; fill-opacity: 0.3"/>
   </g>
   <g id="PathCollection_8">
    <g clip-path="url(#pafae1f61f3)">
     <use xlink:href="#m09f43fe826" x="398.33958" y="102.732995" style="fill: #008000; stroke: #008000"/>
    </g>
   </g>
   <g id="matplotlib.axis_3">
    <g id="xtick_5">
     <g id="line2d_16">
      <g>
       <use xlink:href="#m6809fc69f6" x="271.444254" y="242.946877" style="stroke: #000000; stroke-width: 0.8"/>
      </g>
     </g>
     <g id="text_13">
      <!-- Untrained -->
      <g style="fill: #d2691e" transform="translate(249.769126 301.249173) rotate(-50) scale(0.12 -0.12)">
       <use xlink:href="#DejaVuSans-55"/>
       <use xlink:href="#DejaVuSans-6e" x="73.193359"/>
       <use xlink:href="#DejaVuSans-74" x="136.572266"/>
       <use xlink:href="#DejaVuSans-72" x="175.78125"/>
       <use xlink:href="#DejaVuSans-61" x="216.894531"/>
       <use xlink:href="#DejaVuSans-69" x="278.173828"/>
       <use xlink:href="#DejaVuSans-6e" x="305.957031"/>
       <use xlink:href="#DejaVuSans-65" x="369.335938"/>
       <use xlink:href="#DejaVuSans-64" x="430.859375"/>
      </g>
      <!-- model -->
      <g style="fill: #d2691e" transform="translate(267.11815 301.478256) rotate(-50) scale(0.12 -0.12)">
       <use xlink:href="#DejaVuSans-6d"/>
       <use xlink:href="#DejaVuSans-6f" x="97.412109"/>
       <use xlink:href="#DejaVuSans-64" x="158.59375"/>
       <use xlink:href="#DejaVuSans-65" x="222.070312"/>
       <use xlink:href="#DejaVuSans-6c" x="283.59375"/>
      </g>
     </g>
    </g>
    <g id="xtick_6">
     <g id="line2d_17">
      <g>
       <use xlink:href="#m6809fc69f6" x="313.742696" y="242.946877" style="stroke: #000000; stroke-width: 0.8"/>
      </g>
     </g>
     <g id="text_14">
      <!-- Masked -->
      <g style="fill: #1f77b4" transform="translate(296.517265 294.973832) rotate(-50) scale(0.12 -0.12)">
       <use xlink:href="#DejaVuSans-4d"/>
       <use xlink:href="#DejaVuSans-61" x="86.279297"/>
       <use xlink:href="#DejaVuSans-73" x="147.558594"/>
       <use xlink:href="#DejaVuSans-6b" x="199.658203"/>
       <use xlink:href="#DejaVuSans-65" x="253.943359"/>
       <use xlink:href="#DejaVuSans-64" x="315.466797"/>
      </g>
      <!-- raw input -->
      <g style="fill: #1f77b4" transform="translate(303.177133 307.941756) rotate(-50) scale(0.12 -0.12)">
       <use xlink:href="#DejaVuSans-72"/>
       <use xlink:href="#DejaVuSans-61" x="41.113281"/>
       <use xlink:href="#DejaVuSans-77" x="102.392578"/>
       <use xlink:href="#DejaVuSans-20" x="184.179688"/>
       <use xlink:href="#DejaVuSans-69" x="215.966797"/>
       <use xlink:href="#DejaVuSans-6e" x="243.75"/>
       <use xlink:href="#DejaVuSans-70" x="307.128906"/>
       <use xlink:href="#DejaVuSans-75" x="370.605469"/>
       <use xlink:href="#DejaVuSans-74" x="433.984375"/>
      </g>
     </g>
    </g>
    <g id="xtick_7">
     <g id="line2d_18">
      <g>
       <use xlink:href="#m6809fc69f6" x="356.041138" y="242.946877" style="stroke: #000000; stroke-width: 0.8"/>
      </g>
     </g>
     <g id="text_15">
      <!-- LPL -->
      <g style="fill: #a52a2a" transform="translate(351.954379 271.594635) rotate(-50) scale(0.12 -0.12)">
       <use xlink:href="#DejaVuSans-4c"/>
       <use xlink:href="#DejaVuSans-50" x="55.712891"/>
       <use xlink:href="#DejaVuSans-4c" x="116.015625"/>
      </g>
     </g>
    </g>
    <g id="xtick_8">
     <g id="line2d_19">
      <g>
       <use xlink:href="#m6809fc69f6" x="398.33958" y="242.946877" style="stroke: #000000; stroke-width: 0.8"/>
      </g>
     </g>
     <g id="text_16">
      <!-- TCLoSeR -->
      <g style="fill: #008000" transform="translate(384.11144 295.766688) rotate(-50) scale(0.12 -0.12)">
       <use xlink:href="#DejaVuSans-54"/>
       <use xlink:href="#DejaVuSans-43" x="55.208984"/>
       <use xlink:href="#DejaVuSans-4c" x="125.033203"/>
       <use xlink:href="#DejaVuSans-6f" x="178.996094"/>
       <use xlink:href="#DejaVuSans-53" x="240.177734"/>
       <use xlink:href="#DejaVuSans-65" x="303.654297"/>
       <use xlink:href="#DejaVuSans-52" x="365.177734"/>
      </g>
     </g>
    </g>
   </g>
   <g id="matplotlib.axis_4">
    <g id="ytick_5">
     <g id="line2d_20">
      <g>
       <use xlink:href="#m8b46d30c71" x="253.467416" y="204.115869" style="stroke: #000000; stroke-width: 0.8"/>
      </g>
     </g>
    </g>
    <g id="ytick_6">
     <g id="line2d_21">
      <g>
       <use xlink:href="#m8b46d30c71" x="253.467416" y="152.341191" style="stroke: #000000; stroke-width: 0.8"/>
      </g>
     </g>
    </g>
    <g id="ytick_7">
     <g id="line2d_22">
      <g>
       <use xlink:href="#m8b46d30c71" x="253.467416" y="100.566513" style="stroke: #000000; stroke-width: 0.8"/>
      </g>
     </g>
    </g>
    <g id="ytick_8">
     <g id="line2d_23">
      <g>
       <use xlink:href="#m8b46d30c71" x="253.467416" y="48.791835" style="stroke: #000000; stroke-width: 0.8"/>
      </g>
     </g>
    </g>
   </g>
   <g id="line2d_24">
    <path d="M 317.97254 72.107727 
L 394.109736 72.107727 
" clip-path="url(#pafae1f61f3)" style="fill: none; stroke: #000000; stroke-linecap: square"/>
   </g>
   <g id="line2d_25">
    <path d="M 317.97254 78.579562 
L 317.97254 72.107727 
" clip-path="url(#pafae1f61f3)" style="fill: none; stroke: #000000; stroke-linecap: square"/>
   </g>
   <g id="line2d_26">
    <path d="M 394.109736 78.579562 
L 394.109736 72.107727 
" clip-path="url(#pafae1f61f3)" style="fill: none; stroke: #000000; stroke-linecap: square"/>
   </g>
   <g id="line2d_27">
    <path d="M 360.270982 85.051396 
L 394.109736 85.051396 
" clip-path="url(#pafae1f61f3)" style="fill: none; stroke: #000000; stroke-linecap: square"/>
   </g>
   <g id="line2d_28">
    <path d="M 360.270982 91.523231 
L 360.270982 85.051396 
" clip-path="url(#pafae1f61f3)" style="fill: none; stroke: #000000; stroke-linecap: square"/>
   </g>
   <g id="line2d_29">
    <path d="M 394.109736 91.523231 
L 394.109736 85.051396 
" clip-path="url(#pafae1f61f3)" style="fill: none; stroke: #000000; stroke-linecap: square"/>
   </g>
   <g id="line2d_30">
    <path d="M 253.467416 238.632321 
L 416.316418 238.632321 
" clip-path="url(#pafae1f61f3)" style="fill: none; stroke-dasharray: 1.5,2.475; stroke-dashoffset: 0; stroke: #000000; stroke-width: 1.5"/>
   </g>
   <g id="patch_6">
    <path d="M 253.467416 242.946877 
L 253.467416 42.32 
" style="fill: none; stroke: #000000; stroke-width: 0.8; stroke-linejoin: miter; stroke-linecap: square"/>
   </g>
   <g id="patch_7">
    <path d="M 253.467416 242.946877 
L 416.316418 242.946877 
" style="fill: none; stroke: #000000; stroke-width: 0.8; stroke-linejoin: miter; stroke-linecap: square"/>
   </g>
   <g id="text_17">
    <!-- ∗∗∗ -->
    <g transform="translate(343.471607 68.395267) scale(0.1 -0.1)">
     <use xlink:href="#DejaVuSans-2217"/>
     <use xlink:href="#DejaVuSans-2217" x="83.789062"/>
     <use xlink:href="#DejaVuSans-2217" x="167.578125"/>
    </g>
   </g>
   <g id="text_18">
    <!-- ∗∗∗ -->
    <g transform="translate(364.620828 81.338937) scale(0.1 -0.1)">
     <use xlink:href="#DejaVuSans-2217"/>
     <use xlink:href="#DejaVuSans-2217" x="83.789062"/>
     <use xlink:href="#DejaVuSans-2217" x="167.578125"/>
    </g>
   </g>
   <g id="text_19">
    <!-- Ensemble -->
    <g transform="translate(298.480413 22.32) scale(0.1485 -0.1485)">
     <defs>
      <path id="DejaVuSans-45" d="M 628 4666 
L 3578 4666 
L 3578 4134 
L 1259 4134 
L 1259 2753 
L 3481 2753 
L 3481 2222 
L 1259 2222 
L 1259 531 
L 3634 531 
L 3634 0 
L 628 0 
L 628 4666 
z
" transform="scale(0.015625)"/>
      <path id="DejaVuSans-62" d="M 3116 1747 
Q 3116 2381 2855 2742 
Q 2594 3103 2138 3103 
Q 1681 3103 1420 2742 
Q 1159 2381 1159 1747 
Q 1159 1113 1420 752 
Q 1681 391 2138 391 
Q 2594 391 2855 752 
Q 3116 1113 3116 1747 
z
M 1159 2969 
Q 1341 3281 1617 3432 
Q 1894 3584 2278 3584 
Q 2916 3584 3314 3078 
Q 3713 2572 3713 1747 
Q 3713 922 3314 415 
Q 2916 -91 2278 -91 
Q 1894 -91 1617 61 
Q 1341 213 1159 525 
L 1159 0 
L 581 0 
L 581 4863 
L 1159 4863 
L 1159 2969 
z
" transform="scale(0.015625)"/>
     </defs>
     <use xlink:href="#DejaVuSans-45"/>
     <use xlink:href="#DejaVuSans-6e" x="63.183594"/>
     <use xlink:href="#DejaVuSans-73" x="126.5625"/>
     <use xlink:href="#DejaVuSans-65" x="178.662109"/>
     <use xlink:href="#DejaVuSans-6d" x="240.185547"/>
     <use xlink:href="#DejaVuSans-62" x="337.597656"/>
     <use xlink:href="#DejaVuSans-6c" x="401.074219"/>
     <use xlink:href="#DejaVuSans-65" x="428.857422"/>
    </g>
   </g>
  </g>
 </g>
 <defs>
  <clipPath id="pc329fcc53f">
   <rect x="62.03" y="42.32" width="162.849001" height="200.626877"/>
  </clipPath>
  <clipPath id="pafae1f61f3">
   <rect x="253.467416" y="42.32" width="162.849001" height="200.626877"/>
  </clipPath>
 </defs>
</svg>
